<?xml version="1.0" encoding="UTF-8" standalone="no"?>
<!-- Created with Inkscape (http://www.inkscape.org/) -->

<svg
   width="32"
   height="32"
   viewBox="0 0 32 32"
   version="1.1"
   id="svg1"
   xmlns="http://www.w3.org/2000/svg"
   xmlns:svg="http://www.w3.org/2000/svg">
  <defs
     id="defs1" />
  <g
     id="layer1">
    <path
       style="opacity:1;fill:#000000;stroke-width:4;stroke-linecap:round;stroke-linejoin:round;stroke-miterlimit:10000;paint-order:fill markers stroke"
       d="M 0.90136611,8.1856174 C 3.6077394,5.4384139 10.841304,-0.97938437 15.096249,0.12684061 20.210088,1.4563663 15.86527,7.9885354 14.516866,10.520403 c -3.015477,5.662085 -2.658101,4.130094 -4.055682,9.113197 -0.190574,0.679497 -0.8935916,2.928419 -0.289691,3.765784 0.688249,0.954319 2.574198,1.374494 3.403875,1.506313 7.091618,1.126718 9.017216,-5.278854 14.412153,-7.230304 1.926868,-0.696987 3.713283,0.08874 3.983255,2.334786 0.188517,1.568368 -0.574426,3.454215 -1.158764,4.66957 -1.95465,4.065448 -5.29199,6.585503 -9.632243,7.230306 -1.362204,0.202374 -2.752069,0 -4.128104,0 -3.192358,0 -4.66209,-0.267544 -7.2422865,-2.184154 -2.9650443,-2.202486 -1.6017282,-4.179999 1.3036125,-6.10057 5.048491,-3.337305 10.204651,-4.995585 15.715762,-7.079673 0.731351,-0.276569 2.347137,-0.826368 0.941498,-1.73226 C 23.900712,12.319588 15.167729,8.3195424 10.388761,9.8425621 7.907822,10.633218 8.1655383,11.1951 6.2606584,12.779873 5.5320468,13.386046 3.3348847,14.97537 2.2774007,15.641868 2.1656203,15.712321 0.77881664,16.701269 0.39440611,16.244395 0.05587363,15.842047 0.04482262,14.488172 0.03229162,14.286187 -0.21661314,10.274058 0.95131829,10.215644 4.3052412,8.4115645 4.5985538,8.2537909 7.2652479,7.2624225 7.1297329,6.9805667 6.7215663,6.1316265 5.0096377,6.453357 4.3776638,6.453357 c -1.2599525,0 -2.8901144,-0.1166472 -3.83841197,0.9791037 -0.58081174,0.6711236 -0.89449763,2.2233125 0.36211428,0.7531567 z"
       id="path1" />
  </g>
</svg>
