<?xml version="1.0" encoding="UTF-8" standalone="no"?>
<!-- Created with Inkscape (http://www.inkscape.org/) -->

<svg
   width="256"
   height="256"
   viewBox="0 0 256 256"
   version="1.1"
   id="svg1"
   xmlns="http://www.w3.org/2000/svg"
   xmlns:svg="http://www.w3.org/2000/svg">
  <defs
     id="defs1" />
  <path
     id="path205"
     style="font-weight:500;font-size:952.114px;line-height:1;font-family:MetaPro;-inkscape-font-specification:'MetaPro Medium';text-decoration-color:#000000;letter-spacing:84.4325px;word-spacing:0px;fill:#000000;stroke-width:20.0001;stroke-linecap:round;stroke-linejoin:round;stroke-miterlimit:10000;paint-order:stroke fill markers"
     d="m 10.932376,73.81599 c -0.09641,-0.04943 -0.19474,-0.0017 -0.292246,-0.0121 -0.8570069,0.04372 -1.7417279,0.220714 -2.6047079,0.131934 -0.504388,-0.05746 -1.026179,-0.242901 -1.420688,-0.654617 -0.328754,-0.332942 -0.522457,-0.81164 -0.789225,-1.207561 -0.07049,-0.09787 -0.151284,-0.181805 -0.255719,-0.216658 -0.117411,-0.03258 -0.241183,0.01389 -0.344829,0.07295 -0.1296,0.07865 -0.249353,0.183927 -0.362256,0.297056 -0.072,0.0923 -0.112116,0.219526 -0.164776,0.32595 -0.35638,0.815182 -0.598816,1.682372 -0.849781,2.540079 -0.692278,2.381202 -1.27632,4.734259 -1.824077,7.090778 -1.005207,4.422594 -1.66665799,8.927053 -1.90743099,13.520983 -0.280951,5.286236 -0.06971,10.795876 0.80142,16.478246 0.05933,0.35829 0.10048399,0.71189 0.21108199,1.06719 0.05499,0.18203 0.189915,0.3329 0.301691,0.48986 0.108812,0.1404 0.23815,0.28377 0.400565,0.35018 0.122748,0.0127 0.177341,-0.10645 0.229894,-0.18986 0.107525,-0.19867 0.16937,-0.42619 0.208704,-0.65746 0.01059,-0.20093 -0.02776,-0.42597 -0.04648,-0.637 -0.08683,-0.76512 -0.197481,-1.52821 -0.276929,-2.28501 -0.775824,-6.90465 -0.82932,-13.445484 0.06769,-19.752691 0.325444,-2.257294 0.756296,-4.470362 1.454369,-6.585076 0.205432,-0.606746 0.430385,-1.204313 0.720762,-1.756151 0.258164,-0.470342 0.562224,-0.906331 0.928231,-1.26257 0.243194,-0.232848 0.524994,-0.405477 0.81076,-0.563156 0.270476,-0.160593 0.534097,-0.334139 0.827099,-0.444439 0.350522,-0.13847 0.728659,-0.224241 1.120911,-0.169077 0.349661,0.05212 0.703569,0.244331 0.965979,0.548732 0.357508,0.401553 0.571191,0.920113 0.730826,1.41911 0.116761,0.351126 0.205494,0.711307 0.218038,1.06262 0.02757,0.498147 -0.01702,0.974596 -0.04278,1.456752 -0.0872,1.3047 -0.228379,2.579878 -0.340024,3.857147 -0.191505,2.019581 -0.342504,4.059258 -0.402055,6.101343 -0.116906,3.703144 0.02959,7.513906 0.530713,11.416676 0.314516,2.47508 0.7542359,5.01967 1.4029189,7.60149 0.07944,0.24361 0.135156,0.49846 0.331471,0.72524 0.168065,0.18006 0.356952,0.38008 0.608667,0.45995 0.133994,0.0198 0.198194,-0.0803 0.251213,-0.155 0.09107,-0.14983 0.155086,-0.31677 0.181749,-0.49471 0.005,-0.18012 -0.04184,-0.37049 -0.0677,-0.55537 -0.105667,-0.59608 -0.24152,-1.19241 -0.350707,-1.78358 -0.999818,-5.19259 -1.518319,-10.14315 -1.428309,-14.929252 0.04082,-2.06064 0.189427,-4.081229 0.484388,-6.060394 0.162026,-1.053249 0.362069,-2.090204 0.669001,-3.083638 0.224315,-0.696913 0.503598,-1.368621 0.893446,-1.961687 0.609693,-0.897963 1.497562,-1.563914 2.550791,-1.935077 0.41808,-0.125667 0.904488,-0.158099 1.402095,0.02209 0.454304,0.168364 0.865661,0.525036 1.152725,0.913013 0.276245,0.362903 0.487913,0.752714 0.648436,1.138411 0.129818,0.379061 0.159401,0.744943 0.196073,1.107847 0.07391,0.883583 0.06784,1.729377 0.06171,2.580275 -0.01432,1.328907 -0.04944,2.720472 -0.04315,4.042086 0.0033,2.548748 0.121028,5.146318 0.423997,7.777756 0.454404,3.97766 1.303313,8.12304 2.674275,12.41081 l 0.0051,0.0158 c 0.110872,0.33554 0.21211,0.67384 0.365304,1.01328 0.06738,0.14165 0.157341,0.30284 0.316365,0.43506 0.171578,0.15753 0.355334,0.32554 0.595781,0.42945 0.09749,0.0399 0.18038,0.0191 0.227519,-0.0208 0.1221,-0.091 0.172517,-0.2241 0.226925,-0.34914 0.05215,-0.12249 0.07023,-0.25945 0.02558,-0.40721 -0.120136,-0.58156 -0.329312,-1.17368 -0.486606,-1.7557 -1.922087,-6.70463 -2.847967,-13.026413 -2.813107,-19.051588 0.0084,-1.992043 0.121828,-3.976384 0.294434,-5.94306 0.112716,-1.341787 0.238442,-2.635707 0.314734,-4.019771 0.04432,-0.83167 0.05378,-1.680984 -0.131927,-2.590005 l -0.0025,-0.01149 c -0.09586,-0.437862 -0.191215,-0.868362 -0.356698,-1.316534 -0.135288,-0.355 -0.301186,-0.72576 -0.575432,-1.042296 -0.180708,-0.211422 -0.418577,-0.382141 -0.6687,-0.469638 -0.333806,-0.121187 -0.661987,-0.129951 -0.972754,-0.105209 -0.430103,0.03605 -0.838595,0.130488 -1.233079,0.246281 -0.779787,0.233712 -1.528959,0.586855 -2.366677,0.709217 -0.312484,0.04298 -0.670064,0.0205 -0.98415,-0.177793 -0.361704,-0.226053 -0.610828,-0.614846 -0.750082,-1.010959 -0.12865,-0.359803 -0.214036,-0.728816 -0.326545,-1.094404 -0.224151,-0.780284 -0.417004,-1.58788 -0.748227,-2.348896 -0.141423,-0.306903 -0.324957,-0.627876 -0.602999,-0.788937 z m 107.856684,34.28982 c -0.93496,-0.15716 -1.64428,-0.1605 -2.22704,-0.12995 -0.20863,0.0112 -0.40717,0.0261 -0.59803,0.0438 -0.98948,0.0918 -1.77403,0.2598 -2.67982,0.37561 -0.71608,0.0976 -1.48462,0.17824 -2.50947,0.13822 -0.0887,-0.005 -0.18221,-0.0127 -0.27967,-0.0228 -0.64357,-0.0664 -1.45696,-0.23832 -2.19268,-0.47162 -1.01189,-0.31324 -1.8414,-0.67819 -2.572,-1.02455 -0.87522,-0.40817 -1.77208,-0.81438 -2.67432,-1.2172 -0.82789,-0.36472 -1.67411,-0.72576 -2.61777,-1.06918 -0.52792,-0.18806 -1.121817,-0.37736 -1.683655,-0.48732 -0.336091,-0.0655 -0.608535,-0.0812 -0.850698,-0.0861 -0.740544,-0.0275 -1.383696,-0.006 -2.131219,-0.0391 -1.001021,-0.0257 -2.092677,-0.0856 -3.388776,-0.30723 -1.043585,-0.18029 -2.216693,-0.49471 -3.233072,-0.87291 -0.562634,-0.19536 -1.123137,-0.40004 -1.70645,-0.57 -0.327839,-0.0917 -0.665215,-0.15222 -0.878021,-0.1442 -0.269028,0.002 -0.427427,0.0568 -0.568071,0.11332 0.0029,0.0272 0.0076,0.0549 0.01372,0.0829 v 0 c 0.03727,0.16942 0.130175,0.35186 0.233839,0.53822 0.103057,0.17681 0.226262,0.3578 0.353979,0.54016 0.117029,0.16711 0.238404,0.33614 0.349812,0.50212 0.962039,1.38801 1.939781,2.79479 2.851829,4.18153 0.528905,0.80129 1.021879,1.59645 1.54853,2.40127 2.280241,3.51532 4.72491,7.14562 7.497069,10.86913 1.287624,1.72585 2.647024,3.47701 4.132844,5.27196 0.21376,0.25267 0.4367,0.50567 0.75439,0.78007 0.22712,0.12365 0.46843,0.24855 0.71784,0.37343 0.23703,0.11519 0.50526,0.23877 0.82157,0.33951 0.25478,0.063 0.34538,0.0214 0.44324,0.001 0.18695,-0.0541 0.27083,-0.14612 0.31292,-0.2486 -0.0164,-0.13545 -0.15385,-0.29989 -0.24851,-0.45606 -0.42801,-0.62431 -0.93382,-1.26484 -1.38724,-1.8916 -2.37122,-3.21566 -4.650342,-6.34758 -6.62139,-9.39293 -0.966979,-1.50113 -1.86285,-2.96787 -2.581749,-4.39469 -0.343499,-0.69889 -0.648083,-1.38471 -0.809688,-2.03525 -0.08795,-0.39725 -0.101869,-0.77683 0.124405,-1.08563 0.187995,-0.2074 0.555187,-0.35684 0.94696,-0.4947 0.609153,-0.19241 1.429975,-0.31338 2.570495,-0.28421 0.688993,0.0164 1.548928,0.1061 2.537087,0.32288 0.69444,0.14957 1.427,0.36365 2.08673,0.5992 0.80105,0.28358 1.52094,0.5922 2.1241,0.89402 0.87351,0.44759 1.44846,0.86794 1.99454,1.27924 0.7862,0.60628 1.42059,1.18751 2.0019,1.76055 0.88939,0.89469 1.62072,1.75623 2.35002,2.62435 1.19961,1.44349 2.30973,2.86594 3.4317,4.3083 2.34942,3.03041 4.63255,6.07956 7.10729,9.211 0.79643,1.00351 1.58573,2.00236 2.48278,3.03895 0.18144,0.18943 0.29543,0.36865 0.62299,0.59367 0.1761,0.106 0.41152,0.21933 0.59575,0.3268 0.23492,0.12439 0.5154,0.26414 0.85998,0.38119 0.32002,0.0923 0.47257,0.0677 0.59298,0.0497 0.20753,-0.0328 0.37039,-0.0865 0.40336,-0.18344 -0.0461,-0.15757 -0.1719,-0.33787 -0.28747,-0.51484 -0.28744,-0.4084 -0.59641,-0.82199 -0.89314,-1.23172 -2.79203,-3.81639 -5.70327,-7.61119 -8.27188,-11.27259 -1.00803,-1.44559 -1.9776,-2.86751 -2.73891,-4.24167 -0.36431,-0.66557 -0.68099,-1.3178 -0.82365,-1.92759 -0.0505,-0.23541 -0.0468,-0.45782 0.0496,-0.65405 0.0454,-0.0924 0.11132,-0.17893 0.20181,-0.25836 0.30373,-0.33449 0.7807,-0.62234 1.61174,-0.78835 0.36175,-0.075 0.79402,-0.12472 1.23936,-0.16928 0.54435,-0.0502 1.2435,-0.0474 2.11289,0.0534 0.14533,0.0169 0.29549,0.0365 0.45056,0.059 0.77211,0.11074 1.68059,0.32041 2.52783,0.57972 1.25195,0.3823 2.36427,0.83408 3.23103,1.26669 1.19343,0.59427 1.97352,1.15295 2.6687,1.69124 0.9217,0.72101 1.6165,1.40373 2.32942,2.09183 2.0164,1.98148 3.69878,3.90729 5.30067,5.83224 1.78279,2.15177 3.45913,4.29972 5.09961,6.45063 1.93067,2.53606 4.39753,5.89198 6.37645,8.49206 0.19896,0.2487 0.37722,0.49134 0.70861,0.77848 0.27587,0.20797 0.70179,0.45973 1.20672,0.70634 0.30139,0.1454 0.75024,0.29769 0.97821,0.31371 0.38433,0.0446 0.48627,-0.0437 0.5901,-0.12207 0.0919,-0.11195 -0.0502,-0.30691 -0.14241,-0.48293 -0.34847,-0.60868 -0.8109,-1.24087 -1.21939,-1.86544 -4.27658,-6.34829 -9.07029,-12.68351 -14.73391,-19.09317 -0.96218,-1.09167 -1.9485,-2.1825 -3.09515,-3.30046 -0.78288,-0.76558 -1.61918,-1.53968 -2.54789,-2.32355 -0.58008,-0.48551 -1.17734,-0.96939 -1.91904,-1.47459 -0.56357,-0.37345 -1.22836,-0.75684 -1.91392,-1.1381 -1.04629,-0.57349 -2.27089,-1.15658 -3.73349,-1.71516 -0.73994,-0.28291 -1.63482,-0.55435 -2.49099,-0.72058 -0.10077,-0.0199 -0.1999,-0.0379 -0.29704,-0.0538 z M 71.241342,98.102013 c -0.379793,-0.0768 -0.693802,-0.09708 -1.04782,-0.14996 -1.147212,-0.148305 -2.326403,-0.296626 -3.595567,-0.595932 -1.034403,-0.236263 -2.121193,-0.590441 -3.100856,-1.014247 -0.348559,-0.148643 -0.679166,-0.306097 -1.011151,-0.46183 -0.239879,-0.100427 -0.532907,-0.211606 -0.742474,-0.217231 -0.272438,-0.0123 -0.39833,0.06595 -0.528367,0.13345 -0.08415,0.04746 -0.150868,0.103705 -0.133191,0.18791 -0.0032,0.447915 0.20307,0.954529 0.383427,1.454041 0.594615,1.615025 1.254219,3.237486 1.838761,4.842566 1.047959,2.77288 2.259619,5.64172 3.781348,8.56144 1.57668,3.03183 3.432268,6.1791 5.751051,9.44981 0.273995,0.38146 0.543586,0.76425 0.838506,1.15078 0.10203,0.12033 0.195959,0.24091 0.344341,0.36261 0.06304,0.0579 0.172175,0.12094 0.289004,0.18232 0.292889,0.16116 0.588843,0.33603 0.995754,0.47047 0.133274,0.0453 0.251502,0.0483 0.312428,0.0289 0.17907,-0.0436 0.246994,-0.13164 0.31374,-0.21572 0.06068,-0.0927 0.09708,-0.18862 0.03061,-0.31292 -0.10348,-0.21762 -0.260517,-0.44899 -0.400261,-0.67459 -0.576047,-0.88854 -1.141136,-1.76882 -1.686861,-2.64203 -2.420818,-3.86741 -4.493632,-7.5383 -5.85992,-11.05659 -0.467373,-1.22262 -0.849142,-2.41185 -0.962558,-3.5316 -0.05885,-0.59136 -0.0242,-1.15844 0.350094,-1.60839 0.172559,-0.21166 0.380619,-0.41167 0.722391,-0.55573 0.291259,-0.12142 0.693918,-0.19355 1.185169,-0.21482 0.622337,-0.0395 1.333102,-0.0298 1.897163,-0.0994 0.547525,-0.0967 0.764366,-0.33497 0.926916,-0.58067 0.143634,-0.22193 0.194597,-0.47369 0.199526,-0.73801 0.01817,-0.345098 0.0091,-0.695807 -0.05709,-1.064194 -0.06082,-0.234526 -0.167672,-0.482393 -0.32766,-0.739722 -0.02263,-0.04273 -0.145749,-0.09606 -0.215519,-0.144171 -0.126467,-0.07644 -0.307081,-0.161735 -0.490947,-0.206669 z M 249.63387,128.02948 c -3.36751,0.0459 -6.45579,0.16893 -10.14065,-0.13538 -2.40292,-0.21018 -5.01334,-0.60293 -7.65641,-1.2733 -1.62815,-0.40505 -3.23261,-0.87322 -4.84174,-1.27837 -0.51746,-0.10875 -0.92349,-0.0773 -1.0738,0.0325 -0.39934,0.19051 -0.47551,0.48669 -0.49896,0.78434 0.0737,0.28 0.40041,0.60804 0.60062,0.91075 1.04459,1.3479 2.45953,2.75203 3.65619,4.12903 3.18088,3.56585 5.99803,7.07486 8.24613,10.50886 5.04068,7.54836 8.40297,14.79717 10.43303,21.63194 1.04092,3.50704 1.70389,6.91267 2.03166,10.21055 0.26818,2.63936 0.33188,5.23852 0.24725,7.7898 0.0223,0.34242 -0.0369,0.65954 0.35053,1.16772 0.27811,0.3894 0.63618,0.82182 1.17952,1.27572 0.18359,0.15143 0.44264,0.28521 0.61326,0.31085 0.42224,0.0979 0.68354,0.0523 0.95447,0.0194 0.31923,-0.0465 0.5901,-0.13801 0.6427,-0.36187 0.19773,-0.49539 0.26552,-1.05504 0.36237,-1.60256 0.47237,-3.10955 0.5345,-6.37104 0.1986,-9.77426 -0.5668,-5.79886 -2.24325,-11.88492 -4.69646,-18.24321 -1.09145,-2.87422 -2.34448,-5.89004 -3.09345,-8.68093 -0.394,-1.61483 -0.40594,-3.14151 0.29045,-4.46362 0.42506,-0.72399 1.33885,-1.31403 3.01244,-1.55521 0.81247,-0.1336 1.61176,-0.28028 2.43597,-0.42016 1.02927,-0.14504 1.95576,-0.36953 2.36039,-0.80789 0.55146,-0.49243 0.73177,-1.12246 0.75202,-1.79614 -0.0349,-0.74185 -0.33034,-1.54539 -0.60265,-2.35064 -0.36626,-1.00882 -0.8128,-2.04213 -1.41787,-3.10569 -0.50314,-0.74426 -1.0652,-1.49709 -1.87944,-2.27677 -0.53288,-0.23203 -1.06336,-0.52667 -1.73877,-0.64037 -0.26739,-0.0266 -0.48358,2.7e-4 -0.72731,-0.005 z M 33.747095,86.437551 c -0.169396,-0.05147 -0.303336,-0.01682 -0.404839,0.02715 -0.13215,0.06812 -0.221072,0.169705 -0.289974,0.279407 -0.08054,0.187069 -0.105373,0.398169 -0.144637,0.606092 -0.09349,0.599603 -0.152378,1.202766 -0.215879,1.809014 -0.574867,5.970755 0.128836,12.303886 2.39034,19.041906 0.607767,1.79459 1.295859,3.65188 2.371834,5.54049 0.322073,0.56149 0.665962,1.1347 1.148049,1.70564 0.55844,0.66876 1.258277,1.32992 2.06482,1.97398 0.474499,0.382 0.979197,0.75082 1.568518,1.09695 0.562987,0.3296 1.207354,0.64344 1.913238,0.82654 0.686953,0.18311 1.353326,0.19006 1.874391,0.12018 0.161032,-0.0215 0.315476,-0.0478 0.464725,-0.0776 0.503348,-0.10053 0.950381,-0.24185 1.392297,-0.37797 0.874942,-0.26982 1.696777,-0.56288 2.793081,-0.67132 0.722215,-0.0702 1.582015,-0.0396 2.520082,0.13976 0.500777,0.0894 1.015249,0.20892 1.514703,0.29575 0.381297,0.0542 0.710828,0.0219 0.849657,-0.0905 0.185496,-0.12052 0.271786,-0.28023 0.309372,-0.44964 -0.0458,-0.21967 -0.198799,-0.45935 -0.32023,-0.69154 -0.134162,-0.23971 -0.303211,-0.4813 -0.512636,-0.73025 -0.909383,-1.14679 -1.776648,-2.27841 -2.441178,-3.38767 -0.632414,-1.04573 -1.16287,-2.07569 -1.64801,-3.08845 -1.202679,-2.52351 -2.072435,-4.98065 -2.76578,-7.36025 -0.932409,-3.218188 -1.469259,-6.375143 -1.765037,-9.441413 -0.04601,-0.453508 -0.07876,-0.903875 -0.120212,-1.358218 -0.01931,-0.16006 -0.0384,-0.322741 -0.106607,-0.497774 -0.140979,-0.193242 -0.332649,-0.404063 -0.637558,-0.588964 -0.06021,-0.0425 -0.143016,-0.07891 -0.205647,-0.07545 -0.155092,7.44e-4 -0.242017,0.05722 -0.32966,0.106488 -0.10692,0.07303 -0.20575,0.154182 -0.236029,0.264934 -0.04467,0.176016 -0.04517,0.380306 -0.05452,0.575696 -0.01332,0.568127 0.0018,1.139738 0.01959,1.715612 0.143108,3.954481 0.974909,8.016391 2.169458,12.273071 0.386043,1.39228 0.816478,2.82902 1.119319,4.22767 0.151394,0.72859 0.256553,1.45569 0.134903,2.12782 -0.08948,0.41776 -0.285078,0.81138 -0.670067,1.13356 -0.340139,0.26898 -0.805479,0.48345 -1.243497,0.714 -0.413719,0.182 -0.948126,0.31597 -1.627849,0.31264 -0.180323,-0.001 -0.371816,-0.015 -0.569094,-0.0407 -0.364239,-0.0474 -0.748157,-0.13546 -1.11833,-0.26094 -0.760453,-0.25455 -1.424853,-0.62198 -2.001964,-0.99984 -0.679879,-0.44831 -1.246253,-0.9253 -1.7774,-1.4021 -0.548311,-0.51809 -0.845369,-1.04295 -1.133734,-1.55261 -0.775809,-1.3895 -1.309291,-2.75599 -1.761557,-4.08786 -0.61075,-1.84901 -1.05199,-3.66398 -1.384469,-5.43856 -0.522499,-2.820285 -0.756915,-5.577945 -0.771001,-8.271384 -0.0044,-1.631271 0.07741,-3.262142 0.203296,-4.880515 -0.0031,-0.167012 0.01,-0.327351 -0.0802,-0.51928 -0.08058,-0.143896 -0.13631,-0.291666 -0.27798,-0.436132 -0.05577,-0.05352 -0.125159,-0.107812 -0.206105,-0.137341 z m 51.809638,15.705389 c -0.0745,-0.002 0.03478,0.0388 0.01681,0.004 z m 71.557387,13.48634 c -0.4205,-0.0191 -0.69188,0.0391 -0.71463,0.16154 -0.11537,0.17591 -0.058,0.38957 0.1783,0.63934 0.5325,0.61146 1.1612,1.24057 1.73616,1.86116 3.85797,4.11217 7.4024,8.20896 10.59409,12.27251 2.70327,3.43703 5.19876,6.88355 7.50916,10.29625 0.90906,1.33692 1.79713,2.6981 2.67584,4.04207 0.90141,1.35583 1.8701,2.72479 3.17389,4.23989 0.81963,0.94428 1.83258,1.95855 3.31758,3.12766 1.15128,0.91999 2.43718,1.89091 4.08827,2.95494 1.03371,0.66407 2.29299,1.40096 3.69541,2.05165 1.04989,0.48827 2.10992,0.89198 3.0507,1.19138 1.63567,0.5285 2.96836,0.81101 4.28196,1.0789 0.61209,0.12534 1.22122,0.24612 1.84221,0.3746 1.3499,0.2793 2.77071,0.59797 4.38601,1.08168 1.29396,0.38925 2.77177,0.92405 4.27131,1.62517 0.97738,0.44394 1.98932,0.9119 2.9523,1.29672 0.82496,0.32448 1.57675,0.55992 2.16659,0.65739 0.66399,0.11552 1.20744,0.13767 1.58494,0.063 0.0581,-0.22563 -8.3e-4,-0.50459 -0.0454,-0.77847 -0.0852,-0.43681 -0.24545,-0.90543 -0.58892,-1.44547 -0.91444,-1.5653 -1.83731,-3.13282 -2.5913,-4.59823 -0.58287,-1.13493 -1.55526,-3.09396 -2.13368,-4.22012 -1.90897,-3.75961 -4.00537,-7.60678 -6.51349,-11.45518 -4.01633,-6.17774 -9.00548,-12.5776 -15.33232,-19.08829 -0.47811,-0.47593 -0.92245,-0.94708 -1.54356,-1.44095 -0.26792,-0.20176 -0.64135,-0.41362 -1.09858,-0.61854 -0.38177,-0.18679 -0.89914,-0.39972 -1.44391,-0.50041 -0.57287,-0.0838 -0.76218,0.048 -0.86124,0.1598 -0.19235,0.19228 -0.12123,0.45934 0.15259,0.75307 0.8168,1.01727 1.83104,2.06921 2.71219,3.0991 5.69525,6.51378 10.56351,12.83523 13.96102,18.9322 1.23668,2.2279 2.27743,4.38768 2.86722,6.41176 0.26507,0.95042 0.45694,1.87178 0.31638,2.6619 -0.094,0.48482 -0.24749,0.94386 -0.61259,1.30653 -0.35445,0.33809 -0.96017,0.56029 -1.93513,0.57738 -0.76946,0.0308 -1.60015,0.0269 -2.59075,-0.078 -0.42702,-0.0452 -0.88292,-0.10903 -1.37579,-0.19674 -1.1148,-0.19985 -2.47706,-0.552 -4.02212,-1.13698 -1.25685,-0.46942 -2.55658,-1.07494 -3.65394,-1.66169 -1.30397,-0.69741 -2.42204,-1.38152 -3.41934,-2.02993 -1.03832,-0.68018 -1.94257,-1.32691 -2.75496,-1.94552 -0.73231,-0.58903 -1.15687,-1.08407 -1.61568,-1.58835 -1.3489,-1.52764 -2.33446,-2.89992 -3.34674,-4.2978 -1.90282,-2.64878 -3.84966,-5.35624 -5.86816,-7.98071 -2.69778,-3.51667 -5.63633,-7.06811 -8.91603,-10.64108 -1.73884,-1.88922 -3.57736,-3.78831 -5.56341,-5.69805 -0.26274,-0.23843 -0.51522,-0.47879 -0.91633,-0.73519 -0.39876,-0.20132 -0.8316,-0.39595 -1.34191,-0.58781 -0.20533,-0.0717 -0.45153,-0.15704 -0.67641,-0.19218 -0.0115,4.3e-4 -0.0252,-0.001 -0.0377,-0.002 z" />
  <path
     id="path10-3"
     style="display:inline;stroke-width:9.99999;stroke-linecap:round;stroke-linejoin:round;stroke-miterlimit:10000;paint-order:stroke fill markers"
     d="m 132.06723,21.759119 c -0.32621,0.04884 -0.64896,0.132814 -0.96307,0.244746 -2.56958,0.916084 -4.48768,3.548615 -4.73108,3.887041 -0.0248,0.03488 -0.036,0.08519 -0.0301,0.133443 l 0.46949,3.803135 c 0.0202,0.13495 0.14671,0.149127 0.18654,0.0207 0.23692,-0.810586 0.53734,-1.687677 1.0022,-2.536688 0.61421,-1.121697 1.46971,-2.144265 2.62137,-2.631814 1.15164,-0.487557 2.58642,-0.437053 4.33682,0.498354 2.03588,1.08796 3.29043,3.310069 3.99975,5.878401 0.70961,2.56934 0.89349,5.494069 0.82463,8.11341 -0.0756,2.881002 -0.72226,6.41027 -1.83886,9.253124 -1.11616,2.84173 -2.74921,5.053039 -4.77321,4.935327 -1.55276,-0.0903 -3.01373,-2.213101 -4.03287,-4.751477 -1.01901,-2.538065 -1.60839,-5.53611 -1.00821,-7.747617 0.94124,-3.46814 1.72932,-5.57649 2.40767,-6.795804 0.33951,-0.610273 0.64841,-1.00408 0.97209,-1.212148 0.31665,-0.203518 0.6778,-0.178045 0.92999,0.03391 0.52491,0.441164 0.70653,1.349768 0.79452,2.300243 0.0542,0.586186 0.043,1.168686 -0.0158,1.723728 -0.0112,0.09487 0.0432,0.175029 0.10824,0.161235 l 1.68238,-0.366596 c 0.0567,-0.01373 0.0954,-0.09451 0.0842,-0.175884 -0.0522,-0.384395 -0.10059,-0.864703 -0.33406,-1.889678 -0.31405,-1.379365 -0.8158,-2.955205 -1.46266,-3.754574 -0.32096,-0.396632 -0.65911,-0.605256 -1.05035,-0.576898 -0.39266,0.02838 -0.8711,0.303041 -1.4476,1.017747 -1.15441,1.431102 -2.65193,4.601088 -4.46024,10.447726 -0.74413,2.405952 -0.056,5.973717 1.33327,8.969715 1.38943,2.996348 3.45571,5.344712 5.14038,5.509919 2.26832,0.222466 4.42599,-1.836421 6.0553,-5.038848 1.62963,-3.203004 2.69603,-7.519398 2.75377,-11.600563 0.1069,-7.547981 -2.77614,-14.561765 -6.53985,-17.130771 -0.67845,-0.463105 -1.35847,-0.699109 -2.02544,-0.757846 -0.33383,-0.02939 -0.66395,-0.01373 -0.99016,0.03522 z m 1.9713,18.020448 c -0.418,0.07397 -0.86,0.67066 -1.19481,1.522893 -0.33482,0.852333 -0.53246,1.907184 -0.52065,2.620893 0.0112,0.757435 0.14604,1.815239 0.39124,2.563481 0.12286,0.375145 0.27003,0.657107 0.41532,0.808537 0.0659,0.0687 0.13029,0.122934 0.20455,0.142918 0.0745,0.0198 0.14919,0.0047 0.23774,-0.03474 0.18813,-0.08333 0.37742,-0.322394 0.5628,-0.658511 0.18543,-0.33612 0.36321,-0.774243 0.50561,-1.275181 0.28392,-0.998714 0.43329,-2.168095 0.4093,-2.847894 -0.0225,-0.634462 -0.12534,-1.450079 -0.316,-2.035684 -0.0956,-0.29306 -0.20839,-0.513166 -0.32504,-0.646337 -0.10824,-0.123699 -0.22604,-0.185988 -0.37018,-0.160469 z m -58.696461,5.487517 c -0.313622,0.134816 -0.606653,1.238774 -0.603039,2.676493 l 0.0011,0.44538 c 0.0015,0.620216 0.107452,1.386739 0.273872,2.059903 0.09472,0.383107 0.214567,0.706326 0.340085,0.948802 0.125522,0.242471 0.25338,0.408069 0.394257,0.466836 0.03997,0.01665 0.06438,0.03861 0.117376,0.02003 0.02651,-0.0092 0.04922,-0.03038 0.0602,-0.04278 0.01103,-0.01238 0.01485,-0.0171 0.02408,-0.02765 0.077,-0.08565 0.16047,-0.246752 0.237758,-0.500537 0.153315,-0.503445 0.24098,-1.250482 0.252807,-1.811094 0.0153,-0.723056 -0.0514,-1.782377 -0.231739,-2.655493 -0.09046,-0.437899 -0.209077,-0.799241 -0.340083,-1.067468 -0.131013,-0.268225 -0.271705,-0.452949 -0.430375,-0.50447 -0.0485,-0.01553 -0.09499,-0.0083 -0.09631,-0.0081 z m -0.165533,9.405605 c -0.53949,0.06384 -0.998387,0.147576 -1.441597,0.217514 -0.05761,0.007 -0.100612,0.08443 -0.0933,0.167605 l 0.19562,2.134397 c 0.007,0.08691 0.06519,0.141928 0.123384,0.116499 0.776153,-0.343146 1.783838,-0.82331 2.741742,-0.937316 0.568336,-0.06762 1.112347,-0.0079 1.546934,0.40538 0.428731,0.407676 0.683111,1.1954 0.656092,2.228516 -0.03106,1.187196 -0.5157,2.210432 -1.149666,3.124712 -0.634154,0.914554 -1.437113,1.75196 -2.218072,2.588335 -0.780984,0.836408 -1.535889,1.67146 -2.064585,2.523014 -0.527648,0.849875 -0.819007,1.673806 -0.770454,2.572679 0.04489,0.831007 0.386893,1.581473 0.957051,2.260814 0.570746,0.680047 1.359759,1.26329 2.227099,1.714027 1.56998,0.815879 3.31907,1.142235 4.490319,1.109887 0.05731,-1.3e-4 0.104347,-0.07129 0.102344,-0.154888 l -0.04815,-2.779556 c -0.0014,-0.0802 -0.04739,-0.140892 -0.102344,-0.135199 -0.766681,0.06729 -1.956736,0.265984 -3.190172,0.222848 -0.696386,-0.02437 -1.363642,-0.123924 -1.911093,-0.412336 -0.543878,-0.286491 -1.008319,-0.825288 -1.10452,-1.659604 -0.123295,-1.069263 0.277193,-2.035435 0.833657,-2.888107 0.557517,-0.854283 1.298137,-1.667174 2.034486,-2.556569 0.736336,-0.889379 1.464825,-1.84896 1.986335,-2.923196 0.520929,-1.073043 0.840514,-2.245018 0.797542,-3.650935 -0.03546,-1.159787 -0.313597,-1.877717 -0.737351,-2.378009 -0.426459,-0.503497 -0.94277,-0.776653 -1.71246,-0.90639 -0.420882,-0.07095 -1.792753,-0.04627 -2.14885,-0.0041 z M 187.917,68.813275 c -0.5687,0.03922 -1.15115,0.118209 -1.7456,0.246909 -2.75463,0.596335 -5.77416,2.209954 -9.00167,5.16958 -0.0263,0.02392 -0.0441,0.06373 -0.0482,0.108037 l -0.4394,5.293199 c -0.0158,0.14321 0.10577,0.220553 0.17148,0.109522 2.14074,-3.385249 5.68075,-7.118053 9.01675,-7.732745 0.0641,-0.0117 -6e-4,-0.01013 0.0632,-0.0034 0.0639,0.0067 0.002,-0.0108 0.0633,0.01418 0.0612,0.025 0.005,-0.0061 0.0603,0.03635 0.0563,0.04231 0.005,-0.0081 0.0542,0.04984 0.0491,0.05794 0.005,-0.0076 0.0453,0.06353 0.0401,0.07131 0.007,-0.005 0.036,0.07721 0.0295,0.08194 0.002,-0.0025 0.0203,0.08679 0.0179,0.08936 0.007,0.0027 0.0113,0.09607 0.6877,12.4692 -0.85106,17.197814 -1.51684,24.465111 -0.007,0.08742 0.0394,0.161641 0.0995,0.157342 l 3.33462,-0.182298 c 0.0587,-0.0023 0.10487,-0.07847 0.0995,-0.163507 -0.55043,-7.854663 -1.18572,-12.440591 0.0932,-24.666101 0.0113,-0.09924 -0.007,0.0207 0.0158,-0.07554 0.0203,-0.09609 -0.0113,0.01913 0.0179,-0.07129 0.0311,-0.09049 -0.0135,0.0153 0.0272,-0.06737 0.0405,-0.08261 -0.0113,0.0135 0.036,-0.05905 0.0486,-0.07257 -0.0158,0.01035 0.0392,-0.05043 0.0558,-0.06071 -0.0158,0.0054 0.0453,-0.04199 0.0615,-0.04727 -0.0179,-6.91e-4 0.0482,-0.03332 0.0653,-0.03263 -0.0157,0.0012 0.0511,-0.01598 2.43302,-0.613267 4.29474,0.491244 5.74833,2.163568 1.14584,1.318282 2.0269,2.923206 2.83807,4.388857 0.0547,0.102884 0.16991,0.04825 0.17755,-0.08418 l 0.28593,-5.122398 c 0.002,-0.05198 -0.0113,-0.101579 -0.0423,-0.129573 -2.17563,-2.180875 -4.87018,-3.777357 -8.03864,-4.023665 -0.54244,-0.04217 -1.09862,-0.04271 -1.66732,-0.0034 z m -1.41782,31.021882 c -0.49758,0.02635 -1.03394,0.732693 -1.4476,1.769313 -0.41689,1.04465 -0.6773,2.38636 -0.66213,3.46791 0.0113,0.81895 0.25012,1.83414 0.61096,2.62648 0.36151,0.79385 0.82528,1.3151 1.20985,1.36391 0.43348,0.055 0.89871,-0.37926 1.29414,-1.14581 0.39615,-0.76796 0.68641,-1.82431 0.7494,-2.75176 0.0657,-0.96734 -0.0711,-2.30408 -0.36719,-3.38665 -0.1483,-0.54219 -0.33763,-0.99452 -0.5387,-1.32938 -0.20118,-0.33486 -0.41536,-0.556749 -0.63504,-0.607829 -0.0522,-0.01215 -0.10531,-0.01193 -0.15954,-0.009 z m -122.885933,57.445983 0.0511,1.17967 c 0.0225,0.51858 0.129889,1.04005 0.255816,1.52906 0.109973,0.42699 0.245052,0.78414 0.391248,1.04718 0.146203,0.26304 0.302318,0.43937 0.472507,0.48904 0.09355,0.0274 0.173094,0.0353 0.246785,0.005 0.0737,-0.0308 0.130541,-0.0961 0.189612,-0.17283 0.133825,-0.17372 0.260972,-0.48323 0.358141,-0.88935 0.194157,-0.81154 0.248939,-1.94117 0.177572,-2.77401 -0.06461,-0.75386 -0.192874,-1.65137 -0.406296,-2.33415 -0.210382,-0.6731 -0.649701,-1.19098 -0.967913,-1.0521 -0.515013,0.22477 -0.768558,4.19483 -0.768558,2.973 z m -5.173496,1.07577 c -0.06564,-0.001 -0.116701,0.0884 -0.102321,0.18119 0.148476,0.9499 0.560521,3.43092 1.522853,6.4676 1.170344,3.69301 3.004796,7.40755 5.585811,7.9255 1.83438,0.36806 3.139905,-0.37399 4.132175,-1.69709 0.993729,-1.32494 1.665991,-3.27263 2.109728,-5.29876 0.77508,-3.53916 0.817295,-6.79252 0.82162,-7.67385 4.91e-4,-0.0858 -0.04993,-0.15059 -0.108352,-0.13936 l -1.700421,0.28398 c -0.05378,0.009 -0.09397,0.0801 -0.09028,0.15865 0.03747,0.80343 0.141973,3.47414 -0.258826,6.50988 -0.23272,1.76271 -0.631793,3.5133 -1.360336,4.81046 -0.726018,1.2927 -1.825432,2.08683 -3.247355,1.80813 -1.243495,-0.24371 -2.241161,-1.27133 -3.015615,-2.61693 -0.774708,-1.34602 -1.339136,-3.01774 -1.760615,-4.65286 -0.734035,-2.84772 -0.976212,-5.23197 -1.038309,-5.8957 -0.0056,-0.0697 -0.04507,-0.12152 -0.0933,-0.12241 z m 112.498579,29.17141 c -0.0628,-2.2e-4 -0.11185,0.0837 -0.10015,0.17305 l 1.02736,8.52607 c 0.009,0.0781 0.009,0.0493 0.002,0.12894 -0.007,0.0796 -5.4e-4,0.0504 -0.0203,0.1258 -0.0203,0.0754 -0.0112,0.0491 -0.0441,0.11409 -0.0331,0.0653 -0.0179,0.0434 -0.0619,0.0936 -0.0437,0.0502 -0.0257,0.0329 -0.0765,0.0641 -0.0511,0.0315 -0.0311,0.0241 -0.0853,0.0346 -0.0545,0.0112 -0.0344,0.0112 -0.0882,6e-4 -0.0537,-0.009 -0.0365,-0.007 -0.0853,-0.0385 l -4.65119,-3.04503 c -0.0497,-0.0306 -0.10802,0.005 -0.1294,0.0801 l -0.73594,2.64445 c -0.0237,0.0837 0.0113,0.17575 0.0707,0.1897 l 5.37241,1.05052 c 0.0549,0.009 0.032,0.005 0.0824,0.0342 0.0506,0.0317 0.0281,0.0135 0.0707,0.0608 0.0428,0.0502 0.0272,0.0263 0.059,0.0916 0.0317,0.065 0.0203,0.0297 0.0383,0.10531 0.018,0.0754 0.0135,0.0387 0.018,0.11927 0.005,0.0808 0.005,0.0445 -0.007,0.12512 -0.0112,0.0806 -0.002,0.043 -0.0266,0.11723 -0.0243,0.0742 -0.0113,0.0425 -0.047,0.10577 l -2.94969,5.11406 c -0.038,0.067 -0.0286,0.16562 0.0203,0.2095 l 1.95762,1.8259 c 0.0506,0.0443 0.11791,0.009 0.14132,-0.072 l 1.67501,-6.15954 c 8.3e-4,-3e-5 0.002,-7e-5 0.002,-1.5e-4 0.018,-0.0709 0.0158,-0.0628 0.047,-0.12286 0.0324,-0.0599 0.0306,-0.0549 0.0736,-0.0986 0.043,-0.0437 0.0389,-0.0419 0.0882,-0.0649 0.0495,-0.0225 0.0457,-0.0225 0.0972,-0.0234 0.0516,-6e-4 0.0454,-8.3e-4 0.0941,0.0203 0.0486,0.0225 0.0438,0.018 0.0853,0.0601 0.0414,0.0423 0.0403,0.036 0.0707,0.095 0.0306,0.059 0.0277,0.0563 0.0441,0.12669 l 1.63379,6.82572 c 0.0158,0.0682 0.0662,0.10442 0.11477,0.0841 l 2.49634,-1.05742 c 0.0707,-0.0306 0.0961,-0.15886 0.047,-0.23461 l -4.00942,-6.32506 c -0.0346,-0.0542 -0.0312,-0.0459 -0.0531,-0.1132 -0.0225,-0.0673 -0.0203,-0.0619 -0.0266,-0.13614 -0.007,-0.0742 -0.007,-0.0671 0.002,-0.142 0.009,-0.0747 0.007,-0.0666 0.0295,-0.13479 0.0237,-0.0679 0.0228,-0.0637 0.059,-0.11904 0.0365,-0.0554 0.0308,-0.0479 0.0765,-0.0857 0.0454,-0.0376 0.0404,-0.0358 0.0914,-0.0522 0.0506,-0.0158 0.0459,-0.0158 0.097,-0.009 l 5.19284,0.58292 c 0.0637,0.007 0.11634,-0.0774 0.10599,-0.169 l -0.30323,-2.64921 c -0.009,-0.0749 -0.0571,-0.12377 -0.10892,-0.11026 l -5.00147,1.44891 c -0.0574,0.018 -0.0225,0.0112 -0.0795,0.009 -0.058,-0.002 -0.0179,0.002 -0.0736,-0.0225 -0.0551,-0.0239 -0.0225,-6e-4 -0.0707,-0.0434 -0.0493,-0.0428 -0.0179,-0.007 -0.059,-0.0655 -0.0403,-0.059 -0.018,-0.0179 -0.047,-0.0875 -0.0292,-0.072 -0.0158,-0.0225 -0.0324,-0.10149 -0.0157,-0.0808 -0.009,-0.0263 -0.0112,-0.11117 -0.002,-0.0851 -0.007,-0.0324 0.007,-0.11656 l 1.15691,-8.60815 c 0.0113,-0.0839 -0.0306,-0.16022 -0.0882,-0.16292 z m -56.73277,9.15066 c -0.74082,-0.0986 -1.53624,0.33573 -2.38963,1.63934 -0.8546,1.30545 -1.74059,3.48494 -2.57019,6.76491 -0.0203,0.0761 -0.0113,0.0599 -0.0452,0.12557 -0.0328,0.0657 -0.0202,0.0499 -0.0632,0.10013 -0.0439,0.0502 -0.0331,0.0353 -0.0844,0.0659 -0.0513,0.0308 -0.0358,0.0268 -0.0902,0.0355 -0.0545,0.0113 -0.0398,0.0113 -0.0934,-0.005 -0.0536,-0.0135 -0.0391,-0.009 -0.0873,-0.0437 -0.0482,-0.0355 -0.0365,-0.0203 -0.0752,-0.0751 -0.0389,-0.054 -0.0277,-0.0383 -0.0542,-0.10689 0,0 -0.53589,-1.36242 -1.43556,-2.89455 -0.90015,-1.53291 -2.15949,-3.20269 -3.54533,-3.82375 -0.70029,-0.31381 -1.26514,-0.0241 -1.73653,0.70791 -0.47599,0.73924 -0.83277,1.9753 -0.942,3.48724 -0.21828,3.02234 0.53863,7.09021 2.95544,10.34679 1.9036,2.56513 2.94777,3.5395 3.32258,4.86409 0.18408,0.65091 0.13524,1.37166 -0.0693,2.1617 -0.15662,0.60507 -0.47648,1.44873 -0.80656,2.33723 -0.032,0.084 -0.002,0.18634 0.0603,0.20749 l 1.74557,0.65851 c 0.056,0.0179 0.11319,-0.0367 0.12354,-0.12107 0.12107,-0.95116 0.32893,-2.00951 0.20456,-3.40837 -0.15617,-1.75821 -0.84826,-3.99597 -3.07881,-6.7406 -1.95125,-2.40091 -2.74754,-4.97924 -2.76885,-7.0428 -0.0113,-1.03168 0.1726,-1.93869 0.52668,-2.60802 0.35233,-0.66621 0.89203,-1.07842 1.48073,-1.07228 0.64107,0.007 1.21159,0.59989 1.78769,1.39466 0.5743,0.79222 1.13623,1.82135 1.63724,2.84423 0.70617,1.44182 0.95127,2.1414 1.23693,2.87002 0.0418,0.11544 0.16112,0.0891 0.18362,-0.0405 0.74087,-3.95276 1.62961,-6.30494 2.61534,-7.36945 0.55042,-0.59444 1.15601,-0.7871 1.6944,-0.60899 0.54108,0.17891 1.00514,0.69412 1.38441,1.39857 0.75896,1.40962 1.20036,3.60259 1.1286,5.91722 -0.0716,2.31323 -0.67422,4.7618 -2.06759,6.55788 -1.32316,1.70558 -2.45678,4.03704 -3.1992,5.95898 -0.37112,0.96076 -0.6489,1.81963 -0.80055,2.43364 -0.0617,0.24982 -0.0866,0.41705 -0.10531,0.55061 -0.009,0.0639 0.0112,0.1276 0.0511,0.1555 l 2.11275,1.41684 c 0.0711,0.0468 0.15234,-0.043 0.14154,-0.15685 -0.12354,-1.15866 -0.10059,-2.47464 0.26184,-3.952 0.50558,-2.06192 1.54383,-4.23285 3.29248,-5.80134 1.12604,-1.01006 1.8192,-2.63863 2.16692,-4.5854 0.3479,-1.94759 0.33896,-4.19412 0.0542,-6.3319 -0.28482,-2.13768 -0.84454,-4.1655 -1.56799,-5.66081 -0.7235,-1.4954 -1.59703,-2.43351 -2.49195,-2.55258 z m 52.11688,8.27869 c -0.07,-0.0312 -0.13997,0.0603 -0.12669,0.16584 l 0.99792,7.39698 c 0.0112,0.0772 0.007,0.0497 0.002,0.12893 -0.005,0.079 -8.3e-4,0.0554 -0.0203,0.13008 -0.0203,0.0749 -0.009,0.0536 -0.0412,0.11814 -0.0326,0.0648 -0.0225,0.0441 -0.0648,0.0936 -0.0433,0.0497 -0.0259,0.0375 -0.0765,0.0687 -0.0507,0.0308 -0.0345,0.0203 -0.0882,0.0304 -0.054,0.0113 -0.0351,0.0113 -0.0882,5.9e-4 -0.0531,-0.0112 -0.0374,-0.005 -0.0853,-0.0385 l -5.18989,-3.64825 c -0.0526,-0.036 -0.11702,0.007 -0.13547,0.0889 l -0.60641,2.95994 c -0.018,0.0811 0.0179,0.16315 0.0736,0.17643 l 5.83459,1.27523 c 0.0533,0.0135 0.034,0.007 0.0824,0.0384 0.0486,0.0331 0.0336,0.0203 0.0736,0.0693 0.0399,0.0515 0.0275,0.0337 0.056,0.10036 0.0283,0.0659 0.0203,0.0384 0.0353,0.11409 0.0158,0.0754 0.0113,0.0491 0.0113,0.12827 -3.9e-4,0.0792 0.002,0.0529 -0.0113,0.12962 -0.0158,0.077 -0.007,0.0495 -0.0353,0.11792 -0.0282,0.0668 -0.0225,0.0517 -0.059,0.10194 l -4.29497,5.82202 c -0.0445,0.0599 -0.0433,0.16225 0.002,0.21513 l 2.0194,2.30837 c 0.0464,0.0554 0.1177,0.0329 0.1474,-0.0466 l 2.73772,-7.52313 c 0.0245,-0.0678 0.0225,-0.0646 0.059,-0.11904 0.0369,-0.0546 0.0306,-0.0488 0.0765,-0.0857 0.0459,-0.0365 0.0403,-0.0324 0.0911,-0.0479 0.0511,-0.0158 0.0459,-0.0158 0.0972,-0.009 0.0513,0.009 0.0472,0.005 0.0941,0.0337 0.0468,0.0292 0.0412,0.0288 0.0795,0.0776 0.0382,0.0486 0.0355,0.0407 0.0619,0.10396 0.0261,0.0637 0.0237,0.0542 0.0353,0.12715 -3e-5,8.3e-4 -3e-5,0.002 0,0.005 l 1.29525,7.94865 c 0.0135,0.0805 0.0727,0.12309 0.1267,0.092 l 2.57582,-1.47007 c 0.0608,-0.0344 0.0844,-0.1429 0.047,-0.21761 l -3.48839,-6.80851 c -8.3e-4,-8.3e-4 -0.002,-0.002 -0.002,-0.005 -0.0301,-0.0583 -0.0279,-0.0529 -0.0443,-0.12242 -0.0158,-0.0695 -0.018,-0.0663 -0.018,-0.14087 -5.9e-4,-0.0742 5e-5,-0.0751 0.0158,-0.14672 0.0157,-0.0718 0.0112,-0.0684 0.0412,-0.13119 0.0288,-0.0628 0.0275,-0.0592 0.0678,-0.10689 0.0403,-0.0477 0.0405,-0.05 0.0882,-0.0779 0.0477,-0.0279 0.0462,-0.0254 0.0972,-0.0308 0.0508,-0.005 0.0482,-0.005 0.0972,0.0135 l 4.39504,1.49384 c 0.0675,0.0259 0.13322,-0.0599 0.12355,-0.16157 l -0.22369,-2.8211 c -0.007,-0.0747 -0.0516,-0.12737 -0.10307,-0.11904 l -4.62468,0.64637 c -0.0592,0.009 -0.0157,0.0112 -0.0736,1.2e-4 -0.0585,-0.0113 -0.0157,6e-4 -0.0707,-0.0306 -0.0545,-0.0315 -0.018,8.3e-4 -0.0648,-0.0482 -0.0477,-0.0491 -0.0158,-0.007 -0.0532,-0.0703 -0.0383,-0.0641 -0.0158,-0.0135 -0.0412,-0.088 -0.0268,-0.0756 -0.0113,-0.0203 -0.0266,-0.1017 -0.0135,-0.0835 -0.009,-0.0203 -0.009,-0.1069 -4.9e-4,-0.0864 -0.005,-0.0228 0.009,-0.10779 l 0.98618,-6.49252 c 0.0112,-0.07 -0.0157,-0.13863 -0.0619,-0.16 z m 12.28148,1.4431 c -0.0657,-0.002 -0.11656,0.0896 -0.0999,0.18137 l 1.28351,7.63115 c 0.0113,0.0752 0.0113,0.0497 0.009,0.12849 -0.002,0.0786 0.003,0.0587 -0.0158,0.13411 -0.0179,0.0758 -0.0112,0.0522 -0.0412,0.11837 -0.0306,0.0662 -0.0203,0.0504 -0.0619,0.10216 -0.0419,0.0517 -0.0271,0.0353 -0.0765,0.0687 -0.0497,0.0333 -0.0349,0.027 -0.0882,0.0392 -0.0533,0.0113 -0.038,0.0158 -0.0911,0.005 -0.0532,-0.009 -0.037,-0.007 -0.0853,-0.0384 l -4.63644,-3.00287 c -0.0634,-0.0407 -0.13682,0.0297 -0.1384,0.1321 l -0.0382,2.98554 c -8.3e-4,0.0738 0.0351,0.13547 0.0853,0.14155 l 4.68945,0.61408 c 0.0542,0.005 0.0317,-0.002 0.0824,0.0256 0.0506,0.0286 0.0335,0.0158 0.0765,0.0605 0.0433,0.0477 0.0266,0.0283 0.059,0.0916 0.0324,0.0632 0.0225,0.0312 0.0412,0.10509 0.0203,0.0742 0.0158,0.0441 0.0203,0.12376 0.005,0.0796 0.005,0.0497 -0.007,0.1294 -0.0112,0.0796 -0.002,0.0482 -0.0266,0.12174 -0.0243,0.0736 -0.0135,0.0438 -0.05,0.10598 l -4.01239,6.86457 c -0.0434,0.0763 -0.0239,0.18924 0.0382,0.2212 l 2.67881,1.45639 c 0.0504,0.0268 0.10757,-0.0135 0.1267,-0.0884 l 1.90167,-7.84827 c 0.018,-0.0756 0.009,-0.0522 0.0412,-0.11837 0.0315,-0.0663 0.0203,-0.0466 0.0619,-0.0981 0.0425,-0.0516 0.0263,-0.0355 0.0765,-0.0684 0.0502,-0.0331 0.0315,-0.0268 0.0853,-0.0389 0.0537,-0.0135 0.0349,-0.0113 0.0882,-5.8e-4 0.0536,0.009 0.0365,0.002 0.0853,0.0342 0.0491,0.0312 0.036,0.0179 0.0765,0.0691 0.0407,0.0502 0.0268,0.0311 0.056,0.0959 l 4.29508,9.50784 c 0.0288,0.0633 0.0878,0.0792 0.13254,0.036 l 2.34328,-2.24865 c 0.056,-0.0533 0.0621,-0.169 0.0113,-0.2285 l -6.20844,-7.35132 c -0.0371,-0.0441 -0.0428,-0.0529 -0.0678,-0.11228 -0.0248,-0.0599 -0.0283,-0.0749 -0.0385,-0.1438 -0.0113,-0.0688 -0.009,-0.0839 -0.002,-0.15482 0.007,-0.0709 0.007,-0.0828 0.0295,-0.14762 0.0225,-0.065 0.0275,-0.0758 0.0619,-0.12804 0.0345,-0.052 0.0416,-0.0615 0.0853,-0.0947 0.0436,-0.0336 0.0517,-0.0371 0.0999,-0.0482 0.0482,-0.0113 0.0585,-0.0158 0.106,-8.3e-4 l 5.69621,1.43741 c 0.0628,0.0157 0.12152,-0.059 0.11769,-0.15235 l -0.14109,-3.62082 c -0.002,-0.0824 -0.0529,-0.14132 -0.10891,-0.12781 l -6.0024,1.52377 c -0.058,0.0158 -0.018,0.0135 -0.0765,0.009 -0.0583,-0.005 -0.0225,0.002 -0.0765,-0.0225 -0.0551,-0.0256 -0.018,5.5e-4 -0.0678,-0.0436 -0.0491,-0.0441 -0.0179,-0.0113 -0.059,-0.0697 -0.0399,-0.0603 -0.0158,-0.0157 -0.0443,-0.088 -0.0288,-0.0729 -0.0135,-0.0225 -0.0295,-0.10172 -0.0158,-0.0817 -0.009,-0.0259 -0.0113,-0.11116 -0.002,-0.0853 -0.007,-0.0234 0.007,-0.10779 l 1.04211,-7.55736 c 0.0135,-0.0855 -0.0291,-0.16472 -0.0882,-0.1672 z m -71.01747,20.39504 c -0.18137,0.42191 -0.30019,1.39337 -0.30611,2.15373 -0.007,0.90739 0.13187,2.21656 0.41534,3.30058 0.28419,1.08613 0.70027,1.86845 1.15869,2.01272 0.24168,0.0761 0.42267,-0.005 0.5959,-0.20748 0.1825,-0.21378 0.35575,-0.58566 0.49356,-1.06356 0.27544,-0.95501 0.39264,-2.28094 0.33107,-3.28323 -0.0473,-0.77037 -0.26365,-1.82624 -0.58688,-2.67614 -0.31804,-0.8363 -0.72386,-1.41324 -1.00531,-1.45553 -0.52554,-0.0749 -0.84096,0.62542 -1.09626,1.21898 z" />
</svg>
