<?xml version="1.0" encoding="UTF-8" standalone="no"?>
<!-- Created with Inkscape (http://www.inkscape.org/) -->

<svg
   width="256"
   height="128"
   viewBox="0 0 256 128"
   version="1.1"
   id="svg1"
   xmlns="http://www.w3.org/2000/svg"
   xmlns:svg="http://www.w3.org/2000/svg">
  <defs
     id="defs1" />
  <g
     id="layer1">
    <path
       style="opacity:1;fill:none;stroke-width:4;stroke-linecap:round;stroke-linejoin:round;stroke-miterlimit:10000;paint-order:fill markers stroke;stroke:#000000"
       d="m 15.221942,94.984919 c 0,-8.63609 -0.192394,-3.107782 2.435511,-18.875209 1.387813,-8.326878 2.787446,-16.652053 4.262144,-24.963985 0.757945,-4.272056 1.584607,-8.531914 2.43551,-12.786431 0.815979,-4.079892 1.675228,-14.765555 3.044389,-15.221942 4.522489,-1.507497 6.705592,27.8111 7.306532,35.923783 0.02983,0.402744 -1.134848,12.260461 0,13.395309 4.041387,4.041387 3.65269,-10.855677 4.871021,-16.439697 2.734708,-12.534076 2.537292,-16.806472 4.871022,-28.008374 1.440784,-6.915763 1.217755,-1.755462 1.217755,-6.697654 0,-0.405919 -0.385088,-1.346118 0,-1.217755 5.871146,1.957048 4.871022,72.231647 4.871022,82.807366"
       id="path1" />
    <path
       style="opacity:1;fill:none;stroke:#000000;stroke-width:4;stroke-linecap:round;stroke-linejoin:round;stroke-miterlimit:10000;paint-order:fill markers stroke"
       d="m 56.711849,61.805728 c 0.08224,5.336564 0.339592,10.614228 0.339592,15.960819 0,1.090944 -1.076787,9.790155 0,10.866942 4.005525,4.005525 15.694927,-14.41026 17.319187,-17.65878 3.411801,-6.823601 4.414695,-24.130248 4.414695,-11.546125 0,2.263946 0.167242,4.534078 0,6.791839 -0.503498,6.797231 -1.358367,12.976482 -1.358367,19.69633"
       id="path2" />
    <path
       style="opacity:1;fill:none;stroke:#000000;stroke-width:4;stroke-linecap:round;stroke-linejoin:round;stroke-miterlimit:10000;paint-order:fill markers stroke"
       d="m 78.785323,59.428584 c 1.924354,0.905579 4.697506,0.881963 5.773063,2.716736 1.993273,3.400289 -0.323434,16.538399 -1.69796,21.054698 -0.619296,2.034831 -1.358368,3.970237 -1.358368,6.112654 0,0.45279 0,1.811157 0,1.358368 0,-2.996383 -0.0322,-3.565755 0.679184,-8.150206 0.653615,-4.212186 1.567157,-8.379969 2.377144,-12.5649 0.548398,-2.833394 1.014109,-5.686014 1.697959,-8.489798 1.332273,-5.462318 4.379479,-14.584844 9.848166,-17.319188"
       id="path3" />
    <path
       style="opacity:1;fill:none;stroke:#000000;stroke-width:4;stroke-linecap:round;stroke-linejoin:round;stroke-miterlimit:10000;stroke-opacity:1;paint-order:fill markers stroke"
       d="m 99.50043,53.31593 c -0.355882,5.183706 -1.279808,10.468571 -2.037552,15.621228 -0.508965,3.460963 -0.177634,7.378726 -1.358367,10.527349 -1.088212,2.901898 -1.859853,6.570689 -2.716736,9.508574 -0.56732,1.945098 -1.358367,3.444133 -1.358367,5.43347 0,0.339592 -0.0282,1.357195 0,1.018776 0.499381,-5.992577 -0.156151,-3.654527 2.377143,-10.187757 3.128048,-8.067072 6.408689,-16.001426 10.866939,-23.431842 0.784,-1.306661 3.87537,-6.52713 6.45225,-3.735511 5.45076,5.904995 3.8462,19.163427 4.0751,26.488169 0.12926,4.136139 -0.11935,5.773062 0,5.773062 8.13169,0 15.11339,-49.700396 20.71511,-23.09225 0.77519,3.682139 1.01769,7.459134 1.35837,11.206533 0.57849,6.363462 1.35836,13.973713 1.35836,20.715107"
       id="path5" />
    <path
       style="opacity:1;fill:none;stroke:#000000;stroke-width:4;stroke-linecap:round;stroke-linejoin:round;stroke-miterlimit:10000;stroke-opacity:1;paint-order:fill markers stroke"
       d="m 148.40166,57.730625 c 1.99183,19.918238 -1.05637,-12.838942 0.67919,20.715106 0.97768,18.901776 23.76502,23.459779 28.52572,2.716736 0.82689,-3.602875 -0.25069,-27.167353 -1.01878,-27.167353 -1.29064,0 -0.83625,2.457835 -1.01877,3.735511 -1.54691,10.828355 -2.03755,21.689709 -2.03755,32.600823"
       id="path6" />
    <path
       style="opacity:1;fill:none;stroke:#000000;stroke-width:4;stroke-linecap:round;stroke-linejoin:round;stroke-miterlimit:10000;stroke-opacity:1;paint-order:fill markers stroke"
       d="m 192.54861,57.391033 c -1.12614,6.756866 0.88146,-5.69139 -1.01877,11.885717 -0.55235,5.109188 -1.34321,10.189801 -2.03755,15.281636 -0.44774,3.283414 -1.08318,6.54581 -1.35837,9.848165 -0.0376,0.451225 -0.2025,1.763355 0,1.358368 0.41745,-0.834902 0.45279,-1.811157 0.67918,-2.716736 2.15075,-4.867484 3.84023,-9.966127 6.45225,-14.602452 6.80425,-12.077541 20.43732,-22.470408 34.29878,-24.450617"
       id="path7" />
  </g>
</svg>
