<?xml version="1.0" encoding="UTF-8" standalone="no"?>
<!-- Created with Inkscape (http://www.inkscape.org/) -->

<svg
   width="256"
   height="256"
   viewBox="0 0 256 256"
   version="1.1"
   id="svg1"
   xmlns="http://www.w3.org/2000/svg"
   xmlns:svg="http://www.w3.org/2000/svg">
  <defs
     id="defs1" />
  <path
     id="path205"
     style="font-weight:500;font-size:952.114px;line-height:1;font-family:MetaPro;-inkscape-font-specification:'MetaPro Medium';text-decoration-color:#000000;letter-spacing:84.4325px;word-spacing:0px;fill:#000000;stroke-width:247.479;stroke-linecap:round;stroke-linejoin:round;stroke-miterlimit:10000;paint-order:stroke fill markers"
     d="m 4031.5082,-3573.1947 c -0.4164,-1.0662 -1.3507,0.02 -1.9776,-0.1805 -6.2106,1.2254 -13.3069,5.4116 -18.871,3.7034 -3.223,-1.1218 -5.9029,-5.0735 -6.5186,-14.0761 -0.5659,-7.2773 0.5683,-17.824 0.7624,-26.515 0.016,-2.1471 -0.1119,-3.9823 -0.66,-4.7231 -0.6505,-0.6866 -1.7561,0.38 -2.7865,1.7194 -1.3133,1.7811 -2.6963,4.1493 -4.0722,6.6893 -0.9822,2.0663 -1.9231,4.8969 -2.8436,7.2703 -6.7227,18.1659 -12.9199,37.4497 -19.1275,56.5261 -17.2024,52.9591 -33.503,105.2624 -49.5683,157.6314 -29.9912,98.2767 -58.0077,198.264 -83.5518,300.1072 -29.4208,117.1923 -56.5657,239.1862 -80.0005,364.8088 -1.4469,7.9196 -2.9963,15.7406 -4.0697,23.5786 -0.5616,4.0161 -0.4033,7.3179 -0.4383,10.7617 0.031,3.0777 0.1888,6.2149 0.9778,7.6375 0.7912,0.2436 1.7911,-2.4113 2.5913,-4.2749 1.7827,-4.4335 3.3963,-9.4924 4.8723,-14.6275 1.1176,-4.4544 2.0189,-9.4284 2.9843,-14.0977 3.3682,-16.924 6.5595,-33.7958 9.936,-50.5377 30.4494,-152.729 64.0521,-297.6145 103.0775,-437.6094 13.9977,-50.1042 28.5015,-99.2603 44.3602,-146.3176 4.586,-13.503 9.2607,-26.8086 14.1546,-39.1207 4.2456,-10.497 8.6332,-20.2468 13.0391,-28.2484 2.9075,-5.2313 5.7717,-9.1401 8.5859,-12.7188 2.7227,-3.6388 5.4647,-7.5624 8.0833,-10.0937 3.1666,-3.1727 6.2523,-5.1861 8.7044,-4.0816 2.1705,1.0498 3.643,5.2019 3.8939,11.8667 0.4102,8.7886 -0.7915,20.2124 -2.269,31.2191 -1.0087,7.7436 -2.2601,15.6962 -3.9974,23.4752 -2.3952,11.0274 -5.1814,21.5957 -7.8658,32.2849 -7.3861,28.9296 -14.9956,57.2214 -22.4099,85.5507 -11.8277,44.798 -23.477,90.029 -34.5004,135.2859 -20.0521,82.0723 -38.8242,166.4496 -55.5983,252.7591 -10.6608,54.7371 -20.8085,110.9765 -29.6907,167.9781 -0.7108,5.373 -1.6456,11.0022 -1.453,15.9672 0.2381,3.9387 0.5179,8.3132 1.8604,10.0071 0.8326,0.3987 1.8011,-1.8394 2.5591,-3.5091 1.4141,-3.3466 2.7283,-7.0641 3.8387,-11.014 0.9702,-3.9917 1.6323,-8.1951 2.4122,-12.2829 2.3586,-13.1736 4.5077,-26.3436 6.8162,-39.4073 19.9922,-114.7338 42.0876,-224.25 67.5774,-330.3054 10.989,-45.6624 22.5224,-90.4698 34.8625,-134.4035 6.6023,-23.3815 13.3854,-46.4136 20.6887,-68.5135 5.1863,-15.5062 10.6254,-30.4705 16.4279,-43.7258 8.9212,-20.0756 18.5795,-35.0948 27.861,-43.633 3.5717,-2.9093 7.1362,-3.7735 9.6744,0.069 2.2974,3.5937 3.3167,11.3719 3.3056,19.8808 0.044,7.9568 -0.5034,16.529 -1.3862,25.0254 -1.0626,8.3585 -2.7567,16.4552 -4.3857,24.4838 -4.0738,19.5521 -8.5096,38.2912 -12.9724,57.1433 -7.0029,29.4441 -14.4766,60.2825 -21.2977,89.5588 -13.2163,56.4624 -25.8874,113.9721 -37.4411,172.1767 -17.4893,87.9822 -33.0954,179.562 -45.7963,274.1399 l -0.047,0.3476 c -0.9688,7.4 -2.0192,14.8641 -2.7129,22.3381 -0.2654,3.1178 -0.4745,6.6617 -0.051,9.5432 0.3797,3.4383 0.7899,7.1052 1.9289,9.3353 0.4731,0.8559 1.1604,0.368 1.6967,-0.5298 1.3255,-2.0537 2.3686,-5.0163 3.398,-7.8028 1.0003,-2.7291 1.8381,-5.7687 2.2938,-9.0288 2.1821,-12.8474 3.7974,-25.9022 5.7225,-38.7488 21.4073,-147.9541 47.7813,-287.7255 79.3223,-421.214 10.4063,-44.133 21.5058,-88.1269 32.9268,-131.7471 7.7569,-29.7589 15.3559,-58.4613 23.078,-89.1459 4.6295,-18.4376 9.1074,-37.2556 12.5327,-57.3378 l 0.042,-0.2537 c 1.6052,-9.6714 3.1756,-19.1799 4.3483,-29.0588 0.8994,-7.8239 1.6671,-15.9878 1.3966,-22.9179 -0.1635,-4.6296 -0.9375,-8.3403 -2.2293,-10.2037 -1.7011,-2.5846 -3.9468,-2.6804 -6.2451,-2.0392 -3.1902,0.9276 -6.5328,3.1421 -9.8885,5.8256 -6.6584,5.4112 -13.7234,13.459 -20.2078,16.4209 -2.405,1.0457 -4.7847,0.6548 -5.9476,-3.6438 -1.3512,-4.8994 -1.071,-13.4378 0.014,-22.1713 0.9708,-7.9323 2.2914,-16.0817 3.405,-24.1469 2.4881,-17.2188 5.3367,-35.052 6.9772,-51.8118 0.6068,-6.7565 0.9927,-13.8122 -0.1119,-17.2969 z m 574.9221,727.3092 c -5.7113,-3.2014 -10.6463,-3.0629 -14.8738,-2.2114 -1.5146,0.31 -2.9782,0.6995 -4.4028,1.1492 -7.3854,2.3309 -13.7356,6.2873 -20.6612,9.1243 -5.5064,2.3757 -11.2913,4.3936 -18.2388,3.8142 -0.593,-0.086 -1.2062,-0.2266 -1.8344,-0.4202 -4.1483,-1.2785 -8.9343,-4.843 -12.8592,-9.7908 -5.4378,-6.6361 -9.3336,-14.4724 -12.6354,-21.9263 -3.9903,-8.7801 -8.1421,-17.5103 -12.3489,-26.1636 -3.8857,-7.8318 -7.9184,-15.5763 -12.723,-22.9014 -2.709,-4.008 -5.8722,-8.0237 -9.2237,-10.2911 -2.0066,-1.3495 -3.8271,-1.616 -5.4922,-1.6525 -5.0276,-0.3871 -9.6306,0.2857 -14.6767,-0.228 -6.8556,-0.2685 -14.1661,-1.2692 -22.064,-5.7904 -6.3497,-3.6812 -12.9069,-10.2951 -18.0386,-18.369 -2.9134,-4.1593 -5.7635,-8.5256 -8.9533,-12.1159 -1.8123,-1.9343 -3.8537,-3.1729 -5.3812,-2.9313 -1.8902,0.1312 -3.2793,1.3865 -4.5548,2.6806 -0.1212,0.6028 -0.2325,1.2141 -0.335,1.8331 l 0,0 c -0.6199,3.742 -0.9189,7.756 -1.1632,11.8534 -0.1989,3.8859 -0.2788,7.8585 -0.3344,11.8602 -0.051,3.6669 -0.082,7.3753 -0.1659,11.0188 -0.4932,30.4607 -0.9742,61.3327 -1.8098,91.7802 -0.4696,17.5929 -1.1581,35.0607 -1.6617,52.7323 -2.34,77.1928 -4.1291,156.8834 -4.116,238.5409 0.025,37.8476 0.4199,76.2343 1.4698,115.5533 0.1799,5.5334 0.4223,11.0713 1.215,17.0549 0.9434,2.6713 1.9794,5.366 3.0721,8.0577 1.0565,2.4808 2.2874,5.1381 3.9725,7.2749 1.4516,1.3193 2.3001,0.3713 3.0877,-0.103 1.5865,-1.2555 2.6498,-3.3181 3.4761,-5.6011 0.589,-2.9957 0.4836,-6.5974 0.6339,-10.0288 0.2548,-13.7028 0.051,-27.7411 0.1405,-41.4902 0.1482,-70.5271 0.5043,-139.2265 2.5618,-206.1007 1.0462,-32.9651 2.4103,-65.1899 4.8027,-96.5833 1.2321,-15.3799 2.668,-30.4818 4.9189,-44.845 1.4495,-8.7741 3.324,-17.179 6.5079,-24.0878 2.3899,-4.6509 5.7298,-8.0716 9.1812,-11.2431 5.2525,-4.4449 11.6118,-7.371 19.4232,-7.0666 4.7251,0.1574 10.2632,1.8862 16.0364,6.3924 4.0715,3.1055 8.0741,7.6284 11.4566,12.649 4.1198,6.0421 7.5429,12.6633 10.1863,19.169 3.7737,9.6538 5.6044,18.7936 7.2806,27.7416 2.3398,13.1956 3.7498,25.8816 4.8318,38.4022 1.5621,19.5539 2.1929,38.4208 2.7754,57.4338 0.8773,31.6188 1.2391,62.798 1.5803,94.4149 0.6619,66.4297 0.7636,133.2944 1.7757,201.9247 0.3479,21.9926 0.6701,43.8839 1.5486,66.5789 0.2829,4.1422 0.1478,8.0783 1.2659,12.9651 0.6788,2.2956 1.7338,4.7356 2.4619,7.0612 0.994,2.6854 2.2263,5.6971 4.0241,8.1868 1.7549,1.9489 2.9481,1.3571 3.8819,0.9238 1.6194,-0.7893 3.0352,-2.0268 3.769,-4.1846 0.4964,-3.4768 0.5549,-7.4335 0.6673,-11.3195 0.1146,-8.9612 0.1057,-18.031 0.1623,-27.019 0.3307,-83.709 -0.2832,-166.9042 0.8022,-247.2468 0.4711,-31.7226 1.0879,-62.9323 2.9106,-93.1464 0.9137,-14.6353 2.0907,-28.9897 4.2622,-42.4558 0.8704,-5.1999 2.0516,-10.1283 3.7438,-14.5043 0.7967,-2.0597 1.7067,-3.9973 2.751,-5.784 3.8581,-7.501 8.6836,-14.021 15.3481,-17.9478 2.9154,-1.7703 6.1916,-3.0009 9.5323,-4.1216 4.0614,-1.2754 8.9283,-1.423 14.4743,0.5509 0.9271,0.3299 1.8736,0.7193 2.8391,1.1729 4.8155,2.222 10.0692,6.5946 14.6375,12.0853 6.7552,8.0939 12.1744,17.769 15.9788,27.093 5.2455,12.8073 7.7899,24.9502 9.8474,36.6669 2.6899,15.6965 3.9945,30.6128 5.3977,45.643 3.7855,43.2921 5.528,85.451 6.7131,127.615 1.2699,47.1347 1.8163,94.2166 2.097,141.3749 0.3062,55.6037 0.097,129.2093 0.4077,186.2168 0.097,5.4498 0.082,10.7718 0.9036,17.0335 0.8459,4.5245 2.5118,9.9743 4.7561,15.2862 1.349,3.1308 3.6918,6.3699 5.2002,6.6566 2.4515,0.8735 3.6219,-1.1136 4.7541,-2.8813 1.2229,-2.5075 1.2438,-6.7839 1.5142,-10.6558 0.7288,-13.3797 0.7841,-27.2463 1.1765,-40.9603 3.1175,-139.3544 2.5567,-278.2641 -3.6911,-418.5623 -1.0471,-23.8958 -2.2672,-47.7659 -4.4657,-72.1887 -1.4892,-16.7255 -3.307,-33.6238 -5.7194,-50.7108 -1.528,-10.582 -3.1845,-21.1225 -5.7388,-32.092 -1.9948,-8.1043 -4.6448,-16.3984 -7.4508,-24.6392 -4.326,-12.3912 -9.8472,-24.9415 -17.1574,-36.8776 -3.6965,-6.0456 -8.5344,-11.7908 -13.6486,-15.2168 -0.6,-0.4116 -1.1989,-0.7792 -1.7947,-1.1016 z m -280.0068,-207.3672 c -2.2527,-1.5875 -4.3397,-1.9427 -6.5367,-3.008 -7.2393,-2.9417 -14.7018,-5.874 -22.0082,-12.1243 -5.9948,-4.924 -11.7429,-12.4445 -16.3813,-21.5396 -1.6614,-3.1885 -3.1518,-6.5775 -4.6607,-9.9281 -1.1531,-2.1529 -2.6215,-4.528 -4.0555,-4.5898 -1.8382,-0.1909 -3.1236,1.5804 -4.3821,3.1147 -0.8341,1.0765 -1.5921,2.3426 -1.9061,4.2028 -2.3492,9.9238 -3.5404,21.0852 -4.8759,32.097 -4.2377,35.6 -8.0603,71.3454 -12.3167,106.7282 -7.0869,61.1145 -13.5294,124.306 -18.0713,188.5315 -4.7406,66.6927 -8.1336,135.8592 -8.9338,207.6215 -0.068,8.3686 -0.1747,16.7678 -0.1234,25.2425 0.087,2.635 0.1168,5.2781 0.5206,7.9297 0.1394,1.2636 0.5739,2.6276 1.0707,3.9524 1.2078,3.4824 2.3657,7.2677 4.5083,10.1242 0.6953,0.9632 1.5053,0.9939 2.0311,0.5474 1.4766,-1.0193 2.4083,-2.9905 3.311,-4.8731 0.9051,-2.0711 1.6576,-4.2076 1.8392,-6.9414 0.4079,-4.79 0.5133,-9.8685 0.7095,-14.8244 0.5936,-19.5114 1.2209,-38.8434 1.9466,-58.0243 3.1874,-84.9508 7.7836,-165.652 16.5201,-243.1847 3.0877,-26.9451 6.5997,-53.1761 11.6244,-77.9484 2.6609,-13.0829 5.8485,-25.6561 10.799,-35.7361 2.3043,-4.7408 4.7958,-9.2339 7.9304,-12.5279 2.6642,-2.777 5.8502,-4.4957 9.3905,-5.1141 4.5501,-1.061 9.4622,-1.0593 13.7619,-2.7699 4.3249,-2.3059 7.0767,-7.6498 9.4878,-13.1414 2.1556,-4.9596 3.8192,-10.5523 5.2267,-16.4094 1.9194,-7.6505 3.6777,-15.4171 5.1293,-23.5583 0.7935,-5.1773 1.3351,-10.6364 1.5548,-16.2892 0.064,-0.9399 -0.5187,-2.0843 -0.7559,-3.1293 -0.4859,-1.6555 -1.3038,-3.4909 -2.3541,-4.4312 z m 1090.0534,609.5275 c -23.7501,2.0268 -45.9509,5.6772 -70.0974,0.04 -15.685,-3.9359 -31.8705,-11.8544 -46.8418,-25.913 -9.2635,-8.4854 -18.0337,-18.3759 -27.1638,-26.8692 -3.048,-2.2541 -6.0462,-1.4357 -7.6661,1.0426 -3.7778,4.3401 -5.8481,10.9243 -7.5579,17.5254 -0.9406,6.181 -0.3629,13.3501 -0.5375,19.9962 0.2916,29.5474 2.8767,60.2297 4.0788,90.3761 3.6857,78.0424 5.1272,154.9345 2.9853,230.3353 -4.0164,165.711 -18.1953,325.289 -39.5247,476.0938 -10.9497,77.3809 -24.0114,152.6285 -38.8537,225.5894 -11.8377,58.3902 -24.8942,115.9514 -38.7377,172.4964 -1.6226,7.579 -3.6831,14.622 -3.6182,25.7637 -0.081,8.5434 0.1727,18.0155 1.6084,27.9082 0.4952,3.2997 1.6089,6.1857 2.667,6.7026 2.4395,2.0422 4.5008,0.9531 6.563,0.1443 2.4702,-1.1252 4.8369,-3.2343 6.367,-8.2092 3.9539,-11.0338 7.3342,-23.4524 10.8545,-35.6108 19.4505,-69.0286 36.826,-141.3003 52.1588,-216.5926 26.1647,-128.2945 46.0738,-262.6187 61.9739,-402.7411 7.3097,-63.3466 14.2268,-129.7818 23.4948,-191.3849 5.6374,-35.6559 13.4844,-69.4736 25.2141,-98.9713 6.7284,-16.1664 16.1733,-29.5116 29.1109,-35.3561 6.3666,-3.2033 12.709,-6.6923 19.1901,-10.0381 7.9396,-3.5216 15.5744,-8.7726 20.6765,-18.6049 6.4082,-11.0743 10.9397,-25.0857 14.5805,-40.0161 3.6103,-16.424 5.7211,-34.1365 8.0027,-51.894 2.6831,-22.2389 4.933,-44.9965 6.2331,-68.3765 0.3532,-16.3372 0.3395,-32.8463 -1.2953,-49.875 -2.5152,-4.9805 -4.6885,-11.3487 -8.8135,-13.6651 -1.7289,-0.5083 -3.3777,0.1509 -5.0518,0.1064 z m -1291.242,-856.6971 c -0.9154,-1.0896 -2.0305,-0.2818 -2.9676,0.7228 -1.2765,1.5486 -2.425,3.8258 -3.4759,6.2767 -1.5341,4.1683 -2.804,8.8524 -4.1582,13.4703 -3.7673,13.3113 -7.3116,26.691 -10.9041,40.1405 -35.0286,132.4448 -63.0127,272.5342 -82.2237,421.1263 -5.0786,39.574 -9.9221,80.5131 -12.2202,122.0297 -0.668,12.3424 -1.2445,24.9379 -0.8444,37.4416 0.4251,14.648 1.8769,29.0852 4.1625,43.1116 1.3286,8.3202 2.9365,16.3397 5.2531,23.8309 2.2186,7.1331 5.0873,13.8925 9.0645,17.7373 3.845,3.8507 8.4615,3.8048 12.4625,2.1005 1.2361,-0.5253 2.4509,-1.1537 3.6478,-1.8587 4.0365,-2.3779 7.8917,-5.6427 11.6842,-8.7906 7.5102,-6.2396 14.7705,-12.9784 22.988,-15.7091 5.407,-1.7712 11.2512,-1.3517 16.8689,2.3408 3.0319,1.8307 6.0031,4.324 9.0392,6.0978 2.3809,1.0852 4.849,0.2727 6.4023,-2.2596 1.9211,-2.7254 3.3532,-6.2895 4.4956,-10.0537 0.8213,-4.8527 0.9981,-10.1166 1.3564,-15.2239 0.3084,-5.2701 0.3831,-10.5715 0.2141,-16.024 -0.3922,-25.1326 -0.5692,-49.9418 0.5532,-74.3165 1.0166,-22.977 2.6631,-45.6351 4.5367,-67.9258 4.7114,-55.5438 11.4024,-109.7171 18.9224,-162.2255 10.2068,-71.0143 22.8574,-140.7906 36.7199,-208.6302 2.0345,-10.033 4.1453,-20.0003 6.216,-30.0531 0.6966,-3.5401 1.4083,-7.1383 1.8413,-10.9954 0.02,-4.2388 -0.2236,-8.8517 -1.3919,-12.8565 -0.1996,-0.9235 -0.5886,-1.7054 -1.0439,-1.6099 -1.0867,0.063 -1.987,1.3401 -2.8548,2.4579 -1.1258,1.6498 -2.2374,3.4773 -3.0241,5.9399 -1.2262,3.9127 -2.2908,8.4386 -3.3711,12.77 -3.0441,12.5899 -5.9074,25.2485 -8.7749,38.0007 -19.5423,87.5622 -34.8343,177.2979 -48.6054,271.2399 -4.5369,30.728 -8.9948,62.4277 -14.1456,93.3216 -2.7276,16.0955 -5.7703,32.1716 -10.111,47.098 -2.7948,9.2816 -6.2051,18.0604 -10.5666,25.3132 -3.772,6.0606 -8.135,10.9513 -12.3908,16.19 -3.8339,4.1561 -8.2609,7.284 -12.9894,7.4141 -1.2523,0.026 -2.5179,-0.2213 -3.762,-0.7309 -2.2968,-0.9409 -4.5198,-2.7766 -6.4525,-5.4456 -3.9872,-5.4111 -6.7173,-13.3519 -8.7838,-21.5497 -2.4181,-9.7279 -3.8947,-20.125 -5.1264,-30.5287 -1.137,-11.313 -0.4846,-22.8514 0.1494,-34.0556 1.8012,-30.5496 5.1747,-60.6621 8.9354,-90.0321 5.3405,-40.7788 11.6876,-80.8542 18.5843,-120.0675 11.0019,-62.3223 23.6899,-123.3435 37.5825,-183.0081 8.443,-36.1368 17.4856,-72.2906 26.7711,-108.1808 0.8458,-3.699 1.7701,-7.2549 2.1375,-11.4798 0.1848,-3.1636 0.5633,-6.4205 0.3246,-9.5785 -0.1113,-1.169 -0.3138,-2.3509 -0.7256,-2.9808 z m 280.1461,332.3993 c -0.5119,-0.013 0.041,0.8485 0.097,0.081 z m 429.5489,277.3212 c -2.8366,-0.2974 -5.0336,1.0727 -5.8286,3.7929 -1.7193,3.9315 -2.429,8.6477 -2.0761,14.1099 0.5416,13.3863 1.6632,27.1348 2.4538,40.7107 5.5752,89.9423 9.0412,179.6376 10.2172,268.7024 1.0202,75.3317 0.5405,150.9359 -1.0558,225.8462 -0.5977,29.3448 -1.4679,59.2335 -2.3141,88.7435 -0.7493,29.7662 -1.0972,59.803 0.1356,92.9768 0.8176,20.6732 2.6212,42.8392 6.9163,68.2937 3.2593,20.0359 7.1937,41.1598 13.1944,64.2368 3.7677,14.4015 8.7321,30.3487 15.1436,44.3434 4.7938,10.5021 10.0977,19.128 15.1109,25.4788 8.6747,11.2178 16.5119,17.0768 24.2917,22.6178 3.6224,2.5933 7.2479,5.0865 10.9162,7.7466 7.974,5.7827 16.2385,12.4166 25.0037,22.6482 7.0123,8.2354 14.5521,19.6402 21.3798,34.7229 4.5178,9.5418 9.1522,19.6055 13.8768,27.8418 4.0742,6.9411 8.1001,11.9316 11.7119,13.9142 4.0359,2.36 7.7151,2.6878 10.7387,0.9202 1.578,-5.016 2.6126,-11.1781 3.7265,-17.2322 1.6741,-9.6514 2.9895,-19.9848 3.3967,-31.8456 1.7465,-34.4025 3.4456,-68.852 5.7934,-101.0898 1.8258,-24.9677 5.2129,-68.0755 7.0242,-92.8502 6.2011,-82.7161 11.5484,-167.3155 14.0274,-251.819 4.0488,-135.6541 2.4592,-275.9372 -7.8943,-418.2749 -0.8659,-10.4002 -1.5209,-20.7044 -3.2919,-31.4593 -0.8226,-4.3893 -2.3294,-8.9708 -4.4572,-13.3735 -1.6952,-4.0235 -4.2013,-8.5856 -7.4818,-10.653 -3.5643,-1.6852 -5.5705,1.2907 -6.8431,3.7984 -2.3418,4.3171 -3.2325,10.2122 -2.8464,16.6371 0.4185,22.2913 2.0355,45.2914 2.8378,67.8428 5.9278,142.5953 7.0806,281.1778 -0.869,415.228 -2.9385,48.9849 -6.891,96.5193 -13.2872,141.1828 -3.0863,20.9756 -6.5326,41.3294 -11.6183,58.8753 -3.1749,10.7685 -6.6308,20.9839 -11.0637,29.1276 -4.231,7.5962 -9.6142,12.7002 -16.51,13.3709 -5.532,0.912 -11.3118,1.0757 -17.6833,-0.9504 -2.7468,-0.8728 -5.5981,-2.1507 -8.5836,-3.9461 -6.7453,-4.0932 -14.4272,-11.4862 -22.1759,-23.9825 -6.3367,-10.0224 -12.2659,-23.0472 -16.8797,-35.7168 -5.4814,-15.0591 -9.734,-29.8794 -13.3289,-43.9451 -3.7162,-14.7571 -6.6701,-28.8133 -9.1288,-42.274 -2.0531,-12.8296 -2.4459,-23.6691 -3.0298,-34.7031 -1.4825,-33.4382 -1.2353,-63.5434 -1.0417,-94.2077 0.4739,-58.1091 0.9452,-117.5052 0.485,-175.0411 -0.5682,-77.0975 -2.6369,-154.8931 -6.9755,-233.0635 -2.3269,-41.3314 -5.2984,-82.8518 -9.2445,-124.5638 -0.5959,-5.2032 -1.1102,-10.4524 -2.5788,-16.0123 -1.7384,-4.3405 -3.7494,-8.5224 -6.3157,-12.6196 -1.0612,-1.5265 -2.3367,-3.3439 -3.7243,-4.0548 -0.083,0.013 -0.169,-0.02 -0.2536,-0.03 z"
     transform="matrix(0.14468474,0.0043143,0.03392536,0.04615143,-451.14342,230.77099)" />
  <path
     id="path10-3"
     style="display:inline;stroke-width:10;stroke-linecap:round;stroke-linejoin:round;stroke-miterlimit:10000;paint-order:stroke fill markers"
     d="m 126.48967,21.371837 c -0.32621,0.06008 -0.64897,0.155271 -0.96307,0.278183 -2.56959,1.005304 -4.48768,3.704441 -4.73108,4.051304 -0.0248,0.03578 -0.036,0.08641 -0.0302,0.134569 l 0.46948,3.786824 c 0.0203,0.134343 0.14672,0.14402 0.18655,0.0135 0.23692,-0.8188 0.53733,-1.706323 1.00219,-2.571478 0.61421,-1.143023 1.46971,-2.195291 2.62137,-2.722832 1.15166,-0.52754 2.58643,-0.526843 4.33683,0.347786 2.03588,1.017276 3.29043,3.195825 3.99975,5.73951 0.70962,2.54472 0.89349,5.463058 0.82463,8.084783 -0.0756,2.883638 -0.72226,6.435349 -1.83887,9.316964 -1.11614,2.880488 -2.74919,5.14851 -4.77319,5.101073 -1.55277,-0.03646 -3.01374,-2.108475 -4.03288,-4.61145 -1.01901,-2.502684 -1.60839,-5.480274 -1.00821,-7.712628 0.94123,-3.50081 1.72932,-5.636535 2.40768,-6.879382 0.3395,-0.622077 0.64841,-1.026593 0.97209,-1.245908 0.31664,-0.214454 0.67779,-0.201628 0.92998,0.0016 0.52491,0.422945 0.70654,1.325231 0.79452,2.272657 0.0542,0.584293 0.0429,1.167192 -0.0158,1.724279 -0.0113,0.09519 0.0433,0.173499 0.10824,0.157522 l 1.68237,-0.425017 c 0.0567,-0.01575 0.0954,-0.09789 0.0842,-0.1789 -0.0522,-0.382575 -0.1006,-0.861216 -0.33406,-1.878088 -0.31405,-1.368457 -0.81581,-2.926864 -1.46266,-3.703784 -0.32097,-0.385478 -0.65912,-0.582358 -1.05036,-0.540413 -0.39266,0.04208 -0.87109,0.333271 -1.44761,1.067998 -1.15441,1.471185 -2.65193,4.693159 -4.46023,10.60259 -0.74413,2.4318 -0.056,5.975657 1.33326,8.92343 1.38944,2.948112 3.45573,5.224729 5.1404,5.331438 2.26831,0.143796 4.42598,-1.990108 6.05529,-5.249099 1.62964,-3.259575 2.69604,-7.613006 2.75377,-11.696174 0.1069,-7.551686 -2.77613,-14.465385 -6.53985,-16.90371 -0.67845,-0.439531 -1.35846,-0.651938 -2.02543,-0.687515 -0.33384,-0.018 -0.66396,0.009 -0.99017,0.06953 z m 1.9713,17.951994 c -0.418,0.08844 -0.86,0.700522 -1.19481,1.564373 -0.33482,0.863962 -0.53247,1.925681 -0.52065,2.638985 0.0112,0.75705 0.14604,1.810173 0.39123,2.549895 0.12287,0.370874 0.27005,0.64773 0.41532,0.794112 0.0659,0.06638 0.13029,0.118368 0.20456,0.135695 0.0744,0.01801 0.14919,-4.51e-4 0.23774,-0.04298 0.18813,-0.08979 0.37743,-0.335499 0.56281,-0.678042 0.18543,-0.342564 0.3632,-0.786866 0.5056,-1.292736 0.28392,-1.00859 0.43329,-2.18314 0.40931,-2.862104 -0.0225,-0.633688 -0.12535,-1.445734 -0.31602,-2.024718 -0.0956,-0.289748 -0.20837,-0.505936 -0.32503,-0.635059 -0.10824,-0.119941 -0.22604,-0.178225 -0.37018,-0.147621 z m -58.696463,7.525515 c -0.313618,0.14582 -0.606646,1.259837 -0.603036,2.697427 l 0.0017,0.445358 c 0.0017,0.620164 0.107454,1.382997 0.273871,2.050394 0.09472,0.379808 0.214567,0.698857 0.340086,0.936985 0.125518,0.238105 0.25338,0.399273 0.394254,0.453146 0.04001,0.01576 0.06436,0.03645 0.117375,0.01576 0.02651,-0.009 0.04927,-0.03218 0.06019,-0.04478 0.011,-0.0135 0.01492,-0.018 0.02409,-0.02858 0.07703,-0.08821 0.160473,-0.252328 0.237758,-0.508796 0.153312,-0.508774 0.240976,-1.258847 0.252805,-1.819872 0.01526,-0.723588 -0.05135,-1.780582 -0.231739,-2.647446 -0.09046,-0.43476 -0.209073,-0.791974 -0.340077,-1.055644 -0.131013,-0.263692 -0.271712,-0.443536 -0.430376,-0.489533 -0.04843,-0.0135 -0.09499,-0.0045 -0.09632,-0.0045 z m -0.165533,9.411365 c -0.539489,0.08259 -0.998383,0.182276 -1.441596,0.267563 -0.0576,0.009 -0.10061,0.08799 -0.0933,0.170799 l 0.195619,2.127602 c 0.0067,0.08664 0.06519,0.139744 0.123385,0.112291 0.776155,-0.370087 1.783841,-0.885251 2.741742,-1.032512 0.568341,-0.08731 1.112348,-0.04658 1.546942,0.351657 0.428725,0.392791 0.683105,1.171692 0.656088,2.205755 -0.0311,1.188255 -0.515706,2.228326 -1.149669,3.164614 -0.634156,0.936579 -1.437112,1.801869 -2.218068,2.665358 -0.78099,0.863512 -1.535896,1.724775 -2.064589,2.5947 -0.527651,0.868192 -0.819003,1.702247 -0.770453,2.599424 0.04493,0.829442 0.386894,1.56804 0.957051,2.227584 0.57075,0.660242 1.35976,1.216068 2.227096,1.636696 1.569983,0.761371 3.31907,1.026998 4.490322,0.953975 0.05735,-0.0022 0.104344,-0.07493 0.102344,-0.158422 l -0.0481,-2.777875 c -0.0017,-0.08011 -0.04735,-0.139295 -0.102353,-0.131643 -0.766677,0.09384 -1.956726,0.333925 -3.190166,0.33361 -0.696386,-1.81e-4 -1.363644,-0.07651 -1.911094,-0.345987 -0.543874,-0.267606 -1.008319,-0.790264 -1.10452,-1.621236 -0.123293,-1.064983 0.277197,-2.045061 0.833659,-2.917056 0.557511,-0.873639 1.298137,-1.71224 2.034487,-2.627217 0.736341,-0.914932 1.46482,-1.899825 1.986328,-2.992149 0.520932,-1.091131 0.840519,-2.27421 0.797546,-3.67863 -0.03543,-1.158572 -0.313593,-1.866835 -0.73735,-2.352408 -0.426458,-0.4887 -0.942772,-0.743931 -1.712458,-0.846927 -0.420889,-0.05625 -1.79276,0.01576 -2.148851,0.07066 z M 182.33943,66.486825 c -0.56869,0.05895 -1.15114,0.158196 -1.74558,0.307528 -2.75463,0.691971 -5.77417,2.410444 -9.00168,5.482119 -0.0263,0.02475 -0.0441,0.06526 -0.0482,0.10959 l -0.43939,5.308462 c -0.0158,0.143795 0.10576,0.21693 0.17147,0.103515 2.14074,-3.459584 5.68076,-7.315291 9.01675,-8.04581 0.0641,-0.01351 -5.9e-4,-0.009 0.0633,-0.0045 0.0639,0.0045 0.002,-0.01125 0.0633,0.01125 0.0612,0.02295 0.005,-0.0068 0.0603,0.0342 0.0563,0.04028 0.005,-0.009 0.0543,0.04793 0.0491,0.05625 0.005,-0.009 0.0453,0.06189 0.0401,0.06998 0.007,-0.0045 0.036,0.07583 0.0295,0.08101 0.002,-0.0022 0.0203,0.08619 0.018,0.08866 0.007,0.0023 0.0112,0.09564 0.6877,12.445325 -0.85106,17.22735 -1.51684,24.51777 -0.007,0.08754 0.0393,0.160223 0.0995,0.153921 l 3.33463,-0.298076 c 0.0587,-0.0045 0.10486,-0.08214 0.0995,-0.166978 -0.55043,-7.835555 -1.18572,-12.39941 0.0932,-24.669323 0.0113,-0.09969 -0.007,0.02025 0.0158,-0.07606 0.0203,-0.09676 -0.0112,0.02026 0.018,-0.07201 0.0311,-0.09159 -0.0135,0.01576 0.0272,-0.06841 0.0405,-0.08394 -0.0113,0.0135 0.036,-0.0603 0.0486,-0.07426 -0.0157,0.01125 0.0392,-0.05176 0.0558,-0.06256 -0.0158,0.0068 0.0453,-0.04365 0.0614,-0.04951 -0.018,-6.7e-5 0.0482,-0.0351 0.0653,-0.03488 -0.0157,0.0018 0.0511,-0.01801 2.43301,-0.697754 4.29474,0.342116 5.74833,1.963982 1.14584,1.278492 2.02689,2.852833 2.83807,4.290309 0.0547,0.101039 0.16989,0.04231 0.17755,-0.09024 l 0.28592,-5.132331 c 0.002,-0.05199 -0.0113,-0.101264 -0.0423,-0.128043 -2.17562,-2.105324 -4.87017,-3.608261 -8.03863,-3.744563 -0.54244,-0.02341 -1.09862,-0.0045 -1.66732,0.05446 z m -1.41781,31.071102 c -0.49759,0.04368 -1.03395,0.768596 -1.4476,1.819582 -0.41689,1.059131 -0.6773,2.409881 -0.66214,3.490911 0.0113,0.81855 0.25013,1.82546 0.61097,2.60526 0.36151,0.7813 0.82528,1.28645 1.20985,1.32192 0.43348,0.0401 0.89871,-0.41048 1.29414,-1.19076 0.39614,-0.78171 0.68642,-1.84815 0.7494,-2.77778 0.0657,-0.96961 -0.0711,-2.3016 -0.36719,-3.373894 -0.14829,-0.537034 -0.33764,-0.982798 -0.5387,-1.310671 -0.20118,-0.327873 -0.41536,-0.542346 -0.63504,-0.585804 -0.0522,-0.01126 -0.10532,-0.009 -0.15954,-0.0026 z m -122.885934,61.712703 0.0511,1.1779 c 0.02251,0.5178 0.129888,1.03556 0.255815,1.52018 0.109972,0.42318 0.245052,0.77564 0.391253,1.03359 0.146193,0.25798 0.302315,0.42889 0.472507,0.47263 0.09354,0.0243 0.173086,0.0293 0.246778,-0.004 0.07369,-0.0333 0.130538,-0.10059 0.189617,-0.17936 0.133822,-0.17844 0.260966,-0.4923 0.358142,-0.90179 0.194151,-0.81828 0.248937,-1.94982 0.17757,-2.78016 -0.06461,-0.75163 -0.192876,-1.64469 -0.406292,-2.32005 -0.210382,-0.6658 -0.649702,-1.16843 -0.967914,-1.0185 -0.515013,0.24266 -0.76856,4.22152 -0.76856,2.99969 z m -5.173493,1.25541 c -0.06561,0.002 -0.1167,0.0925 -0.102328,0.18475 0.148477,0.94474 0.56053,3.41144 1.522858,6.41471 1.170343,3.65237 3.004793,7.30323 5.585813,7.73156 1.834383,0.30438 3.139898,-0.48301 4.132171,-1.84056 0.993731,-1.35944 1.665991,-3.33048 2.10973,-5.37201 0.775079,-3.56607 0.817294,-6.82089 0.82162,-7.70238 4.92e-4,-0.0857 -0.04993,-0.14875 -0.108354,-0.1357 l -1.70042,0.34303 c -0.05377,0.0113 -0.09398,0.0833 -0.09028,0.1618 0.03743,0.80213 0.141975,3.46923 -0.258824,6.51887 -0.232723,1.77078 -0.631796,3.53523 -1.360334,4.8577 -0.726021,1.31792 -1.825439,2.15021 -3.247361,1.92089 -1.243494,-0.20051 -2.241159,-1.19352 -3.015614,-2.51222 -0.774712,-1.31914 -1.339135,-2.97125 -1.760616,-4.59174 -0.734032,-2.82223 -0.976216,-5.19807 -1.038305,-5.85966 -0.0058,-0.0695 -0.0451,-0.11995 -0.09331,-0.11926 z m 112.498567,25.26534 c -0.0628,0.002 -0.11184,0.0875 -0.10013,0.17643 l 1.02736,8.49041 c 0.009,0.0779 0.009,0.049 0.002,0.12894 -0.007,0.0799 -5.4e-4,0.0504 -0.0203,0.12647 -0.0203,0.076 -0.0113,0.0495 -0.0441,0.11566 -0.0331,0.0663 -0.018,0.0441 -0.0618,0.0956 -0.0437,0.0518 -0.0257,0.0338 -0.0765,0.0669 -0.0511,0.0333 -0.0311,0.0252 -0.0853,0.0376 -0.0544,0.0135 -0.0344,0.0135 -0.0882,0.004 -0.0538,-0.007 -0.0364,-0.004 -0.0853,-0.0355 l -4.6512,-2.88354 c -0.0498,-0.0288 -0.10801,0.009 -0.12939,0.0846 l -0.73594,2.66999 c -0.0236,0.0846 0.0113,0.1753 0.0707,0.18723 l 5.37241,0.86398 c 0.0549,0.007 0.0319,0.002 0.0824,0.0313 0.0506,0.0299 0.0281,0.0135 0.0707,0.0583 0.0428,0.0486 0.0273,0.0254 0.0589,0.0896 0.0318,0.0639 0.0203,0.029 0.0383,0.10396 0.018,0.0747 0.0135,0.0383 0.018,0.11859 0.004,0.0805 0.004,0.0444 -0.007,0.12534 -0.0112,0.081 -0.002,0.0429 -0.0265,0.11814 -0.0243,0.0752 -0.0112,0.0429 -0.047,0.10734 l -2.94969,5.21647 c -0.038,0.0684 -0.0286,0.16652 0.0203,0.20883 l 1.95762,1.75792 c 0.0506,0.0425 0.11792,0.004 0.14132,-0.0769 l 1.67502,-6.2177 c 8.3e-4,-7e-5 0.002,-1.4e-4 0.002,-2.3e-4 0.018,-0.0715 0.0157,-0.0632 0.047,-0.12444 0.0324,-0.0609 0.0306,-0.056 0.0736,-0.10104 0.043,-0.0452 0.0389,-0.0433 0.0882,-0.0679 0.0495,-0.0243 0.0457,-0.0241 0.0972,-0.0268 0.0515,-0.002 0.0454,-0.002 0.0941,0.018 0.0486,0.0203 0.0439,0.0158 0.0853,0.0571 0.0414,0.0409 0.0403,0.0347 0.0707,0.0925 0.0306,0.0578 0.0277,0.0554 0.0441,0.12512 l 1.6338,6.76898 c 0.0157,0.0677 0.0662,0.10216 0.11476,0.0801 l 2.49634,-1.14408 c 0.0707,-0.0331 0.0961,-0.16225 0.047,-0.23626 l -4.00943,-6.18586 c -0.0347,-0.0531 -0.0313,-0.0448 -0.0531,-0.11138 -0.0225,-0.0666 -0.0203,-0.0612 -0.0266,-0.13525 -0.007,-0.074 -0.007,-0.0669 0.002,-0.14199 0.009,-0.0749 0.007,-0.0669 0.0295,-0.13593 0.0237,-0.0689 0.0228,-0.0644 0.0589,-0.12106 0.0364,-0.0567 0.0308,-0.049 0.0765,-0.0884 0.0454,-0.0392 0.0405,-0.0371 0.0914,-0.0554 0.0506,-0.018 0.0459,-0.018 0.097,-0.0113 l 5.19284,0.40261 c 0.0637,0.004 0.11634,-0.0815 0.10599,-0.1726 l -0.30321,-2.63847 c -0.009,-0.0747 -0.0572,-0.12173 -0.10892,-0.10644 l -5.00147,1.62256 c -0.0574,0.0203 -0.0225,0.0113 -0.0795,0.0113 -0.058,-2.3e-4 -0.018,0.002 -0.0736,-0.0203 -0.0551,-0.0225 -0.0225,-2e-5 -0.0707,-0.0409 -0.0493,-0.0409 -0.018,-0.007 -0.0589,-0.0635 -0.0403,-0.0576 -0.018,-0.018 -0.047,-0.086 -0.0293,-0.0709 -0.0158,-0.0225 -0.0324,-0.10037 -0.0157,-0.0804 -0.009,-0.0261 -0.0112,-0.11071 -0.002,-0.0851 -0.007,-0.0322 0.007,-0.11679 l 1.1569,-8.64831 c 0.0113,-0.0844 -0.0306,-0.1591 -0.0882,-0.15977 z m -56.73276,11.1205 c -0.74082,-0.0729 -1.53624,0.38906 -2.38963,1.72231 -0.8546,1.3351 -1.74059,3.54536 -2.57019,6.85413 -0.0203,0.0768 -0.0113,0.0603 -0.0453,0.12714 -0.0328,0.0669 -0.0203,0.0506 -0.0632,0.10239 -0.0438,0.0518 -0.0331,0.0364 -0.0844,0.0689 -0.0513,0.0326 -0.0358,0.0281 -0.0902,0.0387 -0.0544,0.0135 -0.0399,0.0135 -0.0934,-0.002 -0.0536,-0.0113 -0.0392,-0.007 -0.0873,-0.0405 -0.0481,-0.034 -0.0364,-0.018 -0.0752,-0.0724 -0.0389,-0.0526 -0.0277,-0.0373 -0.0542,-0.10509 0,0 -0.53589,-1.34384 -1.43556,-2.84471 -0.90015,-1.50167 -2.1595,-3.12772 -3.545326,-3.70066 -0.700295,-0.2895 -1.265151,0.0203 -1.736533,0.7682 -0.475991,0.75578 -0.832775,2.00421 -0.942013,3.51994 -0.218276,3.02992 0.538639,7.0715 2.955443,10.2442 1.903609,2.49901 2.947779,3.43712 3.322589,4.74872 0.18407,0.64451 0.13524,1.36694 -0.0693,2.1641 -0.15661,0.61051 -0.47648,1.46527 -0.80655,2.36523 -0.0319,0.0851 -0.002,0.18632 0.0603,0.20546 l 1.74557,0.59791 c 0.056,0.0157 0.11319,-0.0407 0.12354,-0.12535 0.12106,-0.95535 0.32893,-2.02091 0.20456,-3.41545 -0.15617,-1.7528 -0.84827,-3.96651 -3.078814,-6.63372 -1.951241,-2.33314 -2.747545,-4.88385 -2.768852,-6.94668 -0.01125,-1.03126 0.172593,-1.94466 0.526684,-2.62628 0.352331,-0.67845 0.89202,-1.10941 1.480726,-1.12369 0.641075,-0.0158 1.211596,0.55782 1.787696,1.33259 0.5743,0.77228 1.13623,1.7819 1.63724,2.78739 0.70616,1.41729 0.95127,2.10836 1.23693,2.82706 0.0418,0.1141 0.16111,0.0835 0.18361,-0.0468 0.74088,-3.97849 1.62962,-6.36155 2.61534,-7.46029 0.55043,-0.61354 1.15601,-0.82721 1.6944,-0.6678 0.54109,0.16022 1.00514,0.65921 1.38442,1.35051 0.75895,1.38326 1.20035,3.56091 1.12859,5.87804 -0.0715,2.3157 -0.67421,4.7852 -2.06759,6.62966 -1.32315,1.75151 -2.45678,4.12235 -3.19919,6.07006 -0.37113,0.97364 -0.64891,1.84214 -0.80055,2.46143 -0.0617,0.25195 -0.0866,0.42007 -0.10531,0.55428 -0.009,0.0641 0.0112,0.12714 0.051,0.15369 l 2.11275,1.34348 c 0.0711,0.0443 0.15234,-0.0481 0.14154,-0.16179 -0.12355,-1.15439 -0.10059,-2.47116 0.26185,-3.96109 0.50557,-2.07949 1.54382,-4.28647 3.29247,-5.91566 1.12604,-1.04916 1.8192,-2.7018 2.16691,-4.66065 0.34791,-1.95968 0.33897,-4.2059 0.0543,-6.33379 -0.28482,-2.12778 -0.84454,-4.13616 -1.56799,-5.60636 -0.72349,-1.47028 -1.59702,-2.37806 -2.49195,-2.46605 z m 52.11688,6.46912 c -0.0699,-0.0288 -0.13997,0.0653 -0.1267,0.17035 l 0.99793,7.36232 c 0.0112,0.0767 0.007,0.0495 0.002,0.12894 -0.004,0.0792 -8.3e-4,0.0554 -0.0203,0.13074 -0.0203,0.0756 -0.009,0.0538 -0.0412,0.11949 -0.0326,0.0659 -0.0225,0.0448 -0.0649,0.0959 -0.0432,0.0513 -0.0258,0.0384 -0.0765,0.0714 -0.0506,0.0326 -0.0344,0.0225 -0.0882,0.0335 -0.054,0.0135 -0.0351,0.0135 -0.0882,0.004 -0.0531,-0.009 -0.0374,-0.003 -0.0853,-0.0355 l -5.18989,-3.46804 c -0.0527,-0.0343 -0.11702,0.0112 -0.13547,0.0936 l -0.60641,2.98101 c -0.018,0.0817 0.018,0.16249 0.0736,0.17396 l 5.83459,1.07265 c 0.0533,0.0113 0.034,0.004 0.0824,0.0355 0.0486,0.0313 0.0335,0.018 0.0736,0.0668 0.0399,0.0502 0.0274,0.0328 0.056,0.0984 0.0283,0.065 0.0203,0.0378 0.0353,0.11274 0.0158,0.0749 0.0113,0.0486 0.0113,0.12781 -3.9e-4,0.0792 0.002,0.0529 -0.0113,0.13008 -0.0157,0.0774 -0.007,0.0497 -0.0353,0.11904 -0.0281,0.0678 -0.0225,0.0525 -0.0589,0.10396 l -4.29496,5.97116 c -0.0445,0.0614 -0.0432,0.16382 0.002,0.21512 l 2.01941,2.23825 c 0.0464,0.0538 0.11769,0.0288 0.1474,-0.0518 l 2.7377,-7.61817 c 0.0245,-0.0686 0.0225,-0.0653 0.0589,-0.12107 0.0369,-0.056 0.0306,-0.0499 0.0765,-0.0884 0.0459,-0.038 0.0403,-0.0338 0.0911,-0.0511 0.0511,-0.018 0.0459,-0.018 0.0972,-0.0113 0.0514,0.007 0.0473,0.003 0.0941,0.0303 0.0469,0.0277 0.0412,0.0274 0.0794,0.0749 0.0383,0.0473 0.0356,0.0394 0.0619,0.10171 0.0261,0.0628 0.0236,0.0533 0.0353,0.1258 -1e-5,0.002 -1e-5,0.002 0,0.004 l 1.29527,7.90369 c 0.0135,0.0801 0.0727,0.12061 0.12669,0.0875 l 2.57582,-1.55949 c 0.0608,-0.0364 0.0844,-0.14582 0.047,-0.21919 l -3.48839,-6.68738 c -8.4e-4,-0.002 -0.002,-0.002 -0.002,-0.004 -0.0302,-0.0571 -0.0279,-0.0519 -0.0444,-0.12083 -0.0158,-0.0691 -0.018,-0.0657 -0.018,-0.1402 -8.3e-4,-0.0743 5e-5,-0.0752 0.0158,-0.14717 0.0158,-0.0723 0.0113,-0.0689 0.0412,-0.13254 0.0288,-0.0637 0.0274,-0.0601 0.0677,-0.10914 0.0403,-0.049 0.0405,-0.0513 0.0882,-0.081 0.0477,-0.0294 0.0461,-0.027 0.0972,-0.0342 0.0508,-0.007 0.0482,-0.007 0.0972,0.0112 l 4.39504,1.34126 c 0.0675,0.0236 0.13322,-0.0646 0.12354,-0.16584 l -0.22368,-2.81335 c -0.007,-0.0744 -0.0515,-0.12557 -0.10307,-0.11545 l -4.62468,0.80698 c -0.0592,0.0113 -0.0158,0.0113 -0.0736,0.003 -0.0585,-0.009 -0.0158,0.002 -0.0707,-0.0282 -0.0544,-0.0297 -0.018,0.002 -0.0648,-0.0459 -0.0477,-0.0474 -0.0157,-0.007 -0.0531,-0.0684 -0.0383,-0.0628 -0.0157,-0.0135 -0.0412,-0.0866 -0.0268,-0.0747 -0.0112,-0.0203 -0.0266,-0.10081 -0.0135,-0.083 -0.009,-0.0203 -0.009,-0.10666 -5e-4,-0.0864 -0.004,-0.0225 0.009,-0.10802 l 0.98618,-6.52678 c 0.0113,-0.0704 -0.0158,-0.13817 -0.0619,-0.15775 z m 12.28148,1.01669 c -0.0657,2e-5 -0.11657,0.0936 -0.0999,0.18474 l 1.28352,7.58659 c 0.0112,0.0747 0.0112,0.0493 0.009,0.12827 -0.002,0.0785 0.002,0.0588 -0.0158,0.13457 -0.018,0.0765 -0.0112,0.0526 -0.0412,0.11971 -0.0306,0.0673 -0.0203,0.0511 -0.0618,0.10442 -0.0419,0.0533 -0.027,0.0362 -0.0765,0.0714 -0.0497,0.0352 -0.0349,0.0281 -0.0882,0.0423 -0.0533,0.0135 -0.038,0.018 -0.0911,0.007 -0.0531,-0.007 -0.0369,-0.004 -0.0853,-0.0355 l -4.63645,-2.84187 c -0.0634,-0.0384 -0.13682,0.0344 -0.1384,0.13682 l -0.0383,2.98686 c -0.002,0.0738 0.0351,0.13434 0.0853,0.13862 l 4.68944,0.45127 c 0.0543,0.002 0.0318,-0.002 0.0824,0.0228 0.0506,0.0268 0.0335,0.0135 0.0765,0.0579 0.0433,0.0462 0.0266,0.0274 0.0589,0.0896 0.0324,0.0621 0.0225,0.0303 0.0412,0.10374 0.0203,0.0736 0.0157,0.0436 0.0203,0.12309 0.005,0.0794 0.005,0.0495 -0.007,0.12962 -0.0112,0.0801 -0.002,0.0482 -0.0266,0.12264 -0.0243,0.0744 -0.0135,0.0444 -0.0499,0.10779 l -4.0124,7.00388 c -0.0434,0.0779 -0.0238,0.19015 0.0383,0.21986 l 2.67882,1.36339 c 0.0504,0.025 0.10756,-0.018 0.12669,-0.0929 l 1.90167,-7.91432 c 0.018,-0.0763 0.009,-0.0525 0.0412,-0.11971 0.0315,-0.0675 0.0203,-0.0473 0.0619,-0.10037 0.0425,-0.0531 0.0263,-0.0364 0.0765,-0.0711 0.0502,-0.0348 0.0315,-0.0279 0.0853,-0.0418 0.0538,-0.0158 0.0348,-0.0135 0.0882,-0.004 0.0536,0.007 0.0364,0.002 0.0853,0.0313 0.0491,0.0294 0.036,0.0157 0.0765,0.0664 0.0408,0.0488 0.0268,0.0302 0.056,0.0938 l 4.29507,9.35871 c 0.0289,0.0623 0.0878,0.0763 0.13254,0.0315 l 2.34328,-2.33002 c 0.056,-0.0554 0.0621,-0.17125 0.0113,-0.22888 l -6.20843,-7.13575 c -0.0372,-0.0428 -0.0428,-0.0514 -0.0678,-0.11005 -0.0248,-0.0589 -0.0283,-0.074 -0.0384,-0.14244 -0.0112,-0.0684 -0.009,-0.0837 -0.002,-0.15482 0.007,-0.0711 0.007,-0.083 0.0295,-0.14853 0.0225,-0.0659 0.0274,-0.0768 0.0618,-0.13029 0.0344,-0.0531 0.0416,-0.0628 0.0853,-0.0977 0.0437,-0.0351 0.0518,-0.0389 0.0999,-0.0515 0.0482,-0.0135 0.0585,-0.018 0.10599,-0.004 l 5.69622,1.23963 c 0.0628,0.0135 0.12151,-0.0632 0.11769,-0.1564 l -0.14109,-3.61594 c -0.002,-0.0824 -0.0529,-0.13952 -0.10892,-0.124 l -6.00239,1.73221 c -0.058,0.018 -0.018,0.0135 -0.0765,0.0112 -0.0583,-0.002 -0.0225,0.002 -0.0765,-0.0203 -0.0551,-0.0236 -0.018,0.002 -0.0678,-0.0413 -0.049,-0.0423 -0.018,-0.0113 -0.0589,-0.0678 -0.0399,-0.0589 -0.0158,-0.0157 -0.0443,-0.0864 -0.0288,-0.072 -0.0135,-0.0225 -0.0294,-0.10058 -0.0157,-0.0813 -0.009,-0.0257 -0.0112,-0.11072 -0.002,-0.0853 -0.007,-0.0232 0.007,-0.10801 l 1.04212,-7.59355 c 0.0135,-0.086 -0.029,-0.16359 -0.0882,-0.16404 z m -71.01747,22.86082 c -0.18137,0.42821 -0.30019,1.40382 -0.30611,2.16437 -0.007,0.90761 0.13187,2.21197 0.41534,3.28615 0.28419,1.07626 0.70028,1.84413 1.15868,1.97249 0.24168,0.0678 0.42268,-0.0203 0.59591,-0.22816 0.1825,-0.22008 0.35576,-0.59802 0.49356,-1.08071 0.27543,-0.96458 0.39263,-2.29458 0.33106,-3.29473 -0.0473,-0.76873 -0.26364,-1.81708 -0.58687,-2.65575 -0.31804,-0.82525 -0.72386,-1.3881 -1.0053,-1.42062 -0.52555,-0.0567 -0.84097,0.65462 -1.09627,1.25703 z" />
</svg>
