<?xml version="1.0" encoding="UTF-8" standalone="no"?>
<!-- Created with Inkscape (http://www.inkscape.org/) -->

<svg
   width="128"
   height="128"
   viewBox="0 0 33.866666 33.866666"
   version="1.1"
   id="svg1"
   xmlns="http://www.w3.org/2000/svg"
   xmlns:svg="http://www.w3.org/2000/svg">
  <defs
     id="defs1" />
  <g
     id="layer1">
    <path
       id="path50"
       style="baseline-shift:baseline;display:inline;overflow:visible;vector-effect:none;stroke-width:0.999992;stroke-linecap:round;stroke-linejoin:round;stroke-miterlimit:10000;paint-order:fill markers stroke;enable-background:accumulate;stop-color:#000000"
       d="M 6.9596718,1.3537101e-4 C 6.9235464,0.00208577 6.9015515,0.01281299 6.8717832,0.0283382 6.8314176,0.04940256 6.7620414,0.08623787 6.6768556,0.11280237 c -0.051066,0.0350682 -0.1045753,0.0475665 -0.1646905,0.0594639 -0.060946,0.0120535 -0.1286096,0.0205963 -0.1987578,0.028827 -0.1402926,0.0165005 -0.2912663,0.0343271 -0.388646,0.0663176 a 0.10321922,0.10321922 0 0 1 -0.025805,0.004642 C 5.7031599,0.28426233 5.5324954,0.36240712 5.3458222,0.4419836 a 0.10321922,0.10321922 0 0 1 -0.019149,0.006046 C 5.1395598,0.48825114 4.9921129,0.59756339 4.8033723,0.69798577 a 0.10321922,0.10321922 0 0 1 -0.0016,7.8015e-4 C 4.6345746,0.7842482 4.4958331,0.90533313 4.3171756,1.0220999 4.227447,1.1039466 4.1194714,1.1485173 4.018636,1.1908214 3.9160916,1.2338396 3.8202319,1.2739749 3.7503334,1.3278957 a 0.10321922,0.10321922 0 0 1 -0.033461,0.01693 c -0.073761,0.02239 -0.1227017,0.073757 -0.1798096,0.1523925 -0.051935,0.071513 -0.1106007,0.162769 -0.1910977,0.2445182 -0.1196846,0.2130113 -0.347544,0.341578 -0.4837914,0.4890324 h 5.851e-4 C 2.7300447,2.3751765 2.6257902,2.5531976 2.4876193,2.7284687 2.3774282,2.931611 2.2186228,3.0888681 2.1040128,3.2564077 l 8.191e-4,-0.00234 C 1.9871642,3.4345888 1.8720295,3.6177901 1.7619448,3.8063941 l -8.191e-4,0.00156 C 1.7002731,3.9173995 1.6251997,3.9900831 1.561562,4.0540836 1.4973742,4.1186381 1.4441461,4.1739165 1.4023138,4.2596951 a 0.10321922,0.10321922 0 0 1 -0.038907,0.042737 C 1.3178068,4.3303231 1.2595476,4.4118739 1.2096016,4.5233628 1.1596556,4.6348517 1.1157146,4.7720314 1.071721,4.9019282 a 0.10321922,0.10321922 0 0 1 -0.016126,0.029023 c -0.034327,0.045433 -0.059826,0.15304 -0.072972,0.2842281 -0.012709,0.1270221 -0.018318,0.2735051 -0.045356,0.4122295 0.00729,0.2670531 -0.1045685,0.5099914 -0.14816079,0.7281051 -0.0493218,0.2468079 -0.0903061,0.4906278 -0.11429597,0.7208495 -0.0171636,0.1647038 -0.020647,0.3422606 -0.030438,0.5188658 v 7.801e-4 c 4.681e-4,0.058578 0.0327979,0.1364698 0.0745846,0.2253653 0.0351189,0.074719 0.0651061,0.1644463 0.0770035,0.260644 0.0406464,0.04461 0.074957,0.0865 0.0860744,0.1370744 0.013025,0.059222 -0.00729,0.1179877 -0.027415,0.1523928 -0.0401976,0.068822 -0.0624372,0.079357 -0.0608769,0.1271974 a 0.10321922,0.10321922 0 0 1 -0.002223,0.022585 h 2.0168e-4 c 4.6809e-4,0.00391 -0.001951,0.041833 3.9007e-4,0.083454 0.002613,0.048436 0.008157,0.1104669 0.014515,0.1781966 0.012701,0.1354595 0.0299933,0.2921393 0.0395095,0.4114219 l -0.0016,-0.00764 c 0.029958,0.1926101 0.039754,0.3717507 0.060273,0.5478917 v 7.801e-4 c 0.022609,0.1486403 0.1415178,0.3603765 0.1792046,0.5698645 0.066949,0.112773 0.084831,0.213441 0.084462,0.294105 -5.071e-4,0.08518 -0.012276,0.141378 -8.191e-4,0.2042 0.032354,0.17444 0.073234,0.373131 0.1151019,0.566039 v 7.8e-4 c 0.041754,0.184562 0.073467,0.352913 0.1209479,0.542454 a 0.10321922,0.10321922 0 0 1 8.192e-4,0.0032 c 0.0368,0.168884 0.081108,0.368521 0.1378807,0.567648 a 0.10321922,0.10321922 0 0 1 0.0016,0.0068 c 0.032003,0.154015 0.1049372,0.31011 0.1725522,0.520679 l 0.00121,0.0036 c 0.067629,0.159278 0.1341719,0.428535 0.2078287,0.635378 a 0.10321922,0.10321922 0 0 1 8.193e-4,0.0041 c 0.056967,0.179192 0.1398212,0.388146 0.2179076,0.588815 a 0.10321922,0.10321922 0 0 1 0,7.81e-4 c 0.0689,0.182105 0.129403,0.270887 0.2140777,0.470889 l 0.0016,0.0039 c 0.077137,0.121183 0.2984249,0.466087 0.4110209,0.705325 0.2028748,0.2213 0.2050008,0.401421 0.2715282,0.542652 0.1146565,0.205507 0.2279994,0.402946 0.3231323,0.589019 0.132389,0.202545 0.2832071,0.350057 0.3884442,0.540031 0.1046824,0.09909 0.1533782,0.188401 0.1798092,0.265279 0.027497,0.07999 0.034305,0.133895 0.075391,0.20783 0.073514,0.134594 0.2772006,0.445188 0.4084001,0.668235 5.072e-4,7.82e-4 4.291e-4,7.82e-4 8.193e-4,0.0016 0.071115,0.09856 0.1141114,0.146159 0.1562245,0.196541 0.039965,0.04781 0.079786,0.09846 0.1332442,0.184244 0.040463,0.0332 0.069079,0.07398 0.1030071,0.123569 0.038993,0.05702 0.08014,0.125272 0.1217542,0.197346 0.083227,0.144143 0.1709392,0.306143 0.2439116,0.419688 0.1218791,0.182628 0.3103318,0.358312 0.4464992,0.557773 0.1049138,0.09641 0.1659785,0.187843 0.2110539,0.271125 0.046498,0.08591 0.07759,0.159672 0.1332441,0.240083 a 0.10321922,0.10321922 0 0 1 8.192e-4,7.8e-4 c 0.1046157,0.156295 0.3329502,0.438555 0.484598,0.646871 l 0.00524,0.0068 c 0.1816216,0.215383 0.2387029,0.329204 0.3618357,0.492055 a 0.10321922,0.10321922 0 0 1 0,7.8e-4 c 0.127962,0.171905 0.2939105,0.384842 0.4503289,0.579138 a 0.10321922,0.10321922 0 0 1 8.193e-4,0 c 0.1319018,0.164859 0.2452187,0.224554 0.4094087,0.41082 0.091638,0.05475 0.1668126,0.146698 0.2556032,0.253385 0.094727,0.113818 0.1954643,0.244495 0.2910808,0.352162 l 8.192e-4,7.8e-4 c 0.1343243,0.127611 0.3087722,0.278384 0.4952816,0.476331 0.1766245,0.187458 0.3788209,0.393525 0.545475,0.537008 0.3388588,0.291754 0.651919,0.429389 0.9548826,0.736173 0.346954,0.192454 0.629711,0.609734 0.87667,0.927869 0.261319,0.257859 0.483319,0.65509 0.668237,0.960728 h -8.19e-4 c 0.162554,0.265844 0.459678,0.569113 0.607964,0.870022 0.300736,0.302308 0.310525,0.562558 0.380583,0.782127 0.151061,0.270439 0.139906,0.349652 0.183236,0.578532 0.03181,0.09431 0.05054,0.244694 0.06935,0.428965 0.01896,0.185912 0.0333,0.393251 0.0381,0.551523 a 0.10321922,0.10321922 0 0 1 0,0.0016 c 0.0026,0.218668 0.03596,0.485135 0.01895,0.723873 0.02332,0.265433 -0.0548,0.446373 -0.08769,0.625501 a 0.10321922,0.10321922 0 0 1 -6.24e-4,0.0039 c -0.03425,0.155049 0.01203,0.371291 -0.03972,0.583374 0.016,0.120741 -0.01769,0.22648 -0.05866,0.311841 -0.04348,0.09059 -0.09335,0.164518 -0.118124,0.227784 v 7.8e-4 c -0.04439,0.117965 -0.01907,0.274063 -0.0893,0.438033 0.0034,0.106281 -0.04918,0.194496 -0.101798,0.257617 -0.05792,0.06949 -0.119028,0.124007 -0.144735,0.162274 a 0.10321922,0.10321922 0 0 1 -0.0033,0.0039 c -0.0912,0.122529 -0.19401,0.170735 -0.237663,0.223953 a 0.10321922,0.10321922 0 0 1 -0.04496,0.02902 c -0.0013,0.002 -0.0071,0.01474 -0.01149,0.03429 -0.0088,0.03906 -0.0023,0.0999 -0.05483,0.171342 l 0.005,-0.01755 c -0.008,0.0126 -0.01768,0.02458 -0.0248,0.0389 l 0.482985,0.01534 0.676501,0.0091 0.470891,-0.150782 a 0.10321922,0.10321922 0 0 1 0.04112,-0.0046 l 0.582161,0.05261 c 0.0028,-0.02099 0.003,-0.04264 0.01512,-0.06027 0.01863,-0.02695 0.04325,-0.04162 0.0633,-0.05019 0.04009,-0.01708 0.07051,-0.01759 0.09837,-0.01915 0.02784,-0.0016 0.05318,-0.002 0.06773,-0.0032 9.37e-4,-8.2e-5 0.0019,-2.46e-4 0.0026,-3.91e-4 0.0032,-0.0024 0.0053,-0.0032 0.0062,-0.0032 h 2.02e-4 2e-4 v 2.03e-4 a 0.10321922,0.10321922 0 0 1 0.04112,-0.01189 c 0.07403,-0.0059 0.116393,-0.01139 0.133244,-0.01592 0.0073,-0.002 0.0098,-0.002 0.01129,-0.0024 9.6e-5,-3.5e-5 5.07e-4,-1.56e-4 6.24e-4,-1.99e-4 l 2.01e-4,-2.03e-4 c 0.0012,-7.8e-4 0.0026,-0.0032 0.0076,-0.0087 a 0.10321922,0.10321922 0 0 1 0.07176,-0.03429 c 0.01269,-7.8e-4 0.01687,-0.0012 0.01814,-0.002 l 2.02e-4,-2.02e-4 h 2.02e-4 v -2.03e-4 l -2.02e-4,-1.99e-4 c 2.25e-4,-3.86e-4 0.0052,-0.0077 0.0097,-0.02661 0.0092,-0.0389 6.3e-5,-0.115449 0.06108,-0.197346 0.05542,-0.126546 0.108748,-0.18422 0.155014,-0.254797 0.03817,-0.07845 0.09551,-0.135186 0.145944,-0.187871 0.05229,-0.05463 0.09779,-0.104631 0.120343,-0.149169 a 0.10321922,0.10321922 0 0 1 0.02278,-0.03066 c 0.04673,-0.04182 0.06545,-0.08507 0.08164,-0.147758 0.01567,-0.06058 0.02511,-0.138046 0.05402,-0.221738 0.04169,-0.150102 0.09149,-0.446357 0.128811,-0.621869 0.01115,-0.137118 0.02609,-0.207064 0.04032,-0.255808 0.01455,-0.04993 0.022,-0.0616 0.02825,-0.119537 a 0.10321922,0.10321922 0 0 1 7.8e-4,-0.0041 c 0.02832,-0.190308 0.06432,-0.367012 0.05402,-0.564423 a 0.10321922,0.10321922 0 0 1 7.8e-4,-0.01974 c 0.02142,-0.152276 -0.05357,-0.454182 -0.108248,-0.698674 -0.05911,-0.253111 -0.128948,-0.455168 -0.212464,-0.678918 -0.05699,-0.143343 -0.07622,-0.256997 -0.09615,-0.354986 -0.01992,-0.09798 -0.03943,-0.180673 -0.09737,-0.291078 a 0.10321922,0.10321922 0 0 1 -0.01149,-0.03569 c -0.0089,-0.07449 -0.08435,-0.222688 -0.191299,-0.37796 -0.106952,-0.155272 -0.240796,-0.323315 -0.352765,-0.47855 a 0.10321922,0.10321922 0 0 1 -6.25e-4,-0.0016 c -0.19644,-0.281354 -0.410451,-0.539444 -0.646868,-0.809949 -0.256638,-0.297152 -0.498477,-0.547697 -0.788579,-0.832725 -0.299876,-0.294928 -0.620173,-0.594389 -0.980485,-0.907515 -0.360696,-0.313456 -0.720761,-0.630674 -1.146787,-0.968187 -0.173302,-0.137297 -0.374485,-0.370687 -0.521084,-0.493667 a 0.10321922,0.10321922 0 0 1 -0.0137,-0.01311 c -0.172738,-0.210793 -0.256493,-0.274236 -0.393091,-0.39399 a 0.10321922,0.10321922 0 0 1 -0.0129,-0.01291 c -0.151821,-0.19089 -0.166348,-0.20966 -0.3145276,-0.345634 a 0.10321922,0.10321922 0 0 1 -0.02217,-0.02964 C 9.8175966,22.985649 9.7208647,22.854817 9.6115993,22.72641 9.5023338,22.598003 9.3763736,22.461705 9.2862494,22.374452 a 0.10321922,0.10321922 0 0 1 -0.019754,-0.0266 C 9.2021909,22.221817 9.1480118,22.166609 9.0897103,22.120065 9.0314129,22.07352 8.9602371,22.034914 8.8824862,21.956983 a 0.10321922,0.10321922 0 0 1 -0.00464,-0.0046 C 8.7258143,21.780979 8.5744344,21.645703 8.4176454,21.482255 8.2486196,21.306025 8.2123862,21.190194 8.0672996,21.032734 a 0.10321922,0.10321922 0 0 1 -0.01915,-0.02964 C 8.0330427,20.967279 7.9422187,20.854877 7.8340728,20.744058 7.7259268,20.633237 7.6002082,20.513131 7.5056994,20.405808 a 0.10321922,0.10321922 0 0 1 0,-7.8e-4 C 7.3355149,20.208455 7.2948182,20.111461 7.1567648,19.948654 a 0.10321922,0.10321922 0 0 1 -0.012096,-0.01833 C 7.1141719,19.873856 7.0281345,19.767944 6.9305905,19.657583 6.8330508,19.547221 6.7233918,19.428696 6.6364857,19.321552 6.4634889,19.109223 6.3156986,18.768164 6.1930105,18.610778 a 0.10321922,0.10321922 0 0 1 -0.014515,-0.0252 C 6.0561077,18.285618 5.9446316,18.278543 5.8144423,18.106424 a 0.10321922,0.10321922 0 0 1 -0.0016,-0.0024 c -0.089693,-0.124686 -0.125161,-0.220766 -0.1485656,-0.294079 -0.023417,-0.07331 -0.032931,-0.116637 -0.084461,-0.187264 a 0.10321922,0.10321922 0 0 1 -0.019956,-0.05121 C 5.5534524,17.5054 5.5096189,17.421228 5.4417331,17.326957 5.3738474,17.232684 5.2856719,17.130255 5.2070941,17.017736 a 0.10321922,0.10321922 0 0 1 -0.0129,-0.02438 c -0.046827,-0.132675 -0.2498837,-0.36883 -0.396909,-0.588983 a 0.10321922,0.10321922 0 0 1 -0.00242,-0.0032 C 4.6828787,16.219197 4.574196,16.023393 4.4513752,15.830579 a 0.10321922,0.10321922 0 0 1 -0.00605,-0.01069 C 4.3643759,15.650591 4.2248939,15.456159 4.1016362,15.25224 a 0.10321922,0.10321922 0 0 1 -0.0016,-0.0039 C 4.0055624,15.075945 3.8717494,14.863726 3.7579552,14.663962 a 0.10321922,0.10321922 0 0 1 0,-7.8e-4 C 3.6414147,14.454714 3.6409712,14.286355 3.5515374,14.118512 a 0.10321922,0.10321922 0 0 1 -0.012097,-0.04657 C 3.5373345,13.931948 3.4355087,13.73014 3.3306042,13.518813 a 0.10321922,0.10321922 0 0 1 -0.010684,-0.04636 c 9.362e-4,-0.142588 -0.078106,-0.374225 -0.171343,-0.575308 a 0.10321922,0.10321922 0 0 1 -0.00907,-0.05645 c 0.022348,-0.174124 -0.014109,-0.328144 -0.096758,-0.516447 a 0.10321922,0.10321922 0 0 1 -0.0016,-0.07923 c 0.019216,-0.04809 0.0032,-0.107046 -0.046566,-0.195932 -0.049763,-0.08889 -0.1273379,-0.190568 -0.1781967,-0.310029 a 0.10321922,0.10321922 0 0 1 -0.00544,-0.01674 C 2.7783982,11.587387 2.6845,11.38508 2.6075527,11.192781 a 0.10321922,0.10321922 0 0 1 -0.00383,-0.0099 C 2.563731,11.043811 2.4620377,10.835421 2.3948933,10.65034 2.3259426,10.474262 2.267448,10.286604 2.2189142,10.12704 2.1552725,9.9239624 2.1763103,9.8367213 2.1465473,9.7063407 a 0.10321922,0.10321922 0 0 1 -0.00222,-0.029647 c 0.00682,-0.095569 -0.059405,-0.3055693 -0.087686,-0.4974968 a 0.10321922,0.10321922 0 0 1 -8.235e-4,-0.00846 C 2.0471733,9.0383782 1.980484,8.7617292 1.9749839,8.5750639 1.9696202,8.3928103 2.0124394,8.3013988 2.0437228,8.1581964 2.128456,7.7703158 2.219708,7.4013931 2.3208949,7.0557582 2.417081,6.719103 2.5006168,6.3475747 2.6174186,6.0379833 v -2.029e-4 -2.029e-4 -1.989e-4 h 2.016e-4 v -2.028e-4 l 2.017e-4,-2.029e-4 V 6.036774 h 2.013e-4 V 6.0365711 6.0363683 C 2.7067003,5.6759259 2.855188,5.4533069 2.9732069,5.2104974 3.1047694,4.9398047 3.255561,4.702741 3.3959198,4.4775513 a 0.10321922,0.10321922 0 0 1 0.00403,-0.00523 C 3.5461203,4.2691235 3.6591786,4.0306632 3.8196382,3.8284766 3.969476,3.5912101 4.1938281,3.4655144 4.3415283,3.3241258 a 0.10321922,0.10321922 0 0 1 0.016126,-0.012912 C 4.5489344,3.1904607 4.7131736,3.0590972 4.8847856,2.9354689 a 0.10321922,0.10321922 0 0 1 0.019754,-0.011273 c 0.202288,-0.08583 0.3994339,-0.1754315 0.5676483,-0.2636677 a 0.10321922,0.10321922 0 0 1 0.030439,-0.010688 C 5.6025882,2.6330669 5.6687117,2.6012286 5.7372648,2.5615488 5.8055559,2.5220222 5.8765462,2.472302 5.9735164,2.4365708 6.181991,2.3585192 6.5187098,2.331292 6.6873104,2.2948584 a 0.10321922,0.10321922 0 0 1 0.01915,-0.00234 c 0.2856595,-0.00886 0.2755404,-0.03066 0.4243251,-0.047977 a 0.10321922,0.10321922 0 0 1 0.010684,-7.801e-4 c 0.1845551,-0.00195 0.324961,-0.048214 0.5188662,-0.049384 h 0.0014 c 0.199862,-0.02075 0.4136665,0.00921 0.6103842,0.033472 h 0.00222 c 0.1987071,0.020206 0.4022203,0.059675 0.6005061,0.1058288 h 8.193e-4 c 0.2034543,0.046006 0.4178661,0.1192087 0.6123993,0.1844458 a 0.10321922,0.10321922 0 0 1 0.00403,0.00156 c 0.1990075,0.075691 0.3670808,0.1246268 0.5583754,0.206419 0.185445,0.073054 0.378482,0.1479733 0.572084,0.2483449 l 0.01008,0.00464 c 0.172411,0.06784 0.340645,0.1312583 0.5233,0.2398801 0.11367,0.030465 0.218571,0.1021544 0.324543,0.1806152 0.105802,0.078336 0.210487,0.1654644 0.301766,0.2316143 h 8.19e-4 c 0.178411,0.1274822 0.336037,0.2500339 0.500523,0.3848146 l 8.18e-4,7.801e-4 c 0.15246,0.1233318 0.302407,0.2262195 0.461618,0.371111 0.164263,0.1178317 0.328623,0.3088386 0.479155,0.4648435 h 8.2e-4 c 0.11264,0.1157135 0.364358,0.292151 0.519673,0.4616176 0.123921,0.078605 0.19185,0.1505906 0.234638,0.2170994 0.04279,0.066509 0.0589,0.1134315 0.09898,0.1661042 l -0.0044,-0.00464 c 0.117137,0.135319 0.292761,0.3608402 0.401547,0.528138 0.150005,0.18035 0.139897,0.2017614 0.199563,0.3146664 0.01711,0.02715 0.09963,0.1358105 0.182027,0.2505644 0.06921,0.096377 0.131556,0.1973066 0.17981,0.2918856 l -8.19e-4,-0.2949088 a 0.10321922,0.10321922 0 0 1 0,-0.00391 l 0.01915,-0.5470881 -0.0016,-0.5821602 -0.01069,-0.7801146 a 0.10321922,0.10321922 0 0 1 0,-7.802e-4 l -0.0016,-0.356596 -0.04032,-0.6186446 a 0.10321922,0.10321922 0 0 1 8.19e-4,-0.016734 l 0.04334,-0.457787 C 14.920625,3.2619508 14.837738,3.1363253 14.705626,2.9949406 a 0.10321922,0.10321922 0 0 1 -0.0085,-0.00987 C 14.611152,2.8661671 14.36494,2.6426509 14.188978,2.4807206 a 0.10321922,0.10321922 0 0 1 -8.2e-4,-7.801e-4 C 14.019667,2.3220592 13.86626,2.1635891 13.713641,2.0404991 a 0.10321922,0.10321922 0 0 1 -0.0076,-0.00686 C 13.54016,1.8688675 13.384205,1.7241671 13.230654,1.6159587 a 0.10321922,0.10321922 0 0 1 -0.01532,-0.013692 C 13.060216,1.4378088 12.898618,1.3720256 12.726101,1.2670393 a 0.10321922,0.10321922 0 0 1 -0.006,-0.00445 C 12.529247,1.1266454 12.46645,1.0902392 12.297343,1.0027557 a 0.10321922,0.10321922 0 0 1 -0.01007,-0.005418 C 12.173863,0.92216901 11.902773,0.80871016 11.691594,0.72076647 11.517213,0.64791501 11.351828,0.60036807 11.154385,0.53410508 10.98095,0.49203878 10.876465,0.43883567 10.681276,0.38715389 a 0.10321922,0.10321922 0 0 1 -8.19e-4,0 c -0.05522,-0.0148621 -0.174229,-0.053129 -0.31527,-0.0945438 -0.141037,-0.041411 -0.301241,-0.0850103 -0.4160606,-0.10743992 a 0.10321922,0.10321922 0 0 1 -0.01532,-0.004447 C 9.7428282,0.11083636 9.5992704,0.11719468 9.4074834,0.09222952 a 0.10321922,0.10321922 0 0 1 -0.00323,-7.8017e-4 C 9.2153999,0.06141314 9.060642,0.05622507 8.8686482,0.04347333 l 0.00323,7.8017e-4 C 8.7066243,0.03855831 8.5240364,0.04113285 8.3209683,0.03738807 8.1221052,0.03348727 8.0314547,0.02666086 7.8555205,0.03274612 7.7433334,0.03664693 7.5952599,0.02315013 7.448531,0.01300803 7.3018023,0.00286594 7.1552314,-0.00333634 7.0737942,0.00696179 a 0.10321922,0.10321922 0 0 1 -0.029026,0 v 2.0283e-4 c -0.036667,-0.00596823 -0.06339,-0.007996649 -0.085066,-0.006865415 z M 14.554189,33.630292 c -0.0039,0.0028 -0.0096,0.0074 -0.01713,0.0149 a 0.10321922,0.10321922 0 0 1 0.02057,-0.01592 c -9.75e-4,3.87e-4 -0.0021,7.8e-4 -0.0035,0.0012 z m 0.0035,-0.0012 c 0.0013,-3.9e-4 0.0024,-0.0012 0.0028,-0.0016 a 0.10321922,0.10321922 0 0 0 -0.0028,0.0016 z M 24.808554,1.3975252 c -0.0616,-3.901e-4 -0.08823,0.014277 -0.140098,0.041123 -0.04614,0.023912 -0.119726,0.052232 -0.208836,0.062491 -0.07908,0.036863 -0.16516,0.047586 -0.266488,0.05644 -0.107744,0.0094 -0.225479,0.014862 -0.326959,0.02438 -0.136399,0.04525 -0.279469,0.082856 -0.462424,0.1090548 -0.09961,0.05465 -0.209876,0.046806 -0.328374,0.047169 -0.126698,3.901e-4 -0.260375,-0.00195 -0.351151,0.013692 a 0.10321922,0.10321922 0 0 1 -0.02138,7.802e-4 c -0.08985,-0.00391 -0.135269,0.010728 -0.192711,0.033469 -0.05201,0.020596 -0.121838,0.051097 -0.211054,0.073175 -0.108169,0.050008 -0.225209,0.038345 -0.358207,0.038111 -0.132998,-2.34e-4 -0.274203,0.00117 -0.367885,0.02438 a 0.10321922,0.10321922 0 0 1 -0.04576,7.802e-4 c -0.192317,-0.040389 -0.349984,0.05222 -0.563014,0.1173206 a 0.10321922,0.10321922 0 0 1 -0.02216,0.00391 C 20.744246,2.059287 20.6119,2.1622178 20.39436,2.2433662 20.223247,2.3170322 20.086603,2.4096653 19.870657,2.503 c -0.08931,0.070352 -0.209476,0.1099131 -0.341878,0.1548113 -0.138307,0.0469 -0.28841,0.093108 -0.405177,0.1433235 a 0.10321922,0.10321922 0 0 1 -0.0068,0.00312 c -0.210803,0.072359 -0.40712,0.1996511 -0.632355,0.3078128 -0.135425,0.065038 -0.27512,0.07832 -0.400133,0.092324 -0.102748,0.011508 -0.186183,0.031518 -0.263469,0.060071 l 0.0045,0.5690575 0.03429,0.6758966 a 0.10321922,0.10321922 0 0 1 0,7.802e-4 l 0.02602,0.6498939 a 0.10321922,0.10321922 0 0 1 -7.8e-4,0.00987 l -0.03507,0.5882104 0.01997,0.6970624 a 0.10321922,0.10321922 0 0 1 0,0.00465 l -0.0085,0.412834 c 0.08188,-0.061774 0.170272,-0.1310671 0.230809,-0.1896883 a 0.10321922,0.10321922 0 0 1 0.0236,-0.016735 c 0.143869,-0.076576 0.282973,-0.2183672 0.39308,-0.3352276 0.03756,-0.039874 0.06299,-0.1028798 0.09373,-0.180615 0.03074,-0.077731 0.0676,-0.1715809 0.153205,-0.2437107 0.225649,-0.190137 0.463006,-0.3558512 0.683355,-0.5166463 a 0.10321922,0.10321922 0 0 1 0.0046,-0.00312 c 0.24019,-0.1555325 0.492705,-0.2786848 0.705514,-0.411437 a 0.10321922,0.10321922 0 0 1 0.01833,-0.00846 c 0.242813,-0.09136 0.441742,-0.240555 0.665013,-0.3580083 a 0.10321922,0.10321922 0 0 1 0.0076,-0.00401 c 0.257093,-0.109671 0.51849,-0.166771 0.711587,-0.250572 a 0.10321922,0.10321922 0 0 1 0.02824,-0.00764 c 0.124731,-0.015915 0.202131,-0.054147 0.281002,-0.1019984 0.07887,-0.047856 0.159262,-0.1092537 0.273544,-0.1493696 0.195996,-0.097684 0.402732,-0.1873791 0.610991,-0.2445182 0.198726,-0.1099872 0.404591,-0.186872 0.611794,-0.2277836 0.121842,-0.078725 0.247682,-0.09947 0.359011,-0.1022012 0.109633,-0.00273 0.20734,0.00858 0.294706,0.00234 h 0.0046 c 0.220614,-0.025121 0.480984,-0.00417 0.68114,0 a 0.10321922,0.10321922 0 0 1 0.0076,7.802e-4 c 0.2306,0.022391 0.396139,0.028554 0.584985,0.049384 a 0.10321922,0.10321922 0 0 1 0.0046,7.801e-4 c 0.08357,0.01338 0.160432,-0.00391 0.250564,-0.025785 0.0817,-0.019934 0.175134,-0.044774 0.281405,-0.030856 0.132997,-0.048636 0.268055,-0.00808 0.379977,0.041524 0.120749,0.053503 0.231501,0.1213891 0.312451,0.1477586 a 0.10321922,0.10321922 0 0 1 0.0032,7.802e-4 c 0.206095,0.074462 0.35323,0.1214243 0.528743,0.1979503 l 0.0016,7.802e-4 c 0.153734,0.064288 0.290781,0.057498 0.474116,0.1542067 0.102547,0.011351 0.198651,0.060981 0.296523,0.1193372 0.101023,0.060229 0.201613,0.1330371 0.291686,0.1985551 0.200689,0.082662 0.367192,0.2845326 0.515843,0.4184785 0.147057,0.1328302 0.279145,0.262727 0.413641,0.4069906 0.128661,0.1378468 0.241312,0.2677436 0.365061,0.4243259 0.103984,0.1326937 0.250998,0.3274727 0.367887,0.5019324 v 7.801e-4 c 0.109616,0.1601321 0.215826,0.3239776 0.312446,0.4922584 l 0.0016,0.00234 c 0.103999,0.1697709 0.193511,0.3388786 0.277171,0.5112046 l 7.8e-4,0.00156 c 0.09183,0.1745612 0.175865,0.3543025 0.247745,0.5333807 l 0.0024,0.00546 c 0.08275,0.1756922 0.201102,0.3913327 0.263667,0.5865992 0.06374,0.1142002 0.09328,0.202846 0.102805,0.2773709 0.0099,0.077376 0.0045,0.1311919 0.01592,0.2056115 0.03027,0.1976968 0.0503,0.4441186 0.08466,0.6430401 0.03144,0.1819844 0.07158,0.3783315 0.09757,0.5728914 0.0389,0.2116807 0.01927,0.3598567 0.03647,0.5416427 a 0.10321922,0.10321922 0 0 1 7.8e-4,0.01532 c -0.0078,0.147856 0.03409,0.399848 0.04656,0.623887 0.0097,0.195789 0.02832,0.409726 0.03265,0.618648 v 0.0024 c 0.01424,0.219366 -0.01482,0.36858 -0.01755,0.561604 a 0.10321922,0.10321922 0 0 1 -7.8e-4,0.01209 c -0.01966,0.148112 7.8e-4,0.429653 -0.01069,0.66582 7.8e-4,0.221843 -0.02477,0.427321 -0.04253,0.633159 v 7.8e-4 c -0.01849,0.219725 -0.06288,0.401639 -0.08769,0.605749 a 0.10321922,0.10321922 0 0 1 -0.0024,0.01291 c -0.0437,0.172087 -0.05597,0.420841 -0.09233,0.649894 a 0.10321922,0.10321922 0 0 1 0,7.8e-4 c -0.03409,0.204402 -0.05749,0.430562 -0.09978,0.647475 v 0.0024 c -0.02902,0.227222 -0.08817,0.423072 -0.134854,0.622479 a 0.10321922,0.10321922 0 0 1 0,7.8e-4 c -0.04656,0.193202 -0.0665,0.402462 -0.123368,0.616229 -5.1e-5,3.9e-4 5e-5,0.0012 0,0.0016 -0.02099,0.188094 0.0057,0.402126 -0.05866,0.626107 0.04869,0.248961 -0.05483,0.472956 -0.129616,0.666827 0.01053,0.24398 -0.08618,0.480903 -0.173559,0.678718 -0.01263,0.277316 -0.192515,0.44622 -0.278787,0.609578 -0.09824,0.217598 -0.223137,0.341141 -0.327768,0.515843 a 0.10321922,0.10321922 0 0 1 -0.01209,0.01674 c -0.03593,0.03934 -0.06874,0.135092 -0.09978,0.251368 -0.02887,0.108156 -0.05902,0.232647 -0.127803,0.343894 -0.0076,0.06589 -0.03429,0.124736 -0.07035,0.168925 -0.04172,0.05114 -0.09174,0.08417 -0.140098,0.112682 -0.09671,0.05703 -0.186251,0.09885 -0.237665,0.163082 a 0.10321922,0.10321922 0 0 1 -0.0512,0.03425 c -0.02372,0.0072 -0.08564,0.08116 -0.144732,0.198153 -0.05656,0.11198 -0.117176,0.246371 -0.209443,0.35498 -0.07859,0.19132 -0.16191,0.326721 -0.306603,0.472705 -0.03764,0.11782 -0.13301,0.202069 -0.232823,0.283822 -0.105533,0.08643 -0.223354,0.165605 -0.312451,0.237665 -0.146823,0.152224 -0.301802,0.273212 -0.474517,0.396307 -0.157789,0.148799 -0.383067,0.263778 -0.56765,0.37635 -0.205268,0.127169 -0.395573,0.130161 -0.554547,0.216291 a 0.10321922,0.10321922 0 0 1 -0.04657,0.01291 c -0.02953,7.8e-4 -0.03935,0.0055 -0.05402,0.01755 -0.01466,0.01201 -0.03281,0.03597 -0.05422,0.07015 -0.04279,0.06836 -0.09849,0.178716 -0.220931,0.255198 -0.117289,0.07325 -0.273638,0.116096 -0.426545,0.157031 -0.152911,0.04093 -0.30376,0.07876 -0.375745,0.111879 -0.32349,0.148754 -0.579235,0.330251 -0.893601,0.470688 -0.284669,0.196366 -0.665637,0.27114 -0.937142,0.387236 a 0.10321922,0.10321922 0 0 1 -0.006,0.0024 c -0.281595,0.100353 -0.533517,0.222765 -0.786968,0.328979 a 0.10321922,0.10321922 0 0 1 -7.8e-4,7.81e-4 c -0.242829,0.09813 -0.451231,0.211879 -0.67892,0.307813 -0.215196,0.115853 -0.444451,0.196331 -0.643645,0.281204 -0.08787,0.04184 -0.140956,0.07911 -0.200368,0.121148 -0.05469,0.0387 -0.115324,0.08167 -0.201181,0.122762 -0.03714,0.041 -0.0821,0.05984 -0.129612,0.07902 -0.05632,0.02274 -0.119844,0.04098 -0.18505,0.05866 -0.130408,0.03535 -0.27111,0.07126 -0.345912,0.109056 a 0.10321922,0.10321922 0 0 1 -0.03285,0.0099 c -0.137363,0.01787 -0.239553,0.125684 -0.391469,0.214884 a 0.10321922,0.10321922 0 0 1 -0.0032,0.0016 c -0.143102,0.07827 -0.261404,0.11626 -0.358005,0.18505 a 0.10321922,0.10321922 0 0 1 -0.02679,0.01369 c -0.09844,0.03289 -0.208248,0.110217 -0.301563,0.195735 a 0.10321922,0.10321922 0 0 1 -0.03042,0.01997 c -0.07122,0.02945 -0.149702,0.12684 -0.234033,0.230807 a 0.10321922,0.10321922 0 0 1 -0.01127,0.01291 c -0.05432,0.04774 -0.10449,0.164671 -0.174568,0.284224 l -7.8e-4,7.8e-4 c -0.05066,0.117856 -0.122248,0.215465 -0.163077,0.312248 a 0.10321922,0.10321922 0 0 1 -0.0016,0.0046 c -0.03183,0.06592 -0.02145,0.190813 -0.05866,0.336842 0.02052,0.123031 0.0524,0.274106 0.02902,0.429971 0.04303,0.105668 0.02192,0.211828 -0.01229,0.281607 -0.03808,0.07758 -0.07493,0.128918 -0.08305,0.178193 a 0.10321922,0.10321922 0 0 1 -0.0016,0.0068 c -0.03433,0.143172 -0.06907,0.321583 -0.09212,0.513425 a 0.10321922,0.10321922 0 0 1 -0.0024,0.01151 c -0.01171,0.05007 0.0016,0.149943 0.02438,0.265075 0.0213,0.107971 0.04836,0.229571 0.04334,0.354581 0.106351,0.259197 0.05136,0.496423 0.03066,0.713187 0.06666,0.286616 0.0094,0.556892 -0.02075,0.811158 0.03254,0.302354 0.07085,0.571334 0.03285,0.879089 -0.03768,0.305613 -0.17132,0.555807 -0.193516,0.832729 l 0.578939,0.02743 0.598087,-0.01127 a 0.10321922,0.10321922 0 0 1 0.0016,0 l 0.753504,-0.0046 0.557772,-0.01833 a 0.10321922,0.10321922 0 0 1 0.006,0 l 0.603327,0.01451 c -0.08486,-0.30136 -0.184119,-0.622995 -0.258222,-0.888362 -0.112886,-0.341028 -0.167661,-0.562936 -0.236857,-0.807525 l 0.0016,0.0032 c -0.09399,-0.296558 -0.04935,-0.485245 -0.105022,-0.684767 a 0.10321922,0.10321922 0 0 1 -0.0032,-0.04193 c 0.02134,-0.156079 -0.104639,-0.417363 -0.167512,-0.656748 a 0.10321922,0.10321922 0 0 1 -0.0024,-0.0099 C 20.255653,30.257322 20.179576,29.945492 20.13882,29.76593 a 0.10321922,0.10321922 0 0 1 -0.0016,-0.0076 c -0.03343,-0.226205 -0.07015,-0.282481 -0.09433,-0.411427 -3.91e-4,-0.002 -3.91e-4,-0.0028 -7.8e-4,-0.0046 v -1.98e-4 -2.03e-4 -2.03e-4 -1.98e-4 C 19.99939,29.160955 19.99671,29.02532 19.98566,28.92322 a 0.10321922,0.10321922 0 0 1 0,-0.0032 C 19.9724,28.760618 19.97052,28.713867 19.96974,28.621277 a 0.10321922,0.10321922 0 0 1 0,-0.0024 c 0.0012,-0.08345 0.03549,-0.147867 0.06249,-0.196538 0.02699,-0.04866 0.04607,-0.08452 0.04958,-0.10442 a 0.10321922,0.10321922 0 0 1 0.04112,-0.06631 c 0.01779,-0.01283 0.01564,-0.01448 0.01369,-0.05866 -0.002,-0.04162 -0.02192,-0.103129 0.0056,-0.182429 0.0094,-0.05637 0.02196,-0.132272 0.03991,-0.206821 0.01424,-0.05926 0.03908,-0.112858 0.06713,-0.165499 0.022,-0.210522 0.109121,-0.306198 0.186662,-0.37635 0.04515,-0.122079 0.141275,-0.19919 0.225567,-0.219319 0.08992,-0.02145 0.160125,-0.02352 0.193516,-0.04052 a 0.10321922,0.10321922 0 0 1 0.01291,-0.0052 c 0.153666,-0.05369 0.241492,-0.119931 0.406184,-0.183639 0.09597,-0.04081 0.204816,-0.05679 0.314464,-0.07318 0.109897,-0.01638 0.219708,-0.0321 0.302574,-0.05947 a 0.10321922,0.10321922 0 0 1 0.03206,-0.0052 c 0.09361,-2.89e-4 0.146834,-0.03994 0.2171,-0.103614 0.06348,-0.05751 0.141093,-0.132179 0.248349,-0.178999 0.117516,-0.111615 0.259329,-0.151052 0.384814,-0.163886 0.129982,-0.0133 0.24751,-0.01193 0.344297,-0.04273 a 0.10321922,0.10321922 0 0 1 0.01369,-0.0032 c 0.270771,-0.04686 0.597846,-0.125743 0.859336,-0.216296 a 0.10321922,0.10321922 0 0 1 0.01833,-0.0046 c 0.364447,-0.05631 0.576663,-0.133782 0.846432,-0.246936 a 0.10321922,0.10321922 0 0 1 0.02055,-0.006 c 0.350882,-0.0687 0.530081,-0.272214 0.866994,-0.450932 0.330394,-0.175264 0.779635,-0.308679 1.174205,-0.493067 0.138831,-0.06488 0.259323,-0.239708 0.450126,-0.355992 0.07449,-0.108282 0.180546,-0.165312 0.275155,-0.203996 0.100918,-0.04127 0.193134,-0.06818 0.255202,-0.109659 a 0.10321922,0.10321922 0 0 1 0.0044,-0.0032 c 0.162618,-0.09631 0.290724,-0.215533 0.445692,-0.336036 0.161359,-0.142067 0.345654,-0.236178 0.480161,-0.355789 a 0.10321922,0.10321922 0 0 1 0.01369,-0.01069 c 0.153085,-0.09688 0.269239,-0.246088 0.41532,-0.394077 a 0.10321922,0.10321922 0 0 1 7.8e-4,-7.81e-4 c 0.135696,-0.134816 0.262769,-0.293032 0.396306,-0.446498 0.13606,-0.177089 0.294761,-0.303408 0.409003,-0.450937 a 0.10321922,0.10321922 0 0 1 0.0099,-0.01069 c 0.140261,-0.135495 0.260461,-0.307731 0.377966,-0.478352 a 0.10321922,0.10321922 0 0 1 0.0068,-0.0093 c 0.15143,-0.172958 0.330367,-0.319492 0.42513,-0.473913 a 0.10321922,0.10321922 0 0 1 0.02902,-0.03042 c 0.174674,-0.121908 0.21841,-0.293684 0.325347,-0.48984 a 0.10321922,0.10321922 0 0 1 0.01127,-0.01674 c 0.125075,-0.147915 0.164688,-0.351939 0.26286,-0.559181 0.07782,-0.203778 0.140335,-0.435958 0.226578,-0.641429 0.04679,-0.251458 0.129202,-0.444381 0.198758,-0.627921 0.0487,-0.270837 0.16968,-0.409417 0.226976,-0.580549 a 0.10321922,0.10321922 0 0 1 0.0032,-0.0076 c 0.08319,-0.192527 0.130674,-0.406954 0.194323,-0.625501 0.05836,-0.202959 0.103648,-0.466599 0.158438,-0.687989 0.03733,-0.256368 0.0737,-0.447192 0.117321,-0.650299 0.01318,-0.138974 0.06225,-0.246645 0.107441,-0.336235 0.04623,-0.09165 0.08586,-0.164899 0.101194,-0.249152 a 0.10321922,0.10321922 0 0 1 0.01611,-0.0389 c 0.0442,-0.06624 0.05974,-0.169645 0.06169,-0.292494 0.002,-0.120215 -0.0069,-0.254028 0.0099,-0.383203 0.0077,-0.262298 0.07337,-0.441735 0.09374,-0.63699 a 0.10321922,0.10321922 0 0 1 7.8e-4,-0.0076 c 0.03487,-0.193247 0.0036,-0.494104 0.01877,-0.732947 -0.01015,-0.150692 0.02821,-0.263348 0.06512,-0.347319 0.03796,-0.08636 0.06722,-0.140285 0.06995,-0.21186 a 0.10321922,0.10321922 0 0 1 0.01311,-0.04576 c 0.03335,-0.05985 0.03468,-0.189163 0.01291,-0.333613 -0.02138,-0.141923 -0.05856,-0.29143 -0.06169,-0.425134 -0.0229,-0.158809 -0.0072,-0.263686 0.01514,-0.33442 0.02286,-0.07219 0.03901,-0.09417 0.03589,-0.159246 a 0.10321922,0.10321922 0 0 1 0.0046,-0.03347 c 0.04248,-0.145099 -0.02894,-0.403089 -0.05503,-0.646867 a 0.10321922,0.10321922 0 0 1 0,-7.8e-4 c -0.01969,-0.197877 -0.08971,-0.548165 -0.123367,-0.764188 -0.06813,-0.3113885 -0.05924,-0.346457 -0.08385,-0.4898389 l 7.8e-4,0.00156 C 32.898773,9.5187469 32.867539,9.2801542 32.830637,9.0894437 32.795101,8.9056962 32.76609,8.7795714 32.720175,8.5675509 32.674913,8.3585496 32.60718,8.1264321 32.550239,7.916046 32.47926,7.6960483 32.40628,7.4795847 32.343017,7.2853051 32.244467,7.0435331 32.240975,6.9146076 32.177721,6.7489013 a 0.10321922,0.10321922 0 0 1 -0.0032,-0.011508 c -0.04365,-0.171631 -0.147657,-0.3794738 -0.237785,-0.578333 a 0.10321922,0.10321922 0 0 1 -7.8e-4,-0.00156 C 31.857913,5.9765532 31.758992,5.7842201 31.662615,5.6027507 31.556435,5.4044454 31.551957,5.2765263 31.458415,5.1250071 a 0.10321922,0.10321922 0 0 1 -0.01369,-0.035693 C 31.438988,5.0575229 31.37047,4.9304584 31.28386,4.8097246 31.19725,4.6889945 31.095817,4.5621013 31.025638,4.4668358 a 0.10321922,0.10321922 0 0 1 -0.0032,-0.00391 C 30.873498,4.2373591 30.856662,4.2189356 30.752202,4.0940474 a 0.10321922,0.10321922 0 0 1 -0.0054,-0.00686 C 30.689016,4.0059633 30.617409,3.8885998 30.54113,3.771911 30.464852,3.6552223 30.382772,3.5396024 30.322415,3.4784104 a 0.10321922,0.10321922 0 0 1 -0.01974,-0.028008 C 30.24212,3.3218321 30.21061,3.2966602 30.182134,3.2804718 30.153697,3.2642834 30.088635,3.2514498 30.013007,3.1851243 29.868026,3.0585042 29.758206,2.9233452 29.600173,2.8103856 a 0.10321922,0.10321922 0 0 1 -0.01674,-0.01533 C 29.507933,2.7112036 29.23797,2.5633514 29.03796,2.4507545 a 0.10321922,0.10321922 0 0 1 -7.8e-4,-7.802e-4 C 28.862827,2.3489436 28.684349,2.2547001 28.506016,2.174211 a 0.10321922,0.10321922 0 0 1 -0.0032,-0.00156 C 28.394737,2.1192251 28.293367,2.0406395 28.19589,1.9692548 28.098409,1.8978738 28.004454,1.8342595 27.931416,1.8083972 a 0.10321922,0.10321922 0 0 1 -0.03951,-0.024381 c -0.0891,-0.090596 -0.142559,-0.1038863 -0.209645,-0.1096596 -0.06708,-0.00581 -0.154877,0.00948 -0.267295,-0.016735 a 0.10321922,0.10321922 0 0 1 -7.8e-4,0 c -0.197949,-0.047129 -0.387504,-0.070912 -0.599701,-0.098373 h 0.0054 C 26.617882,1.5423969 26.389599,1.5137311 26.171442,1.4991802 25.963272,1.4865413 25.789256,1.4884523 25.562873,1.4816263 25.318678,1.4742864 25.018555,1.398914 24.80937,1.396963 Z m -2.862229,4.6484313 -0.128406,0.4644377 -0.04555,0.5690614 a 0.10321922,0.10321922 0 0 1 -0.01229,0.04193 l -0.338255,0.6065519 -0.229999,0.4464979 c 0.03647,0.012912 0.07012,0.031051 0.112682,0.040319 0.07052,0.015408 0.153447,0.031207 0.244515,0.070147 0.121037,-0.00351 0.227019,0.056636 0.332204,0.1157057 0.113892,0.063961 0.22666,0.1360328 0.313859,0.1699308 a 0.10321922,0.10321922 0 0 1 0.0046,0.00156 c 0.198282,0.088018 0.372422,0.1463192 0.553942,0.209442 a 0.10321922,0.10321922 0 0 1 0.0032,7.802e-4 c 0.200446,0.076694 0.344756,0.1063165 0.53177,0.1669077 l 0.006,0.00156 c 0.198235,0.052458 0.430578,0.1427969 0.621067,0.2058144 a 0.10321922,0.10321922 0 0 1 0.0016,7.801e-4 c 0.207464,0.071775 0.474884,0.1546397 0.654528,0.2185114 l 0.0016,7.802e-4 c 0.269694,0.09005 0.325077,0.1242954 0.453351,0.1767886 a 0.10321922,0.10321922 0 0 1 0.0016,0 c 0.185796,0.079557 0.395382,0.139524 0.560796,0.2255679 0.158474,0.082435 0.217555,0.1448557 0.363445,0.2414906 0.224616,0.148781 0.539486,0.33861 0.722263,0.527939 0.130626,0.09119 0.209909,0.176367 0.256813,0.256006 0.04885,0.08295 0.06839,0.149596 0.108852,0.2171 0.108223,0.182538 0.268488,0.431557 0.333011,0.662997 0.06175,0.121904 0.08354,0.216077 0.08003,0.293902 -0.0036,0.08047 -0.0211,0.130173 -0.01915,0.215691 a 0.10321922,0.10321922 0 0 1 -7.8e-4,0.01833 c -0.0092,0.05872 -0.01658,0.187113 -0.02743,0.329177 -0.01085,0.142064 -0.02575,0.300628 -0.05624,0.439446 a 0.10321922,0.10321922 0 0 1 0,7.8e-4 c -0.05293,0.229922 -0.151515,0.385818 -0.229394,0.592041 a 0.10321922,0.10321922 0 0 1 -0.01291,0.02438 c -0.08926,0.122412 -0.161658,0.422378 -0.284225,0.665817 v 2.03e-4 h -2.02e-4 c -2.27e-4,3.9e-4 -3.9e-4,0.0012 -7.81e-4,0.0016 l -7.8e-4,0.0024 c -0.08246,0.181356 -0.08996,0.421954 -0.219116,0.647877 -0.01536,0.148554 -0.09427,0.267107 -0.178599,0.366068 -0.08939,0.104899 -0.187963,0.194404 -0.252179,0.282617 -0.15795,0.220735 -0.360204,0.312087 -0.492055,0.471693 a 0.10321922,0.10321922 0 0 1 -0.03749,0.02883 c -0.155669,0.06951 -0.277005,0.304157 -0.445691,0.499919 a 0.10321922,0.10321922 0 0 1 -0.0091,0.0099 c -0.139594,0.124015 -0.253587,0.320923 -0.398319,0.488428 -0.101292,0.139528 -0.129881,0.284946 -0.256006,0.431784 -0.01502,0.05473 -0.04958,0.09936 -0.08689,0.131833 -0.04543,0.03955 -0.0968,0.06698 -0.148563,0.09152 -0.103542,0.04904 -0.212754,0.09057 -0.262056,0.127198 -0.0978,0.07264 -0.15528,0.198745 -0.259833,0.291889 -0.104268,0.09289 -0.221823,0.117671 -0.31769,0.129413 -0.09587,0.01178 -0.172212,0.01634 -0.241495,0.0504 -0.06935,0.03409 -0.158614,0.114594 -0.252983,0.196539 -0.09437,0.08195 -0.194376,0.169703 -0.326153,0.196541 -0.02762,0.0056 -0.02602,0.0061 -0.04576,0.01592 -0.01974,0.0098 -0.05924,0.02512 -0.10744,0.02984 -0.187473,0.01841 -0.374882,0.01748 -0.566842,-0.0068 -0.181368,-0.02099 -0.357891,-0.04896 -0.549912,-0.111275 -0.18381,-0.0467 -0.359292,-0.12795 -0.550111,-0.227784 -0.153988,-0.0793 -0.373646,-0.207858 -0.564622,-0.345104 -0.164786,-0.115047 -0.311159,-0.238687 -0.478352,-0.391673 a 0.10321922,0.10321922 0 0 1 -0.0016,-0.0016 c -0.126262,-0.121965 -0.339816,-0.32889 -0.502132,-0.514234 -0.155252,-0.177408 -0.227284,-0.347909 -0.34732,-0.515843 a 0.10321922,0.10321922 0 0 1 -0.01311,-0.0236 c -0.02695,-0.07211 -0.09547,-0.184512 -0.172151,-0.298738 -0.07669,-0.114224 -0.161017,-0.232446 -0.223149,-0.337448 a 0.10321922,0.10321922 0 0 1 -0.0032,-0.0052 c -0.122909,-0.239436 -0.167351,-0.311421 -0.245944,-0.47561 a 0.10321922,0.10321922 0 0 1 -0.0024,-0.0044 c -0.07283,-0.173692 -0.208741,-0.459573 -0.274348,-0.672067 -0.0369,-0.119501 -0.01611,-0.221948 0.0062,-0.29632 0.02239,-0.07437 0.04114,-0.123714 0.03569,-0.198962 -0.01888,-0.260156 -0.0083,-0.510002 0.02602,-0.74806 0.03507,-0.237486 0.09361,-0.464771 0.17356,-0.678117 0.0771,-0.205728 0.170652,-0.437225 0.290275,-0.627113 0.06799,-0.133205 0.187058,-0.218784 0.297935,-0.290275 0.111734,-0.07205 0.218746,-0.134667 0.268301,-0.186661 a 0.10321922,0.10321922 0 0 1 0.04193,-0.02583 c 0.136259,-0.04599 0.181735,-0.08297 0.216295,-0.120344 0.03457,-0.03737 0.06512,-0.0965 0.143121,-0.157838 a 0.10321922,0.10321922 0 0 1 0.01915,-0.01209 c 0.16738,-0.0803 0.29521,-0.204652 0.472302,-0.299349 a 0.10321922,0.10321922 0 0 1 0.0041,-0.0024 c 0.149163,-0.07142 0.279636,-0.195558 0.469279,-0.259029 0.152319,-0.1062 0.333713,-0.175952 0.526324,-0.189684 0.118838,-0.06941 0.254379,-0.05495 0.371915,-0.01895 0.121155,0.0371 0.236704,0.09469 0.329176,0.130219 a 0.10321922,0.10321922 0 0 1 0.0016,7.81e-4 c 0.181239,0.07358 0.339616,0.157535 0.4975,0.276567 0.15154,0.113135 0.292172,0.245732 0.422914,0.408399 0.123313,0.153427 0.230601,0.32727 0.326155,0.518063 l 0.07841,-0.339059 a 0.10321922,0.10321922 0 0 1 0.0046,-0.01451 l 0.173558,-0.442667 a 0.10321922,0.10321922 0 0 1 0.0024,-0.006 l 0.230807,-0.500521 0.130221,-0.457182 C 23.408517,10.176013 23.244015,10.043853 23.109344,9.9765871 a 0.10321922,0.10321922 0 0 1 -0.01369,-0.00831 C 22.917092,9.8416987 22.869815,9.8542358 22.69251,9.8026789 a 0.10321922,0.10321922 0 0 1 -0.0039,-0.00156 c -0.130263,-0.043591 -0.366457,-0.06991 -0.583774,-0.089702 -0.197191,0.00312 -0.441834,-0.035966 -0.635984,-0.023171 a 0.10321922,0.10321922 0 0 1 -0.0085,0 c -0.211463,-0.00312 -0.420937,0.00792 -0.614818,0.046565 a 0.10321922,0.10321922 0 0 1 -0.01674,0.00156 c -0.224823,0.00718 -0.417465,0.031596 -0.606557,0.094336 a 0.10321922,0.10321922 0 0 1 -0.02964,0.00546 c -0.09546,0.00273 -0.116869,0.022664 -0.16449,0.066922 -0.04666,0.043355 -0.112905,0.1181901 -0.227986,0.1753761 -0.0289,0.03323 -0.0558,0.06681 -0.09433,0.09212 -0.05553,0.03647 -0.120311,0.07103 -0.18888,0.105828 -0.136099,0.06902 -0.287825,0.139762 -0.393282,0.208839 -0.158222,0.127715 -0.335431,0.274417 -0.508787,0.417471 -0.13388,0.152736 -0.252475,0.305231 -0.405782,0.462624 -0.112444,0.22542 -0.346984,0.337622 -0.465041,0.484398 a 0.10321922,0.10321922 0 0 1 -0.0068,0.0085 C 17.58126,12.014882 17.471051,12.06667 17.369134,12.2352 a 0.10321922,0.10321922 0 0 1 -0.03991,0.03811 v 1.99e-4 c -0.0016,0.0028 -0.01966,0.02106 -0.03628,0.05926 -0.01903,0.04364 -0.03804,0.106863 -0.05563,0.177592 -0.03393,0.136252 -0.06316,0.299601 -0.107644,0.43622 -0.0055,0.272397 -0.138763,0.463977 -0.184851,0.642638 -0.06055,0.234743 -0.128391,0.401362 -0.121954,0.603325 0.0051,0.159306 0.02056,0.285809 0.05402,0.45638 0.03144,0.143968 0.09175,0.370081 0.155623,0.556156 0.06621,0.181607 0.10047,0.274677 0.182832,0.451742 0.06485,0.129417 0.205794,0.411934 0.326761,0.614818 0.09952,0.166463 0.265548,0.373705 0.396912,0.557772 5.8e-5,8.6e-5 3.36e-4,3.91e-4 3.9e-4,7.8e-4 l 1.99e-4,1.99e-4 c 2.92e-4,2.46e-4 7.8e-4,7.8e-4 0.0012,7.8e-4 0.159614,0.180529 0.333117,0.342171 0.471494,0.508787 0.216764,0.166997 0.41553,0.293438 0.563214,0.448112 0.153151,0.07478 0.238574,0.161603 0.291687,0.240687 0.0553,0.08233 0.07672,0.141194 0.127198,0.190493 0.168975,0.164555 0.374711,0.332086 0.541042,0.473913 l 0.0032,0.0024 7.8e-4,7.8e-4 c 0.213304,0.165546 0.292424,0.232605 0.44569,0.345912 l 0.0039,0.0024 c 0.166893,0.112939 0.449159,0.288666 0.638605,0.402351 1.48e-4,7.8e-5 2.89e-4,-4.3e-5 3.91e-4,0 l 2.02e-4,2.03e-4 h 1.99e-4 c 7.4e-5,4e-6 3.91e-4,-1.1e-5 3.91e-4,0 l 2.02e-4,2.03e-4 c 1.13e-4,5.9e-5 3.9e-4,1.01e-4 7.8e-4,1.99e-4 l 0.0032,0.0024 c 0.237559,0.123414 0.290817,0.144817 0.453957,0.222545 0.190924,0.06685 0.431901,0.193945 0.619456,0.252784 a 0.10321922,0.10321922 0 0 1 0.0032,0.0016 c 0.07251,0.02567 0.140401,0.01112 0.230809,-0.01592 0.08282,-0.02477 0.185172,-0.05489 0.300153,-0.04717 0.05699,-0.03222 0.116598,-0.06266 0.174365,-0.06188 0.07514,0.0012 0.14275,0.02239 0.205007,0.04657 0.124522,0.04835 0.235858,0.104686 0.294913,0.106637 a 0.10321922,0.10321922 0 0 1 0.01674,0.0024 c 0.205534,0.04067 0.427486,0.0032 0.601111,-0.02679 a 0.10321922,0.10321922 0 0 1 0.0091,-0.0016 c 0.288015,-0.02364 0.38845,-0.0316 0.521889,-0.102201 0.06131,-0.03242 0.112175,-0.08975 0.175372,-0.16832 0.0632,-0.07857 0.137862,-0.175634 0.250564,-0.26286 0.125013,-0.09675 0.253861,-0.201278 0.384011,-0.314667 a 0.10321922,0.10321922 0 0 1 0,-7.8e-4 c 0.129047,-0.111664 0.259813,-0.236747 0.393888,-0.366472 0.120628,-0.121101 0.227937,-0.285161 0.367678,-0.435818 0.06888,-0.108443 0.172728,-0.180537 0.269312,-0.24613 0.09974,-0.06774 0.193933,-0.129693 0.243712,-0.188072 a 0.10321922,0.10321922 0 0 1 0.02902,-0.0236 c 0.220275,-0.121123 0.277737,-0.20941 0.395299,-0.36123 a 0.10321922,0.10321922 0 0 1 0.02902,-0.025 c 0.0782,-0.04605 0.128777,-0.115753 0.177393,-0.205006 0.04863,-0.08925 0.09153,-0.195899 0.160858,-0.297129 0.11698,-0.19451 0.240461,-0.359771 0.34672,-0.537212 a 0.10321922,0.10321922 0 0 1 7.8e-4,-7.8e-4 c 0.06788,-0.110775 0.165923,-0.202018 0.256005,-0.290879 0.09008,-0.08886 0.171479,-0.175321 0.210448,-0.251575 a 0.10321922,0.10321922 0 0 1 0.03569,-0.03951 c 0.214915,-0.139204 0.216518,-0.292467 0.303174,-0.50133 a 0.10321922,0.10321922 0 0 1 0.01833,-0.02902 c 0.132023,-0.149616 0.112518,-0.365127 0.182831,-0.599497 0.04499,-0.22625 0.0834,-0.441067 0.123168,-0.645661 0.01241,-0.250253 0.0745,-0.411055 0.0901,-0.59325 a 0.10321922,0.10321922 0 0 1 7.8e-4,-0.0032 c 0.02485,-0.216452 0.07049,-0.402205 0.06249,-0.595872 a 0.10321922,0.10321922 0 0 1 0.0024,-0.0252 c 0.02953,-0.144821 -0.0443,-0.436239 -0.08849,-0.661986 -0.02687,-0.132265 -0.01705,-0.238651 -0.01049,-0.322933 0.0065,-0.08428 0.0098,-0.143022 -0.01451,-0.21408 a 0.10321922,0.10321922 0 0 1 -0.0032,-0.05564 c 0.01424,-0.06413 -0.01189,-0.14431 -0.06995,-0.241695 -0.05804,-0.09739 -0.142379,-0.203488 -0.208029,-0.316884 -0.10469,-0.18181 -0.235444,-0.404272 -0.368891,-0.572081 a 0.10321922,0.10321922 0 0 1 -0.0052,-0.0076 C 28.072235,10.226264 27.96912,10.144482 27.807526,9.9891608 27.656186,9.8410862 27.397184,9.5701908 27.19795,9.4162689 27.004638,9.2669109 26.864381,9.2237251 26.629493,9.0681414 26.445551,8.9463037 26.251568,8.8204129 26.060436,8.7123528 a 0.10321922,0.10321922 0 0 1 -0.0032,-0.00156 C 25.863234,8.59221 25.740055,8.5297698 25.54224,8.4289847 a 0.10321922,0.10321922 0 0 1 -0.0024,-7.801e-4 c -0.170607,-0.09199 -0.502043,-0.318425 -0.710674,-0.4198928 a 0.10321922,0.10321922 0 0 1 -0.01915,-0.011273 C 24.597026,7.8290545 24.486574,7.8192011 24.30042,7.729541 a 0.10321922,0.10321922 0 0 1 -0.0085,-0.00542 C 24.0945,7.6039619 23.893097,7.4827523 23.712213,7.3913095 a 0.10321922,0.10321922 0 0 1 -0.01592,-0.00987 C 23.511914,7.2410855 23.417222,7.2227049 23.239919,7.124627 a 0.10321922,0.10321922 0 0 1 -0.0099,-0.00605 C 23.14785,7.0606378 23.046573,6.9633005 22.938146,6.8625701 22.829719,6.7618434 22.716468,6.658632 22.638799,6.6057566 a 0.10321922,0.10321922 0 0 1 -0.02902,-0.028827 C 22.529473,6.4529394 22.490617,6.4355612 22.454378,6.4251461 22.418139,6.4147308 22.34372,6.4220254 22.256225,6.365881 22.131013,6.2856843 22.041333,6.1701152 21.947,6.0457731 Z M 8.8184447,8.3024404 c -0.033407,-3.901e-4 -0.067283,0.0096 -0.1104657,0.03226 C 8.6516552,8.3642292 8.5846721,8.4176234 8.5084153,8.4818541 8.3748166,8.6493665 8.1933156,8.808336 8.0810659,8.9906402 7.960258,9.1868508 7.8763742,9.3995344 7.8569093,9.5774385 c -0.017265,0.1578188 0.050808,0.4130522 0.1159085,0.6299375 0.1115786,0.231356 0.2459201,0.402275 0.3604244,0.551722 0.064437,0.08411 0.1000283,0.12955 0.1302206,0.15159 0.030204,0.022 0.066776,0.03527 0.1630783,0.04797 0.1491396,0.0197 0.4419345,-0.02711 0.5668421,-0.108247 a 0.10321922,0.10321922 0 0 1 0.024997,-0.01209 c 0.2474903,-0.07942 0.3134819,-0.193827 0.3946927,-0.356592 0.070063,-0.140457 0.033356,-0.338427 0.076197,-0.5523317 0.028866,-0.1442672 0.026994,-0.3042588 -0.00846,-0.4739126 a 0.10321922,0.10321922 0 0 1 -6.242e-4,-0.00234 C 9.6500198,9.2906434 9.5754938,9.1015987 9.4896878,8.9397229 9.4011473,8.7750894 9.3095793,8.6442213 9.203848,8.5397889 9.0952066,8.4324815 8.9361196,8.3249325 8.8518895,8.3065596 c -0.011383,-0.00234 -0.022324,-0.00391 -0.033461,-0.00401 z m 3.9594293,0.043743 c -0.01747,0.1315196 -0.03017,0.2587406 -0.06935,0.3898545 -0.02612,0.276333 -0.163467,0.4666145 -0.249153,0.6597707 a 0.10321922,0.10321922 0 0 1 -8.18e-4,7.801e-4 c -0.09178,0.2004469 -0.173909,0.4236315 -0.291082,0.6309433 -0.100823,0.233734 -0.256809,0.409691 -0.383203,0.588212 a 0.10321922,0.10321922 0 0 1 -0.0022,0.0032 c -0.142056,0.185834 -0.291689,0.334451 -0.431986,0.499112 a 0.10321922,0.10321922 0 0 1 -0.0123,0.01209 c -0.129197,0.108138 -0.188265,0.299305 -0.356998,0.472707 -0.05976,0.104053 -0.157874,0.171831 -0.255603,0.234235 -0.102318,0.06533 -0.208627,0.123964 -0.284026,0.184447 a 0.10321922,0.10321922 0 0 1 -0.02298,0.01369 c -0.138611,0.061 -0.266597,0.230346 -0.4448856,0.353569 l -0.003,0.0024 c -0.133115,0.107775 -0.2616134,0.210261 -0.4122314,0.293903 -0.149389,0.132244 -0.354905,0.169654 -0.5005221,0.213475 -0.065323,0.01966 -0.084163,0.03249 -0.1173195,0.051 -0.033138,0.01849 -0.082948,0.04147 -0.1554179,0.05181 -0.058017,0.0083 -0.059869,0.01283 -0.092323,0.0252 -0.025016,0.0095 -0.073136,0.01139 -0.1225601,0.01127 -0.00323,0.0012 -0.00571,0.002 -0.00766,0.0024 -0.01143,0.0024 -0.016824,0.002 -0.021973,0.0024 -0.010337,3.89e-4 -0.016863,1.75e-4 -0.024392,-7.8e-4 -0.015026,-0.0016 -0.031913,-0.0039 -0.051807,-0.0068 -0.039765,-0.0066 -0.09154,-0.01704 -0.1493705,-0.03066 -0.1156746,-0.0274 -0.2522145,-0.06634 -0.3582267,-0.117455 -0.1259766,-0.0564 -0.2631711,-0.148434 -0.3870334,-0.249152 a 0.10321922,0.10321922 0 0 1 -6.242e-4,-7.8e-4 C 7.4374449,12.528328 7.3996571,12.442332 7.2966602,12.316729 a 0.10321922,0.10321922 0 0 1 -0.016731,-0.02883 C 7.2683481,12.257515 7.2094986,12.171264 7.1382191,12.07685 7.0669397,11.982433 6.9837667,11.872966 6.9189002,11.758352 6.8078949,11.561651 6.7006852,11.339112 6.6018154,11.089309 6.4985688,10.827608 6.4133853,10.544658 6.3329078,10.224735 6.2563389,9.9203704 6.2893764,9.6285742 6.2728369,9.3164161 L 5.91846,9.5099312 a 0.10321922,0.10321922 0 0 1 -0.015319,0.00686 L 5.3965714,9.6943886 5.0673918,9.9457604 c 0.06465,0.2094096 0.2154712,0.4328686 0.2977333,0.6690436 0.199179,0.23757 0.2226455,0.464043 0.2953141,0.633564 0.1447945,0.211647 0.1631325,0.335337 0.2503622,0.490846 0.090674,0.142825 0.2134757,0.334328 0.3382508,0.501329 l 0.00242,0.0032 c 0.1134667,0.128879 0.2616287,0.324652 0.3922745,0.457183 0.1238155,0.12534 0.2532423,0.234348 0.3902581,0.340469 0.1360992,0.09842 0.2699195,0.189685 0.4144482,0.27193 v 2.02e-4 h 2.017e-4 c 4.291e-4,1.41e-4 0.00121,2.93e-4 0.0016,3.9e-4 l 2.013e-4,2.04e-4 h 2.017e-4 l 8.191e-4,7.8e-4 c 0.1346247,0.07013 0.3963247,0.18661 0.5509177,0.246129 0.2224628,0.07864 0.2457772,0.08639 0.3739305,0.118729 0.1612476,0.0406 0.3322137,0.07743 0.490645,0.09233 a 0.10321922,0.10321922 0 0 1 0.00544,0 c 0.063322,0.009 0.1211829,-0.0063 0.1943229,-0.03206 0.065842,-0.0232 0.1416332,-0.05565 0.2338324,-0.06652 0.096468,-0.06363 0.2048784,-0.07129 0.2963224,-0.06914 0.099974,0.002 0.1887104,0.01186 0.2545947,-0.0016 0.1649686,-0.03335 0.3259236,-0.09078 0.4997176,-0.15159 l -0.0068,0.0032 c 0.190838,-0.08213 0.455,-0.125634 0.603328,-0.200374 a 0.10321922,0.10321922 0 0 1 0.02218,-0.0076 c 0.104808,-0.02532 0.158763,-0.06223 0.214075,-0.110467 0.05345,-0.04661 0.107385,-0.10888 0.191502,-0.167512 0.144825,-0.13386 0.30494,-0.305472 0.471495,-0.452346 0.149683,-0.224553 0.34358,-0.304318 0.475325,-0.440654 a 0.10321922,0.10321922 0 0 1 0.0022,-0.0024 c 0.161088,-0.156879 0.308028,-0.332252 0.457184,-0.523301 a 0.10321922,0.10321922 0 0 1 8.18e-4,-7.81e-4 c 0.157929,-0.198641 0.341411,-0.366399 0.47089,-0.575306 0.118194,-0.190706 0.202797,-0.444887 0.321319,-0.69404 L 13.342458,9.5465363 13.176356,9.1732135 12.881444,8.5416613 Z m 9.115238,4.3664196 c -0.01896,-1.14e-4 -0.03999,0.0024 -0.06471,0.0058 h -2.03e-4 c -0.06612,0.0098 -0.148901,0.03549 -0.248348,0.02902 a 0.10321922,0.10321922 0 0 1 -7.8e-4,0 c -0.0028,-1.67e-4 -0.0047,-2.61e-4 -0.006,-3.89e-4 -0.0154,0.02017 -0.05434,0.07 -0.125181,0.09776 -0.179987,0.07055 -0.350537,0.181719 -0.498101,0.329989 a 0.10321922,0.10321922 0 0 1 -0.0024,0.0032 c -0.165683,0.154877 -0.299528,0.257988 -0.395499,0.439442 a 0.10321922,0.10321922 0 0 1 -0.01814,0.02438 c -0.04141,0.0413 -0.08806,0.134052 -0.121954,0.245324 -0.0339,0.11127 -0.05865,0.239907 -0.0762,0.354376 -0.02938,0.191381 -0.01724,0.428826 0.01209,0.560595 0.02629,0.11804 0.103922,0.268349 0.1913,0.391669 1.95e-4,1.99e-4 2.93e-4,3.05e-4 3.89e-4,3.9e-4 l 1.99e-4,2.02e-4 2.04e-4,2.04e-4 c 0.09858,0.129514 0.150458,0.16662 0.26891,0.248345 0.07126,0.02699 0.246211,0.02278 0.437425,0.05785 0.104642,0.01919 0.199088,0.06749 0.284832,0.09757 0.08574,0.03004 0.150337,0.03842 0.192712,0.01915 0.190682,-0.08675 0.383406,-0.184668 0.484597,-0.324746 a 0.10321922,0.10321922 0 0 1 0.02216,-0.02196 c 0.138296,-0.103535 0.173868,-0.316593 0.227784,-0.545473 a 0.10321922,0.10321922 0 0 1 0,-0.0016 c 0.04922,-0.1949 0.05793,-0.426152 0.05402,-0.631552 -0.0043,-0.223633 0.03749,-0.353367 0.0054,-0.475523 -0.03421,-0.130038 -0.07178,-0.239847 -0.161669,-0.361841 a 0.10321922,0.10321922 0 0 1 -0.0052,-0.0083 c -0.03744,-0.06292 -0.09907,-0.170613 -0.169124,-0.274351 -0.07006,-0.103734 -0.153645,-0.202339 -0.203395,-0.234638 -0.02757,-0.01791 -0.05358,-0.02481 -0.08527,-0.025 z M 13.694457,13.5546 c -0.07357,0.103051 -0.15008,0.227135 -0.241492,0.345103 a 0.10321922,0.10321922 0 0 1 -0.0123,0.01291 c -0.124669,0.113322 -0.260784,0.23534 -0.362641,0.401545 a 0.10321922,0.10321922 0 0 1 -0.02742,0.02984 c -0.125462,0.09152 -0.228747,0.282485 -0.335227,0.496694 a 0.10321922,0.10321922 0 0 1 -0.01814,0.02578 c -0.04773,0.04898 -0.09337,0.152031 -0.131834,0.27516 -0.03773,0.120745 -0.07184,0.258004 -0.121956,0.384007 -0.06638,0.25312 -0.182885,0.415023 -0.252982,0.62006 a 0.10321922,0.10321922 0 0 1 -0.0031,0.0085 c -0.0713,0.158556 -0.08609,0.469126 -0.154813,0.727098 -0.007,0.283644 -0.141924,0.45964 -0.184849,0.642638 a 0.10321922,0.10321922 0 0 1 -0.0024,0.0093 c -0.06423,0.194838 -0.09734,0.413579 -0.132639,0.625502 a 0.10321922,0.10321922 0 0 1 -8.2e-4,0.0032 c -0.0354,0.176589 -0.03087,0.411585 -0.04496,0.609579 0.01381,0.202954 0.0198,0.378202 0.02137,0.52572 0.0015,0.154206 0.01469,0.283872 0.04657,0.394492 0.05765,0.200115 0.197286,0.376994 0.319101,0.474721 h 8.19e-4 c 0.153309,0.11707 0.207586,0.106233 0.374939,0.128001 0.158751,-0.0065 0.350303,-0.03624 0.560793,-0.07923 0.169364,-0.08499 0.399054,-0.23463 0.627318,-0.319301 0.117435,-0.114652 0.257033,-0.150243 0.37514,-0.159855 0.124171,-0.01014 0.230615,-0.002 0.300353,-0.02138 0.213886,-0.05939 0.459416,-0.09452 0.569866,-0.161465 a 0.10321922,0.10321922 0 0 1 0.155418,0.0768 l 0.06632,0.613405 a 0.10321922,0.10321922 0 0 1 5.85e-4,0.01209 l -0.006,0.538015 -0.0045,0.551523 0.06914,0.503543 0.384816,-0.210245 a 0.10321922,0.10321922 0 0 1 0.01592,-0.0068 l 0.638604,-0.22315 0.274956,-0.205007 c -0.164914,-0.0816 -0.332346,-0.174912 -0.422715,-0.276566 a 0.10321922,0.10321922 0 0 1 -0.01007,-0.01291 c -0.06144,-0.09767 -0.08838,-0.167676 -0.100586,-0.22859 -0.01221,-0.06092 -0.01135,-0.0996 -0.02883,-0.16832 a 0.10321922,0.10321922 0 0 1 0.0032,-0.05947 c 0.0079,-0.02258 7.8e-4,-0.11433 -0.02579,-0.22335 -0.02665,-0.109023 -0.0646,-0.23601 -0.07479,-0.364861 -0.01763,-0.222892 0.03581,-0.401152 0.04958,-0.5745 0.01175,-0.147664 -0.0321,-0.258876 -0.141712,-0.373326 a 0.10321922,0.10321922 0 0 1 -7.8e-4,-7.8e-4 c -0.102258,-0.108759 -0.179754,-0.166265 -0.350344,-0.206415 -0.176531,-0.04153 -0.271944,-0.05685 -0.387034,0.01532 -0.370404,0.232261 -0.670957,0.424926 -0.953874,0.557569 h -8.19e-4 c -0.302707,0.169701 -0.628996,0.09791 -0.776485,0.124978 a 0.10321922,0.10321922 0 0 1 -0.06774,-0.01069 c -0.07576,-0.04107 -0.10943,-0.03523 -0.156224,-0.02418 -0.0468,0.01104 -0.111592,0.04964 -0.207224,0.02579 a 0.10321922,0.10321922 0 0 1 -0.0083,-0.0032 c -0.10801,-0.03718 -0.19528,-0.08544 -0.25903,-0.164692 a 0.10321922,0.10321922 0 0 1 -8.2e-4,-7.81e-4 c -0.09431,-0.119856 -0.160002,-0.314724 -0.158442,-0.494473 -0.01919,-0.118803 -0.0018,-0.217665 0.03124,-0.288664 0.0345,-0.07418 0.07036,-0.121729 0.09212,-0.188876 a 0.10321922,0.10321922 0 0 1 0.0076,-0.01755 c 0.07359,-0.13436 0.113522,-0.405591 0.225366,-0.634774 3.9e-4,-7.81e-4 5.07e-4,-0.0016 8.19e-4,-0.0024 0.08358,-0.266648 0.219666,-0.422899 0.339058,-0.604942 0.109663,-0.183701 0.212168,-0.485912 0.369496,-0.700288 l 2e-4,-1.99e-4 v -2.03e-4 h 2.02e-4 v -2.03e-4 l 2.02e-4,-1.99e-4 2.01e-4,-2.03e-4 c 7.3e-5,-7.8e-5 3.38e-4,-3.89e-4 3.91e-4,-7.8e-4 h 2.02e-4 v -2.02e-4 l 2.01e-4,-1.99e-4 v -2.03e-4 c 0.103152,-0.33558 0.30864,-0.423913 0.441056,-0.538624 0.08909,-0.109573 0.209386,-0.170294 0.320915,-0.217099 0.114079,-0.04787 0.222691,-0.0837 0.28947,-0.12357 0.105657,-0.06309 0.1836,-0.138974 0.274954,-0.210246 l -0.25137,-0.359619 a 0.10321922,0.10321922 0 0 1 -8.19e-4,-7.8e-4 l -0.303928,-0.441111 a 0.10321922,0.10321922 0 0 1 -0.0022,-0.0032 l -0.246882,-0.384514 a 0.10321922,0.10321922 0 0 1 -0.0024,-0.0041 z m 2.571351,8.8681 c -0.01279,0.01428 -0.01767,0.02972 -0.05946,0.03788 -0.178771,0.03495 -0.316688,0.08762 -0.428157,0.230806 a 0.10321922,0.10321922 0 0 1 -0.01673,0.01693 c -0.03038,0.02462 -0.05417,0.100625 -0.0633,0.218512 -0.0091,0.11789 -0.0071,0.263183 -0.04253,0.40316 -0.06253,0.247116 -0.189348,0.48814 -0.182833,0.618648 0.0085,0.170531 0.07363,0.39104 0.153808,0.582769 0.09737,0.202034 0.163327,0.29176 0.292491,0.417472 0.06539,0.06364 0.160865,0.141494 0.258424,0.201176 0.09756,0.05969 0.198449,0.0978 0.264271,0.09898 0.163315,0.0028 0.387573,-0.04983 0.528744,-0.142318 a 0.10321922,0.10321922 0 0 1 0.01451,-0.0085 c 0.165483,-0.07376 0.244604,-0.276407 0.36728,-0.463233 0.105545,-0.237489 0.178337,-0.500738 0.234638,-0.678112 0.06279,-0.197907 0.07774,-0.204418 0.05402,-0.391469 -0.01899,-0.149857 -0.02434,-0.232726 -0.09978,-0.350546 a 0.10321922,0.10321922 0 0 1 -0.0085,-0.01674 c -0.03445,-0.08365 -0.134313,-0.211123 -0.277172,-0.320107 a 0.10321922,0.10321922 0 0 1 -0.0085,-0.0074 c -0.02087,-0.01993 -0.115557,-0.09103 -0.21791,-0.156227 -0.102357,-0.0652 -0.21965,-0.131057 -0.297933,-0.160859 -0.136448,-0.052 -0.20487,-0.02087 -0.355788,-0.01369 a 0.10321922,0.10321922 0 0 1 -0.107443,-0.09293 z m -1.950082,11.328985 -0.0043,0.01127 h 0.0024 c 0.0013,-0.004 0.0016,-0.0077 0.0019,-0.01127 z" />
  </g>
</svg>
