<?xml version="1.0" encoding="UTF-8" standalone="no"?>
<!-- Created with Inkscape (http://www.inkscape.org/) -->

<svg
   width="32"
   height="32"
   viewBox="0 0 32 32"
   version="1.1"
   id="svg1"
   xmlns="http://www.w3.org/2000/svg"
   xmlns:svg="http://www.w3.org/2000/svg">
  <defs
     id="defs1" />
  <g
     id="layer1">
    <path
       id="path77"
       style="baseline-shift:baseline;display:inline;overflow:visible;vector-effect:none;stroke-width:3.98318;stroke-linecap:round;stroke-linejoin:round;stroke-miterlimit:10000;paint-order:fill markers stroke;enable-background:accumulate;stop-color:#000000"
       d="m 16.714665,0.61484 c -0.0578,8.1e-4 -0.16116,0.0134 -0.302243,0.004 l 0.01426,0.002 c -0.157105,-0.005 -0.324198,0.006 -0.530416,0.004 -0.253222,0.0323 -0.456558,0.002 -0.613601,0.008 -0.1079,0.007 -0.258604,0.0463 -0.475346,0.0677 -0.163952,0.0479 -0.275477,0.0362 -0.384641,0.036 -0.123311,-1.5e-4 -0.235709,-0.001 -0.289965,0.006 a 0.37030504,0.44442117 48.199264 0 1 -0.05585,0.003 c -0.192007,-0.002 -0.350667,-0.001 -0.486047,0.0202 a 0.37030504,0.44442117 48.199264 0 1 -0.116462,0.003 c -0.158985,-0.0203 -0.293389,-0.0191 -0.41514,0.005 a 0.37030504,0.44442117 48.199264 0 1 -0.183803,-0.005 c -0.0051,0.001 -0.01744,0.004 -0.04278,0.0115 -0.05673,0.0178 -0.156709,0.0658 -0.30779,0.10101 a 0.37030504,0.44442117 48.199264 0 1 -0.01782,0.003 c -0.114848,0.022 -0.228898,0.0732 -0.423855,0.12755 -0.181886,0.0725 -0.351062,0.11079 -0.493969,0.15211 -0.212651,0.0846 -0.359544,0.0562 -0.445642,0.0483 -0.05381,-0.005 -0.08617,-0.002 -0.0923,-0.003 h -4.06e-4 -4.05e-4 V 1.2088 h -4.06e-4 v -4e-4 h 4.06e-4 c 0.0018,-10e-4 0.0085,-0.004 0.01941,-0.007 a 0.37030504,0.44442117 48.199264 0 1 -0.133495,-0.004 c -0.03081,0.0213 -0.120674,0.10352 -0.303828,0.17469 -0.191001,0.091 -0.362082,0.13771 -0.450396,0.17311 a 0.37030504,0.44442117 48.199264 0 1 -0.0083,0.002 C 10.014806,1.6075 9.899602,1.609 9.827224,1.6145 c -0.04747,0.004 -0.07561,0.01 -0.07962,0.01 h -3.95e-4 -3.96e-4 v -4e-4 h 3.96e-4 c 0.0011,-0.001 0.0061,-0.003 0.01466,-0.007 a 0.37030504,0.44442117 48.199264 0 1 -0.205193,0.023 c -0.0031,0.001 -0.05439,0.0338 -0.159243,0.0836 A 0.37030504,0.44442117 48.199264 0 1 9.265919,1.7645 C 9.235439,1.7843 9.172129,1.8362 9.056764,1.8976 8.932343,1.967 8.825964,2.01789 8.760462,2.05605 a 0.37030504,0.44442117 48.199264 0 1 -0.02496,0.0135 C 8.599633,2.13915 8.506789,2.1787 8.491489,2.18839 a 0.37030504,0.44442117 48.199264 0 1 -0.122008,0.0558 c 0.02389,-0.007 0.04133,-0.0135 0.04595,-0.0131 l 3.96e-4,4.1e-4 h 3.95e-4 v 4.1e-4 h 3.96e-4 v 4e-4 l -3.96e-4,4.1e-4 v 4e-4 c -0.0053,0.007 -0.04253,0.0334 -0.129533,0.0947 -0.05472,0.0417 -0.108004,0.0823 -0.162015,0.12398 -0.04587,0.0397 -0.08563,0.0733 -0.113689,0.0959 -0.0084,0.009 -0.02557,0.0244 -0.03605,0.0349 l -0.0083,0.19529 -0.0067,0.47297 a 0.37030504,0.44442117 48.199264 0 1 -0.002,0.0265 l -0.03446,0.41514 -0.01624,0.48962 -0.0071,0.47139 a 0.37030504,0.44442117 48.199264 0 1 3.96e-4,0.0186 l -0.02575,0.40524 -0.0079,0.50863 a 0.37030504,0.44442117 48.199264 0 1 0.0012,0.006 l -0.01426,0.46109 a 0.37030504,0.44442117 48.199264 0 1 -7.67e-4,0.0127 l -0.02773,0.43337 -0.01268,0.48129 -0.0016,0.35889 -0.0099,0.0257 c 0.0038,-0.008 0.0087,-0.016 0.0099,-0.0226 l 3.96e-4,0.0123 C 7.81704,7.33092 7.822,7.31012 7.8364,7.27752 7.85242,7.21812 7.85736,7.16317 7.91127,7.08818 7.97,7.00648 8.064472,6.96706 8.149341,6.92497 a 0.37030504,0.44442117 48.199264 0 1 0.0412,-0.0404 c -0.0024,0.001 -0.0044,0.002 -0.0055,0.003 l -3.95e-4,4.1e-4 H 8.18425 8.183855 8.183459 v -4.1e-4 -4e-4 -4.1e-4 C 8.190059,6.87306 8.28744,6.78003 8.319727,6.73148 A 0.37030504,0.44442117 48.199264 0 1 8.446091,6.61264 c 0.0021,-0.0123 0.0088,-0.0479 0.07804,-0.14617 a 0.37030504,0.44442117 48.199264 0 1 0.04714,-0.0578 c 0.06283,-0.0667 0.14979,-0.17405 0.229357,-0.27888 a 0.37030504,0.44442117 48.199264 0 1 0.05387,-0.0618 c 0.04024,-0.0386 0.08344,-0.11786 0.209947,-0.27214 a 0.37030504,0.44442117 48.199264 0 1 0.0016,-0.003 c 0.0016,-0.002 0.04792,-0.0694 0.09745,-0.15013 0.04268,-0.0696 0.08834,-0.14952 0.163996,-0.24164 0.119318,-0.19074 0.305918,-0.30335 0.409991,-0.35295 0.06599,-0.0314 0.108249,-0.062 0.114481,-0.0642 h 3.95e-4 3.96e-4 v 4e-4 c -0.0026,0.004 -0.02096,0.0216 -0.05784,0.0594 a 0.37030504,0.44442117 48.199264 0 1 0.09586,-0.0658 c 0.01903,-0.0482 0.06451,-0.11293 0.116858,-0.17865 0.111758,-0.14532 0.248765,-0.2506 0.333934,-0.29749 0.07493,-0.0413 0.116764,-0.0665 0.123591,-0.0689 l 3.96e-4,-4.1e-4 h 3.95e-4 v 4.1e-4 4.1e-4 c -5.27e-4,6e-4 -0.002,0.002 -0.0036,0.003 a 0.37030504,0.44442117 48.199264 0 1 0.127949,-0.0796 c 0.0028,-0.003 0.01041,-0.0102 0.02971,-0.0301 0.03452,-0.0356 0.106451,-0.11552 0.212324,-0.19965 0.174655,-0.15246 0.344101,-0.25121 0.474955,-0.33394 0.194923,-0.12643 0.37614,-0.20336 0.508627,-0.27253 a 0.37030504,0.44442117 48.199264 0 1 0.04595,-0.0202 c 0.135236,-0.0544 0.284005,-0.13721 0.482482,-0.21985 a 0.37030504,0.44442117 48.199264 0 1 0.01506,-0.006 c 0.220431,-0.0837 0.492889,-0.15658 0.654401,-0.20678 a 0.37030504,0.44442117 48.199264 0 1 0.04238,-0.0107 c 0.08722,-0.0186 0.08675,-0.0218 0.125572,-0.0428 0.02747,-0.0148 0.124971,-0.0557 0.213512,-0.0891 0.326144,-0.15562 0.588676,-0.13077 0.747094,-0.14815 0.152415,-0.0199 0.363587,-0.0592 0.596567,-0.0689 0.0023,-4e-4 0.0038,2e-5 0.0061,-4e-4 0.261616,-0.0471 0.493797,-0.0277 0.716994,-0.004 0.291374,-0.0148 0.535697,0.0486 0.757391,0.0994 h 4.06e-4 l 4.05e-4,4e-4 3.86e-4,4.1e-4 v 4e-4 h 4.05e-4 c 0.280926,0.0393 0.54209,0.13156 0.779177,0.20876 0.250961,0.0793 0.480191,0.16477 0.727288,0.2658 h 4.06e-4 v 4.1e-4 h 4.06e-4 v 4.1e-4 l 3.85e-4,4e-4 h 4.06e-4 c 1.68e-4,-4e-5 7.7e-4,2e-5 0.0015,0 h 4.06e-4 c 0.234695,0.0931 0.528299,0.20955 0.795021,0.3375 0.0015,6.1e-4 0.0031,0.002 0.0046,0.003 0.0038,0.002 0.0084,0.003 0.01226,0.005 0.302542,0.12735 0.596691,0.28049 0.847706,0.42228 0.266423,0.15049 0.439043,0.26291 0.71937,0.42939 0.135419,0.0804 0.277553,0.15297 0.432565,0.25472 0.0046,0.003 0.01204,0.008 0.01663,0.0107 0.0031,0.002 0.0061,0.003 0.0091,0.005 0.141743,0.0778 0.335443,0.19586 0.494763,0.31175 l 0.0061,0.004 c 0.215685,0.11069 0.328767,0.21998 0.417916,0.29789 0.0038,0.002 0.0038,0.005 0.0077,0.007 0.199311,0.1293 0.313849,0.25798 0.398898,0.34027 0.0948,0.0807 0.227896,0.16432 0.357703,0.2761 0.133242,0.0701 0.234397,0.16503 0.287978,0.24798 0.05358,0.0829 0.05374,0.097 0.06217,0.10695 0.106696,0.11952 0.252931,0.29826 0.359282,0.44247 0.124412,0.15382 0.186732,0.2628 0.255109,0.36761 0.03725,0.0569 0.158477,0.18938 0.264215,0.33591 0.211169,0.18023 0.255821,0.39648 0.282436,0.46466 0.05427,0.0922 0.153371,0.24292 0.235699,0.40246 0.08762,0.10423 0.145123,0.22566 0.163597,0.31968 0.0184,0.094 0.01242,0.0891 0.01786,0.10378 a 0.37030504,0.44442117 48.199264 0 1 0.0023,0.008 c 0.03963,0.11972 0.105976,0.32964 0.157258,0.51021 a 0.37030504,0.44442117 48.199264 0 1 0.0038,0.0107 c 0.0088,0.0356 0.09343,0.22791 0.155679,0.42147 0.138754,0.23199 0.124243,0.43369 0.131908,0.50823 v 4.1e-4 4.1e-4 4e-4 4.1e-4 c 0.03871,0.14808 0.05335,0.23415 0.06968,0.35928 0.03082,0.11411 0.03028,0.1969 0.03641,0.30066 0.0061,0.10377 0.01127,0.21328 0.01663,0.30304 a 0.37030504,0.44442117 48.199264 0 1 0,0.0246 c -1.53e-4,0.0944 0.0187,0.26857 0.02177,0.46862 0.0054,0.14232 0.0054,0.36161 4.06e-4,0.54348 -7.71e-4,0.0628 0.04852,0.21594 0.04354,0.44921 0.02522,0.13161 0.01073,0.2654 -0.0099,0.35216 -0.02461,0.10351 -0.03802,0.14174 -0.03879,0.1533 a 0.37030504,0.44442117 48.199264 0 1 -0.0046,0.0376 c -0.03051,0.1652 -0.05021,0.20745 -0.06776,0.34899 a 0.37030504,0.44442117 48.199264 0 1 -0.05902,0.17231 c 0.01778,-0.0308 0.02583,-0.0452 0.02813,-0.0483 l 4.06e-4,-4.1e-4 h 3.85e-4 c -0.0015,0.006 -0.01963,0.0476 -0.02737,0.0887 -0.01295,0.0693 -0.02729,0.16596 -0.04277,0.26857 a 0.37030504,0.44442117 48.199264 0 1 -0.01625,0.0697 c 0.0015,-0.002 0.0031,-0.003 0.0046,-0.004 h 4.05e-4 4.06e-4 3.85e-4 4.06e-4 4.06e-4 v 4e-4 h 3.85e-4 l 4.06e-4,4.1e-4 v 4.1e-4 4e-4 l 4.05e-4,4.1e-4 c 5.68e-4,0.005 -0.0031,0.0164 -0.01587,0.04 -0.0023,0.0248 -0.0054,0.0595 -0.0069,0.0974 -0.0046,0.0996 -0.0061,0.22069 -0.02499,0.35334 0.0023,0.242 -0.07382,0.41403 -0.09032,0.50388 a 0.37030504,0.44442117 48.199264 0 1 -7.71e-4,0.007 c -0.0023,0.0127 0.0038,0.21114 -0.02453,0.43138 0.0054,0.0529 0.01387,0.10461 0.0031,0.16756 -0.01525,0.0892 -0.06347,0.18677 -0.09745,0.23847 -0.0061,0.009 -0.01058,0.0165 -0.01464,0.0226 a 0.37030504,0.44442117 48.199264 0 1 -0.0069,0.0198 c 0.0023,-0.003 0.0046,-0.006 0.0061,-0.007 h 4.06e-4 3.85e-4 v -4e-4 h 4.06e-4 4.05e-4 v 4e-4 h 3.86e-4 v 4.1e-4 4e-4 c 3.04e-4,0.003 -0.0038,0.0147 -0.01863,0.0396 -0.0054,0.0279 -0.01165,0.069 -0.01824,0.11448 -0.01426,0.0982 -0.02967,0.21827 -0.05703,0.34027 -0.0023,0.10371 0.01502,0.22593 -0.02139,0.40366 0.02706,0.28858 -0.116179,0.53523 -0.162019,0.63459 -0.06845,0.14833 -0.156813,0.24353 -0.195294,0.29076 -0.0038,0.004 -0.0061,0.008 -0.0091,0.0119 0.0015,0.0487 0.0098,0.19417 -0.04714,0.40841 -0.01924,0.16482 -0.109295,0.34112 -0.166763,0.41118 -0.02422,0.0295 -0.03672,0.0454 -0.04239,0.0523 a 0.37030504,0.44442117 48.199264 0 1 -0.112101,0.16083 c 0.04377,-0.0426 0.0647,-0.0656 0.07206,-0.0745 -0.0077,0.0104 -0.02637,0.039 -0.03564,0.0757 -0.021,0.0831 -0.04224,0.20246 -0.09586,0.34542 -0.0015,0.003 -0.0015,0.004 -0.0023,0.006 -0.06355,0.1945 -0.146021,0.35112 -0.196077,0.47139 a 0.37030504,0.44442117 48.199264 0 1 -0.0095,0.021 c -0.03526,0.0744 -0.08773,0.24647 -0.164387,0.43059 -0.07298,0.23972 -0.179127,0.40426 -0.238075,0.52526 -0.08568,0.18109 -0.172459,0.33264 -0.247581,0.47773 a 0.37030504,0.44442117 48.199264 0 1 -0.01265,0.0202 c -0.045,0.0776 -0.113818,0.24984 -0.209162,0.43337 -0.07863,0.19284 -0.170557,0.34581 -0.254709,0.48842 -0.04461,0.0971 -0.08627,0.26644 -0.202814,0.47377 -0.06677,0.25059 -0.208326,0.39164 -0.287986,0.49397 v 4e-4 4.1e-4 4e-4 4.1e-4 c -0.13174,0.29841 -0.318786,0.44908 -0.382256,0.53754 a 0.37030504,0.44442117 48.199264 0 1 -0.03013,0.0388 c -0.142417,0.16389 -0.257576,0.27022 -0.338287,0.37553 a 0.37030504,0.44442117 48.199264 0 1 -0.113296,0.10814 c -0.04584,0.0327 -0.145974,0.14683 -0.275705,0.30542 a 0.37030504,0.44442117 48.199264 0 1 -0.110913,0.1018 c 0.0061,-0.004 0.0094,-0.006 0.01111,-0.007 l 4.05e-4,-4e-4 h 3.86e-4 v 4e-4 c -0.0023,0.004 -0.02775,0.0299 -0.05979,0.0761 -0.04362,0.0627 -0.105202,0.16033 -0.195287,0.26738 -0.138731,0.18079 -0.285203,0.32052 -0.393755,0.43733 a 0.37030504,0.44442117 48.199264 0 1 0,0.002 c -0.176375,0.18838 -0.313925,0.27459 -0.39058,0.35176 a 0.37030504,0.44442117 48.199264 0 1 -0.101408,0.0788 c -0.04921,0.0298 -0.18365,0.15207 -0.32839,0.28798 a 0.37030504,0.44442117 48.199264 0 1 -0.06416,0.0503 c -7.71e-4,0.002 -0.01272,0.0155 -0.03403,0.0468 -0.03442,0.0504 -0.08613,0.14011 -0.184992,0.24124 -0.109234,0.15824 -0.250816,0.24405 -0.341859,0.29709 -0.106628,0.0621 -0.173977,0.10084 -0.176276,0.1026 a 0.37030504,0.44442117 48.199264 0 1 -0.08874,0.0574 c -0.01709,0.009 -0.118425,0.1128 -0.303823,0.25391 -0.274234,0.2253 -0.465312,0.24714 -0.480106,0.25709 a 0.37030504,0.44442117 48.199264 0 1 -0.082,0.0333 c -0.01594,0.0202 -0.09642,0.0855 -0.143798,0.13626 -0.102081,0.13489 -0.236818,0.20886 -0.326804,0.24085 -0.09327,0.0331 -0.160132,0.0422 -0.215094,0.0507 -0.07728,0.0118 -0.133441,0.0288 -0.141421,0.0281 h -3.85e-4 -4.06e-4 v -4.1e-4 -4e-4 l 4.06e-4,-4.1e-4 c 0.0023,-0.002 0.0083,-0.006 0.01824,-0.0111 a 0.37030504,0.44442117 48.199264 0 1 -0.109732,0.0178 c -0.02438,0.0306 -0.111134,0.10782 -0.226976,0.18697 -0.118493,0.0946 -0.235354,0.16044 -0.322848,0.19371 -0.103423,0.0393 -0.185115,0.0638 -0.228961,0.0816 -0.203045,0.0871 -0.346474,0.0652 -0.429001,0.0606 -0.04906,-0.003 -0.07929,4e-4 -0.08517,0 h -3.85e-4 -4.05e-4 v -4.1e-4 h 4.05e-4 c 0.0023,-0.001 0.01004,-0.004 0.02415,-0.009 a 0.37030504,0.44442117 48.199264 0 1 -0.171523,-0.004 c -0.02024,0.0132 -0.09807,0.0842 -0.28085,0.14142 a 0.37030504,0.44442117 48.199264 0 1 -0.03565,0.01 c -0.214254,0.0492 -0.349167,0.0474 -0.41831,0.0658 a 0.37030504,0.44442117 48.199264 0 1 -0.156866,0.0131 c 0.0046,5.2e-4 0.0079,10e-4 0.0095,0.003 l 3.85e-4,4e-4 4.06e-4,4.1e-4 v 4e-4 h 4.06e-4 v 4.1e-4 4e-4 4.1e-4 4e-4 4.1e-4 4.1e-4 l -4.06e-4,4e-4 c -0.0077,0.0143 -0.100694,0.0486 -0.315316,0.0967 -0.202485,0.0475 -0.377729,0.0547 -0.501497,0.0713 a 0.37030504,0.44442117 48.199264 0 1 -0.05427,0.004 c -0.169687,10e-4 -0.325646,-0.002 -0.459507,0.002 -0.08875,0.002 -0.263004,0.0563 -0.512587,0.006 -0.129837,-0.0264 -0.262102,-0.0575 -0.399296,-0.1026 -0.145386,-0.0446 -0.282683,-0.10444 -0.408803,-0.16241 a 0.37030504,0.44442117 48.199264 0 1 -0.0016,-0.001 c -0.126035,-0.0591 -0.195459,-0.097 -0.313335,-0.16597 a 0.37030504,0.44442117 48.199264 0 1 -0.01981,-0.0123 c -0.0724,-0.0497 -0.134367,-0.10437 -0.217565,-0.17298 -0.0832,-0.0686 -0.174014,-0.14296 -0.226584,-0.18143 a 0.37030504,0.44442117 48.199264 0 1 -0.05506,-0.0515 c -0.04848,-0.0583 -0.05613,-0.0625 -0.07091,-0.0721 -0.01479,-0.01 -0.0739,-0.039 -0.144983,-0.0982 a 0.37030504,0.44442117 48.199264 0 1 -0.01347,-0.0107 C 10.061974,27.62188 10.013278,27.53226 9.95384,27.44405 9.8944,27.35585 9.829329,27.27201 9.817969,27.26104 a 0.37030504,0.44442117 48.199264 0 1 -0.07407,-0.11488 c -0.0014,-0.004 -0.0025,-0.007 -0.0036,-0.0103 -0.04293,-0.0204 -0.104439,-0.057 -0.155677,-0.11131 -0.136227,-0.1438 -0.200463,-0.27629 -0.277685,-0.3688 a 0.37030504,0.44442117 48.199264 0 1 -0.04674,-0.0757 C 9.264097,26.58905 9.112202,26.41899 8.977758,26.2382 8.877027,26.10259 8.780112,25.96306 8.688982,25.82741 8.551592,25.62135 8.455391,25.35814 8.407336,25.27917 a 0.37030504,0.44442117 48.199264 0 1 -0.0301,-0.0638 c -0.03355,-0.0989 -0.04294,-0.10804 -0.0515,-0.11884 -0.0085,-0.0107 -0.06395,-0.0609 -0.116858,-0.15409 v -0.002 C 8.122058,24.78694 8.050722,24.64557 7.975163,24.49757 a 0.37030504,0.44442117 48.199264 0 1 -0.0044,-0.008 C 7.903273,24.3491 7.820044,24.1834 7.744178,24.01779 a 0.37030504,0.44442117 48.199264 0 1 0,-0.002 C 7.659918,23.82924 7.621888,23.67595 7.568298,23.5448 A 0.37030504,0.44442117 48.199264 0 1 7.551668,23.4893 C 7.536348,23.4198 7.428939,23.18153 7.356378,22.97988 a 0.37030504,0.44442117 48.199264 0 1 -0.0012,-0.003 C 7.282448,22.76797 7.265698,22.67892 7.224852,22.55065 a 0.37030504,0.44442117 48.199264 0 1 -0.0087,-0.0301 c -0.06549,-0.29621 -0.0075,-0.46603 -0.01663,-0.49991 a 0.37030504,0.44442117 48.199264 0 1 0.0031,-0.20044 c -0.0019,-0.005 -0.0046,-0.0118 -0.0087,-0.021 -0.02582,-0.0582 -0.09378,-0.15062 -0.133099,-0.32007 v -0.002 c -0.04222,-0.17454 -0.06953,-0.33134 -0.09864,-0.48526 a 0.37030504,0.44442117 48.199264 0 1 -0.0012,-0.003 c -0.02972,-0.16842 -0.06771,-0.42956 -0.09071,-0.59023 a 0.37030504,0.44442117 48.199264 0 1 -0.0012,-0.008 C 6.839653,20.15143 6.850433,20.1259 6.840553,20.03017 a 0.37030504,0.44442117 48.199264 0 1 -0.0016,-0.0436 c 0.0017,-0.1184 -0.0098,-0.27975 -0.01743,-0.44564 a 0.37030504,0.44442117 48.199264 0 1 7.7e-4,-0.0479 c 0.0051,-0.0667 -0.01619,-0.24447 -0.01466,-0.4397 -0.0051,-0.21249 0.03212,-0.35984 0.0408,-0.45792 a 0.37030504,0.44442117 48.199264 0 1 0.0087,-0.0555 c 0.05413,-0.2385 0.12772,-0.35742 0.132702,-0.38662 a 0.37030504,0.44442117 48.199264 0 1 0.07051,-0.17747 c 0.0017,-0.0403 -0.0037,-0.12533 0.02416,-0.25827 a 0.37030504,0.44442117 48.199264 0 1 0.01506,-0.0495 c 0.05705,-0.171 0.123309,-0.31013 0.143001,-0.3787 a 0.37030504,0.44442117 48.199264 0 1 0.04912,-0.11289 c 3.49e-4,-0.003 0.0011,-0.006 0.0016,-0.0103 0.0043,-0.0392 -0.0037,-0.12604 0.04595,-0.2753 0.0652,-0.196 0.195151,-0.30818 0.263029,-0.36919 0.04883,-0.0439 0.0754,-0.0712 0.07923,-0.0733 v -4e-4 h 3.95e-4 v 4e-4 c 0.282226,-0.39218 0.553668,-0.76768 0.821171,-1.12103 l 0.0036,-0.005 c 0.297894,-0.40105 0.616866,-0.69582 0.827507,-0.95823 a 0.37030504,0.44442117 48.199264 0 1 0.05705,-0.0618 c 0.152267,-0.13779 0.322544,-0.48426 0.591417,-0.82513 0.248331,-0.43169 0.536847,-0.63046 0.677376,-0.78235 l 0.002,-0.002 c 0.167099,-0.18402 0.338266,-0.43539 0.569629,-0.67104 0.230249,-0.3134 0.489494,-0.45756 0.588644,-0.54547 a 0.37030504,0.44442117 48.199264 0 1 0.01188,-0.0107 c 0.264475,-0.22107 0.52928,-0.34062 0.602508,-0.39692 a 0.37030504,0.44442117 48.199264 0 1 0.147359,-0.0792 c 0.04451,-0.0151 0.03178,-0.0103 0.05981,-0.0356 0.02803,-0.0254 0.09421,-0.10771 0.232922,-0.19846 a 0.37030504,0.44442117 48.199264 0 1 0.0048,-0.002 c 9.3e-5,-4.1e-4 0.03732,-0.0316 0.09784,-0.0939 0.04793,-0.0493 0.109084,-0.12121 0.213513,-0.19172 0.111796,-0.11325 0.249809,-0.19203 0.347402,-0.22579 0.09245,-0.032 0.156798,-0.046 0.182615,-0.0503 0.244517,-0.11512 0.427405,-0.0881 0.473767,-0.0931 a 0.37030504,0.44442117 48.199264 0 1 0.03644,-0.002 c 0.117683,-0.002 0.27457,-0.007 0.436135,0.0162 0.003,4.1e-4 0.0049,10e-4 0.006,0.002 h 4.06e-4 v 4e-4 h 4.06e-4 v 4.1e-4 4e-4 h -4.06e-4 c -0.0055,0.002 -0.03451,0.004 -0.05506,0.0103 l -4.06e-4,4e-4 c 0.0051,10e-6 0.04915,-0.007 0.07288,-0.0127 h 4.05e-4 3.86e-4 4.05e-4 4.06e-4 c 0.0253,-0.006 0.02192,-0.011 0.06615,-0.0119 0.03281,-6.1e-4 0.06025,0.002 0.08358,0.006 0.183911,0.002 0.247098,0.0811 0.312937,0.13112 0.03488,0.0265 0.0532,0.0472 0.08041,0.0725 0.01755,8.1e-4 0.01594,-0.007 0.03526,-0.004 0.04231,0.007 0.0496,0.0397 0.08319,0.0578 0.01755,0.003 0.04369,-0.0166 0.05788,-0.0107 0.112123,0.0465 0.144349,0.10491 0.170335,0.14538 0.0519,0.081 0.06401,0.13718 0.08081,0.19648 0.03358,0.1186 0.05642,0.24313 0.07091,0.30185 -5.27e-4,-0.002 -5.27e-4,-0.004 -3.85e-4,-0.005 v -4e-4 -4.1e-4 -4.1e-4 h 3.85e-4 v -4e-4 h 4.06e-4 v -4.1e-4 h 4.05e-4 3.86e-4 4.05e-4 4.06e-4 3.85e-4 c 0.01487,0.006 0.07489,0.0951 0.108145,0.26501 0.04492,0.0993 0.05795,0.2103 0.05389,0.28244 -0.0038,0.0642 -0.0079,0.0915 -0.01027,0.0978 l -3.85e-4,4.1e-4 v 4e-4 l -4.06e-4,4.1e-4 h -4.05e-4 l -3.86e-4,-4.1e-4 v -4e-4 c -5.3e-5,6.1e-4 -3.45e-4,10e-4 -4.05e-4,0.002 v 4e-4 c 0.0069,0.0876 0.01426,0.20457 0.01349,0.328 7.71e-4,0.007 7.71e-4,0.0174 0.0015,0.0249 -1.3e-4,0.008 3.05e-4,0.0135 0,0.0218 0.0069,0.0802 0.0061,0.17085 0.0038,0.26501 0.03335,0.21681 -0.02346,0.39399 -0.03449,0.45871 -0.0038,0.0752 -0.01541,0.17462 -0.03013,0.2769 0.01035,0.25397 -0.106259,0.44925 -0.109325,0.45871 -0.0031,0.009 0.0097,0.11487 -0.06615,0.31928 -0.03779,0.14266 -0.129256,0.27588 -0.178262,0.32759 -0.02997,0.0316 -0.04308,0.0474 -0.04592,0.0499 h -4.06e-4 c 0.0015,-0.003 0.0079,-0.0132 0.01663,-0.0289 a 0.37030504,0.44442117 48.199264 0 1 -0.05504,0.0796 c -0.01257,0.0325 -0.04078,0.097 -0.0614,0.14934 l 0.34146,0.0265 0.294317,-0.0202 a 0.37030504,0.44442117 48.199264 0 1 0.03327,-4.1e-4 l 0.443266,0.006 a 0.37030504,0.44442117 48.199264 0 1 0.02691,4.1e-4 l 0.454756,0.0392 a 0.37030504,0.44442117 48.199264 0 1 0.01426,0.002 l 0.419105,0.0495 0.34067,-0.0234 a 0.37030504,0.44442117 48.199264 0 1 0.09348,0.004 l 0.330767,0.0551 h 4.06e-4 l 0.0015,0.002 c -0.0092,-0.0513 -0.01763,-0.10402 -0.0023,-0.18301 0.0061,-0.0337 0.03503,-0.062 0.0519,-0.0986 -0.0054,-0.0223 -0.01472,-0.0509 -0.01702,-0.13032 a 0.37030504,0.44442117 48.199264 0 1 -7.71e-4,-0.0107 c 0,-0.073 -0.0031,-0.15667 -0.0069,-0.24639 a 0.37030504,0.44442117 48.199264 0 1 4.06e-4,-0.0143 c -7.71e-4,-0.0885 -0.0023,-0.17311 -0.0077,-0.26144 a 0.37030504,0.44442117 48.199264 0 1 -7.7e-4,-0.0297 c 0.0023,-0.20721 0.08851,-0.30819 0.112499,-0.35334 1.45e-4,-2e-4 2.43e-4,-6.1e-4 4.05e-4,-8.1e-4 a 0.37030504,0.44442117 48.199264 0 1 0.03488,-0.12834 c -0.01817,-0.0515 -0.05826,-0.11482 -0.07604,-0.28165 a 0.37030504,0.44442117 48.199264 0 1 -0.0023,-0.0119 c -0.0079,-0.10533 -0.0091,-0.14471 -0.0095,-0.16993 -5.4e-5,-0.003 -9.3e-5,-0.005 0,-0.006 a 0.37030504,0.44442117 48.199264 0 1 -0.0038,-0.0293 c -0.0023,-0.0704 -0.02085,-0.18222 -0.04001,-0.31095 a 0.37030504,0.44442117 48.199264 0 1 -7.7e-4,-0.009 c -0.0148,-0.12335 0.008,-0.22611 0.01587,-0.27214 0.0038,-0.022 0.0054,-0.0311 0.0061,-0.0349 a 0.37030504,0.44442117 48.199264 0 0 0,-4.1e-4 v -4e-4 a 0.37030504,0.44442117 48.199264 0 0 0,-4.1e-4 c 4.6e-5,-4.1e-4 -1.5e-5,-6.1e-4 0,-8.1e-4 v -4.1e-4 a 0.37030504,0.44442117 48.199264 0 1 -3.85e-4,-0.12755 c -5.68e-4,0.002 -0.0015,0.004 -0.0023,0.005 l -4.06e-4,4e-4 v 4.1e-4 h -4.05e-4 l -3.86e-4,4e-4 h -4.05e-4 -4.06e-4 v -4e-4 h -3.85e-4 v -4.1e-4 l -4.06e-4,-4e-4 v -4.1e-4 c -0.0015,-0.004 -5.68e-4,-0.0141 0.0054,-0.0333 -4.26e-4,-0.002 -7.71e-4,-0.004 -0.0015,-0.006 -0.01694,-0.0556 -0.0545,-0.13802 -0.08081,-0.25709 a 0.37030504,0.44442117 48.199264 0 1 -0.0015,-0.006 c -0.02499,-0.12323 -0.05006,-0.22572 -0.07922,-0.33829 a 0.37030504,0.44442117 48.199264 0 1 -0.0015,-0.006 c -0.02706,-0.11278 -0.06661,-0.24526 -0.101805,-0.36088 a 0.37030504,0.44442117 48.199264 0 1 4.05e-4,-0.002 c -0.03641,-0.12124 -0.07466,-0.2193 -0.113687,-0.32958 -0.0673,-0.17434 -0.100418,-0.3349 -0.120425,-0.38384 a 0.37030504,0.44442117 48.199264 0 1 -0.01387,-0.0467 c -0.02859,-0.11642 -0.04201,-0.0893 -0.105768,-0.22341 l -0.0031,-0.004 C 17.509919,9.69043 17.466005,9.60189 17.415183,9.50963 17.324663,9.34627 17.248113,9.1436 17.234545,9.12301 a 0.37030504,0.44442117 48.199264 0 1 -0.03603,-0.0721 c -0.03043,-0.0899 -0.04124,-0.14747 -0.04354,-0.15726 a 0.37030504,0.44442117 48.199264 0 1 -0.04515,-0.12121 c 0.0031,0.0375 0.0061,0.0627 0.0091,0.0784 0.0054,0.0106 0.0069,0.0196 0.0069,0.0222 v 4.1e-4 4e-4 h -3.86e-4 l -4.05e-4,-4e-4 c -0.0015,-0.002 -0.0031,-0.009 -0.0061,-0.0226 -0.0038,-0.007 -0.0091,-0.0155 -0.01664,-0.023 -0.03955,-0.0393 -0.104504,-0.0936 -0.170734,-0.15924 l -0.0031,-0.003 c -0.067,-0.0651 -0.135825,-0.12799 -0.224209,-0.19489 -4.66e-4,-4.1e-4 -7.3e-4,-4.1e-4 -0.0015,-8.1e-4 l -0.0015,-0.001 C 16.548102,8.36304 16.518068,8.29996 16.47863,8.27916 a 0.37030504,0.44442117 48.199264 0 1 -0.107348,-0.0927 c 0.01886,0.026 0.02744,0.0384 0.02852,0.042 v 4.1e-4 4.1e-4 4e-4 h -3.85e-4 -4.06e-4 l -4.05e-4,-4e-4 c -0.0094,-0.005 -0.05688,-0.0522 -0.101407,-0.0757 -0.06953,-0.0366 -0.159957,-0.0732 -0.200047,-0.086 a 0.37030504,0.44442117 48.199264 0 1 -0.08239,-0.0444 c -0.01633,0.002 -0.05343,0.005 -0.125577,-0.004 -0.23415,-0.0235 -0.272593,-0.10024 -0.340663,-0.14141 -0.04385,-0.0265 -0.08966,-0.0389 -0.09665,-0.0436 h -4.06e-4 v -4e-4 h -4.06e-4 v -4.1e-4 -4e-4 h 4.06e-4 v -4.1e-4 c 0.0031,-0.001 0.01541,-6.1e-4 0.0384,4.1e-4 a 0.37030504,0.44442117 48.199264 0 1 -0.106159,-0.0479 c -0.03925,0.0245 -0.04507,0.0482 -0.169538,0.0602 -0.133541,0.0207 -0.21084,0.0256 -0.318089,0.0448 -0.121805,0.0323 -0.193247,0.0332 -0.280452,0.0452 -0.08873,0.0122 -0.176448,0.0286 -0.211135,0.0392 a 0.37030504,0.44442117 48.199264 0 1 -0.07566,0.0162 c -0.0015,0.001 -0.0032,0.002 -0.0051,0.003 -0.03016,0.019 -0.101955,0.0742 -0.211532,0.12597 -0.140416,0.0953 -0.256392,0.12101 -0.345025,0.14696 -0.102066,0.0299 -0.17718,0.0523 -0.19846,0.0626 a 0.37030504,0.44442117 48.199264 0 1 -0.06418,0.0269 c -0.09098,0.0288 -0.214255,0.10212 -0.398504,0.2048 a 0.37030504,0.44442117 48.199264 0 1 -0.02139,0.0103 c -0.163785,0.0816 -0.295181,0.10262 -0.378301,0.122 -0.08312,0.0194 -0.114143,0.0342 -0.122007,0.0392 a 0.37030504,0.44442117 48.199264 0 1 -0.245994,0.0753 c -0.0048,0.003 -0.01761,0.0101 -0.04318,0.0277 -0.05859,0.0403 -0.153138,0.12354 -0.285212,0.21788 a 0.37030504,0.44442117 48.199264 0 1 -0.104577,0.0578 c -0.189674,0.077 -0.335795,0.15234 -0.488028,0.27333 a 0.37030504,0.44442117 48.199264 0 1 -0.176672,0.0915 c -0.05392,0.0153 -0.214897,0.14351 -0.454754,0.35533 a 0.37030504,0.44442117 48.199264 0 1 -0.106953,0.0733 c -0.201631,0.10403 -0.360306,0.20189 -0.547447,0.38345 a 0.37030504,0.44442117 48.199264 0 1 -0.186579,0.11845 h 3.96e-4 v 4e-4 4.1e-4 c -0.006,0.007 -0.0775,0.0518 -0.163997,0.14141 -0.102512,0.10621 -0.22758,0.25646 -0.369586,0.40841 a 0.37030504,0.44442117 48.199264 0 1 -0.06299,0.0578 c -0.115498,0.0898 -0.367961,0.41918 -0.638556,0.73204 -0.155004,0.18344 -0.27319,0.46267 -0.539128,0.79938 -0.197528,0.43279 -0.53563,0.71675 -0.768485,0.98279 -0.159283,0.23661 -0.354147,0.39372 -0.509814,0.51774 -0.155668,0.12401 -0.276849,0.21912 -0.38147,0.33988 a 0.37030504,0.44442117 48.199264 0 1 -0.14221,0.11606 c -0.0028,0.002 -0.151901,0.14033 -0.296302,0.34344 -0.144401,0.20311 -0.303291,0.45728 -0.481294,0.69362 -0.280036,0.37181 -0.550404,0.81049 -0.87227,1.21294 -0.0881,0.11015 -0.163742,0.20503 -0.224208,0.29551 a 0.37030504,0.44442117 48.199264 0 1 -0.01387,0.0198 c 0.0048,-0.007 0.0089,-0.0107 0.01188,-0.0119 h 4.06e-4 4.06e-4 4.05e-4 l 4.06e-4,-4.1e-4 4.05e-4,4.1e-4 h 4.06e-4 4.06e-4 4.05e-4 l 4.06e-4,4e-4 4.06e-4,4.1e-4 h 4.05e-4 v 4.1e-4 l 4.06e-4,4e-4 c 0.0067,0.0152 -0.01827,0.10426 -0.09666,0.25669 -0.02905,0.12634 -0.08891,0.23074 -0.131118,0.2963 -0.04384,0.0681 -0.06882,0.1068 -0.07566,0.11647 h 4.06e-4 v 4e-4 h 4.06e-4 l 4.05e-4,4.1e-4 c 0.0057,0.0115 0.0028,0.10958 -0.05308,0.28442 -0.008,0.13282 -0.05612,0.25273 -0.09111,0.32482 -0.04057,0.0836 -0.05915,0.12085 -0.05981,0.11844 v 4.1e-4 a 0.37030504,0.44442117 48.199264 0 1 -0.0024,0.0107 c -0.05585,0.17502 -0.09623,0.24499 -0.113291,0.32244 a 0.37030504,0.44442117 48.199264 0 1 -0.03803,0.10577 c 0.01497,-0.0296 0.02179,-0.044 0.02416,-0.0475 l 4.05e-4,-4e-4 3.86e-4,-4.1e-4 h 4.05e-4 v 4.1e-4 c -8.2e-5,0.005 -0.01282,0.0447 -0.01426,0.0895 -0.0021,0.0666 3.05e-4,0.15286 -0.01188,0.25986 0.01291,0.21408 -0.03517,0.37052 -0.04278,0.44644 -0.0021,0.13306 9.13e-4,0.27408 -0.0048,0.41989 0.01323,0.1385 0.02251,0.27357 0.02496,0.40762 0.029,0.12351 0.0726,0.24346 0.08873,0.4088 0.03837,0.11927 0.04546,0.26404 0.02416,0.34978 -0.0051,0.0205 -0.0087,0.0343 -0.01109,0.0428 a 0.37030504,0.44442117 48.199264 0 1 -4.06e-4,0.0254 c 3.04e-4,-0.006 8.52e-4,-0.01 0.0012,-0.0111 v -4.1e-4 h 4.05e-4 v 4.1e-4 c 0.0028,0.007 0.0081,0.10464 0.0202,0.18895 0.01427,0.0994 0.0324,0.21307 0.04635,0.31056 0.03455,0.18787 0.03223,0.28468 0.05506,0.41078 a 0.37030504,0.44442117 48.199264 0 1 0.0044,0.0242 c -6.29e-4,-0.006 -6.69e-4,-0.009 -4.06e-4,-0.0107 v -4e-4 -3.9e-4 h 4.06e-4 v -4e-4 h 4.05e-4 v 4e-4 h 4.06e-4 c 0.0057,0.008 0.02777,0.0864 0.05981,0.16043 0.0341,0.0788 0.07596,0.16728 0.10735,0.27571 0.136466,0.20433 0.172615,0.41445 0.202421,0.52922 0.03679,0.0713 0.07931,0.14591 0.09111,0.2048 0.0131,0.0654 0.01384,0.0895 0.01703,0.11052 0.08884,0.19546 0.112613,0.3894 0.15647,0.52249 a 0.37030504,0.44442117 48.199264 0 1 0.0024,0.008 c 0.02044,0.0667 0.12274,0.23434 0.200836,0.43653 0.127724,0.20207 0.140838,0.37153 0.1739,0.45436 0.01427,0.0354 0.02071,0.0437 0.05546,0.0891 0.03475,0.0454 0.09587,0.12473 0.144586,0.23649 0.01007,0.0192 0.04445,0.0433 0.05387,0.061 0.03295,0.062 0.05784,0.12267 0.0816,0.1842 0.04677,0.12114 0.09027,0.24577 0.120026,0.30898 0.06839,0.13789 0.163017,0.29778 0.245203,0.45752 0.08341,0.13415 0.132141,0.22301 0.192913,0.33394 0.100323,0.14276 0.177924,0.30365 0.259067,0.44207 l 4.05e-4,4.1e-4 4.06e-4,4e-4 4.06e-4,4.1e-4 h 4.05e-4 v 4.1e-4 c 0.04587,0.0696 0.22484,0.28147 0.345422,0.46426 0.07938,0.0815 0.134153,0.15756 0.167562,0.21985 0.03653,0.0681 0.04108,0.0871 0.05942,0.11487 0.09323,0.12585 0.183467,0.26452 0.274515,0.39058 0.08834,0.11765 0.199147,0.27023 0.295907,0.39455 0.09123,0.11697 0.191349,0.2377 0.291153,0.35651 0.08556,0.0978 0.198088,0.20814 0.305017,0.32363 9.21e-4,6.5e-4 0.0026,0.001 0.0036,0.002 l 3.95e-4,4.1e-4 3.96e-4,4e-4 c 0.0878,0.0773 0.142967,0.1027 0.237675,0.19054 0.100125,0.0476 0.150469,0.10311 0.213117,0.15845 0.06339,0.056 0.123809,0.11359 0.176276,0.16281 0.09952,0.0528 0.165101,0.11276 0.240052,0.17548 0.08667,0.0725 0.169325,0.14683 0.222623,0.19252 0.03446,0.005 0.0883,0.0286 0.159639,0.0519 0.0521,0.0132 0.127828,0.006 0.162016,0.0249 0.076,0.0427 0.123231,0.0882 0.165185,0.12993 0.08391,0.0834 0.14968,0.15938 0.169542,0.17509 0.136024,0.0896 0.243615,0.18939 0.324824,0.24877 0.07837,0.0571 0.269653,0.1704 0.388599,0.24322 0.153729,0.0823 0.140363,0.0729 0.228169,0.11448 0.127046,0.0602 0.314002,0.14577 0.375924,0.15964 0.110009,0.0247 0.227233,0.0396 0.362456,0.061 0.0086,-0.003 0.02581,-0.008 0.05268,-0.0178 0.05581,-0.0207 0.148248,-0.0596 0.266989,-0.0733 0.152829,-0.0637 0.313668,-0.0786 0.404445,-0.0638 0.06568,0.0107 0.113681,0.021 0.144586,0.0289 0.150442,-0.033 0.238295,-0.006 0.333142,0.003 0.120502,0.0113 0.235605,0.0246 0.257482,0.0246 a 0.37030504,0.44442117 48.199264 0 1 0.0095,4.1e-4 c 0.23259,0.004 0.313805,0.0192 0.375528,0.0166 a 0.37030504,0.44442117 48.199264 0 1 0.05863,0.002 c 0.146853,0.0156 0.159905,0.002 0.314128,-0.0111 a 0.37030504,0.44442117 48.199264 0 1 0.03961,-10e-4 c 0.124202,10e-4 0.259288,-0.0115 0.393354,-0.0289 a 0.37030504,0.44442117 48.199264 0 1 0.03843,-0.004 l 0.0024,4.1e-4 c 0.145605,-0.005 0.244145,-0.0184 0.370378,-0.0404 a 0.37030504,0.44442117 48.199264 0 1 0.0511,-0.006 c 0.09722,-0.005 0.192141,-0.0336 0.358491,-0.0701 a 0.37030504,0.44442117 48.199264 0 1 0.01265,-0.003 c 0.18743,-0.0355 0.409967,-0.0621 0.484859,-0.082 a 0.37030504,0.44442117 48.199264 0 1 0.08041,-0.0131 c 0.167943,-0.0129 0.230885,-0.0324 0.345423,-0.0673 a 0.37030504,0.44442117 48.199264 0 1 0.09032,-0.019 c 0.121751,-0.0112 0.183582,-0.0466 0.352951,-0.10497 a 0.37030504,0.44442117 48.199264 0 1 0.04553,-0.0127 c 0.218245,-0.0518 0.36852,-0.085 0.419496,-0.10458 a 0.37030504,0.44442117 48.199264 0 1 0.09903,-0.0261 c 0.202531,-0.03 0.10245,-0.0115 0.251935,-0.0745 a 0.37030504,0.44442117 48.199264 0 1 0.09784,-0.0305 c 0.08857,-0.0163 0.162624,-0.0567 0.326413,-0.1335 a 0.37030504,0.44442117 48.199264 0 1 0.06217,-0.0238 c 0.05703,-0.0178 0.150367,-0.0837 0.3169,-0.17311 0.108099,-0.0647 0.243181,-0.1587 0.401673,-0.25193 0.275307,-0.21693 0.484177,-0.23657 0.485649,-0.23728 a 0.37030504,0.44442117 48.199264 0 1 0.115273,-0.0539 c 0.05151,-0.0161 0.10314,-0.0669 0.291152,-0.1937 a 0.37030504,0.44442117 48.199264 0 1 0.02775,-0.017 h -4.05e-4 v -4.1e-4 c 0.0023,-0.004 0.03342,-0.0299 0.07685,-0.0788 0.04722,-0.0532 0.106228,-0.13049 0.205198,-0.2147 0.09636,-0.12204 0.214327,-0.21435 0.298679,-0.2654 0.104235,-0.0631 0.147339,-0.0848 0.147753,-0.0852 0.140148,-0.11965 0.270109,-0.21828 0.381075,-0.31056 0.05458,-0.0469 0.156515,-0.18419 0.325217,-0.34186 0.177005,-0.23725 0.362947,-0.33245 0.404448,-0.37157 0.142119,-0.13406 0.272394,-0.2434 0.373939,-0.34503 a 0.37030504,0.44442117 48.199264 0 1 0.02928,-0.0265 c 0.05228,-0.045 0.141214,-0.17233 0.295114,-0.3383 0.183413,-0.24015 0.353196,-0.33274 0.387806,-0.37156 a 0.37030504,0.44442117 48.199264 0 1 0.07528,-0.0701 c 0.08911,-0.0674 0.180293,-0.165 0.287588,-0.29274 a 0.37030504,0.44442117 48.199264 0 1 0.08041,-0.0768 c 0.111173,-0.0864 0.215087,-0.18744 0.295114,-0.28878 a 0.37030504,0.44442117 48.199264 0 1 0.124389,-0.11448 c -6.7e-4,3.2e-4 -0.0015,6.7e-4 -0.0023,7.7e-4 h -3.86e-4 -4.05e-4 -4.06e-4 -3.85e-4 l -4.06e-4,-4e-4 h -4.05e-4 v -4.1e-4 -4.1e-4 h -4.06e-4 v -4e-4 -4.1e-4 c -5.68e-4,-0.0155 0.05182,-0.10503 0.192918,-0.2963 l 0.0015,-0.002 c 0.105447,-0.14384 0.211009,-0.2267 0.289167,-0.29591 0.07696,-0.0682 0.126741,-0.12306 0.125177,-0.12042 a 0.37030504,0.44442117 48.199264 0 1 0.157657,-0.14855 c 7.71e-4,-5.3e-4 0.0015,-10e-4 0.0023,-0.002 0.0098,-0.0238 0.03994,-0.10412 0.116071,-0.22223 a 0.37030504,0.44442117 48.199264 0 1 0.03725,-0.0519 c 0.02798,-0.0335 0.103407,-0.19002 0.207965,-0.37276 l 0.02215,-0.0412 c 0.08872,-0.17828 0.179779,-0.32048 0.244017,-0.43574 l 0.0054,-0.01 c 0.08389,-0.16106 0.165675,-0.30888 0.239264,-0.45238 l 0.0015,-0.003 c 0.09058,-0.17962 0.176813,-0.32131 0.237677,-0.4492 a 0.37030504,0.44442117 48.199264 0 1 0.01863,-0.036 c 0.04653,-0.0798 0.106175,-0.24422 0.18618,-0.42822 0.06109,-0.15403 0.126588,-0.31847 0.190135,-0.47495 7.71e-4,-0.003 0.0031,-0.008 0.0038,-0.0115 0.04668,-0.14051 0.08875,-0.31649 0.155281,-0.49793 0.05588,-0.25821 0.155487,-0.39717 0.175087,-0.45 a 0.37030504,0.44442117 48.199264 0 1 0.0038,-0.0115 c 0.05151,-0.12883 0.09964,-0.28554 0.158055,-0.45317 0.04331,-0.1379 0.08854,-0.32217 0.146166,-0.50031 0.04438,-0.2037 0.101445,-0.33713 0.140233,-0.45079 0.04507,-0.17155 0.128075,-0.29429 0.179051,-0.37315 0.0407,-0.063 0.06056,-0.0995 0.06577,-0.10815 l -4.06e-4,-4e-4 v -4.1e-4 c -0.0084,-0.0151 -0.02798,-0.20188 0.04116,-0.48485 0.05972,-0.24438 0.13512,-0.36289 0.150528,-0.43495 a 0.37030504,0.44442117 48.199264 0 1 0.05466,-0.13785 c -0.01395,0.0234 -0.02116,0.0353 -0.02415,0.0384 l -4.06e-4,4.1e-4 -4.06e-4,4e-4 h -3.85e-4 l -4.06e-4,-4e-4 v -4.1e-4 c 1.77e-4,-0.009 0.01817,-0.061 0.021,-0.12042 0.0038,-0.0793 0.0081,-0.18586 0.02254,-0.30224 0.0031,-0.19073 0.107969,-0.40482 0.173509,-0.48882 0.0054,-0.007 0.01004,-0.0129 0.01388,-0.0178 a 0.37030504,0.44442117 48.199264 0 1 0.05151,-0.10339 c 9.2e-5,-0.003 -3.8e-5,-0.005 0,-0.008 7.71e-4,-0.0558 -0.01656,-0.15975 0.0031,-0.31888 a 0.37030504,0.44442117 48.199264 0 1 7.71e-4,-0.01 c 0.02154,-0.14591 0.03557,-0.3047 0.05113,-0.4698 0.01594,-0.16907 0.03588,-0.32649 0.04553,-0.47536 a 0.37030504,0.44442117 48.199264 0 1 0.0015,-0.0158 c 0.0141,-0.13662 0.01602,-0.29223 0.02215,-0.46188 0.0061,-0.18397 0.02223,-0.32318 0.023,-0.45753 a 0.37030504,0.44442117 48.199264 0 1 0.0031,-0.036 c 0.01004,-0.0984 2.64e-4,-0.27187 -0.0038,-0.45198 a 0.37030504,0.44442117 48.199264 0 1 4.06e-4,-0.006 c -0.0015,-0.16415 -0.0023,-0.52637 -0.0095,-0.65955 a 0.37030504,0.44442117 48.199264 0 1 -0.0015,-0.0246 c 7.71e-4,-0.091 -7.7e-4,-0.1396 -0.0015,-0.15608 -0.0031,-0.0128 -0.0102,-0.0527 -0.01387,-0.10338 a 0.37030504,0.44442117 48.199264 0 1 0,-0.003 c -0.0077,-0.11543 -0.03863,-0.30432 -0.05741,-0.47852 -0.04431,-0.22902 -0.02637,-0.34147 -0.03764,-0.43257 a 0.37030504,0.44442117 48.199264 0 1 -7.71e-4,-0.0281 c -0.0084,-0.17353 -0.0038,-0.3054 -0.02215,-0.42465 a 0.37030504,0.44442117 48.199264 0 1 -0.0015,-0.1026 c -3.05e-4,0.003 -5.48e-4,0.004 -7.71e-4,0.005 l -3.85e-4,4.1e-4 v 4.1e-4 4e-4 h -4.06e-4 v -4e-4 -4.1e-4 c -0.0023,-0.008 -0.0046,-0.0627 -0.01978,-0.12438 -0.01824,-0.0757 -0.04592,-0.16996 -0.06654,-0.27571 l -0.0023,-0.0123 c -0.03863,-0.17374 -0.06638,-0.34386 -0.09467,-0.47456 a 0.37030504,0.44442117 48.199264 0 1 -0.0015,-0.003 c -0.03733,-0.18166 -0.06853,-0.34642 -0.09943,-0.47258 a 0.37030504,0.44442117 48.199264 0 1 -0.0031,-0.0182 c -0.0302,-0.15986 -0.06799,-0.23891 -0.110521,-0.39256 -0.07198,-0.22924 -0.05259,-0.34898 -0.0693,-0.40445 a 0.37030504,0.44442117 48.199264 0 1 -0.01426,-0.10854 c -4.46e-4,0.0155 -0.05787,-0.15208 -0.125968,-0.35374 a 0.37030504,0.44442117 48.199264 0 1 -0.0038,-0.0103 C 26.089301,9.25599 26.056041,9.13911 26.006448,9.00613 a 0.37030504,0.44442117 48.199264 0 1 -0.01027,-0.0317 c -0.05657,-0.21425 -0.04477,-0.33148 -0.07213,-0.39811 a 0.37030504,0.44442117 48.199264 0 1 -0.01786,-0.20875 c -0.0102,0.0526 -0.0128,0.0751 -0.01426,0.0784 v 4.1e-4 h -4.06e-4 v -4.1e-4 c -0.0015,-0.006 -0.0038,-0.0476 -0.02691,-0.0887 -0.0417,-0.0751 -0.107309,-0.16804 -0.162808,-0.28878 l -0.0015,-0.002 c -0.0752,-0.16171 -0.117037,-0.2553 -0.176675,-0.37593 a 0.37030504,0.44442117 48.199264 0 1 -0.0015,-0.002 C 25.445419,7.53158 25.401719,7.41162 25.343078,7.30194 a 0.37030504,0.44442117 48.199264 0 1 -0.01664,-0.0341 c -0.04684,-0.11968 -0.0996,-0.23058 -0.170734,-0.35335 a 0.37030504,0.44442117 48.199264 0 1 -0.02576,-0.0547 c -0.066,-0.18832 -0.0732,-0.29486 -0.110122,-0.35374 a 0.37030504,0.44442117 48.199264 0 1 -0.05067,-0.17984 c -0.0015,-0.003 -0.0046,-0.008 -0.0079,-0.0127 -0.02499,-0.0367 -0.08371,-0.10285 -0.148941,-0.19727 a 0.37030504,0.44442117 48.199264 0 1 -0.04791,-0.10537 c 0.0023,0.008 0.0031,0.0133 0.0031,0.0151 v 4.1e-4 4e-4 h -4.05e-4 c -0.0038,-0.004 -0.02261,-0.0462 -0.05427,-0.0879 -0.044,-0.058 -0.106298,-0.1305 -0.167162,-0.21074 a 0.37030504,0.44442117 48.199264 0 1 -0.01587,-0.0218 c -0.0683,-0.10828 -0.128582,-0.20776 -0.21629,-0.31453 a 0.37030504,0.44442117 48.199264 0 1 -0.04116,-0.0654 c 0.0015,0.004 0.0031,0.006 0.0031,0.007 v 4.1e-4 h -3.85e-4 v 4e-4 h -4.06e-4 v -4e-4 c -0.0069,-0.005 -0.05404,-0.0751 -0.105768,-0.13389 -0.0637,-0.0724 -0.139942,-0.15405 -0.202416,-0.22421 a 0.37030504,0.44442117 48.199264 0 1 -0.0091,-0.01 c -0.06776,-0.0834 -0.109295,-0.15644 -0.134284,-0.19885 -0.02499,-0.0424 -0.02921,-0.0494 -0.05466,-0.0765 a 0.37030504,0.44442117 48.199264 0 1 -0.06339,-0.10141 c 0.0015,0.004 0.0023,0.007 0.0023,0.008 v 4.1e-4 4.1e-4 h -4.06e-4 v -4.1e-4 h -4.05e-4 l -3.86e-4,-4.1e-4 c -0.0092,-0.009 -0.05128,-0.0754 -0.100219,-0.13032 -0.06316,-0.0709 -0.140486,-0.14865 -0.19767,-0.2048 a 0.37030504,0.44442117 48.199264 0 1 -0.04201,-0.0527 C 23.283769,4.08133 23.261512,4.09742 23.1353,3.98137 A 0.37030504,0.44442117 48.199264 0 1 23.11591,3.96317 C 23.008532,3.84546 22.966709,3.81244 22.864765,3.7251 a 0.37030504,0.44442117 48.199264 0 1 -0.02215,-0.021 C 22.724643,3.5817 22.680972,3.50878 22.604547,3.4482 a 0.37030504,0.44442117 48.199264 0 1 -0.08319,-0.0986 c 0.0069,0.0132 0.01066,0.0208 0.0115,0.0238 v 4e-4 4.1e-4 4.1e-4 4e-4 h -4.06e-4 -3.85e-4 v -4e-4 h -4.06e-4 c -0.0069,-0.005 -0.03764,-0.0412 -0.08002,-0.0705 -0.06462,-0.0447 -0.151724,-0.0965 -0.234902,-0.15568 a 0.37030504,0.44442117 48.199264 0 1 -0.01349,-0.0107 C 22.110368,3.06304 22.023354,3.01683 21.89744,2.93334 21.764022,2.84934 21.70752,2.76461 21.640753,2.68853 21.573603,2.61203 21.500727,2.54487 21.506859,2.5487 A 0.37030504,0.44442117 48.199264 0 1 21.410389,2.4503 C 21.383709,2.4553 21.371369,2.4731 21.256297,2.4277 21.154491,2.3875 21.001526,2.3497 20.830861,2.22687 20.664795,2.1074 20.509821,2.01214 20.330556,1.90323 20.131712,1.79188 19.90653,1.63612 19.74468,1.55464 a 0.37030504,0.44442117 48.199264 0 1 -0.02453,-0.0131 c -0.157688,-0.0978 -0.279983,-0.13012 -0.47852,-0.21233 -0.0023,-8.1e-4 -0.0038,-0.002 -0.0061,-0.002 l -0.0031,-10e-4 C 19.04228,1.25331 18.84106,1.1706 18.662009,1.11072 a 0.37030504,0.44442117 48.199264 0 1 -0.0031,-10e-4 c -0.160585,-0.0551 -0.30705,-0.0858 -0.496741,-0.13428 l -0.03128,-0.008 C 17.912383,0.92614 17.7403,0.8567 17.585027,0.82722 a 0.37030504,0.44442117 48.199264 0 1 -0.03128,-0.006 C 17.377279,0.77102 17.089607,0.6812 16.94371,0.66317 A 0.37030504,0.44442117 48.199264 0 1 16.84389,0.63777 C 16.79261,0.61547 16.7739,0.61467 16.715148,0.61557 Z m -7.673367,29.55539 -0.01901,-0.0131 3.96e-4,4e-4 3.96e-4,4.1e-4 v 4e-4 4.1e-4 4e-4 l -3.96e-4,4.1e-4 -3.96e-4,4.1e-4 h -3.96e-4 -3.96e-4 c -0.008,10e-4 -0.03767,-0.008 -0.03922,-0.008 -4.45e-4,-10e-6 0.04631,0.0167 0.05902,0.0186 z m 9.146165,-18.40364 c 0.0015,0.007 0.0023,0.0144 0.0015,0.0198 a 0.37030504,0.44442117 48.199264 0 1 0.04078,-0.12002 c -0.02323,0.0466 -0.03603,0.0789 -0.04239,0.10022 z m 0.0015,0.0198 a 0.37030504,0.44442117 48.199264 0 0 -0.0015,0.009 c 7.51e-4,-0.002 0.0015,-0.005 0.0015,-0.009 z m 6.109859,4.25123 c 7.71e-4,-0.005 0.0015,-0.0101 0.0023,-0.0143 a 0.37030504,0.44442117 48.199264 0 1 -0.04001,0.0737 c 0.01679,-0.0253 0.02898,-0.0447 0.03764,-0.0594 z m 0.01065,-0.0333 c -0.0031,0.005 -0.0061,0.0107 -0.0077,0.0166 a 0.37030504,0.44442117 48.199264 0 0 0.0077,-0.0166 z m 0.263426,-1.84199 c 7.3e-4,-0.008 0.0015,-0.0148 0.0023,-0.0206 a 0.37030504,0.44442117 48.199264 0 1 -0.05228,0.1018 c 0.0243,-0.0361 0.04017,-0.0624 0.05029,-0.0812 z m 0.0023,-0.0206 a 0.37030504,0.44442117 48.199264 0 0 0.0061,-0.0178 c -0.0023,0.003 -0.0046,0.008 -0.0054,0.0119 -1.91e-4,0.002 -5.88e-4,0.004 -7.7e-4,0.006 z M 10.775098,1.18918 c 0.02772,0.0128 0.09277,0.0189 0.132702,0.01 0.0091,-0.002 0.01165,-0.002 0.01268,-0.003 l 3.95e-4,-4e-4 h 3.96e-4 c 3.91e-4,-2e-4 0.0012,-0.001 0.0028,-0.002 a 0.37030504,0.44442117 48.199264 0 1 -0.148943,-0.005 z M 8.009343,2.51264 c -0.0093,0.0146 -0.03085,0.0326 -0.03723,0.0487 l -3.95e-4,0.005 0.02931,-0.0313 c 0.0067,-0.0102 0.0088,-0.0141 0.0091,-0.0163 v -4e-4 -4.1e-4 -4.1e-4 c -5.3e-5,-1.9e-4 -3.25e-4,-6e-4 -3.96e-4,-8.1e-4 -7.2e-5,-1.8e-4 -3.42e-4,-10e-4 -3.95e-4,-10e-4 V 2.5153 c 1.1e-5,-4.1e-4 -1.66e-4,-0.002 0,-0.002 z M 7.908727,2.70951 a 0.37030504,0.44442117 48.199264 0 1 -0.01981,0.008 0.37030504,0.44442117 48.199264 0 1 -0.03446,0.0147 h -3.96e-4 v 4e-4 l 3.96e-4,4.1e-4 v 4e-4 4.1e-4 h -3.96e-4 a 0.37030504,0.44442117 48.199264 0 1 -0.233714,0.10695 0.37030504,0.44442117 48.199264 0 1 -0.04556,0.0139 c -3.06e-4,-1e-5 -0.0013,4e-4 -0.0016,4e-4 a 0.37030504,0.44442117 48.199264 0 1 -0.0031,0.002 l 0.01743,-4.1e-4 h 0.176276 z m 17.061958,3.57187 c -7.71e-4,0.008 -0.0015,0.0154 -0.0015,0.0218 a 0.37030504,0.44442117 48.199264 0 1 0.0015,-0.0218 z M 7.508243,8.01959 c -0.0024,10e-4 -0.0076,0.004 -0.0071,0.004 -0.0034,0.003 -0.03106,0.0173 -0.03605,0.0178 h -3.96e-4 -3.95e-4 c -0.0028,0.002 -0.0025,0.003 -0.0051,0.005 -0.0056,0.005 -0.01316,0.004 -0.01822,0.01 a 0.37030504,0.44442117 48.199264 0 1 -0.0028,-0.003 c -0.01164,0.002 -0.0097,0.003 -0.04318,0.0218 0.0049,-0.0137 0.0015,-0.008 0.0083,-0.0242 -0.006,0.002 -0.01319,0.004 -0.02258,0.008 l 0.0012,0.0586 a 0.37030504,0.44442117 48.199264 0 1 0.03763,-0.0277 c -0.0071,0.008 -0.0113,0.009 -0.01743,0.017 a 0.37030504,0.44442117 48.199264 0 1 0.01862,-0.0158 l -0.03843,0.038 3.96e-4,0.0198 a 0.37030504,0.44442117 48.199264 0 1 0.0087,-0.006 c -0.0022,0.005 -0.0054,0.0106 -0.0087,0.0166 -6.2e-5,1.1e-4 6.2e-5,2e-4 0,4e-4 l 0.006,0.28759 c -2.82e-4,-1e-5 0.01174,-0.001 0.02773,-0.004 0.02162,-0.16082 0.04253,-0.31626 0.04753,-0.35374 a 0.37030504,0.44442117 48.199264 0 1 0.0083,-0.006 0.37030504,0.44442117 48.199264 0 1 -0.006,-0.006 c 3.06e-4,-0.002 0.0039,-0.0276 0.004,-0.0281 a 0.37030504,0.44442117 48.199264 0 1 0.03803,-0.0301 z m 7.617905,2.29714 c -0.06332,10e-5 -0.105653,0.0158 -0.109724,0.0182 h -4.05e-4 v 4e-4 h 4.05e-4 c 5.68e-4,-1.1e-4 0.0015,-6e-4 0.0038,-0.001 0.0083,-0.003 0.07604,-0.005 0.115274,-0.0139 -2.43e-4,-5e-5 -5.67e-4,-4e-4 -7.7e-4,-4e-4 -0.0015,-6.1e-4 -0.0038,-0.002 -0.0054,-0.002 -6.89e-4,-1.9e-4 -0.0015,-8.1e-4 -0.0031,-8.1e-4 z m 3.145644,2.8426 c -7.71e-4,10e-4 -0.0031,0.006 -0.0046,0.0139 0.0031,-0.007 0.0046,-0.0113 0.0054,-0.0131 v -4.1e-4 -4e-4 z m -2.909553,1.10044 a 0.37030504,0.44442117 48.199264 0 1 -0.0614,0.0503 c 0.02514,-0.0175 0.04645,-0.0349 0.0614,-0.0503 z m -0.03289,0.13864 c -0.0015,0.004 -0.0054,0.005 -0.0077,0.007 -4.46e-4,6.1e-4 -0.0015,0.002 -0.0015,0.003 -0.0069,0.0158 -0.0084,0.0238 -0.01226,0.0349 z m 2.804183,0.12201 0.0015,0.0143 c 1.69e-4,-8.1e-4 5.27e-4,-0.002 3.85e-4,-0.003 -6.89e-4,-0.005 -7.7e-4,-0.008 -0.0015,-0.0111 z m 0.434152,0.0618 c -0.0015,1.9e-4 -0.0038,4e-4 -0.0061,8.1e-4 -0.01855,0.004 -0.0394,0.009 -0.06493,0.0178 -0.02522,0.009 -0.08638,0.0397 -0.08715,0.04 0,1.8e-4 -0.03227,0.0325 -0.05504,0.0555 a 0.37030504,0.44442117 48.199264 0 1 0.213116,-0.1121 c -7.6e-5,-6.1e-4 7.7e-5,-10e-4 0,-0.002 z m -0.290753,0.19212 c -0.01617,0.0162 -0.03388,0.0347 -0.03925,0.04 -0.02047,0.035 -0.03526,0.0671 -0.04354,0.0931 -0.0046,0.0136 -0.0077,0.0237 -0.0091,0.0313 l 0.0091,8.1e-4 a 0.37030504,0.44442117 48.199264 0 1 0.0828,-0.16519 z m -2.351412,0.68134 c -0.0031,7e-5 -0.0077,0.001 -0.0099,0.001 a 0.37030504,0.44442117 48.199264 0 1 -0.0069,0.002 c 0.0031,-6.1e-4 0.0061,-0.002 0.0087,-0.002 -0.0038,10e-4 -0.0087,0.003 -0.01548,0.006 a 0.37030504,0.44442117 48.199264 0 1 -0.03764,0.0135 c -0.02583,0.0106 -0.08442,0.0136 -0.135082,0.0234 h -3.85e-4 c -3.45e-4,8e-5 -7.71e-4,4e-4 -0.0015,4e-4 h -4.06e-4 v -4e-4 c -0.02261,0.004 -0.04017,0.011 -0.05864,0.0154 l 0.0115,-8.1e-4 c -0.0023,10e-4 -0.0054,0.003 -0.0079,0.004 0.0061,-0.002 0.0094,-0.003 0.01111,-0.003 7.71e-4,-4.1e-4 0.0015,-8.1e-4 0.0038,-0.002 l 0.07052,-0.006 c -0.0568,0.0143 -0.09423,0.0222 -0.11289,0.025 -0.04032,0.0204 -0.08776,0.0402 -0.161229,0.0412 -0.02721,4.1e-4 -0.03733,-0.0224 -0.06301,-0.0277 a 0.37030504,0.44442117 48.199264 0 1 -0.0061,0.002 c 0.0031,-10e-4 0.0046,-0.002 0.0054,-0.002 h 4.06e-4 v 4.1e-4 c -0.0046,0.003 -0.03327,0.0164 -0.08675,0.036 -0.03319,0.0126 -0.05841,0.0214 -0.06378,0.0238 a 0.37030504,0.44442117 48.199264 0 1 -0.0099,0.004 c -0.01847,0.008 -0.043,0.0189 -0.07725,0.0345 -0.0315,0.0143 -0.05519,0.0268 -0.0693,0.0341 a 0.37030504,0.44442117 48.199264 0 1 -0.0099,0.004 c -0.02422,0.0119 -0.01503,0.006 -0.02974,0.0123 -0.02024,0.0205 -0.02292,0.0311 -0.05826,0.0558 -0.0302,0.0211 -0.07298,0.0199 -0.112101,0.0353 -0.0038,0.002 -0.0077,0.003 -0.0115,0.004 a 0.37030504,0.44442117 48.199264 0 1 -0.01702,0.0143 l 0.0046,-0.002 0.07129,-0.0182 c -0.06056,0.0343 -0.05335,0.0201 -0.08635,0.0293 h -4.05e-4 l -4.06e-4,4.1e-4 -3.85e-4,4e-4 -4.06e-4,4.1e-4 c -1.46e-4,8e-5 -7.71e-4,4e-4 -0.0015,4e-4 h -4.06e-4 c -0.02852,0.0263 -0.05412,0.0531 -0.127547,0.0879 -0.0038,0.002 -0.01004,0.007 -0.01311,0.008 -0.0015,6.1e-4 -0.0054,0.003 -0.0069,0.004 a 0.37030504,0.44442117 48.199264 0 1 -0.01027,0.0107 0.37030504,0.44442117 48.199264 0 1 -0.0015,0.002 c -0.02676,0.0258 -0.04401,0.0469 -0.09151,0.0764 -0.0022,0.007 -0.01832,0.0343 -0.110519,0.0776 -0.01504,0.009 -0.02136,0.0114 -0.02377,0.0115 h -4.06e-4 l -4.06e-4,-4e-4 h -4.05e-4 -4.06e-4 c -0.02498,0.0194 -0.04354,0.0338 -0.05546,0.0428 -0.0035,0.003 -0.01316,0.0124 -0.02734,0.0265 -0.02423,0.0241 -0.0692,0.0742 -0.151717,0.11765 -0.02384,0.0162 -0.03534,0.0206 -0.04001,0.0222 -0.01745,0.0146 -0.03479,0.0276 -0.04714,0.0376 -0.0386,0.0355 -0.05663,0.0531 -0.05784,0.0535 0.0011,-0.002 0.0063,-0.008 0.01506,-0.0178 a 0.37030504,0.44442117 48.199264 0 1 -0.03249,0.0341 c 0,0 -0.02553,0.0279 -0.07249,0.0745 -0.01749,0.0175 -0.04372,0.0458 -0.07408,0.0761 -0.0028,0.003 -0.04337,0.0449 -0.07407,0.0765 -0.0032,0.003 -0.0047,0.004 -0.0051,0.005 2.02e-4,-4e-4 4.05e-4,-10e-4 7.71e-4,-0.002 -2.24e-4,2e-4 -5.07e-4,9e-5 -7.71e-4,4.1e-4 -0.02523,0.0278 -0.04233,0.048 -0.04556,0.0503 h -3.86e-4 c 9.13e-4,-0.002 0.0073,-0.0125 0.0206,-0.0321 a 0.37030504,0.44442117 48.199264 0 1 -0.04001,0.0507 c -0.03014,0.0341 -0.02828,0.0291 -0.03803,0.038 -0.01133,0.0279 -0.02728,0.0697 -0.07843,0.13429 -0.01378,0.0175 -0.02398,0.0309 -0.0309,0.0408 -0.0064,0.0116 -0.01088,0.0186 -0.01228,0.0202 h -4.06e-4 v -4e-4 c 4.46e-4,-0.001 0.0043,-0.008 0.01268,-0.0198 0.01059,-0.0193 0.02651,-0.052 0.04238,-0.0974 a 0.37030504,0.44442117 48.199264 0 1 -0.07646,0.13943 l 0.0016,0.002 a 0.37030504,0.44442117 48.199264 0 1 -0.05466,0.0895 c -0.0093,0.0123 -0.01275,0.0178 -0.01307,0.0178 a 0.37030504,0.44442117 48.199264 0 1 -0.04278,0.0705 c 0.0071,-0.01 0.0117,-0.0153 0.01387,-0.017 l 4.06e-4,-4.1e-4 h 4.06e-4 v -4e-4 h 4.05e-4 v 4e-4 h 4.06e-4 v 4.1e-4 c -1.8e-5,1.6e-4 -3.45e-4,6.1e-4 -4.06e-4,8.1e-4 -0.0036,0.0111 -0.03876,0.0681 -0.09903,0.14102 v 4.1e-4 h -4.06e-4 c -0.0021,0.002 -0.01138,0.0146 -0.01347,0.0166 a 0.37030504,0.44442117 48.199264 0 1 -0.01862,0.0301 c -0.0054,0.008 -0.02251,0.0376 -0.05427,0.0867 0.0025,-0.004 0.0042,-0.006 0.0048,-0.006 -0.0012,0.003 -0.0084,0.0159 -0.01941,0.0357 -0.01298,0.0231 -0.0271,0.0585 -0.07249,0.11132 -0.02021,0.0306 -0.03233,0.0463 -0.03605,0.0491 h -4.06e-4 l -4.06e-4,4e-4 h -4.05e-4 v -4e-4 -4.1e-4 c 5.27e-4,-0.002 0.003,-0.008 0.0079,-0.0158 l 7.7e-4,-0.002 c -8.52e-4,8.1e-4 -0.0015,0.002 -0.0024,0.002 -0.0088,0.0156 -0.0229,0.0421 -0.04001,0.0713 1.45e-4,6.1e-4 -0.0084,0.0176 -0.021,0.044 -0.0081,0.0169 -0.07005,0.0756 -0.08754,0.10854 4.67e-4,-10e-4 6.09e-4,-0.003 7.71e-4,-0.003 -3.86e-4,8.1e-4 -9.94e-4,0.002 -0.0016,0.002 l -4.06e-4,4e-4 v 4.1e-4 h -4.06e-4 -4.05e-4 v -4.1e-4 c -2.4e-5,-0.001 8.8e-5,-0.004 7.7e-4,-0.007 a 0.37030504,0.44442117 48.199264 0 1 -0.004,0.0131 c -0.0041,0.007 -0.0071,0.0137 -0.0095,0.0198 l 0.0036,-0.004 a 0.37030504,0.44442117 48.199264 0 1 -0.0044,0.0111 c 0.0064,-0.01 0.0084,-0.0125 0.01466,-0.0234 l 4.05e-4,-4.1e-4 h 4.06e-4 v -4.1e-4 h 4.06e-4 v -4e-4 h 4.05e-4 v -4.1e-4 c 0.0058,-0.0104 0.0097,-0.0123 0.01387,-0.0218 a 0.37030504,0.44442117 48.199264 0 1 -0.0051,0.0115 l 0.03644,-0.0412 c -0.01922,0.0361 -0.02708,0.0398 -0.04595,0.0642 -0.0083,0.0107 -0.01352,0.0208 -0.01981,0.0281 a 0.37030504,0.44442117 48.199264 0 1 -0.01822,0.0551 c 0.0067,-0.0142 0.01057,-0.0229 0.01228,-0.0269 -0.0012,0.003 -0.0031,0.008 -0.0051,0.0151 -0.0061,0.0206 -0.0087,0.0541 -0.0515,0.13032 -0.01638,0.0354 -0.02995,0.0621 -0.03922,0.0812 -0.01647,0.0406 -0.01529,0.0395 -0.0051,-0.002 a 0.37030504,0.44442117 48.199264 0 1 -0.01783,0.0562 c -0.0039,0.01 -0.0065,0.017 -0.0083,0.0218 a 0.37030504,0.44442117 48.199264 0 1 -0.01703,0.0582 c -0.01186,0.0328 -0.0165,0.0439 -0.01862,0.0471 l -4.05e-4,4.1e-4 -4.06e-4,4e-4 -4.06e-4,4.1e-4 h -4.05e-4 v -4.1e-4 h -4.06e-4 v -4e-4 h -4.06e-4 a 0.37030504,0.44442117 48.199264 0 1 0,0.001 c 0,-1.1e-4 -0.0011,0.002 -0.0016,0.003 l -4.05e-4,4e-4 a 0.37030504,0.44442117 48.199264 0 1 4.05e-4,0.0357 0.37030504,0.44442117 48.199264 0 1 4.06e-4,8.2e-4 c 10e-6,-2.1e-4 -9e-6,-4.1e-4 0,-8.2e-4 0.0034,-0.0105 -0.0015,-0.025 7.71e-4,-0.0357 a 0.37030504,0.44442117 48.199264 0 1 0.0036,0.0737 0.37030504,0.44442117 48.199264 0 1 4.05e-4,0.0685 0.37030504,0.44442117 48.199264 0 1 -0.0095,0.1232 c 0.0122,-0.0517 0.0208,-0.0805 0.02456,-0.086 l 4.06e-4,-4.1e-4 h 4.06e-4 v -4e-4 h 4.05e-4 4.06e-4 v 4e-4 l 4.06e-4,4.1e-4 c 0.0019,0.009 -0.0058,0.0635 -0.02615,0.164 -0.01915,0.0948 -0.04443,0.14254 -0.04635,0.14775 -0.01007,0.0274 -0.01262,0.0377 -0.01188,0.0349 a 0.37030504,0.44442117 48.199264 0 1 -0.01109,0.0392 c -3.86e-4,10e-4 -0.0017,0.008 -0.0051,0.0285 a 0.37030504,0.44442117 48.199264 0 1 -0.0099,0.0444 c -0.0022,0.008 -0.0039,0.0153 -0.0055,0.0214 a 0.37030504,0.44442117 48.199264 0 1 -0.0075,0.0467 c -9.5e-5,4e-4 -3.04e-4,0.001 -4.06e-4,0.002 v 4.1e-4 a 0.37030504,0.44442117 48.199264 0 1 -0.0036,0.0717 c 0.01263,0.0234 0.05076,0.0433 -0.0103,0.18539 -0.0018,0.01 -0.0037,0.0199 -0.006,0.0305 -0.0036,0.0167 -0.0075,0.033 -0.01387,0.0558 -8.52e-4,0.003 -0.0082,0.016 -0.0091,0.0194 l -4.06e-4,4e-4 c -0.0026,0.0105 -0.0048,0.0212 -0.0067,0.0285 -0.0055,0.0285 -0.0068,0.0269 -0.01109,0.04 a 0.37030504,0.44442117 48.199264 0 1 0.0012,0.0281 c 0.0012,-0.009 0.0019,-0.016 0.0024,-0.021 -7.6e-5,-0.006 1.82e-4,-0.009 4.05e-4,-0.0107 6.6e-5,0.001 1.77e-4,0.004 -4.05e-4,0.0107 3.2e-5,0.002 -1.91e-4,0.005 0,0.008 0.0014,0.0212 0.0077,0.0617 -0.006,0.14498 -0.0045,0.0248 -0.0044,0.02 -0.0091,0.0352 a 0.37030504,0.44442117 48.199264 0 1 0.0028,0.0258 c 0.0029,-0.0327 0.0061,-0.0506 0.0087,-0.0547 h 4.06e-4 v -4.1e-4 h 4.06e-4 v -4e-4 h 4.05e-4 4.06e-4 l 4.06e-4,4e-4 4.05e-4,4.1e-4 c 0.0043,0.008 0.0057,0.0647 -0.0016,0.164 -0.0025,0.0339 -0.0045,0.0747 -0.0067,0.10814 -0.0025,0.0422 -0.0059,0.13536 -0.0055,0.11527 a 0.37030504,0.44442117 48.199264 0 1 -4.06e-4,0.008 c -7.71e-4,0.0197 -0.0014,0.0101 -0.0055,0.0317 a 0.37030504,0.44442117 48.199264 0 1 0.0044,0.0277 c 2.03e-4,-0.009 4.3e-5,-0.0159 0,-0.0198 2.43e-4,0.004 9.13e-4,0.009 0.002,0.0147 0.0035,0.0192 0.01312,0.0298 0.01466,0.11963 a 0.37030504,0.44442117 48.199264 0 1 -4.05e-4,0.008 c 0,0.004 0.0016,0.0221 0.0028,0.0479 8.52e-4,0.0175 7.3e-4,0.0503 -0.0036,0.0943 l 0.0036,-0.0337 c 5.27e-4,0.0341 -0.0026,0.0449 -0.0048,0.0626 a 0.37030504,0.44442117 48.199264 0 1 0.002,0.0155 c 3e-5,8.5e-4 0.0045,0.0333 0.0091,0.0923 a 0.37030504,0.44442117 48.199264 0 1 7.71e-4,0.009 c 0.0013,0.0242 0.0041,0.057 0.0071,0.0986 0.0013,0.0178 0.0053,0.0582 0.0079,0.10339 0.0038,0.0402 0.008,0.0801 0.01069,0.11052 l -0.002,-0.0123 c 0.0044,0.0359 5.27e-4,0.0243 -4.06e-4,0.0452 a 0.37030504,0.44442117 48.199264 0 1 0.01069,0.0301 l 0.0016,-4e-4 c 0.0071,0.0203 0.02156,0.0346 0.03328,0.12715 0.0057,0.0337 0.01248,0.0677 0.01228,0.0669 a 0.37030504,0.44442117 48.199264 0 1 0.0024,0.0107 c 0.0052,0.0257 0.0063,0.0344 0.006,0.0364 v 4.1e-4 h -4.05e-4 -4.06e-4 a 0.37030504,0.44442117 48.199264 0 1 0.01188,0.036 c 8.52e-4,0.004 0.01012,0.0366 0.02377,0.0844 a 0.37030504,0.44442117 48.199264 0 1 0.0028,0.006 c 0.0019,0.007 0.0037,0.0139 0.0051,0.0202 0.01557,0.0229 0.01269,0.0389 0.01109,0.0491 a 0.37030504,0.44442117 48.199264 0 1 0.01109,0.0265 c 0.01073,0.0156 0.02264,0.0331 0.03367,0.0638 a 0.37030504,0.44442117 48.199264 0 1 0.0012,0.003 c 0.02163,0.061 0.02151,0.0557 0.0095,0.0333 a 0.37030504,0.44442117 48.199264 0 1 0.01584,0.0337 c -0.002,-0.005 -0.0028,-0.008 -0.0028,-0.01 v -4.1e-4 -4e-4 h 4.06e-4 4.05e-4 c 0.0045,0.004 0.02165,0.0354 0.04675,0.0919 0.01525,0.034 0.02201,0.0542 0.02416,0.0594 a 0.37030504,0.44442117 48.199264 0 1 0.04357,0.0558 c 0.0021,0.004 0.004,0.007 0.0055,0.01 a 0.37030504,0.44442117 48.199264 0 1 0.04199,0.0535 c -0.0043,-0.007 -0.0064,-0.0107 -0.0067,-0.0119 v -4.1e-4 h 4.06e-4 c 0.0046,0.004 0.02896,0.035 0.03446,0.0404 a 0.37030504,0.44442117 48.199264 0 1 0.03446,0.0408 0.37030504,0.44442117 48.199264 0 0 4.05e-4,0 c 0.0021,0.001 0.01158,0.0103 0.03684,0.042 0.01637,0.0206 0.01789,0.0234 0.02456,0.0333 0.007,0.004 0.01286,0.005 0.01822,0.009 a 0.37030504,0.44442117 48.199264 0 1 0.04357,0.0345 c -0.0054,-0.005 -0.0084,-0.009 -0.0095,-0.0103 l -4.06e-4,-4e-4 v -4.1e-4 c 0.0048,0.003 0.03305,0.0262 0.06536,0.0551 0.01223,0.0106 0.03303,0.0262 0.05427,0.044 0.0173,0.0131 0.03613,0.0285 0.05546,0.0424 0.01347,0.009 0.02264,0.0146 0.03644,0.0226 0.02936,0.0169 0.03929,0.0247 0.04397,0.0277 a 0.37030504,0.44442117 48.199264 0 1 0.01703,0.004 c -0.01541,-0.007 -0.02527,-0.0119 -0.02734,-0.0135 v -4.1e-4 c 0.0028,-6e-5 0.02227,0.006 0.06497,0.021 a 0.37030504,0.44442117 48.199264 0 1 0.0095,0.004 c 0.02583,0.01 0.0054,0.004 0.03406,0.0119 a 0.37030504,0.44442117 48.199264 0 1 0.0091,0.002 c 0.0093,0.003 0.04966,0.0129 0.06893,0.0174 6.29e-4,1.4e-4 0.02448,0.005 0.04516,0.01 0.03325,0.005 0.06617,0.01 0.07012,0.0111 h 4.06e-4 v 4e-4 c -5.48e-4,3.5e-4 -0.0052,6e-5 -0.01545,-4e-4 a 0.37030504,0.44442117 48.199264 0 1 0.01387,10e-4 c 9.94e-4,10e-5 0.0023,2.9e-4 0.0036,4.1e-4 -0.01683,-0.002 0.0388,0.002 0.08675,0.006 0.0015,5.5e-4 0.02544,4.3e-4 0.02852,0.001 h 3.85e-4 v 3.8e-4 h 0.0012 a 0.37030504,0.44442117 48.199264 0 1 0.01109,-10e-4 c 0.0067,-2.3e-4 0.02756,-0.002 0.04793,-0.004 0.05796,-0.0206 0.102738,-0.0548 0.163204,-0.0511 -0.0066,-4.1e-4 0.04428,0.003 0.09269,0.0103 0.03491,0.005 0.07543,0.0118 0.100616,0.0158 0.004,5.3e-4 0.0059,9.2e-4 0.0067,0.001 l 4.06e-4,4e-4 h 4.05e-4 v 4.1e-4 h 4.06e-4 v 4.1e-4 c 6.29e-4,2.6e-4 0.0023,7.7e-4 0.0048,0.001 a 0.37030504,0.44442117 48.199264 0 1 0.08081,-0.0471 c 0.002,-0.003 0.0081,-0.009 0.02297,-0.0186 a 0.37030504,0.44442117 48.199264 0 1 0.08358,-0.0547 c 0.01087,-0.0144 0.03101,-0.0505 0.12993,-0.11805 a 0.37030504,0.44442117 48.199264 0 1 0.02654,-0.0166 c 0.0174,-0.0104 0.02829,-0.0177 0.03365,-0.0214 -0.0061,0.004 -0.01786,0.0141 -0.03449,0.0293 a 0.37030504,0.44442117 48.199264 0 1 0.05427,-0.0428 c 0.02154,-0.0195 0.07604,-0.0436 0.121613,-0.0717 v -4.1e-4 l 3.86e-4,-3.8e-4 c 3.45e-4,-3.5e-4 6.28e-4,-0.001 7.7e-4,-0.001 0.0031,-0.002 0.0046,-0.002 0.0069,-0.004 a 0.37030504,0.44442117 48.199264 0 1 0.01027,-0.0107 c 0.0023,-0.002 0.0077,-0.006 0.0099,-0.008 v -4.1e-4 h -3.85e-4 -4.06e-4 -4.05e-4 l -0.06776,0.0337 c 0.05243,-0.0369 0.05396,-0.033 0.07604,-0.0424 h 4.06e-4 4.06e-4 3.85e-4 v 4.1e-4 h 4.06e-4 v -4.1e-4 c 0.0023,-7.7e-4 0.0054,-0.003 0.0069,-0.004 0.02116,-0.0206 0.04147,-0.0419 0.06654,-0.0626 l -0.01349,0.009 c 0.05864,-0.0473 0.100594,-0.0752 0.116462,-0.0867 l -0.01863,0.0159 h 4.06e-4 l 3.85e-4,-4.1e-4 h 4.06e-4 4.05e-4 3.86e-4 c 1.68e-4,3e-5 6.28e-4,-4e-5 7.7e-4,0 l 3.86e-4,4.1e-4 h 4.05e-4 4.06e-4 3.85e-4 c 0.0015,-3.9e-4 0.0054,-0.002 0.01188,-0.006 7.71e-4,-8.6e-4 7.71e-4,-0.001 0.0015,-0.002 0.0031,-0.002 0.0038,-0.002 0.0046,-0.003 1.61e-4,-7e-5 7.7e-4,-3.1e-4 0.0015,-4.1e-4 6.69e-4,-3.4e-4 0.0023,-10e-4 0.0038,-0.002 a 0.37030504,0.44442117 48.199264 0 1 0.01625,-0.0234 c 0.01909,-0.0363 0.0381,-0.0698 0.116064,-0.13032 -0.0061,0.009 -0.01342,0.0194 -0.02062,0.0293 0.0046,-0.004 0.0083,-0.008 0.0099,-0.0111 a 0.37030504,0.44442117 48.199264 0 1 0.02453,-0.0337 h 4.06e-4 v -3.8e-4 -4.1e-4 l -4.06e-4,-4e-4 v -4.1e-4 h 4.06e-4 c 0.01043,-0.006 0.02706,-0.0206 0.03013,-0.0218 0.02652,-0.0352 0.04837,-0.0704 0.08041,-0.10339 l -0.04001,0.0305 c 0.03357,-0.0346 0.07305,-0.0799 0.15449,-0.13548 0.0031,-0.003 0.0054,-0.005 0.0087,-0.008 0.0023,-0.003 0.0081,-0.0104 0.01824,-0.023 0.01801,-0.0224 0.05834,-0.0513 0.09784,-0.0812 0.01027,-0.0184 0.04139,-0.0632 0.08913,-0.12676 a 0.37030504,0.44442117 48.199264 0 1 0.0087,-0.01 c 0.03028,-0.0383 0.04193,-0.053 0.04201,-0.0527 a 0.37030504,0.44442117 48.199264 0 1 0.023,-0.0321 c 0.01,-0.0131 0.01755,-0.0225 0.02254,-0.0289 a 0.37030504,0.44442117 48.199264 0 1 0.03289,-0.0515 c 0.0015,-0.002 0.01717,-0.027 0.02177,-0.0364 a 0.37030504,0.44442117 48.199264 0 1 0.04001,-0.0646 c 0.0125,-0.0175 0.01702,-0.0272 0.02537,-0.0432 a 0.37030504,0.44442117 48.199264 0 1 0.0325,-0.0515 c 6.89e-4,-10e-4 0.01947,-0.0322 0.05266,-0.0848 a 0.37030504,0.44442117 48.199264 0 1 0.0054,-0.0115 c 0.01824,-0.0273 0.03043,-0.0455 0.03925,-0.0594 l 3.85e-4,-4.1e-4 4.06e-4,-4e-4 c 1.91e-4,-3.3e-4 5.88e-4,-8.5e-4 7.71e-4,-0.001 0.0031,-0.006 0.0069,-0.0144 0.01188,-0.025 0.0125,-0.0269 0.04385,-0.0746 0.08953,-0.12676 l -0.02261,0.0234 c 0.05473,-0.0873 0.08739,-0.12813 0.09547,-0.13191 h 4.06e-4 3.85e-4 4.06e-4 4.05e-4 v 4.1e-4 l 3.86e-4,4e-4 v 4.1e-4 4.1e-4 c -6.09e-4,0.004 -0.0046,0.0127 -0.01226,0.0254 0.01165,-0.0188 0.02959,-0.0463 0.04914,-0.0768 0.01418,-0.0234 0.0069,-0.008 0.02139,-0.0265 -10e-5,0.002 -0.0023,0.01 -0.0054,0.0178 0.0031,-0.004 0.0054,-0.008 0.0061,-0.0107 a 0.37030504,0.44442117 48.199264 0 1 0.0077,-0.0178 c 0.01679,-0.0202 0.01656,-0.0229 0.02652,-0.0325 0.01341,-0.0411 0.0266,-0.0893 0.05305,-0.13904 l -0.02062,0.0226 c 0.05082,-0.0916 0.086,-0.12135 0.10616,-0.14181 0.0094,-0.0169 0.01985,-0.0352 0.02775,-0.0495 l 0.0054,-0.0115 c 0.01372,-0.0267 0.02798,-0.0552 0.04277,-0.0836 l 0.0054,-0.01 c -0.0061,0.009 0.02683,-0.0551 0.06654,-0.122 0.0082,-0.0127 0.0097,-0.0168 0.01587,-0.025 a 0.37030504,0.44442117 48.199264 0 1 0.0038,-0.0115 l 4.06e-4,-4.1e-4 v -4e-4 h 4.05e-4 v 4e-4 c -6.9e-5,10e-4 -7.7e-4,0.004 -0.0015,0.006 2.03e-4,-4.1e-4 7.71e-4,-0.002 0.0015,-0.002 l 3.86e-4,-4.1e-4 a 0.37030504,0.44442117 48.199264 0 1 0.0023,-0.01 0.37030504,0.44442117 48.199264 0 1 0.02576,-0.0883 c -0.0054,0.0121 -0.0095,0.0209 -0.01188,0.0265 0.0015,-0.004 0.0031,-0.008 0.0038,-0.0131 0.0061,-0.0236 0.008,-0.0561 0.04714,-0.14181 l 4.05e-4,-0.002 c 0.01081,-0.0252 0.02185,-0.052 0.0345,-0.0812 l 0.0038,-0.01 h -4.06e-4 v -4e-4 -4.1e-4 c -6.1e-5,-0.007 0.0077,-0.0435 0.05029,-0.11963 0.01334,-0.0318 0.02154,-0.0485 0.02376,-0.0515 h 4.05e-4 v -4e-4 h 4.06e-4 v 4e-4 c -1.3e-4,6.1e-4 -7.71e-4,0.002 -0.0015,0.004 l 0.0015,-0.002 c -0.0015,0.003 -0.0015,0.005 -0.0015,0.006 v 4.1e-4 c 0.0046,-0.005 0.04477,-0.0864 0.06416,-0.13667 a 0.37030504,0.44442117 48.199264 0 1 0.0031,-0.019 c -5.88e-4,10e-4 -0.0023,0.006 -0.0031,0.007 h -4.06e-4 v 4.1e-4 h -3.85e-4 v -4.1e-4 c 4.6e-5,-8.1e-4 1.07e-4,-0.002 3.85e-4,-0.004 0.0038,-0.0231 3.04e-4,-0.0588 0.03603,-0.13944 0.01188,-0.036 0.01878,-0.0549 0.021,-0.0582 h 3.85e-4 v -4e-4 h 4.06e-4 v 4e-4 c 3.8e-5,0.002 -7.71e-4,0.006 -0.0031,0.0147 a 0.37030504,0.44442117 48.199264 0 1 0.0023,-0.006 c 0.0031,-0.0103 0.0046,-0.0152 0.0054,-0.017 l 4.05e-4,-4e-4 v -4.1e-4 h 3.86e-4 l 4.05e-4,4.1e-4 v 4e-4 c 3.1e-5,0.003 -0.0015,0.0121 -0.0015,0.0135 5.88e-4,-0.002 0.0023,-0.008 0.0031,-0.0103 l 3.86e-4,-4.1e-4 v -4e-4 h 4.05e-4 c 1.15e-4,8.1e-4 2.84e-4,0.003 0,0.006 a 0.37030504,0.44442117 48.199264 0 1 0.01111,-0.065 c 0.0031,-0.0104 0.0046,-0.0146 0.0054,-0.0158 v -4e-4 -4.1e-4 a 0.37030504,0.44442117 48.199264 0 1 0.0038,-0.0246 c 2.24e-4,-0.0163 0.03978,-0.0722 0.04438,-0.1026 a 0.37030504,0.44442117 48.199264 0 1 0.0069,-0.0737 c -0.0031,0.0133 -0.0046,0.0224 -0.0054,0.0281 -1.46e-4,0.003 -5.48e-4,0.005 -7.71e-4,0.007 1.38e-4,-0.001 2.44e-4,-0.003 7.71e-4,-0.007 4.6e-5,-8.1e-4 -1.5e-5,-0.002 0,-0.003 0,-0.003 0.0015,-0.0157 0.0015,-0.019 l -0.02928,0.0515 c 0.0088,-0.0397 0.01564,-0.025 0.02974,-0.0558 -7.7e-4,-0.0162 -0.0031,-0.0308 0.0061,-0.0848 3.04e-4,-0.002 0.0023,-0.0217 0.0084,-0.0709 0.0069,-0.0534 0.0091,-0.073 0.0099,-0.0725 v -4e-4 -4.1e-4 c -1.61e-4,-0.01 -2.84e-4,-0.0258 7.71e-4,-0.0519 l 0.0015,0.006 c 6.29e-4,-0.0325 6.69e-4,-0.0631 7.71e-4,-0.0951 l 4.05e-4,-0.002 c -5.3e-5,-0.0328 7.71e-4,-0.0624 0,-0.0868 a 0.37030504,0.44442117 48.199264 0 1 -7.7e-4,-0.008 c 1.91e-4,0.007 4.26e-4,0.0113 4.05e-4,0.0127 -3.85e-4,-0.003 -0.0023,-0.0194 -0.0046,-0.0432 -0.0031,-0.0328 -0.03036,-0.075 0.01503,-0.20163 -0.0023,-0.0219 -0.0083,-0.0453 0,-0.10972 1.76e-4,-0.0245 0.0015,-0.0376 0.0023,-0.0479 -1.99e-4,-0.005 -3.04e-4,-0.006 -3.85e-4,-0.006 -4.6e-5,-2.1e-4 -3.45e-4,-0.001 -4.06e-4,-0.003 0,-0.002 7.71e-4,-0.0119 7.71e-4,-0.0127 7.7e-4,-0.007 7.5e-4,-0.0219 -7.71e-4,-0.0309 a 0.37030504,0.44442117 48.199264 0 1 0,-0.003 c -4.46e-4,6.1e-4 -0.0031,-0.0161 -0.0077,-0.0392 -0.0054,-0.0295 -0.021,-0.0714 -0.0079,-0.15924 5.88e-4,-0.0262 0.0031,-0.048 0.0046,-0.0689 -6.49e-4,-0.0163 -0.0031,-0.0434 -0.0031,-0.0479 a 0.37030504,0.44442117 48.199264 0 1 -0.0015,-0.003 c -0.0015,-0.0129 -0.0081,-0.0511 -0.01349,-0.0951 l -0.0015,-0.0202 c -0.0015,-0.0164 -0.0038,-0.0354 -0.0046,-0.0396 a 0.37030504,0.44442117 48.199264 0 1 -0.0031,-0.0198 h -4.06e-4 c -0.0015,-0.003 -0.01679,-0.0416 -0.02614,-0.13548 -0.0031,-0.0157 -0.0069,-0.0344 -0.01027,-0.0551 -0.01096,-0.0486 -0.01395,-0.0694 -0.01625,-0.0788 -0.0061,-0.0201 -0.01043,-0.0405 -0.01426,-0.0606 -0.0023,-0.009 -0.0038,-0.0131 -0.0061,-0.023 l -7.71e-4,-0.008 c -0.009,-0.0378 -0.01717,-0.0743 -0.02024,-0.0879 l -0.0038,-0.0119 c -0.0069,-0.0234 -0.01127,-0.0433 -0.0174,-0.0638 l -0.0015,-0.001 c 0.0023,0.006 0.0031,0.0102 0.0038,0.0119 v 4e-4 c -0.0015,-0.002 -0.0054,-0.0101 -0.01226,-0.0254 -0.01135,-0.0253 -0.03833,-0.0653 -0.04201,-0.14736 -0.0054,-0.0239 -0.0069,-0.0378 -0.0061,-0.0416 v -4.1e-4 -4e-4 h 4.05e-4 v -4.1e-4 h 4.06e-4 v 4.1e-4 h 3.85e-4 c 5.07e-4,8.1e-4 0.0015,0.003 0.0023,0.005 l -0.0015,-0.006 c -0.0015,-0.005 -0.0061,-0.0184 -0.0084,-0.0234 v -4.1e-4 h -4.06e-4 c -0.0031,-0.005 -0.02047,-0.041 -0.03802,-0.0911 l 0.0091,0.0258 c 0.0061,0.0128 -0.0061,-0.0115 -0.02215,-0.0428 -0.01303,-0.0258 -0.04147,-0.0366 -0.05113,-0.13389 -0.0015,-0.002 -0.0031,-0.005 -0.0054,-0.008 -0.01257,-0.0196 -0.03028,-0.007 -0.0555,-0.10339 -3.86e-4,-6.1e-4 -3.45e-4,-10e-4 -4.06e-4,-10e-4 -7.71e-4,-8.1e-4 -0.0054,-0.006 -0.0174,-0.0214 -0.0038,-0.005 -0.0096,-0.0129 -0.01587,-0.0234 -0.0038,-0.004 -0.01073,-0.0113 -0.021,-0.0222 -0.0038,-0.006 -0.0093,-0.0297 -0.01502,-0.0452 l 0.03128,0.0606 c 7.1e-4,8.1e-4 0.0015,0.002 0.0023,0.002 -0.01135,-0.0195 -0.02514,-0.0472 -0.04001,-0.0828 -0.0023,-0.003 -0.0054,-0.006 -0.0084,-0.009 l 0.01265,0.0384 c -0.04247,-0.046 -0.06148,-0.0737 -0.06263,-0.0804 v -4e-4 -4.1e-4 -4e-4 h 4.06e-4 v -4.1e-4 h 3.85e-4 4.06e-4 l 4.06e-4,4.1e-4 c 0.0015,6.1e-4 0.0046,0.003 0.0077,0.006 -0.0031,-0.004 -0.0069,-0.007 -0.01027,-0.0107 -0.0061,-0.005 -0.0077,-0.006 -0.01188,-0.01 l -0.0077,-0.007 c -0.0077,-0.006 -0.01801,-0.0125 -0.02415,-0.0174 l -0.0061,-0.005 h -4.05e-4 c -0.0038,-0.001 -0.0197,-0.01 -0.04438,-0.0285 -0.01027,-0.006 -0.02698,-0.0167 -0.04354,-0.0265 -0.0038,-0.002 -0.01226,-0.0101 -0.01587,-0.0119 l -4.06e-4,-4.1e-4 h -4.05e-4 c -0.06516,-0.0318 -0.05772,-0.0223 0.0069,-0.007 a 0.37030504,0.44442117 48.199264 0 1 -0.03289,-0.0107 0.37030504,0.44442117 48.199264 0 1 -0.0015,4e-4 0.37030504,0.44442117 48.199264 0 1 -0.0095,-0.003 c -0.0023,-4e-5 -0.01725,-0.004 -0.05305,-0.0143 a 0.37030504,0.44442117 48.199264 0 1 -0.0015,-0.001 c -0.01564,-0.005 -0.05757,-0.0161 -0.06217,-0.017 a 0.37030504,0.44442117 48.199264 0 1 -0.0031,4.1e-4 c -0.01809,-0.002 -0.04576,-0.006 -0.07443,-0.0123 -0.03442,-0.005 -0.05427,-0.009 -0.05788,-0.0103 h -4.05e-4 v -4.1e-4 h -3.86e-4 v -4.1e-4 h 3.86e-4 c 3.04e-4,-7e-5 7.71e-4,3e-5 0.0015,0 -0.02989,-0.002 -0.05136,-0.004 -0.05389,-0.004 v -4e-4 c 0.0015,-2.1e-4 0.0069,-4.1e-4 0.01464,-8.1e-4 -0.06646,0.003 -0.0978,-0.001 -0.10537,-0.001 z m -1.459723,6.59075 a 0.37030504,0.44442117 48.199264 0 0 -0.021,0.0178 0.37030504,0.44442117 48.199264 0 1 0.02852,-0.0119 0.37030504,0.44442117 48.199264 0 1 0.05863,-0.0372 c -0.03153,0.0118 -0.0526,0.0227 -0.06615,0.0313 z m -0.021,0.0178 a 0.37030504,0.44442117 48.199264 0 0 -0.002,7.7e-4 c -3.65e-4,4.9e-4 -6.69e-4,9.9e-4 -7.71e-4,10e-4 v 4e-4 a 0.37030504,0.44442117 48.199264 0 1 0.0028,-0.002 z m -1.584902,-0.79106 a 0.37030504,0.44442117 48.199264 0 0 -0.0016,-0.004 c 4.46e-4,0.002 7.7e-4,0.005 0.0012,0.007 1.21e-4,-9.1e-4 2.43e-4,-0.002 4.05e-4,-0.003 z m -0.0016,-0.004 c -0.0022,-0.0112 -0.0049,-0.0263 -0.0095,-0.0455 -0.01577,-0.0232 -0.05033,-0.0533 -0.123196,-0.0923 a 0.37030504,0.44442117 48.199264 0 1 0.132703,0.13785 z m -0.09388,-2.27257 c -0.0038,0.018 -0.0046,0.0279 -0.0044,0.0313 v 4e-4 4.1e-4 4e-4 h 4.06e-4 v -4e-4 c 0.0013,-0.002 0.0037,-0.014 0.004,-0.0321 z m 2.272979,-3.28627 c -0.0023,10e-4 -0.0069,0.004 -0.0077,0.004 a 0.37030504,0.44442117 48.199264 0 1 -0.01549,0.0154 c 0.0091,-0.005 0.01219,-0.007 0.01349,-0.009 v -4e-4 l 4.05e-4,-4.1e-4 c 6.29e-4,-0.002 7.71e-4,-0.004 0.0091,-0.01 z m 1.536575,10e-4 c 0.0015,0.002 0.0023,0.005 0.0038,0.008 z m -1.771477,0.10735 c -0.01664,0.003 -0.03327,0.0109 -0.04914,0.0174 l 0.04201,-0.0107 c 0.0031,-0.003 0.0038,-0.003 0.0069,-0.007 z m -1.057664,0.9309 c -0.0034,0.003 -0.01676,0.0174 -0.01703,0.0174 a 0.37030504,0.44442117 48.199264 0 1 -0.01545,0.0341 c 0.02721,-0.0322 0.02432,-0.035 0.03249,-0.0515 z m 3.270023,1.37535 c -4.6e-5,0.005 1.46e-4,0.0119 0,0.0202 a 0.37030504,0.44442117 48.199264 0 1 7.71e-4,-0.0127 c 3.8e-5,-10e-4 -5.68e-4,-0.003 -7.71e-4,-0.007 z m -0.02737,0.25392 c -8.4e-5,4e-4 -3.44e-4,6e-4 -4.05e-4,8.1e-4 v -4.1e-4 z m -4.175573,0.39176 a 0.37030504,0.44442117 48.199264 0 1 -0.0075,0.0416 c 0.0011,-0.004 0.0048,-0.0185 0.0075,-0.0416 z m -0.07566,0.0967 a 0.37030504,0.44442117 48.199264 0 1 0.01307,0.0345 c -0.0036,-0.0113 -0.0077,-0.0225 -0.01307,-0.0345 z m 0.01307,0.0345 a 0.37030504,0.44442117 48.199264 0 1 0.01465,0.0745 c -0.0013,-0.0207 -0.0057,-0.0465 -0.01465,-0.0745 z m 3.865013,0.54428 h 3.85e-4 v 4.1e-4 h -3.85e-4 z m 0,8.1e-4 c -4.47e-4,0.002 -0.0015,0.005 -0.0015,0.006 v 4.1e-4 4e-4 h -4.05e-4 c -2.44e-4,4.1e-4 -5.89e-4,10e-4 -7.71e-4,10e-4 h -4.06e-4 -4.05e-4 a 0.37030504,0.44442117 48.199264 0 1 0.0023,-0.006 c 4.25e-4,-10e-4 7.7e-4,-0.002 0.0015,-0.002 z m -3.952557,0.45357 a 0.37030504,0.44442117 48.199264 0 1 0.01624,0.0816 c -1.16e-4,-0.004 0.0017,-0.01 0.0012,-0.0135 -0.0061,-0.0443 -0.01475,-0.0622 -0.01743,-0.0681 z m 3.594056,0.23292 -0.0079,0.008 v 4e-4 h -4.05e-4 c -7.71e-4,0.002 -0.0046,0.008 -0.0054,0.01 0.0078,-0.006 0.0098,-0.0121 0.01349,-0.0178 z m -0.01349,0.0178 a 0.37030504,0.44442117 48.199264 0 1 0.0023,-0.006 l -0.0404,0.0416 c 0.01158,-0.0107 0.02399,-0.0214 0.03649,-0.0317 a 0.37030504,0.44442117 48.199264 0 1 0,-0.002 v -4.1e-4 c 2.84e-4,-3.2e-4 7.71e-4,-8.5e-4 0.0015,-0.001 z m -0.577551,0.85643 -0.03212,0.025 c -0.0038,0.004 -0.0069,0.008 -0.0099,0.0119 0.0023,-0.002 0.0038,-0.003 0.0061,-0.005 a 0.37030504,0.44442117 48.199264 0 1 4.06e-4,-0.002 v -4.1e-4 h 3.85e-4 v -4e-4 h 4.06e-4 c 7.71e-4,-2.7e-4 0.0023,-7.5e-4 0.0031,-10e-4 h 3.85e-4 v -4.1e-4 c 0.01173,-0.009 0.02154,-0.0186 0.03089,-0.0277 z m -0.701931,0.68926 -0.01027,0.005 h -4.05e-4 c -0.0023,0.001 -0.0069,0.007 -0.0099,0.01 0.0097,-0.005 0.01357,-0.01 0.02062,-0.0143 z m -1.918447,0.0697 a 0.37030504,0.44442117 48.199264 0 1 0.115272,0.0392 c -0.01561,-0.0147 -0.04399,-0.0296 -0.115272,-0.0392 z m 1.595596,0.15727 c -0.05492,0.0297 -0.04091,0.0283 -0.05387,0.0416 0.01466,-0.007 0.02067,-0.01 0.02258,-0.0103 a 0.37030504,0.44442117 48.199264 0 1 0.03129,-0.0313 z m -0.03288,0.0329 c -9.13e-4,6.3e-4 -0.0019,0.001 -0.0024,0.002 v 4e-4 c 1.67e-4,-3e-5 4.87e-4,10e-5 7.71e-4,0 a 0.37030504,0.44442117 48.199264 0 1 0.0016,-0.002 z M 14.430057,22.095 c -0.0044,6.9e-4 -0.0064,0.001 -0.0075,0.002 -1.76e-4,1.2e-4 -0.0011,6.7e-4 -0.0012,7.7e-4 -3.45e-4,3.9e-4 -0.0011,10e-4 -0.0016,0.002 -9.93e-4,5.5e-4 -0.0031,0.002 -0.006,0.002 a 0.37030504,0.44442117 48.199264 0 1 0.002,-0.002 c -0.0014,6.9e-4 -0.0028,0.001 -0.004,0.002 a 0.37030504,0.44442117 48.199264 0 0 -0.0031,0.002 c -0.0198,0.005 -0.01656,0.006 -0.02971,0.0111 0.0024,5.5e-4 0.0028,6.9e-4 0.0048,0.001 a 0.37030504,0.44442117 48.199264 0 1 0.0099,-0.003 c 3.45e-4,0 0.0011,10e-6 0.0012,0 l -4.06e-4,4.1e-4 c -2.23e-4,2.8e-4 -5.88e-4,9.1e-4 -7.7e-4,0.001 l -4.06e-4,4.1e-4 -4.06e-4,4e-4 -4.05e-4,4.1e-4 -4.06e-4,4.1e-4 h 0.0016 a 0.37030504,0.44442117 48.199264 0 1 0.0051,-0.004 0.37030504,0.44442117 48.199264 0 1 0.03129,-0.0174 z" />
  </g>
</svg>
