<?xml version="1.0" encoding="UTF-8" standalone="no"?>
<!-- Created with Inkscape (http://www.inkscape.org/) -->

<svg
   width="32"
   height="32"
   viewBox="0 0 32 32"
   version="1.1"
   id="svg1"
   xmlns="http://www.w3.org/2000/svg"
   xmlns:svg="http://www.w3.org/2000/svg">
  <defs
     id="defs1" />
  <g
     id="layer1">
    <path
       id="path80"
       style="baseline-shift:baseline;display:inline;overflow:visible;vector-effect:none;stroke-width:3.77953;stroke-linecap:round;stroke-linejoin:round;stroke-miterlimit:10000;paint-order:fill markers stroke;enable-background:accumulate;stop-color:#000000"
       d="m 24.986617,0.28366263 c -0.02177,0.0069 -0.09104,0.01955 -0.204799,0.0325 a 0.40567277,0.40567277 0 0 1 -0.01503,0.0015 c -0.07206,0.0054 -0.161298,0.0292 -0.298679,0.05703 l -0.0069,0.0015 c -0.210503,0.0545 -0.344396,0.04415 -0.368397,0.05067 a 0.40567277,0.40567277 0 0 1 -0.107746,0.01464 c -0.0084,8.4e-5 -0.0473,0.02714 -0.23491,0.09586 a 0.40567277,0.40567277 0 0 1 -0.0046,0.0015 c -0.08904,0.0315 -0.19649,0.08267 -0.324818,0.140623 -0.227551,0.121668 -0.377251,0.130981 -0.419105,0.152905 a 0.40567277,0.40567277 0 0 1 -0.112499,0.03879 c 7.51e-4,-1.46e-4 0.0015,-8e-6 0.0023,0 h 4.06e-4 4.05e-4 3.86e-4 l 4.05e-4,3.85e-4 v 4.06e-4 4.06e-4 3.85e-4 c -0.0054,0.01219 -0.09919,0.0794 -0.257875,0.17667497 l -0.01786,0.01188 c -0.143583,0.09715 -0.285725,0.178185 -0.40444,0.259071 -0.176085,0.120556 -0.325831,0.193493 -0.428219,0.270945 a 0.40567277,0.40567277 0 0 1 -0.05826,0.03603 c -0.07669,0.03986 -0.196229,0.157412 -0.37157,0.303831 a 0.40567277,0.40567277 0 0 1 -0.0031,0.0015 c -0.125469,0.102864 -0.261639,0.242782 -0.425444,0.392168 -0.15932,0.164394 -0.319214,0.296272 -0.450395,0.425443 a 0.40567277,0.40567277 0 0 1 -0.0015,0.0015 c -0.128727,0.125147 -0.256005,0.282244 -0.420683,0.457922 -0.09862,0.128022 -0.194474,0.304919 -0.366419,0.508231 -0.12606,0.2729 -0.318602,0.461442 -0.474159,0.637764 -0.128481,0.247143 -0.306413,0.467772 -0.47694,0.669452 -0.175916,0.345922 -0.439372,0.530622 -0.585477,0.698374 l -0.0061,0.0061 c -0.212197,0.261148 -0.415979,0.427751 -0.57914,0.624294 a 0.40567277,0.40567277 0 0 1 -0.03763,0.0404 c -0.06892,0.06339 -0.197341,0.403696 -0.450395,0.759376 -0.240368,0.337842 -0.506958,0.471751 -0.618354,0.607653 a 0.40567277,0.40567277 0 0 1 -0.687279,-0.211131 0.40567277,0.40567277 0 0 1 0.0031,-0.01027 c -0.01658,-0.0141 -0.0546,-0.04093 -0.114084,-0.152904 a 0.40567277,0.40567277 0 0 1 -0.01466,-0.03127 c -0.03661,-0.08649 -0.06528,-0.16139 -0.100616,-0.223021 a 0.40567277,0.40567277 0 0 1 -0.03565,-0.08358 c 0.0013,0.0046 0.0021,0.0077 0.002,0.0091 l -3.96e-4,3.86e-4 v 4.05e-4 4.06e-4 h -3.95e-4 -3.96e-4 -3.95e-4 c -0.01118,-0.0061 -0.07419,-0.114768 -0.148944,-0.2353 -0.112552,-0.182302 -0.186645,-0.375227 -0.217077,-0.420684 a 0.40567277,0.40567277 0 0 1 -0.04159,-0.0824 c -0.03909,-0.103108 -0.05286,-0.214649 -0.05704,-0.284812 a 0.40567277,0.40567277 0 0 1 -0.03525,-0.12399 c -0.0062,-0.0069 -0.0137,-0.01533 -0.02179,-0.02376 -0.06438,-0.06738 -0.173266,-0.154559 -0.28125,-0.284413 a 0.40567277,0.40567277 0 0 1 -0.01069,-0.01502 c -0.123545,-0.163037 -0.14592,-0.190779 -0.255897,-0.309771 a 0.40567277,0.40567277 0 0 1 -0.021,-0.02576 c -0.04609,-0.05902 -0.25654,-0.269841 -0.410387,-0.415931 a 0.40567277,0.40567277 0 0 1 -0.006,-0.0061 c -0.133717,-0.131655 -0.259657,-0.239302 -0.407218,-0.363644 a 0.40567277,0.40567277 0 0 1 -0.0016,-0.0015 C 13.446505,4.3409156 13.316589,4.2372096 13.158832,4.1205936 13.0118,4.0118046 12.83275,3.8851786 12.661694,3.7763586 a 0.40567277,0.40567277 0 0 1 -0.0028,-0.0015 c -0.223527,-0.145247 -0.284819,-0.236374 -0.410387,-0.303831 a 0.40567277,0.40567277 0 0 1 -0.113688,-0.0915 c 0.0097,0.01127 0.01419,0.01778 0.01506,0.02062 l 4.05e-4,4.06e-4 v 4.05e-4 3.86e-4 l -4.05e-4,4.05e-4 h -4.06e-4 -4.06e-4 c -0.01146,-0.0015 -0.09309,-0.06523 -0.180633,-0.107347 -0.117689,-0.05657 -0.262472,-0.117214 -0.378697,-0.163207 a 0.40567277,0.40567277 0 0 1 -0.05229,-0.02576 c -0.147554,-0.08431 -0.265107,-0.09154 -0.500308,-0.154092 -0.246438,-0.06554 -0.463813,-0.145806 -0.642121,-0.18697 -0.17672,-0.0407 -0.296192,-0.08604 -0.318882,-0.08834 a 0.40567277,0.40567277 0 0 1 -0.106162,-0.02576 c -0.02845,-0.0115 -0.05803,-0.009 -0.20242,-0.0061 a 0.40567277,0.40567277 0 0 1 -0.0614,-0.0031 c -0.02872,-0.0038 -0.08928,0.009 -0.223019,0.02852 -0.130068,0.02376 -0.262444,0.04262 -0.350176,0.06577 a 0.40567277,0.40567277 0 0 1 -0.01663,0.0031 c -0.04447,0.0099 -0.109828,0.04454 -0.203608,0.08398 -0.03734,0.02936 -0.127671,0.110943 -0.288777,0.196084 -0.01786,0.01273 -0.03561,0.04906 -0.0511,0.05826 -0.07109,0.04208 -0.126719,0.06194 -0.175088,0.07923 -0.09672,0.03465 -0.166971,0.06523 -0.154093,0.05703 a 0.40567277,0.40567277 0 0 1 -0.06299,0.03127 c -0.07072,0.02951 -0.164065,0.08797 -0.255898,0.157266 a 0.40567277,0.40567277 0 0 1 -0.01663,0.0091 c -0.01448,0.02752 -0.03889,0.08448 -0.08873,0.150527 -0.0734,0.220215 -0.211718,0.318081 -0.299868,0.385032 -0.07581,0.1649 -0.178562,0.248968 -0.253521,0.326803 -0.03726,0.109311 -0.08628,0.229866 -0.175087,0.357704 -0.01502,0.03656 -0.01247,0.0913 -0.0301,0.11844 -0.05347,0.08224 -0.107627,0.131256 -0.15132,0.170734 -0.07371,0.06654 -0.123134,0.114139 -0.129534,0.116853 H 6.77958 6.779174 v -3.85e-4 a 0.40567277,0.40567277 0 0 1 -0.03724,0.04477 c 0.0024,-0.0023 0.0044,-0.0038 0.006,-0.0046 h 4.06e-4 l 4.05e-4,-4.05e-4 h 4.06e-4 4.06e-4 v 4.05e-4 h 4.05e-4 4.06e-4 v 3.86e-4 h 4.06e-4 v 4.05e-4 l 4.05e-4,4.06e-4 v 3.85e-4 c 0.0048,0.01694 -0.03899,0.13335 -0.138248,0.301853 -0.07632,0.248225 -0.211473,0.368144 -0.240845,0.41672 -0.0098,0.01847 -0.0052,0.129931 -0.09071,0.329579 -0.01703,0.14123 -0.07409,0.248585 -0.117253,0.324826 -0.05056,0.08924 -0.08357,0.141935 -0.09745,0.169148 -0.0079,0.03472 8.51e-4,0.183198 -0.0721,0.405628 -0.01445,0.164479 -0.09197,0.312868 -0.144982,0.381865 -0.04221,0.05496 -0.05913,0.08059 -0.06299,0.08319 h -4.05e-4 v 4.06e-4 H 5.78579 v -4.06e-4 -3.85e-4 -4.06e-4 c 3.65e-4,-0.0023 0.0025,-0.0087 0.0055,-0.01786 a 0.40567277,0.40567277 0 0 1 -0.05308,0.103385 h 4.06e-4 4.05e-4 v 4.06e-4 l 4.06e-4,4.05e-4 c 0.0012,0.01671 -0.05557,0.183697 -0.103785,0.358493 a 0.40567277,0.40567277 0 0 1 -0.01069,0.03404 c 0.0011,-0.0031 0.0018,-0.0046 0.0024,-0.0054 v -4.06e-4 h 4.05e-4 4.06e-4 c 9.13e-4,0.0046 -0.0067,0.04891 -0.0064,0.114883 3.65e-4,0.06868 0.0067,0.159159 -0.0091,0.272931 0.03438,0.273252 -0.06334,0.44857 -0.08041,0.502681 -0.0074,0.110422 -0.02786,0.207414 -0.04357,0.266592 -0.01663,0.06255 -0.02316,0.08401 -0.02852,0.131915 a 0.40567277,0.40567277 0 0 1 -0.0103,0.05504 c -0.0033,0.0128 -0.04244,0.282796 -0.0511,0.456734 a 0.40567277,0.40567277 0 0 1 -0.0044,0.04638 c -0.0115,0.06723 -0.0078,0.2291384 -0.0048,0.4194964 a 0.40567277,0.40567277 0 0 1 0,0.0015 c 0.0015,0.115581 0.01469,0.345485 0.0301,0.518135 0.0061,0.06132 0.07324,0.221909 0.115668,0.44762 0.05312,0.127976 0.07105,0.253736 0.07566,0.338295 0.0051,0.09845 0.0045,0.134368 0.0091,0.155679 a 0.40567277,0.40567277 0 0 1 0.0048,0.01978 c 0.01999,0.117014 0.04585,0.182455 0.09705,0.350169 0.04957,0.12054 0.110942,0.298004 0.187368,0.489619 0.04393,0.07573 0.08029,0.14405 0.123988,0.234902 0.0541,0.112453 0.112857,0.237048 0.159639,0.333143 0.13694,0.207337 0.189675,0.374039 0.253917,0.488815 a 0.40567277,0.40567277 0 0 1 0.0012,0 c 0.06109,0.109348 0.216921,0.319207 0.339876,0.501501 0.06588,0.07774 0.09901,0.111088 0.136268,0.146963 0.03978,0.03833 0.100833,0.0982 0.166373,0.184194 0.156376,0.205045 0.333137,0.478513 0.414744,0.553788 0.163291,0.15065 0.428131,0.340962 0.64014,0.52764 0.270295,0.187629 0.420962,0.359459 0.535167,0.461886 l 0.01347,0.01065 c 0.200599,0.164011 0.283327,0.245511 0.401276,0.348988 l 0.006,0.0046 c 0.120748,0.101392 0.326764,0.253958 0.485256,0.390979 0.07367,0.05075 0.110731,0.07413 0.152508,0.101806 0.03308,0.02185 0.07123,0.05036 0.112104,0.08476 0.131249,0.06868 0.181098,0.138631 0.251936,0.208763 0.08203,0.08121 0.159507,0.163045 0.205194,0.207965 l -0.01505,-0.01188 c 0.12635,0.113173 0.211921,0.209506 0.288776,0.294716 l 0.0031,0.0031 c 0.0905,0.09862 0.191375,0.219985 0.270951,0.327992 l 0.0016,0.0015 c 0.08729,0.113419 0.143509,0.207851 0.186972,0.287197 v 0.0015 c 0.06142,0.110836 0.108021,0.220797 0.142209,0.332354 a 0.40567277,0.40567277 0 0 1 0.0016,0.0046 c 0.01947,0.06623 0.06143,0.198246 0.07646,0.36087 0.0266,0.144947 0.02271,0.28771 0.0031,0.396522 v 0.0061 c 0.01073,0.05695 0.03846,0.138109 0.0028,0.282436 -1.12e-4,0.119375 -0.03352,0.232295 -0.06893,0.30304 -0.03148,0.06286 -0.05877,0.105616 -0.07764,0.133886 -0.08021,0.265227 -0.238754,0.340395 -0.266593,0.379497 a 0.40567277,0.40567277 0 0 1 -0.03447,0.04316 c -0.117941,0.124909 -0.205614,0.191216 -0.267781,0.269764 a 0.40567277,0.40567277 0 0 1 -0.115273,0.100219 c -0.01806,0.01035 -0.108543,0.103224 -0.227773,0.251544 a 0.40567277,0.40567277 0 0 1 -0.08913,0.0816 c 7.1e-4,-3.05e-4 0.0015,-2.84e-4 0.002,-4.06e-4 h 4.06e-4 4.06e-4 4.05e-4 4.06e-4 l 4.05e-4,4.06e-4 v 4.05e-4 h 4.06e-4 v 3.86e-4 c 1.7e-5,1.68e-4 0,7.7e-4 0,0.0015 -0.002,0.02338 -0.108594,0.178116 -0.247579,0.359681 -0.132682,0.19764 -0.28268,0.364112 -0.411575,0.528438 a 0.40567277,0.40567277 0 0 1 -0.0016,0.0015 c -0.168296,0.213209 -0.325166,0.354898 -0.459903,0.524069 -0.02577,0.03242 -0.0554,0.06976 -0.082,0.102993 l 0.134683,0.0079 a 0.40567277,0.40567277 0 0 1 0.03605,0.0046 l 0.444453,0.06891 0.371171,-0.0015 a 0.40567277,0.40567277 0 0 1 0.08239,0.0079 l 0.488028,0.100219 0.257482,-0.03449 a 0.40567277,0.40567277 0 0 1 0.179842,0.01503 l 0.510607,0.164395 c 0.01794,-0.03994 0.01641,-0.09012 0.0404,-0.119636 0.06505,-0.07981 0.127996,-0.116094 0.167561,-0.138248 0.0015,-0.0023 0.0029,-0.0038 0.0044,-0.0054 -0.0041,-0.04024 -0.01014,-0.06125 0.02734,-0.158454 0.02473,-0.09612 0.0502,-0.171707 0.07764,-0.229352 0.04389,-0.223664 0.142009,-0.339375 0.162016,-0.378699 0.07771,-0.179335 0.150902,-0.267305 0.169145,-0.309771 a 0.40567277,0.40567277 0 0 1 0.04318,-0.07566 c -0.01237,0.01671 -0.01704,0.02453 -0.01783,0.02537 0.0012,-0.0031 0.01085,-0.02384 0.01664,-0.05626 0.0095,-0.05328 0.0143,-0.130598 0.04912,-0.237677 0.02853,-0.149547 0.111609,-0.281677 0.161619,-0.339874 0.0187,-0.02177 0.02911,-0.03526 0.03368,-0.04116 a 0.40567277,0.40567277 0 0 1 0.0606,-0.0919 c -0.0091,0.01035 -0.01572,0.01648 -0.01981,0.0174 h -4.05e-4 -4.06e-4 -4.06e-4 -4.05e-4 -3.86e-4 -4.05e-4 l -4.06e-4,-4.05e-4 h -4.06e-4 l -4.05e-4,-3.86e-4 v -4.05e-4 l -4.06e-4,-4.06e-4 c -0.0065,-0.01273 0.01489,-0.08747 0.05704,-0.243618 a 0.40567277,0.40567277 0 0 1 0,-0.0015 c 0.04835,-0.176759 0.09792,-0.282605 0.112104,-0.356117 a 0.40567277,0.40567277 0 0 1 0.02535,-0.0824 c 0.0041,-0.0097 0.01939,-0.138141 0.03763,-0.316111 a 0.40567277,0.40567277 0 0 1 0.0016,-0.0087 c 0.01602,-0.124941 0.02458,-0.257255 0.02535,-0.392559 a 0.40567277,0.40567277 0 0 1 0,-0.01349 c 0.0017,-0.04546 -0.02892,-0.291474 -0.04793,-0.477332 -8.52e-4,-0.0046 -8.52e-4,-0.0038 -0.0016,-0.0079 -0.04132,-0.209821 -0.05183,-0.29106 -0.06893,-0.390581 -0.03503,-0.138233 -0.04083,-0.258566 -0.04159,-0.326406 -7.71e-4,-0.06784 -1.54e-4,-0.06309 -0.0048,-0.07922 a 0.40567277,0.40567277 0 0 1 -0.01347,-0.09903 c -2.02e-4,-0.01288 -0.05754,-0.156131 -0.143794,-0.365231 a 0.40567277,0.40567277 0 0 1 -0.0016,-0.0031 c -0.0606,-0.15006 -0.134398,-0.306023 -0.223019,-0.465443 a 0.40567277,0.40567277 0 0 1 -0.0031,-0.0031 c -0.08411,-0.154644 -0.17952,-0.311565 -0.293529,-0.474556 a 0.40567277,0.40567277 0 0 1 -0.0028,-0.0046 c -0.09184,-0.135488 -0.131859,-0.257967 -0.161678,-0.334009 -0.02987,-0.07612 -0.04618,-0.109226 -0.0812,-0.150927 a 0.40567277,0.40567277 0 0 1 -0.09071,-0.211928 c 0.0034,0.03005 0.0041,0.04561 0.002,0.05029 v 3.91e-4 l -4.06e-4,4e-4 -4.06e-4,3.99e-4 h -5.27e-4 v 4e-4 h -4.05e-4 -4.06e-4 -4.06e-4 l -4.05e-4,-4e-4 h -4.06e-4 c -0.01261,-0.0089 -0.05155,-0.104514 -0.120357,-0.181031 -0.100985,-0.11233 -0.236924,-0.240168 -0.343046,-0.336708 a 0.40567277,0.40567277 0 0 1 -0.06575,-0.07804 c -0.06606,-0.100564 -0.088,-0.11033 -0.134683,-0.137849 -0.04668,-0.02752 -0.151843,-0.06638 -0.291945,-0.163207 -0.213608,-0.147638 -0.4621,-0.308629 -0.718573,-0.519315 C 9.583618,14.548324 9.470763,14.409248 9.317016,14.260016 a 0.40567277,0.40567277 0 0 1 -0.04357,-0.04791 c -0.05084,-0.0683 -0.320443,-0.331909 -0.509022,-0.555375 a 0.40567277,0.40567277 0 0 1 -0.0091,-0.01065 C 8.615344,13.468448 8.485426,13.304115 8.361574,13.126758 a 0.40567277,0.40567277 0 0 1 -0.0044,-0.0061 C 8.236012,12.939146 8.118295,12.747355 8.018881,12.571225 a 0.40567277,0.40567277 0 0 1 -0.0048,-0.0087 C 7.916711,12.380845 7.827438,12.216075 7.749073,12.041224 7.641564,11.812409 7.586218,11.597928 7.542295,11.466449 a 0.40567277,0.40567277 0 0 1 -0.0075,-0.02691 c -0.04822,-0.185828 -0.08975,-0.265035 -0.13191,-0.443266 v -4.06e-4 -3.85e-4 l 4.05e-4,-4.06e-4 -4.05e-4,-4.05e-4 c -0.04979,-0.186456 -0.07473,-0.35128 -0.09428,-0.50308 -0.02461,-0.171976 -0.04851,-0.403222 -0.05387,-0.5882444 -0.01426,-0.17518 0.04812,-0.36957 0.103389,-0.455156 0.0034,-0.0054 0.0065,-0.0098 0.0091,-0.01387 a 0.40567277,0.40567277 0 0 1 0.05308,-0.116463 c 1.47e-4,-0.0023 6.08e-4,-0.0054 7.7e-4,-0.0087 0.0021,-0.04346 -0.0089,-0.140831 0.01782,-0.284421 a 0.40567277,0.40567277 0 0 1 0.021,-0.07052 c 0.05081,-0.133664 0.09927,-0.255492 0.134683,-0.372759 a 0.40567277,0.40567277 0 0 1 0.06575,-0.128742 c 0.05689,-0.07497 0.145361,-0.226232 0.182615,-0.314524 a 0.40567277,0.40567277 0 0 1 0.06853,-0.108536 c 0.0073,-0.04461 0.02727,-0.143429 0.05863,-0.243219 0.03865,-0.154491 0.124039,-0.301071 0.191725,-0.365231 0.04483,-0.04254 0.06655,-0.06439 0.07209,-0.06776 h 4.06e-4 l 4.06e-4,-3.85e-4 h 4.05e-4 4.06e-4 v 3.85e-4 c -4.87e-4,0.0023 -0.0042,0.0084 -0.01069,0.01824 a 0.40567277,0.40567277 0 0 1 0.06536,-0.07604 c -0.02365,0.02131 -0.03517,0.03242 -0.03922,0.03526 l -4.05e-4,4.06e-4 h -4.06e-4 -4.06e-4 v 3.85e-4 h -4.05e-4 v -3.85e-4 -4.06e-4 c 0.0024,-0.0061 0.02361,-0.03817 0.03803,-0.08358 0.02129,-0.06707 0.02629,-0.154061 0.106559,-0.278473 0.01767,-0.05734 0.04289,-0.114668 0.08081,-0.170734 0.05969,-0.08828 0.157954,-0.161098 0.230546,-0.19291 0.145131,-0.06362 0.09692,-0.05757 0.01188,0.021 a 0.40567277,0.40567277 0 0 1 0.03129,-0.02576 c 0.146772,-0.110177 0.309645,-0.199143 0.399691,-0.257478 a 0.40567277,0.40567277 0 0 1 0.07804,-0.03879 c 0.0017,-6.49e-4 0.0025,-7.71e-4 0.0036,-0.0015 8.51e-4,-0.0015 0.0025,-0.0031 0.0055,-0.0061 0.01209,-0.01242 0.08713,-0.06815 0.148152,-0.115274 0.148772,-0.125446 0.300787,-0.15623 0.396522,-0.167959 0.101875,-0.01257 0.174142,-0.01932 0.169543,-0.01786 a 0.40567277,0.40567277 0 0 1 0.09269,-0.0091 c 0.02088,-0.01204 0.09563,-0.06723 0.23213,-0.09705 0.161532,-0.03526 0.303787,-0.03894 0.431778,-0.04638 v -4.05e-4 -3.86e-4 c 0.0033,-0.0023 0.03026,-0.0094 0.08754,-0.03089 0.05811,-0.02177 0.157501,-0.05619 0.278872,-0.05826 0.16883,-0.04446 0.333257,-0.0054 0.435344,0.03449 0.106868,0.04155 0.187372,0.08863 0.246391,0.121215 0.13827,0.03396 0.300364,0.09295 0.46109,0.19767 0.132764,0.04078 0.216483,0.109487 0.29868,0.173501 0.08376,0.06523 0.159362,0.134914 0.228169,0.201236 0.119259,0.065 0.267181,0.159688 0.40801,0.303033 0.16773,0.07612 0.235888,0.193876 0.308583,0.289173 0.07884,0.103355 0.144814,0.207491 0.200439,0.288385 0.220904,0.214703 0.312223,0.453645 0.410387,0.610029 l 0.0016,0.0015 c 0.05009,0.07786 0.25893,0.257477 0.42227,0.518527 0.218579,0.209268 0.294719,0.425574 0.336312,0.52012 0.04717,0.05933 0.07578,0.09118 0.117253,0.144188 0.0333,0.04254 0.06723,0.09422 0.100616,0.154491 0.07009,0.06692 0.08709,0.124135 0.114877,0.177855 0.03802,0.07351 0.06743,0.145576 0.09586,0.219855 0.05692,0.148611 0.108264,0.3058774 0.144982,0.3953334 a 0.40567277,0.40567277 0 0 1 0.0016,0.0031 c 0.05831,0.144043 0.15058,0.340472 0.223019,0.530017 0.10176,0.215669 0.132926,0.368458 0.167957,0.472977 a 0.40567277,0.40567277 0 0 1 0.0016,0.0061 c 0.0077,0.02422 0.06482,0.155042 0.107746,0.239256 0.0021,-0.0046 0.0064,-0.01004 0.0087,-0.01464 a 0.40567277,0.40567277 0 0 1 0.02694,-0.04515 c 0.169393,-0.239616 0.295699,-0.523301 0.46743,-0.827898 a 0.40567277,0.40567277 0 0 1 0.0103,-0.01786 c 0.172643,-0.273161 0.342331,-0.5304544 0.492782,-0.7799744 a 0.40567277,0.40567277 0 0 1 0.02535,-0.03603 c 0.176215,-0.230226 0.33933,-0.459225 0.48486,-0.684116 a 0.40567277,0.40567277 0 0 1 0.04793,-0.05979 c 0.182991,-0.191362 0.368727,-0.405836 0.500306,-0.594584 a 0.40567277,0.40567277 0 0 1 0.08834,-0.09269 c 0.02353,-0.01779 0.05795,-0.06477 0.102994,-0.170734 0.03833,-0.09018 0.09354,-0.225519 0.183007,-0.36681 0.07458,-0.171064 0.176291,-0.312615 0.263425,-0.398109 0.09442,-0.09263 0.151769,-0.138201 0.179442,-0.172313 a 0.40567277,0.40567277 0 0 1 0.01503,-0.01786 c 0.08805,-0.09641 0.18677,-0.296226 0.365231,-0.505057 0.103722,-0.16346 0.239424,-0.257401 0.338294,-0.322841 0.107141,-0.07091 0.177541,-0.120502 0.179841,-0.122802 a 0.40567277,0.40567277 0 0 1 0.107746,-0.07962 c 0.180316,-0.09111 0.246401,-0.144234 0.345815,-0.236488 a 0.40567277,0.40567277 0 0 1 0.133893,-0.082 c 0.0015,-0.0031 0.0046,-0.0078 0.0084,-0.01387 0.02254,-0.03434 0.08097,-0.135534 0.187368,-0.241241 0.136791,-0.164556 0.276442,-0.258091 0.341062,-0.302244 0.204447,-0.183804 0.407269,-0.244744 0.441687,-0.266591 a 0.40567277,0.40567277 0 0 1 0.07367,-0.03603 c 0.0302,-0.01142 0.02698,-0.01096 0.05228,-0.03127 0.02154,-0.01732 0.06569,-0.06109 0.140624,-0.107348 0.01035,-0.01135 0.04822,-0.0476 0.08992,-0.09309 0.03442,-0.03756 0.11499,-0.08933 0.175088,-0.137857 0.03718,-0.05006 0.06485,-0.104849 0.124388,-0.143789 0.09984,-0.06531 0.222607,-0.08552 0.297882,-0.08398 0.139827,0.0023 0.133502,-0.01426 0.02261,0.01939 0.155326,-0.04193 0.289182,-0.05412 0.353342,-0.06738 a 0.40567277,0.40567277 0 0 1 0.04477,-0.0046 h 3.85e-4 4.06e-4 4.05e-4 3.86e-4 c 0.01311,-0.0069 0.09077,-0.02568 0.139443,-0.04477 0.162739,-0.07458 0.295298,-0.06991 0.398101,-0.06301 0.191776,-0.03381 0.298395,0.0061 0.389393,0.03449 0.100088,0.03105 0.191131,0.06592 0.206386,0.07052 a 0.40567277,0.40567277 0 0 1 0.03764,0.01188 c 0.01763,0.0069 0.02583,0.01004 0.02775,0.01111 v 4.05e-4 c -0.0038,-1.22e-4 -0.0289,-0.0054 -0.05941,-0.0054 -0.0038,6.9e-5 -0.0061,1.15e-4 -0.0069,3.85e-4 h -4.06e-4 -4.05e-4 v 4.06e-4 h 4.05e-4 v 4.05e-4 c 0.01035,0.0038 0.117229,0.01564 0.191723,0.03289 0.168235,0.04576 0.293497,0.123269 0.395341,0.196475 0.16083,0.09711 0.262827,0.208495 0.356117,0.309771 l 0.0015,0.0015 c 0.0841,0.09103 0.171202,0.195033 0.250356,0.312944 0.04806,0.06631 0.121023,0.167208 0.188556,0.286001 0.04507,0.06125 0.08737,0.131203 0.110522,0.19291 0.02284,0.06079 0.02238,0.06991 0.03166,0.09586 l 0.0031,0.0077 c 0.01464,0.03595 0.08112,0.201604 0.12993,0.371962 v 4.06e-4 c 0.0015,0.0023 0.04323,0.09117 0.0824,0.178652 0.02652,0.05948 0.04829,0.14277 0.07213,0.218659 0.01848,0.0256 0.03664,0.04492 0.05665,0.08675 0.02974,0.06224 0.05128,0.20838 0.02936,0.312546 7.71e-4,0.0061 0.0023,0.01096 0.0023,0.01548 0.0031,0.04116 0.0061,0.0887 0.0087,0.139444 0.0046,0.101545 0.0084,0.216443 0.0091,0.31135 a 0.40567277,0.40567277 0 0 1 0,0.0046 c -4.66e-4,0.117735 -0.0031,0.278396 -0.01066,0.429798 1.92e-4,-0.0038 5.28e-4,-0.0061 7.71e-4,-0.0069 v -4.06e-4 h 4.06e-4 l 3.85e-4,4.06e-4 c 0.0023,0.0046 0.0069,0.05266 0.021,0.116063 0.01479,0.066 0.03978,0.151287 0.03925,0.269765 0.02905,0.151118 0.0069,0.315727 -0.03013,0.400876 -0.02629,0.06109 -0.03833,0.09013 -0.04239,0.09547 l -4.06e-4,3.85e-4 -4.05e-4,4.06e-4 h -4.06e-4 -3.85e-4 v -4.06e-4 c -5.07e-4,-0.0023 7.7e-4,-0.01203 0.0031,-0.02652 a 0.40567277,0.40567277 0 0 1 -0.01027,0.04592 c 0.0023,-0.0086 0.0038,-0.01334 0.0054,-0.01502 l 4.06e-4,-4.05e-4 v -4.06e-4 h 4.05e-4 v 4.06e-4 h 3.86e-4 v 4.05e-4 c 7.71e-4,0.0084 -0.0031,0.05542 0,0.114078 0.0038,0.07091 0.01518,0.161145 -3.86e-4,0.280068 0.0095,0.147178 -0.02874,0.289242 -0.06577,0.371164 -0.04492,0.09946 -0.06056,0.129217 -0.05826,0.119635 a 0.40567277,0.40567277 0 0 1 -0.01066,0.03128 c -0.03726,0.104665 -0.08944,0.189844 -0.110522,0.223419 -0.02108,0.03357 -0.01717,0.02116 -0.03012,0.0614 a 0.40567277,0.40567277 0 0 1 -0.08556,0.148542 c -0.0015,0.0054 -0.0061,0.01395 -0.0174,0.02537 -0.0061,0.01395 -0.01372,0.03151 -0.02139,0.05067 -0.03304,0.08288 -0.0729,0.199916 -0.115274,0.309771 a 0.40567277,0.40567277 0 0 1 -0.01786,0.03925 h 4.05e-4 v 4.06e-4 l -4.05e-4,3.85e-4 c -3.04e-4,0.0015 -0.0015,0.0054 -0.0038,0.01027 -0.0023,0.0084 -0.0046,0.02146 -0.0054,0.03963 -0.0023,0.06255 0.0054,0.162976 -0.02967,0.293926 0.01272,0.239318 -0.09885,0.377174 -0.169147,0.496342 -0.02875,0.336102 -0.211668,0.526613 -0.26065,0.610827 l -0.0031,0.0061 c -0.05887,0.13709 -0.128374,0.268645 -0.206378,0.399695 -0.08373,0.213117 -0.201535,0.365806 -0.29789,0.499907 -0.0015,0.0023 -0.0046,0.0054 -0.0061,0.0079 -0.113879,0.211339 -0.247918,0.354339 -0.344228,0.474557 l -4.05e-4,4.06e-4 c -7.71e-4,0.0015 -0.0023,0.0031 -0.0031,0.0038 l -0.0031,0.0046 c -0.04415,0.06301 -0.08141,0.203864 -0.224608,0.387806 -0.08615,0.228011 -0.234587,0.378255 -0.361659,0.501102 -0.109379,0.213937 -0.271581,0.341614 -0.405636,0.44762 -0.102878,0.156975 -0.23921,0.289304 -0.400484,0.408403 -0.102021,0.166035 -0.233576,0.214635 -0.342649,0.276105 -0.133311,0.07512 -0.266545,0.134384 -0.351763,0.17984 -0.206746,0.110276 -0.394314,0.202431 -0.480896,0.266591 -0.188088,0.139321 -0.370911,0.265955 -0.537145,0.396522 a 0.40567277,0.40567277 0 0 1 -0.01503,0.01073 c -0.191229,0.136284 -0.363343,0.252309 -0.519719,0.381856 a 0.40567277,0.40567277 0 0 1 -0.04316,0.03128 c -0.06983,0.04385 -0.190028,0.22164 -0.413164,0.42227 -0.180844,0.230969 -0.381121,0.358922 -0.512186,0.474556 -0.241947,0.249697 -0.453592,0.314133 -0.535957,0.392168 a 0.40567277,0.40567277 0 0 1 -0.125968,0.08081 c -0.0054,0.0023 -0.164494,0.181895 -0.386227,0.401274 a 0.40567277,0.40567277 0 0 1 -0.01027,0.01188 c -0.147876,0.135388 -0.298871,0.294295 -0.456729,0.456735 a 0.40567277,0.40567277 0 0 1 -0.0031,0.0031 c -0.190779,0.191837 -0.355535,0.301462 -0.462676,0.415931 a 0.40567277,0.40567277 0 0 1 -0.07328,0.06178 c -0.05609,0.0371 -0.186312,0.216742 -0.369587,0.420683 -0.126565,0.140847 -0.250105,0.303723 -0.393749,0.469804 l 0.01624,-0.02215 c -0.161428,0.214964 -0.324352,0.343614 -0.414744,0.451982 a 0.40567277,0.40567277 0 0 1 -0.03288,0.03603 c -0.05253,0.04929 -0.130018,0.218091 -0.30066,0.430986 -0.0904,0.158499 -0.188123,0.296594 -0.277289,0.411967 -0.06914,0.144166 -0.143044,0.284544 -0.235695,0.417518 -0.100158,0.272754 -0.284343,0.39587 -0.320862,0.430595 -0.0016,0.0061 -0.0048,0.01771 -0.0095,0.03963 -0.0089,0.04093 -0.02148,0.117229 -0.061,0.205988 -0.02416,0.167714 -0.119036,0.290239 -0.181426,0.361667 -0.06077,0.0696 -0.112536,0.121606 -0.134286,0.142601 -0.108576,0.196467 -0.233185,0.276449 -0.2353,0.27927 a 0.40567277,0.40567277 0 0 1 -0.0511,0.0555 c -0.01384,0.01272 -0.05603,0.0776 -0.134682,0.185781 a 0.40567277,0.40567277 0 0 1 -0.01347,0.01786 c -0.02238,0.02752 -0.04608,0.06439 -0.06893,0.09745 l 0.381866,0.134683 0.398107,0.1121 a 0.40567277,0.40567277 0 0 1 0.02694,0.0091 l 0.429797,0.155679 0.510607,0.178254 0.323239,0.106159 a 0.40567277,0.40567277 0 0 1 0.03882,0.01664 l 0.427024,0.19291 0.249956,0.04791 c 7.67e-4,-0.02905 -0.0019,-0.06592 -0.0016,-0.09269 a 0.40567277,0.40567277 0 0 1 0.0016,-0.02852 c 0.0054,-0.06815 0.0038,-0.176023 0.01624,-0.309771 0.01426,-0.162907 0.05011,-0.265418 0.06299,-0.34146 a 0.40567277,0.40567277 0 0 1 0.01664,-0.0673 c 0.0067,-0.01916 0.02524,-0.149593 0.06418,-0.312945 a 0.40567277,0.40567277 0 0 1 0.0016,-0.01027 c 3.84e-4,-0.0015 0.02057,-0.114761 0.03605,-0.221833 0.01399,-0.09672 0.0236,-0.189307 0.05269,-0.297092 0.01134,-0.0953 0.03647,-0.180423 0.103785,-0.286008 -0.0054,0.0077 -0.01614,0.01786 -0.01743,0.02177 a 0.40567277,0.40567277 0 0 1 0,-0.0046 c 0.01649,-0.04714 0.05341,-0.207076 0.103389,-0.365223 0.02217,-0.150965 0.08705,-0.280612 0.136267,-0.357704 0.04919,-0.07708 0.0719,-0.106535 0.07804,-0.120026 a 0.40567277,0.40567277 0 0 1 0.02694,-0.04638 c 0.098,-0.15318 0.190687,-0.271681 0.242429,-0.368396 a 0.40567277,0.40567277 0 0 1 0.08398,-0.106559 c -6.49e-4,4.87e-4 -0.0011,7.71e-4 -0.0016,0.0015 h -4.06e-4 -4.06e-4 -4.05e-4 -4.06e-4 -4.06e-4 l -4.05e-4,-4.06e-4 v -4.06e-4 h -4.06e-4 v -3.85e-4 l -4.06e-4,-4.06e-4 c -0.0045,-0.01702 0.03898,-0.137419 0.155678,-0.33591 0.07098,-0.144871 0.15538,-0.293306 0.245595,-0.434159 0.0809,-0.168274 0.177043,-0.322872 0.277293,-0.467428 0.0015,-0.0031 0.0031,-0.0031 0.0046,-0.0061 0.09798,-0.20726 0.205789,-0.33759 0.301056,-0.455148 0.176337,-0.312147 0.415624,-0.424125 0.46545,-0.479317 a 0.40567277,0.40567277 0 0 1 0.06891,-0.0614 c 0.0988,-0.06845 0.154958,-0.1739 0.332346,-0.35453 a 0.40567277,0.40567277 0 0 1 0.01073,-0.01066 c 0.16894,-0.160071 0.329679,-0.277928 0.455155,-0.395333 a 0.40567277,0.40567277 0 0 1 0.05389,-0.04316 c 0.189875,-0.125477 0.406993,-0.256212 0.514961,-0.350575 a 0.40567277,0.40567277 0 0 1 0.118049,-0.07167 c 0.04162,-0.0164 0.03143,-0.0089 0.06615,-0.05665 0.03082,-0.04231 0.09815,-0.149631 0.207965,-0.256297 0.189829,-0.222629 0.394046,-0.346949 0.531596,-0.453561 v -3.99e-4 h 4.05e-4 c 5.28e-4,-2.46e-4 0.0015,-5.6e-4 0.0023,-7.67e-4 h 3.86e-4 v -3.99e-4 h 4.05e-4 l 4.06e-4,-4e-4 c 7.71e-4,-7.67e-4 0.0023,-0.0031 0.0038,-0.0038 v -3.91e-4 h 3.86e-4 c 0.202377,-0.165499 0.41245,-0.290699 0.580724,-0.408802 a 0.40567277,0.40567277 0 0 1 0.02576,-0.01663 c 0.207555,-0.123187 0.404259,-0.237196 0.585135,-0.356104 0.232043,-0.152536 0.509573,-0.283815 0.705503,-0.395333 0.242031,-0.137765 0.464959,-0.195908 0.511796,-0.226186 a 0.40567277,0.40567277 0 0 1 0.127155,-0.05389 c 0.118287,-0.0279 0.119605,-0.05726 0.290753,-0.181029 a 0.40567277,0.40567277 0 0 1 0.07923,-0.04515 c 0.152214,-0.06516 0.290837,-0.142701 0.378692,-0.213913 a 0.40567277,0.40567277 0 0 1 0.121613,-0.06776 c 0.0023,-0.0031 0.0054,-0.0089 0.01188,-0.0174 0.02208,-0.03051 0.08502,-0.118724 0.163207,-0.205198 0.105837,-0.140149 0.226094,-0.221848 0.312936,-0.276886 0.0917,-0.05811 0.151847,-0.101147 0.155679,-0.10498 a 0.40567277,0.40567277 0 0 1 0.08319,-0.06416 c 0.0023,-0.0046 0.0077,-0.01487 0.01702,-0.03449 0.01848,-0.0384 0.07459,-0.136024 0.131916,-0.226186 0.09873,-0.221878 0.237845,-0.369639 0.303823,-0.444063 0.134414,-0.2401 0.293497,-0.346972 0.330766,-0.397312 a 0.40567277,0.40567277 0 0 1 0.02261,-0.02851 c 0.148527,-0.166986 0.290829,-0.293628 0.330767,-0.353342 a 0.40567277,0.40567277 0 0 1 0.09428,-0.100219 c 0.01763,-0.01311 0.009,-7.71e-4 0.02576,-0.03886 0.01579,-0.03603 0.04323,-0.128421 0.110514,-0.244408 0.100955,-0.192228 0.201396,-0.317636 0.255898,-0.417517 a 0.40567277,0.40567277 0 0 1 0.01625,-0.02737 h -4.05e-4 v -3.86e-4 c 5.47e-4,-0.0077 0.03304,-0.08454 0.0578,-0.174298 0.02445,-0.08878 0.045,-0.188487 0.09388,-0.305018 0.02599,-0.142893 0.07968,-0.270562 0.137857,-0.350966 0.03587,-0.0496 0.0499,-0.06761 0.05389,-0.07091 h 3.86e-4 l 4.05e-4,-4.06e-4 h 4.06e-4 3.85e-4 v 4.06e-4 4.06e-4 c -4.66e-4,0.0023 -0.0038,0.0083 -0.0061,0.01387 v 0.0031 c 0.08407,-0.192397 0.16651,-0.3192 0.208364,-0.425045 a 0.40567277,0.40567277 0 0 1 0.02974,-0.0614 c 0.05358,-0.08814 0.107042,-0.22427 0.16162,-0.381865 a 0.40567277,0.40567277 0 0 1 0.02415,-0.05826 c 0.0046,-0.0082 0.03266,-0.187399 0.09745,-0.4111784 0.03871,-0.247129 0.123131,-0.383307 0.142203,-0.457133 a 0.40567277,0.40567277 0 0 1 0.01027,-0.03327 c 0.03327,-0.09426 0.05895,-0.254648 0.09744,-0.434151 0.04484,-0.222906 0.108275,-0.350184 0.123989,-0.4401 a 0.40567277,0.40567277 0 0 1 0.02852,-0.09269 c 0.04078,-0.09304 0.08675,-0.263647 0.103385,-0.389393 a 0.40567277,0.40567277 0 0 1 0.03963,-0.127155 c -0.0031,0.0061 -0.0046,0.01004 -0.0061,0.01111 h -4.05e-4 v 4.06e-4 h -4.06e-4 v -4.06e-4 -4.05e-4 c -5.47e-4,-0.0054 0.0038,-0.03289 0.0015,-0.07962 -0.0031,-0.06224 -0.0125,-0.161428 -0.0079,-0.28006 -0.01165,-0.251137 0.03572,-0.384341 0.03879,-0.436926 a 0.40567277,0.40567277 0 0 1 0.0031,-0.02852 c 0.02208,-0.174437 0.04638,-0.292386 0.04791,-0.40444 a 0.40567277,0.40567277 0 0 1 0.01503,-0.100227 c 0.0082,-0.03059 0.01487,-0.20808 0.01027,-0.377112 a 0.40567277,0.40567277 0 0 1 0.0046,-0.07206 c 0.02637,-0.174981 0.04653,-0.250348 0.0404,-0.336708 a 0.40567277,0.40567277 0 0 1 0.03012,-0.185782 c -0.01403,0.0335 -0.01916,0.0499 -0.02062,0.05305 h -4.06e-4 c -2.3e-5,-0.0046 0.0038,-0.03227 -0.0031,-0.07091 -0.01357,-0.07275 -0.04262,-0.174452 -0.05826,-0.305417 v 0.0077 c -0.02422,-0.175187 -0.04178,-0.341905 -0.0614,-0.462276 a 0.40567277,0.40567277 0 0 1 -0.0015,-0.0091 c -0.02491,-0.180201 -0.04737,-0.337137 -0.06891,-0.441679 a 0.40567277,0.40567277 0 0 1 -0.0046,-0.03013 c -0.02108,-0.161673 -0.03603,-0.152888 -0.07213,-0.294716 -0.05404,-0.197847 -0.05397,-0.309165 -0.07489,-0.378691 a 0.40567277,0.40567277 0 0 1 -0.01625,-0.0824 c -0.0015,-0.02085 -0.04507,-0.153724 -0.101806,-0.308583 a 0.40567277,0.40567277 0 0 1 -0.01073,-0.03449 c -0.0322,-0.120095 -0.116662,-0.400584 -0.143798,-0.462675 a 0.40567277,0.40567277 0 0 1 -0.02537,-0.08081 c -0.0054,-0.02453 -0.0092,-0.04216 -0.01226,-0.05427 -0.0128,-0.01863 -0.03327,-0.05197 -0.05389,-0.09388 a 0.40567277,0.40567277 0 0 1 -0.01625,-0.04201 c -0.01387,-0.0384 -0.09453,-0.179327 -0.170726,-0.309771 a 0.40567277,0.40567277 0 0 1 -0.0015,-0.0015 c -0.07612,-0.13226 -0.183589,-0.33079 -0.224599,-0.390581 a 0.40567277,0.40567277 0 0 1 -0.02376,-0.04201 c -0.08224,-0.157924 -0.08281,-0.152436 -0.137849,-0.223419 a 0.40567277,0.40567277 0 0 1 -0.03726,-0.05826 c -0.04339,-0.08121 -0.03656,-0.04185 -0.152904,-0.170734 -0.07627,-0.08443 -0.164601,-0.173938 -0.245603,-0.24837 a 0.40567277,0.40567277 0 0 1 -0.0031,-0.0015 C 27.03507,1.0301376 26.934807,0.93999463 26.861525,0.88487963 a 0.40567277,0.40567277 0 0 1 -0.01786,-0.01502 c -0.08066,-0.06861 -0.118884,-0.08593 -0.226186,-0.151317 -0.09194,-0.05596 -0.183336,-0.104972 -0.279669,-0.149738 a 0.40567277,0.40567277 0 0 1 0,-0.0015 c -0.09161,-0.04285 -0.192803,-0.08351 -0.293528,-0.116853 a 0.40567277,0.40567277 0 0 1 -0.0015,0 c -0.08731,-0.02928 -0.182018,-0.05397 -0.288776,-0.07643 0,-3.1e-5 -0.0015,3.1e-5 -0.0015,0 -0.02706,-0.0046 -0.07466,0.0023 -0.188947,-0.0038 -0.204685,0.04983 -0.265664,-0.02353 -0.336708,-0.04239 -0.06516,-0.01748 -0.119935,-0.02522 -0.124779,-0.02775 h -4.06e-4 v -4.05e-4 h 4.06e-4 c 2.84e-4,-5.4e-5 7.5e-4,-3.65e-4 0.0015,-4.06e-4 a 0.40567277,0.40567277 0 0 1 -0.116063,-0.01548 z m 0.13151,10.12182137 c 7.7e-4,-0.0031 0.0015,-0.0054 0.0023,-0.0069 a 0.40567277,0.40567277 0 0 1 -0.05466,0.07882 c 0.03105,-0.03472 0.04615,-0.05879 0.05266,-0.07167 z M 25.27658,9.9947046 c 0.0023,-0.0046 0.0038,-0.009 0.0054,-0.01265 a 0.40567277,0.40567277 0 0 1 -0.104573,0.07685 c 0.05312,-0.02683 0.08283,-0.04837 0.09903,-0.06416 z m 0.0054,-0.01265 a 0.40567277,0.40567277 0 0 0 0.01188,-0.01265 c 6.49e-4,-0.0023 7.71e-4,-0.0046 3.85e-4,-0.0061 l -3.85e-4,-4.05e-4 v -3.86e-4 l -4.06e-4,-4.05e-4 h -4.05e-4 v -4.06e-4 h -3.86e-4 -4.05e-4 -4.06e-4 l -4.06e-4,4.06e-4 v 4.05e-4 h -3.85e-4 v 3.86e-4 c -0.0015,0.0031 -0.0046,0.0094 -0.0091,0.01901 z M 11.641941,22.780474 c 9.8e-5,7.71e-4 3.04e-4,0.0023 3.85e-4,0.0031 0.02221,-0.01242 0.03292,-0.02384 0.03525,-0.02928 6.5e-5,-1.91e-4 3.65e-4,-7.7e-4 4.06e-4,-0.0015 v -4.06e-4 -3.85e-4 -4.06e-4 -4.05e-4 l -4.06e-4,-3.86e-4 h -3.85e-4 v -4.05e-4 h -4.06e-4 c -1.68e-4,7e-6 -9.94e-4,-3.1e-5 -0.0012,0 -0.0053,0.0015 -0.01768,0.01 -0.03367,0.02974 z m 3.85e-4,0.0031 h -3.85e-4 c -0.0015,7.7e-4 -0.0028,0.0015 -0.0044,0.0023 -0.01686,0.022 -0.03762,0.0558 -0.05981,0.10537 a 0.40567277,0.40567277 0 0 1 0.05665,-0.05703 c -0.0018,-0.0077 0.0095,-0.03741 0.0079,-0.05067 z M 15.855528,7.1215256 c -0.05878,0.05228 -0.127882,0.223373 -0.109331,0.326413 0.01104,0.06125 0.01883,0.05833 0.0301,0.07489 a 0.40567277,0.40567277 0 0 1 0.05387,-0.274127 0.40567277,0.40567277 0 0 1 0.02535,-0.127155 z M 12.35892,20.992289 c -0.0039,0.0083 -0.0085,0.0184 -0.01307,0.03212 a 0.40567277,0.40567277 0 0 1 0.01307,-0.03212 z m 2.436177,1.309599 c -9.2e-4,7.71e-4 -0.0018,0.0023 -0.0024,0.0031 a 0.40567277,0.40567277 0 0 1 -0.0016,0.0031 c 0.0015,-0.0023 0.0029,-0.0038 0.004,-0.0061 z m -3.014918,0.385821 c -0.03863,0.01748 -0.105502,0.07451 -0.133098,0.12993 -1.8e-4,3.86e-4 -3.05e-4,7.71e-4 -4.06e-4,0.0015 l -4.06e-4,4.05e-4 v 4.06e-4 3.85e-4 4.06e-4 a 0.40567277,0.40567277 0 0 1 0.133891,-0.132706 z m -0.03922,1.653037 a 0.40567277,0.40567277 0 0 1 -0.213909,0.07328 c 0.01487,0.0031 0.02322,-0.0023 0.03763,-0.0015 0.06054,-0.01364 0.128446,-0.02637 0.176276,-0.07167 z m 0.644101,0.02499 a 0.40567277,0.40567277 0 0 1 -0.02615,0.02376 c 0.01038,-0.0077 0.0192,-0.01533 0.02615,-0.02338 z m -0.93367,0.03449 c 0.0042,0.0023 0.0081,0.0046 0.0083,0.0054 1.91e-4,-1.91e-4 2.63e-4,-6.29e-4 4.05e-4,-7.7e-4 l 4.06e-4,-4.06e-4 4.06e-4,-3.85e-4 v -4.06e-4 c -0.0017,-7.71e-4 -0.0059,-0.0023 -0.0095,-0.0031 z m 0.02337,0.0079 a 0.40567277,0.40567277 0 0 1 -0.0031,0.0015 c 0.0011,5.47e-4 0.002,7.7e-4 0.0024,0.0015 h 4.05e-4 v 4.06e-4 c -3.24e-4,-8.5e-5 -6.49e-4,-1.54e-4 0.0064,0.0031 8.52e-4,2.84e-4 0.0017,3.86e-4 0.0024,4.06e-4 0.0018,-9.2e-5 0.0039,-6.9e-4 0.0055,-7.71e-4 4.26e-4,1.6e-5 0.0015,2.64e-4 0.002,3.86e-4 -0.0031,-0.0023 -0.01243,-0.0038 -0.01545,-0.0054 z m 0.03288,0.01188 -4.06e-4,4.06e-4 a 0.40567277,0.40567277 0 0 1 -0.04318,0.01464 0.40567277,0.40567277 0 0 1 -0.01069,0.0015 c 0.0035,3.85e-4 0.0061,5.27e-4 0.0044,4.05e-4 a 0.40567277,0.40567277 0 0 1 -0.03882,0.01349 c 0.02798,0.0031 0.03025,-0.0069 0.0511,-0.01027 v -3.85e-4 c 0.0011,-4.06e-4 0.0038,-5.28e-4 0.0051,-7.71e-4 l 4.06e-4,-3.85e-4 h 4.05e-4 4.06e-4 4.05e-4 4.06e-4 c 0.0014,-6.9e-5 0.0029,-4.87e-4 0.0064,0 0.0022,2.43e-4 0.0036,2.43e-4 0.004,3.85e-4 0.0024,-1.61e-4 0.0071,-1.84e-4 0.01703,-3.85e-4 0.0059,-1.53e-4 0.01486,-0.0084 0.021,-0.0091 h 4.06e-4 4.05e-4 4.06e-4 4.06e-4 4.05e-4 c 5.28e-4,-2.64e-4 0.0015,-7.71e-4 0.002,-0.0015 h 4.06e-4 v -4.06e-4 c -0.0047,-0.0031 -0.01679,-0.0046 -0.02139,-0.0069 h -4.05e-4 z m 0.806909,0.0015 v 4.05e-4 h 4.06e-4 v -4.05e-4 z m 0,4.05e-4 c -9.94e-4,6.09e-4 -0.0034,0.0015 -0.006,0.0038 -0.0053,0.0046 -0.03496,0.01993 -0.04872,0.03012 8.52e-4,3.1e-5 0.002,-3e-5 0.0028,0 h 4.06e-4 4.06e-4 4.05e-4 c 0.0333,-0.01924 0.04781,-0.03066 0.05071,-0.03365 z m -0.808494,0.0023 c -0.0018,0.0015 -0.01235,0.0069 -0.01307,0.0077 a 0.40567277,0.40567277 0 0 1 -0.0055,0.0015 c 0.0037,-0.0023 0.01738,-0.0084 0.01862,-0.0087 z m 0.03169,0.0054 a 0.40567277,0.40567277 0 0 1 -0.07923,0.02254 c -0.01947,0.02001 -0.02957,0.04408 -0.130326,0.07643 a 0.40567277,0.40567277 0 0 1 -0.03129,0.0077 c -0.0057,0.0015 -0.0107,0.0031 -0.01506,0.0038 -0.0124,0.0054 -0.01966,0.0078 -0.02139,0.0079 h -4.06e-4 v -4.06e-4 h 4.06e-4 c 0.0015,-7.7e-4 0.0084,-0.0038 0.02139,-0.0077 0.0098,-0.0046 0.02271,-0.01096 0.03882,-0.02024 a 0.40567277,0.40567277 0 0 1 -0.03446,0.01464 c -0.0236,0.01388 -0.09045,0.02445 -0.146566,0.0404 h -4.05e-4 v 4.06e-4 h -4.06e-4 v 3.85e-4 l -4.06e-4,4.06e-4 v 4.06e-4 h -4.05e-4 c -0.0023,7.7e-4 -0.0037,7.7e-4 -0.006,0.0015 a 0.40567277,0.40567277 0 0 1 -0.01664,0.01073 c -0.0023,7.71e-4 -0.0031,0.0015 -0.0036,0.0023 h -4.06e-4 c -4.06e-4,3.45e-4 -0.0013,0.0015 -0.0036,0.0023 l 0.06734,-0.01027 c -0.05949,0.02108 -0.05837,0.01472 -0.07923,0.01625 -0.02464,0.01518 -0.04396,0.03036 -0.06853,0.04277 l 0.02496,-0.0099 c -0.0292,0.01426 -0.05222,0.02284 -0.07645,0.03327 -0.01233,0.0069 -0.01716,0.0088 -0.01941,0.0091 h -4.06e-4 -4.06e-4 -4.05e-4 -4.06e-4 v -4.05e-4 h -4.06e-4 l -4.05e-4,-4.06e-4 -4.06e-4,-3.85e-4 v -4.06e-4 h -4.05e-4 -3.86e-4 c -0.0017,-5.27e-4 -0.0053,-5.27e-4 -0.01426,0.0031 h -4.05e-4 v 3.85e-4 h -4.06e-4 v -3.85e-4 h -4.06e-4 -4.05e-4 c -0.0038,0.0015 -0.0017,7.7e-4 -0.0048,0.0015 a 0.40567277,0.40567277 0 0 1 -0.0087,0.01073 0.40567277,0.40567277 0 0 1 -0.0031,0.0046 c -0.01602,0.0233 -0.0381,0.03825 -0.07328,0.06454 0.0012,-0.0023 0.0059,-0.0091 0.01149,-0.01549 -0.0079,0.0061 -0.01549,0.01181 -0.01902,0.01664 a 0.40567277,0.40567277 0 0 1 -0.02377,0.02737 c -0.01556,0.0087 -0.0051,0.01395 -0.02416,0.02215 -0.0074,0.0023 -0.01875,0.01019 -0.02258,0.01066 -0.03062,0.03128 -0.0519,0.06255 -0.08358,0.08755 l 0.05071,-0.02775 c -0.0074,0.0054 -0.03156,0.01771 -0.05387,0.03013 -0.0096,0.0077 -0.02039,0.01426 -0.03249,0.02024 -0.02939,0.02399 -0.0522,0.03649 -0.07764,0.05228 -0.0017,0.0015 -0.0049,0.0054 -0.01109,0.01112 -0.0087,0.0085 -0.03274,0.01709 -0.04516,0.02691 l -0.01188,0.0077 c -0.01395,0.0105 -0.0313,0.01702 -0.04793,0.02737 -0.0038,0.0023 -0.0029,0.0015 -0.006,0.0031 v 4.05e-4 3.86e-4 4.05e-4 4.06e-4 c -0.0023,0.0015 -0.0056,0.0015 -0.0079,0.0031 l -4.06e-4,4.05e-4 -4.05e-4,3.86e-4 v 4.05e-4 h -4.06e-4 l -4.06e-4,4.06e-4 a 0.40567277,0.40567277 0 0 1 -0.0012,0.0015 c -5.88e-4,3.45e-4 -9.93e-4,7.71e-4 -0.0016,0.0015 l 0.0087,-0.0046 c -0.01027,0.01878 -0.01795,0.03963 -0.06418,0.09111 a 0.40567277,0.40567277 0 0 1 -0.0091,0.01066 c -0.03261,0.03396 -0.04293,0.04538 -0.03882,0.03963 a 0.40567277,0.40567277 0 0 1 -0.02535,0.03051 c -0.0097,0.01058 -0.01705,0.01901 -0.02258,0.02491 a 0.40567277,0.40567277 0 0 1 -0.02852,0.03802 l -4.06e-4,4.06e-4 c -0.0012,0.0023 -0.01131,0.01755 -0.01584,0.02652 a 0.40567277,0.40567277 0 0 1 -0.04674,0.06738 c -0.01487,0.01794 -0.01558,0.02077 -0.01941,0.02691 a 0.40567277,0.40567277 0 0 1 -0.03605,0.05389 c 0.0044,-0.0054 -0.01506,0.02284 -0.0507,0.07328 a 0.40567277,0.40567277 0 0 1 -0.0091,0.01188 c -0.02622,0.03426 -0.03781,0.04975 -0.04318,0.05864 a 0.40567277,0.40567277 0 0 1 -0.01505,0.02376 c -0.01236,0.02376 -0.03479,0.05765 -0.06694,0.09309 l 0.0071,-0.0061 c -0.05973,0.08408 -0.09923,0.125776 -0.109331,0.129931 -1.92e-4,5.3e-5 -9.94e-4,3.85e-4 -0.0012,4.05e-4 h -4.05e-4 -4.06e-4 v -4.05e-4 h -4.06e-4 v -4.06e-4 -3.85e-4 c 7.4e-5,-0.0015 0.0017,-0.0061 0.0048,-0.0115 -0.0086,0.01226 -0.01865,0.02606 -0.02931,0.04078 -0.0055,0.0083 -0.0079,0.01111 -0.0095,0.01226 l -4.05e-4,3.85e-4 c -0.0021,7.71e-4 -0.0039,1.61e-4 -0.01268,0.0099 9.12e-4,-0.0054 0.0046,-0.01564 0.0087,-0.02614 -0.0036,0.0046 -0.0066,0.0083 -0.0071,0.01111 a 0.40567277,0.40567277 0 0 1 -0.0091,0.02261 c -0.01702,0.01709 -0.01105,0.01525 -0.02377,0.02537 -0.01433,0.04354 -0.028,0.09376 -0.05665,0.14221 l 0.02218,-0.021 c -0.05172,0.08352 -0.08646,0.108567 -0.106162,0.125967 -0.01058,0.01732 -0.02203,0.03495 -0.03169,0.05067 l -0.006,0.01066 c -0.01487,0.02599 -0.03048,0.05205 -0.04635,0.07923 l -0.0048,0.0091 c 0.0047,-0.0061 -0.02762,0.05243 -0.0717,0.116861 -0.0073,0.0102 -0.0089,0.01487 -0.01506,0.021 a 0.40567277,0.40567277 0 0 1 -0.0048,0.01188 0.40567277,0.40567277 0 0 1 -0.0028,0.0087 c -0.0026,0.0054 -0.0042,0.0077 -0.0048,0.0079 v 4.06e-4 a 0.40567277,0.40567277 0 0 1 -0.02535,0.082 c 0.0063,-0.01257 0.01062,-0.02185 0.01347,-0.02813 0.0016,-0.0046 0.0031,-0.0077 0.004,-0.0095 -7.1e-4,0.0015 -0.0019,0.0054 -0.004,0.0095 -9.94e-4,0.0031 -0.0019,0.0061 -0.0028,0.0099 -0.0061,0.02476 -0.0075,0.06048 -0.05387,0.151317 -0.01288,0.02698 -0.02511,0.05512 -0.03922,0.08398 l -0.0044,0.0077 h 4.05e-4 c 9.13e-4,0.0046 -0.0069,0.04438 -0.05506,0.119635 -0.01594,0.03365 -0.0261,0.05144 -0.02931,0.05542 l -4.05e-4,4.06e-4 -4.06e-4,4.05e-4 h -4.06e-4 v -4.05e-4 c 1.37e-4,-6.09e-4 5.48e-4,-0.0015 0.0012,-0.0031 0.01326,-0.03135 -0.037,0.06608 -0.07487,0.139037 a 0.40567277,0.40567277 0 0 1 -0.0031,0.01502 v 0.0015 a 0.40567277,0.40567277 0 0 1 -0.0031,0.01027 c 0.0043,-0.01096 0.0076,-0.01893 0.0095,-0.02453 -9.94e-4,0.0038 -0.0021,0.0088 -0.0031,0.01426 -0.0048,0.02507 -0.0029,0.06692 -0.04476,0.146963 -0.01414,0.03618 -0.02367,0.05489 -0.02694,0.05864 v 3.85e-4 H 9.09992 v 4.06e-4 h -4.06e-4 l -4.05e-4,-4.06e-4 v -3.85e-4 c 1.7e-5,-2.03e-4 -3.9e-5,-7.71e-4 0,-0.0015 -0.01145,0.0325 -0.01618,0.04645 -0.01743,0.04875 v 3.85e-4 h -4.06e-4 v -3.85e-4 c 1.7e-5,-7.71e-4 8.52e-4,-0.0031 0.0016,-0.0069 a 0.40567277,0.40567277 0 0 1 -0.01109,0.04001 c -0.0021,0.0061 -0.0037,0.01058 -0.0048,0.01387 a 0.40567277,0.40567277 0 0 1 -0.0103,0.04316 c -0.0016,0.02238 -0.046,0.07635 -0.05704,0.116861 a 0.40567277,0.40567277 0 0 1 -0.0091,0.06738 l 7.71e-4,-7.7e-4 c 0.0044,-0.01525 0.0077,-0.02392 0.0095,-0.02652 l 4.06e-4,-4.06e-4 v -3.85e-4 h 4.05e-4 4.06e-4 l 4.06e-4,3.85e-4 v 4.06e-4 c 2.23e-4,0.0015 1.32e-4,0.0054 -4.06e-4,0.0099 l 0.02773,-0.04239 c -0.01162,0.03902 -0.01767,0.03771 -0.02852,0.04875 -0.0031,0.02077 -0.01119,0.05987 -0.02535,0.114477 -0.01334,0.05128 -0.02674,0.08825 -0.03288,0.109334 -0.02323,0.07696 -0.01611,0.05327 -0.01228,0.01786 a 0.40567277,0.40567277 0 0 1 -0.0087,0.05113 c 3.04e-4,-0.0015 -0.0038,0.03197 -0.01228,0.08081 a 0.40567277,0.40567277 0 0 1 -0.0028,0.01188 c -0.0032,0.01587 -0.0082,0.04822 -0.01506,0.08834 l -0.0016,0.0061 c -0.0061,0.03511 -0.0069,0.0276 -0.0075,0.03925 a 0.40567277,0.40567277 0 0 1 -0.0031,0.02813 c -0.0017,0.0138 -0.003,0.02384 -0.004,0.03051 a 0.40567277,0.40567277 0 0 1 -0.0016,0.05028 c 2.64e-4,-0.0023 5.68e-4,-0.0031 7.71e-4,-0.0038 h 4.05e-4 c 0.0017,0.0061 0.0021,0.05956 -0.0031,0.131518 a 0.40567277,0.40567277 0 0 1 0,0.0015 c 1.53e-4,-0.0023 -7.51e-4,0.05649 -0.01347,0.139037 -0.0019,0.01004 7.1e-4,0.0093 -0.0016,0.01786 v 0.0061 a 0.40567277,0.40567277 0 0 1 -0.0016,0.0099 v 4.06e-4 c 9.13e-4,0.0023 0.0066,0.06439 -0.0064,0.172313 v 0.01066 c 0.0014,0.01947 0.0055,0.0417 -0.0036,0.09745 -0.0016,0.04208 -0.0045,0.0627 -0.0064,0.06692 v 4.05e-4 3.86e-4 h -4.05e-4 -4.06e-4 v -3.86e-4 c -4.66e-4,-0.0015 -0.0011,-0.0046 -0.0012,-0.0091 a 0.40567277,0.40567277 0 0 1 0,0.01027 c 0,0.0256 9.94e-4,0.02913 0.0016,0.08398 a 0.40567277,0.40567277 0 0 1 0,0.0031 c 0,0.03396 8.51e-4,0.07137 0.0016,0.1121 a 0.40567277,0.40567277 0 0 1 0,0.0046 c 7.71e-4,0.03871 0.0016,0.0768 0.0031,0.10616 5.28e-4,0.0046 0.0016,0.02108 0.0044,0.04477 0.0038,0.03258 0.0262,0.07543 0,0.177066 -0.0023,0.02453 -0.0059,0.04032 -0.0075,0.05067 0.0033,0.02668 0.01023,0.0522 0.0044,0.11844 0.0017,0.04247 8.5e-5,0.06761 4.06e-4,0.07604 0,0.01096 -7.1e-4,0.02591 0.0016,0.03764 a 0.40567277,0.40567277 0 0 1 0.0044,0.02691 c -0.0012,-0.0115 -0.0015,-0.01755 -0.0016,-0.01901 4.46e-4,0.0015 0.003,0.01786 0.0079,0.04116 0.0067,0.03051 0.02232,0.07451 0.01545,0.156469 0.0019,0.03725 0.0011,0.06776 0,0.09665 6.49e-4,0.01403 0.0038,0.04323 0.0044,0.04791 a 0.40567277,0.40567277 0 0 1 0.0016,0.0031 c 0.0026,0.01656 0.01093,0.05696 0.01783,0.103385 l 0.0031,0.02062 c 0.0023,0.01748 0.0056,0.03741 0.0064,0.04201 a 0.40567277,0.40567277 0 0 1 0.0044,0.02261 c 0.0015,0.0023 0.01576,0.03771 0.02852,0.125568 0.0048,0.02231 0.01067,0.05105 0.01624,0.07962 v 4.06e-4 3.85e-4 4.06e-4 4.05e-4 l 0.0079,0.03449 c 0.0037,0.01702 0.01035,0.04063 0.01188,0.04753 0.0072,0.02162 0.01241,0.04116 0.01624,0.06017 l 0.0079,0.02813 c 0.01119,0.04178 0.02075,0.08247 0.02535,0.09903 l 0.0048,0.01349 c 0.0058,0.01901 0.01042,0.03457 0.01584,0.05113 h 4.06e-4 v 4.06e-4 c 9.12e-4,0.0015 0.0048,0.0097 0.01228,0.02614 0.01272,0.02752 0.04284,0.07405 0.04991,0.16083 0.0041,0.01663 0.0051,0.02553 0.0044,0.02852 v 3.86e-4 h -4.06e-4 v 4.05e-4 4.06e-4 h -4.05e-4 -4.06e-4 v -4.06e-4 h -4.06e-4 l -4.05e-4,-4.05e-4 c -1.97e-4,-2.64e-4 -5.88e-4,-7.71e-4 -7.71e-4,-0.0015 5e-6,2.44e-4 -4e-6,5.48e-4 0,7.71e-4 0.0035,0.01066 0.0093,0.02905 0.01149,0.03404 l 0.0016,0.0015 c -0.0035,-0.0081 0.01291,0.02882 0.02654,0.06025 v 3.85e-4 4.06e-4 c 0.0018,0.0031 0.01275,0.02422 0.02575,0.0499 0.01437,0.02836 0.04617,0.03856 0.05902,0.146564 0.0075,0.01196 0.01667,0.02491 0.02773,0.04515 0.0023,0.0031 0.0052,0.01794 0.0075,0.021 0.01318,0.023 0.02268,0.03626 0.02575,0.04316 0.0026,0.0031 0.0021,0.0038 0.01188,0.01663 0.0025,0.0031 0.0061,0.0091 0.0103,0.01702 0.0035,0.0038 0.01039,0.01219 0.02218,0.02537 l 4.05e-4,4.05e-4 c 0.0029,0.0046 0.0066,0.02277 0.01069,0.03365 l -0.02297,-0.04477 c -0.0037,-0.0046 -0.0065,-0.0087 -0.0087,-0.0115 0.01162,0.02169 0.0276,0.05442 0.0404,0.07566 0.003,0.0038 0.0063,0.0069 0.0095,0.01112 l -0.0079,-0.02453 c 0.04596,0.0532 0.06634,0.08424 0.06774,0.0915 v 4.06e-4 4.05e-4 3.86e-4 4.05e-4 h -3.86e-4 -4.05e-4 c 0.01389,0.0128 0.02369,0.02215 0.03209,0.02974 -0.0016,-0.0015 0.0083,0.0069 0.0075,0.0061 l 0.0024,0.0023 h 4.05e-4 c 0.0034,7.7e-4 0.02069,0.01196 0.04714,0.03564 0.01049,0.0077 0.02366,0.01694 0.03684,0.02652 0.0089,0.0061 0.01755,0.01334 0.02734,0.021 0.01053,0.0061 0.01742,0.0098 0.02139,0.01188 -0.003,-0.0015 -0.0078,-0.0038 -0.01426,-0.0061 0.0018,0.0015 0.0042,0.0046 0.0048,0.0054 a 0.40567277,0.40567277 0 0 1 0.0048,0.0015 c -0.0029,-0.0015 -0.0049,-0.0031 -0.0055,-0.0031 0.0028,7.7e-4 0.01619,0.0061 0.04714,0.01939 a 0.40567277,0.40567277 0 0 1 0.0031,0.0015 c 0.01227,0.0054 0.05439,0.02108 0.05387,0.021 0.02324,0.0061 0.05384,0.0184 0.08556,0.03128 h 4.06e-4 4.06e-4 c 0.0027,-1.15e-4 0.0092,0.0015 0.01822,0.0046 0.05118,0.01111 0.07828,0.02491 0.110519,0.0384 v 3.86e-4 c 0.0021,7.7e-4 0.01585,0.0031 0.01941,0.0046 h 4.06e-4 4.06e-4 c 0.0034,3.44e-4 0.0052,7.7e-4 0.006,0.0015 h 4.05e-4 v 3.85e-4 l -4.05e-4,4.06e-4 c -0.0021,4.06e-4 -0.0071,6.29e-4 -0.0083,7.71e-4 5.27e-4,4.5e-5 0.0017,3.65e-4 0.0036,4.05e-4 0.0012,6.29e-4 0.0035,0.0015 0.0051,0.0023 a 0.40567277,0.40567277 0 0 1 0,-7.71e-4 h 4.06e-4 4.06e-4 l 3.85e-4,-4.05e-4 h 4.06e-4 v 4.05e-4 h 4.05e-4 c 7.71e-4,4.47e-4 0.0022,7.71e-4 0.0028,0.0015 h -0.0036 -3.86e-4 -4.05e-4 -4.06e-4 -4.06e-4 c -9.93e-4,7.71e-4 -0.0064,0.0031 -0.01149,0.0054 4.66e-4,-6.9e-5 0.0012,7.7e-5 0.0016,0 l 4.06e-4,-4.05e-4 h 4.05e-4 a 0.40567277,0.40567277 0 0 1 0.0103,-0.0031 c 4.26e-4,1.31e-4 0.0016,5.48e-4 0.0024,7.71e-4 h 4.06e-4 l 4.06e-4,4.06e-4 c 6.69e-4,-3.86e-4 0.0012,-7.71e-4 0.0016,-0.0015 h 4.06e-4 c 5.47e-4,-2.3e-5 0.0015,1.6e-5 0.002,0 h 4.06e-4 4.05e-4 c 0.02797,-0.01219 0.0693,-0.0279 0.118046,-0.03764 l -0.01584,4.06e-4 c 0.08335,-0.0197 0.128513,-0.0266 0.136268,-0.02499 h 4.05e-4 4.06e-4 v 4.06e-4 h 4.06e-4 v 4.06e-4 l -4.06e-4,3.85e-4 c -0.0035,0.0023 -0.01841,0.0081 -0.04357,0.01464 0.0025,-4.6e-5 0.0051,8e-6 0.0075,0 0.02885,-0.0098 0.06569,-0.01556 0.106558,-0.02215 h 0.0016 c 0.03409,-0.0054 0.04074,-0.02438 0.08398,-0.01978 0.02683,0.0031 0.03377,0.02652 0.05744,0.03565 h 3.85e-4 v -4.06e-4 c 0.0033,-0.0023 0.01818,-0.008 0.05268,-0.01863 0.03465,-0.01104 0.05627,-0.01748 0.05704,-0.01778 a 0.40567277,0.40567277 0 0 1 0.01188,-0.0046 c 0.01326,-0.0046 0.03333,-0.01388 0.06575,-0.02691 0.03112,-0.0125 0.05173,-0.0207 0.05863,-0.02376 a 0.40567277,0.40567277 0 0 1 0.0087,-0.0046 c 0.01863,-0.0084 0.0081,-0.0031 0.021,-0.0077 0.01717,-0.01855 0.01519,-0.02622 0.04516,-0.04791 0.02609,-0.01855 0.06863,-0.01142 0.104578,-0.02415 h 4.06e-4 4.05e-4 l 4.06e-4,4.05e-4 h 4.05e-4 V 31.6725 c 0.0028,-7.71e-4 0.0061,-4.26e-4 0.0091,-0.0015 a 0.40567277,0.40567277 0 0 1 0.01782,-0.01824 h -0.0012 l -0.06575,0.01066 c 0.05859,-0.03151 0.0496,-0.0141 0.08517,-0.021 0.02629,-0.02583 0.04431,-0.05036 0.113688,-0.07962 0.0015,-0.0015 0.0048,-0.0031 0.0064,-0.0046 9.94e-4,-7.71e-4 8.52e-4,-7.71e-4 0.0016,-0.0015 1.76e-4,1.6e-5 9.94e-4,0 0.0012,0 a 0.40567277,0.40567277 0 0 1 0.0016,-0.0015 c 7.71e-4,-7.71e-4 0.0012,-7.71e-4 0.0016,-0.0015 0.0244,-0.02637 0.0402,-0.0486 0.08834,-0.07764 v -4.05e-4 c -7.5e-4,-0.0069 0.01168,-0.03626 0.101012,-0.07252 0.02266,-0.01479 0.03635,-0.02208 0.0408,-0.02338 l 4.05e-4,-4.05e-4 h 4.06e-4 4.06e-4 4.05e-4 v 4.05e-4 3.86e-4 c 0.01145,-0.0087 0.02336,-0.01709 0.0309,-0.02254 0.0046,-0.0046 0.0111,-0.01135 0.01902,-0.01978 0.0221,-0.02369 0.06264,-0.07658 0.147755,-0.115672 0.01969,-0.01234 0.02953,-0.01503 0.03328,-0.01587 0.0186,-0.01556 0.03954,-0.03357 0.05229,-0.04438 0.02452,-0.02346 0.0374,-0.03572 0.0404,-0.03764 h 4.05e-4 v -3.85e-4 h 4.06e-4 v 3.85e-4 h -4.06e-4 c -6.69e-4,0.0015 -0.0039,0.0061 -0.0099,0.01387 a 0.40567277,0.40567277 0 0 1 0.02456,-0.02775 c -0.0017,0.0015 0.02154,-0.0276 0.06615,-0.07367 0.01503,-0.01571 0.03929,-0.04093 0.06734,-0.07014 0.0033,-0.0038 0.04152,-0.04454 0.07487,-0.07922 0.01966,-0.02292 0.03463,-0.04162 0.03843,-0.04438 l 4.06e-4,-4.05e-4 h 4.06e-4 v 4.05e-4 c -8.52e-4,0.0031 -0.0057,0.01158 -0.01545,0.02775 a 0.40567277,0.40567277 0 0 1 0.03605,-0.04952 c 0.02783,-0.03357 0.02738,-0.02943 0.03605,-0.03725 3.45e-4,-7.71e-4 8.52e-4,-0.0031 0.0012,-0.0038 0.0032,-0.0031 0.01649,-0.01824 0.01664,-0.01786 a 0.40567277,0.40567277 0 0 1 0.01188,-0.03289 c -0.01611,0.02031 -0.02142,0.02974 -0.02416,0.03725 0.0093,-0.02706 0.02553,-0.06654 0.06457,-0.118839 0.01377,-0.01886 0.02278,-0.03281 0.02813,-0.04162 0.0032,-0.0069 0.0057,-0.01066 0.0064,-0.0115 -2.64e-4,7.71e-4 -0.0022,0.0046 -0.0064,0.0115 -0.0074,0.01548 -0.02009,0.04622 -0.03249,0.09229 a 0.40567277,0.40567277 0 0 1 0.06299,-0.13072 0.40567277,0.40567277 0 0 0 4.06e-4,-4.06e-4 c 6.89e-4,-0.0015 0.0027,-0.0046 0.0055,-0.01226 a 0.40567277,0.40567277 0 0 1 0.04635,-0.08398 c 0.0068,-0.0094 0.01046,-0.01479 0.01228,-0.01778 1.27e-4,-2.84e-4 2.84e-4,-5.68e-4 4.06e-4,-7.71e-4 2.84e-4,-4.66e-4 2.23e-4,-7.7e-4 4.06e-4,-0.0015 1.88e-4,-3.86e-4 3.04e-4,-6.49e-4 4.05e-4,-7.71e-4 a 0.40567277,0.40567277 0 0 1 0.03882,-0.07206 c -0.0057,0.0084 -0.0097,0.01326 -0.01188,0.01502 l -4.05e-4,4.05e-4 h -4.06e-4 -4.05e-4 v 4.06e-4 h -4.06e-4 v -4.06e-4 h -4.06e-4 v -4.05e-4 -3.86e-4 c 0.0018,-0.01019 0.03351,-0.06776 0.09467,-0.14221 0.0018,-0.0015 0.01634,-0.02208 0.01941,-0.02499 h 3.86e-4 c -7.5e-5,2.84e-4 -1.32e-4,7.71e-4 -3.86e-4,0.0015 a 0.40567277,0.40567277 0 0 1 0.01505,-0.02737 c 0.0071,-0.01088 0.02488,-0.04354 0.05546,-0.09269 -0.0015,0.0023 -0.0029,0.0038 -0.0036,0.0046 0.0014,-0.0038 0.0081,-0.01763 0.01862,-0.03764 0.01282,-0.02438 0.02627,-0.06186 0.07408,-0.114086 0.0203,-0.03104 0.03266,-0.04638 0.03644,-0.04875 l 4.06e-4,-4.05e-4 h 4.06e-4 4.05e-4 v 4.05e-4 c -2e-5,1.77e-4 6.1e-5,7.71e-4 0,0.0015 -4.05e-4,7.7e-4 -0.0013,0.0031 -0.0024,0.0054 0.01209,-0.02139 0.02917,-0.05243 0.0515,-0.08913 h -4.05e-4 v -4.05e-4 c 4.66e-4,-0.0023 0.0043,-0.01165 0.01466,-0.03365 0.0154,-0.03289 0.01656,-0.09424 0.12161,-0.175088 a 0.40567277,0.40567277 0 0 1 0.0206,-0.0555 c -0.01679,0.03358 -0.01098,0.02675 -0.0028,0 0.0073,-0.02376 0.01105,-0.06447 0.05823,-0.139834 0.01866,-0.03695 0.03357,-0.0627 0.04318,-0.08041 0.01383,-0.03028 0.02037,-0.04477 0.02218,-0.04714 l 4.06e-4,-3.86e-4 h 4.05e-4 v 3.86e-4 c -2.83e-4,0.0023 -0.003,0.01165 -0.0067,0.02499 a 0.40567277,0.40567277 0 0 1 0.01822,-0.05113 c 0.0077,-0.01748 0.0124,-0.02844 0.01466,-0.03404 a 0.40567277,0.40567277 0 0 1 0.02139,-0.06339 c 0.01853,-0.04354 0.02766,-0.06033 0.0301,-0.06301 l 4.06e-4,-4.06e-4 a 0.40567277,0.40567277 0 0 1 0.0012,-0.0023 0.40567277,0.40567277 0 0 1 0.0012,-0.01824 0.40567277,0.40567277 0 0 1 0.0091,-0.101016 0.40567277,0.40567277 0 0 1 0.02139,-0.115665 0.40567277,0.40567277 0 0 1 0.02179,-0.114086 c -0.01089,0.03074 -0.01836,0.04776 -0.02179,0.05151 l -4.06e-4,4.06e-4 v 3.85e-4 h -4.05e-4 -4.06e-4 -4.06e-4 v -3.85e-4 l -4.05e-4,-4.06e-4 c -0.0012,-0.0087 0.0097,-0.0568 0.03565,-0.141413 a 0.40567277,0.40567277 0 0 1 0.0048,-0.01188 c 0.01335,-0.03871 0.01814,-0.05289 0.01862,-0.05266 a 0.40567277,0.40567277 0 0 1 0.0099,-0.04001 c 0.0076,-0.02361 0.01076,-0.03656 0.01188,-0.03963 l 4.06e-4,-3.85e-4 c 7.8e-5,0.0015 -8.52e-4,0.0084 -0.002,0.02062 a 0.40567277,0.40567277 0 0 1 0.01664,-0.07643 c 0.0028,-0.0087 0.0045,-0.02215 0.0091,-0.04952 a 0.40567277,0.40567277 0 0 1 0.01188,-0.04477 c 0.004,-0.01357 0.0069,-0.02461 0.0091,-0.03327 0.0035,-0.01395 0.0049,-0.02208 0.0051,-0.02499 v -4.05e-4 -4.06e-4 h -4.06e-4 a 0.40567277,0.40567277 0 0 1 0.004,-0.023 c -3.8e-5,-0.02706 0.0045,-0.04339 0.0071,-0.04638 h 4.05e-4 v -4.05e-4 h 4.06e-4 4.05e-4 v 4.05e-4 l 3.86e-4,4.06e-4 v 3.85e-4 c 2.84e-4,7.71e-4 5.88e-4,0.0031 4.05e-4,0.0061 a 0.40567277,0.40567277 0 0 1 0.0071,-0.04316 c -0.01058,-0.02782 -0.03488,-0.07129 0.01149,-0.169545 0.003,-0.0125 0.0064,-0.02729 0.01069,-0.04316 0.0048,-0.01824 0.0093,-0.03764 0.021,-0.06853 0.0017,-0.0046 0.01696,-0.02047 0.02139,-0.02852 l -0.002,0.0077 c 0.0028,-0.0061 0.0049,-0.0093 0.0075,-0.01502 v 4.06e-4 h 4.05e-4 v -4.06e-4 c 3.45e-4,-0.0015 9.13e-4,-0.0038 0.0012,-0.0069 -3.65e-4,7.71e-4 -6.69e-4,0.0023 -0.0012,0.0038 7.3e-5,-0.0015 -1.05e-4,-0.0038 4.06e-4,-0.0077 h -4.06e-4 c -0.0018,-0.02047 -0.01584,-0.05343 0.01109,-0.155679 0.005,-0.02767 0.0071,-0.0335 0.0083,-0.03725 -0.0038,-0.02767 -0.01217,-0.05396 -0.0016,-0.125968 0.0035,-0.02392 0.0084,-0.06355 0.01624,-0.107746 0.0012,-0.0078 0.0053,-0.03756 0.0091,-0.06891 0.0021,-0.01571 0.0045,-0.03189 0.0091,-0.05504 0.0021,-0.0094 0.0049,-0.02231 0.0087,-0.03764 -0.005,-0.01571 -0.02038,-0.01817 -0.0075,-0.127156 0,7.7e-5 5.1e-5,-0.02116 0.0016,-0.05389 4.67e-4,-0.01303 0.02253,-0.0696 0.021,-0.08834 a 0.40567277,0.40567277 0 0 1 0,-0.01664 l -0.01347,0.04638 c 0.0023,-0.03472 0.0057,-0.03978 0.01188,-0.06416 a 0.40567277,0.40567277 0 0 1 0,-0.0091 c -3.4e-5,0.0015 -0.0018,-0.03059 -0.0016,-0.09269 a 0.40567277,0.40567277 0 0 1 0,-0.01073 c 7.7e-4,-0.02476 9.12e-4,-0.05948 0.0016,-0.101805 0,-0.01449 -0.0056,-0.05305 0,-0.130322 2.43e-4,-0.02698 0.0011,-0.05419 0.0016,-0.08081 -0.0015,-0.04607 5.27e-4,-0.03312 0.0044,-0.05665 a 0.40567277,0.40567277 0 0 1 -0.006,-0.02537 c 9.12e-4,0.01503 0.0015,0.02407 0.002,0.0289 -6.08e-4,-0.0038 -0.0016,-0.01104 -0.0036,-0.01863 -0.0064,-0.02422 -0.0277,-0.04185 -0.02694,-0.169148 -0.0023,-0.0276 -0.004,-0.05427 -0.0048,-0.07052 -0.0048,-0.04714 -0.0048,-0.05466 -0.0036,-0.05029 a 0.40567277,0.40567277 0 0 1 -0.0051,-0.03488 c -7.6e-5,-5.28e-4 -0.0095,-0.03733 -0.01981,-0.09587 a 0.40567277,0.40567277 0 0 1 -0.0012,-0.0091 c -0.0051,-0.03289 -0.0092,-0.06608 -0.01228,-0.08834 -3.45e-4,-0.0023 -4.06e-4,-0.0046 -7.71e-4,-0.0069 a 0.40567277,0.40567277 0 0 1 -0.002,-0.0087 v -4.05e-4 l -4.06e-4,-4.06e-4 v -3.85e-4 -4.06e-4 a 0.40567277,0.40567277 0 0 1 -0.0071,-0.0289 c -0.0059,-0.01717 -0.01251,-0.03503 -0.01941,-0.06454 -0.01625,-0.07121 -0.01681,-0.05374 0.01347,0.0031 a 0.40567277,0.40567277 0 0 1 -0.03367,-0.08992 c 8.52e-4,0.0038 0.0012,0.0061 0.0012,0.0079 v 3.85e-4 4.06e-4 4.05e-4 3.86e-4 h -3.85e-4 l -4.06e-4,-3.86e-4 -4.06e-4,-4.05e-4 c -0.0047,-0.0061 -0.02011,-0.0463 -0.03803,-0.11171 -4.7e-5,-1.92e-4 -3.86e-4,-6.29e-4 -4.06e-4,-7.71e-4 v -4.05e-4 -3.86e-4 h 4.06e-4 v -4.05e-4 -4.06e-4 -3.85e-4 -4.06e-4 c -1.92e-4,-7.71e-4 -6.49e-4,-0.0015 -7.71e-4,-0.0023 v -4.05e-4 l -4.06e-4,-4.06e-4 h -4.05e-4 -4.06e-4 v -3.85e-4 h -4.06e-4 c -2e-4,-5.07e-4 -5.07e-4,-0.0015 -7.7e-4,-0.0031 -0.0073,-0.02729 -0.01199,-0.05159 -0.01506,-0.06255 a 0.40567277,0.40567277 0 0 1 -0.01333,-0.03176 c -0.0034,-0.0105 -0.0043,-0.01387 -0.0044,-0.01502 v -3.86e-4 h 4.05e-4 v -4.05e-4 -4.06e-4 c -2.8e-5,-5.07e-4 3.5e-5,-0.0015 -4.05e-4,-0.0031 a 0.40567277,0.40567277 0 0 1 -0.02139,-0.0404 c -9.13e-4,-0.0023 -0.0016,-0.0054 -0.0024,-0.0069 a 0.40567277,0.40567277 0 0 1 -0.04516,-0.08398 c 0.0019,0.0046 0.0033,0.0086 0.0044,0.01111 -0.0017,-0.0038 -0.0044,-0.009 -0.0075,-0.01426 -0.0097,-0.0161 -0.01972,-0.02415 -0.04793,-0.08081 a 0.40567277,0.40567277 0 0 1 -0.0075,-0.01824 c -0.01027,-0.0233 -0.01255,-0.02637 -0.0301,-0.0614 a 0.40567277,0.40567277 0 0 1 -0.0031,-0.0046 c -0.0087,-0.01809 -0.01556,-0.03357 -0.021,-0.04638 -0.0052,-0.0077 -0.0063,-0.01242 -0.0067,-0.01587 a 0.40567277,0.40567277 0 0 1 -0.0103,-0.01702 0.40567277,0.40567277 0 0 1 -0.04437,-0.05864 c 0.0062,0.0105 0.0095,0.01633 0.0099,0.01786 v 3.86e-4 h -4.06e-4 c -0.004,-0.0038 -0.02542,-0.03449 -0.05585,-0.07803 a 0.40567277,0.40567277 0 0 1 -0.0091,-0.01349 c -0.009,-0.01403 -0.0272,-0.03833 -0.04912,-0.06891 a 0.40567277,0.40567277 0 0 1 -0.0016,-0.0031 c -0.01349,-0.01909 -0.03216,-0.04415 -0.0511,-0.06891 -0.02836,-0.03657 -0.02439,-0.03273 -0.03129,-0.0404 a 0.40567277,0.40567277 0 0 1 -0.01505,-0.01664 c -0.01224,-0.01441 -0.02216,-0.02691 -0.02971,-0.03603 -0.01064,-0.0077 -0.01545,-0.01188 -0.01664,-0.01349 v -4.05e-4 h -4.05e-4 v -3.86e-4 h 4.05e-4 3.86e-4 l 4.05e-4,3.86e-4 c 0.0013,4.46e-4 0.0035,0.0015 0.0055,0.0031 a 0.40567277,0.40567277 0 0 1 -0.02377,-0.023 c 0.003,0.0031 0.0051,0.0054 0.0055,0.0061 v 4.06e-4 h -4.06e-4 c -0.0028,-0.0015 -0.01656,-0.01242 -0.04912,-0.04162 a 0.40567277,0.40567277 0 0 1 -0.0044,-0.0031 c -0.01317,-0.01219 -0.02026,-0.01916 -0.02337,-0.02261 a 0.40567277,0.40567277 0 0 1 -0.02179,-0.01625 c 0.01486,0.01242 -0.02089,-0.01372 -0.06734,-0.04791 -0.01844,-0.01349 -0.02153,-0.0161 -0.02218,-0.01664 v -4.06e-4 h -4.06e-4 c -7.7e-4,-3.44e-4 -0.0031,-0.0015 -0.0075,-0.0038 a 0.40567277,0.40567277 0 0 1 -0.01624,-0.01027 c -0.0128,-0.0084 -0.05709,-0.03373 -0.05862,-0.03449 a 0.40567277,0.40567277 0 0 1 -0.0051,-0.0031 h -4.05e-4 c -0.0038,-5.68e-4 -0.02588,-0.01058 -0.05744,-0.02852 l -4.06e-4,-4.05e-4 c -0.0016,-7.71e-4 -0.0023,-7.71e-4 -0.004,-0.0023 -0.03304,-0.01602 -0.05774,-0.02683 -0.06457,-0.03051 -0.04346,0.0031 -0.08344,0.01855 -0.122799,0.0087 0.0014,5.27e-4 -0.02504,-0.0061 -0.04635,-0.01073 -0.04384,-0.0078 -0.08379,-0.01633 -0.08992,-0.01778 -0.0051,-7.71e-4 -0.0073,-7.71e-4 -0.01188,-0.0015 -0.02231,-0.0023 -0.04312,-0.0046 -0.05546,-0.0046 -0.112254,-0.0046 -0.126831,-0.03327 -0.164392,-0.05826 z m 0.922579,0.374337 c 0.0081,0.0061 0.01938,0.01357 0.03565,0.02415 a 0.40567277,0.40567277 0 0 1 -0.04199,-0.03166 v 4.06e-4 c 0.0018,0.0023 0.0041,0.0046 0.0064,0.0069 z m 0.287983,0.382655 c 0.0021,0.0046 0.0042,0.01 0.0067,0.01587 0.0085,0.01226 0.0278,0.03181 0.0713,0.06654 a 0.40567277,0.40567277 0 0 1 -0.07804,-0.0824 z m 0.313733,2.692873 h 4.05e-4 4.06e-4 c -4e-5,0.0015 1.07e-4,0.0031 0,0.0038 0.0018,-0.0054 0.0022,-0.0054 0.0048,-0.01111 a 0.40567277,0.40567277 0 0 1 0,-0.0031 c 0.0023,-0.0054 0.0032,-0.008 0.0048,-0.01188 -0.0023,0.0054 -0.0025,0.0038 -0.0048,0.0087 a 0.40567277,0.40567277 0 0 1 0,-0.021 c -0.0031,0.01625 -0.0047,0.02737 -0.0055,0.03449 z m -0.08715,0.410779 c 4.1e-5,0.02959 0.0053,0.07221 0.02377,0.125178 a 0.40567277,0.40567277 0 0 1 -0.01545,-0.160432 c -8.51e-4,0.0061 -0.0022,0.01372 -0.0051,0.02415 a 0.40567277,0.40567277 0 0 0 -0.0031,0.01111 z m -2.536784,-3.224883 c -0.0064,0.0038 -0.01286,0.0069 -0.01862,0.01111 l 0.01703,-0.0095 a 0.40567277,0.40567277 0 0 0 0.0016,-0.0015 z m 0.669849,-0.472181 h -0.0016 a 0.40567277,0.40567277 0 0 1 -4.06e-4,7.71e-4 h 4.06e-4 c 2.84e-4,-1.45e-4 0.0011,-5.88e-4 0.0016,-7.71e-4 z m -0.002,7.71e-4 a 0.40567277,0.40567277 0 0 1 -0.0028,0.0023 c 5.48e-4,-1.92e-4 8.52e-4,-2.43e-4 0.0012,-3.85e-4 l 3.86e-4,-4.06e-4 h 4.05e-4 l 4.06e-4,-4.05e-4 v -3.86e-4 h 4.06e-4 v -4.05e-4 z m 0.30462,-0.127546 a 0.40567277,0.40567277 0 0 1 -0.02694,0.0079 c -0.0034,8.5e-5 -0.0021,1.6e-5 -0.002,0 1e-6,-1.5e-5 -6.08e-4,-3.8e-5 -0.0028,0 a 0.40567277,0.40567277 0 0 1 -0.02694,0.01786 c 0.04952,-0.0084 0.03417,-0.01349 0.05823,-0.02537 z m 0.609243,0.0077 c 0.0087,0.0031 0.01176,0.0054 0.02218,0.0077 0.01001,10e-5 0.01933,-2.84e-4 0.02812,-7.71e-4 a 0.40567277,0.40567277 0 0 1 -0.05031,-0.0069 z m -0.92852,0.0015 a 0.40567277,0.40567277 0 0 1 -0.127157,0.162018 c 0.0094,-0.0069 0.01851,-0.0046 0.02694,-0.01226 0.06597,-0.05887 0.09041,-0.119843 0.10022,-0.149738 z m 0.892472,0.0091 a 0.40567277,0.40567277 0 0 1 -0.02099,0.0061 c 0.0092,0.0023 0.01584,-0.0046 0.02535,-0.0031 z m 0.04872,0.03013 v 4.06e-4 c 0.0038,0.0015 0.009,0.0031 0.01703,0.0061 a 0.40567277,0.40567277 0 0 1 -0.01624,-0.0061 h -4.05e-4 z m -0.963379,0.0824 c -0.0091,7.7e-4 -0.01452,0.0046 -0.02139,0.0069 l 0.0091,-0.0015 h 4.06e-4 c 0.0024,-7.71e-4 0.0089,-0.0046 0.01188,-0.0061 z m 1.857833,0.920996 c 0.0041,0.0061 0.0088,0.01203 0.01426,0.01824 a 0.40567277,0.40567277 0 0 1 -0.01426,-0.01824 z m -3.085429,0.309372 c -0.0047,0.0031 -0.0094,0.0061 -0.01426,0.0087 a 0.40567277,0.40567277 0 0 1 -0.0016,0.0046 z m 3.228034,0.166771 c 0.0017,0.0046 0.0036,0.01012 0.0064,0.01664 7.7e-4,0.0015 0.0021,0.0046 0.0035,0.0069 a 0.40567277,0.40567277 0 0 1 -0.0099,-0.02376 z m -3.619011,0.486438 c -0.0014,0.0015 -0.0026,0.0038 -0.004,0.0054 a 0.40567277,0.40567277 0 0 1 -0.0028,0.01464 c 0.0018,-0.0054 0.0065,-0.01694 0.0071,-0.02024 z m 3.680015,0.857219 c -4.46e-4,0.0031 -0.0023,0.0061 -0.0028,0.0084 l -4.06e-4,4.06e-4 v 4.06e-4 c 1.53e-4,0.07705 0.01798,0.108651 0.02258,0.121605 a 0.40567277,0.40567277 0 0 1 -0.01941,-0.13072 z m -4.139917,0.330369 c -2.64e-4,4.05e-4 -5.28e-4,7.71e-4 -7.71e-4,0.0015 a 0.40567277,0.40567277 0 0 1 0,0.0015 c 2.64e-4,-7.71e-4 5.27e-4,-0.0015 7.71e-4,-0.0031 z m -0.04476,0.04553 c -0.0057,0.0088 -0.0086,0.01709 -0.01069,0.02453 0.0032,-0.0083 0.0066,-0.01709 0.01069,-0.02453 z m 4.214785,0.03166 -0.02139,0.01664 a 0.40567277,0.40567277 0 0 1 0.01506,-0.0061 c 0.0012,-7.7e-4 0.002,-0.0015 0.0024,-0.0023 l 4.06e-4,-4.05e-4 v -4.06e-4 -3.85e-4 -4.06e-4 -4.06e-4 -3.85e-4 -4.06e-4 -4.05e-4 -3.85e-4 -4.06e-4 l 4.05e-4,-4.06e-4 c 4.06e-4,-7.7e-4 0.0015,-0.0023 0.0031,-0.0038 z m -0.09943,0.142211 h 4.05e-4 v 4.06e-4 3.85e-4 c -1.25e-4,2.84e-4 -2.84e-4,5.27e-4 -4.05e-4,7.71e-4 -6e-6,-2.44e-4 -8e-6,-0.0015 0,-0.0015 z m 4.05e-4,0.05151 -0.0064,0.0046 -0.0064,0.01387 c 0.004,-0.0061 0.0083,-0.01234 0.01268,-0.01863 z m -0.788291,2.171564 h 4.05e-4 v 4.06e-4 h -4.05e-4 z m -2.922224,1.431995 0.0031,0.0061 c -0.0011,-0.0015 -0.0021,-0.0038 -0.0031,-0.0061 z m 1.651847,0.06217 c -0.0025,1.53e-4 -0.03084,0.0077 -0.04793,0.01065 -7.71e-4,7.71e-4 -0.002,0.0023 -0.0028,0.0031 0.0072,7.71e-4 0.05301,-0.01395 0.05071,-0.01387 z m -0.0214,0.02537 -0.04872,0.0079 c -0.0036,0.0038 -0.0069,0.0046 -0.01069,0.0087 0.02056,-0.0031 0.04032,-0.01012 0.05941,-0.01664 z m -0.05942,0.0091 -0.03288,0.0046 c -0.0069,0.0031 -0.01333,0.01242 -0.021,0.01625 0.01618,-0.0046 0.02868,-0.0069 0.04516,-0.01027 a 0.40567277,0.40567277 0 0 1 0.0087,-0.01073 z m -0.05863,0.0046 c -0.0026,0.0015 -0.004,0.0023 -0.0048,0.0031 l -4.06e-4,4.05e-4 -4.05e-4,4.06e-4 v 3.85e-4 4.06e-4 4.06e-4 a 0.40567277,0.40567277 0 0 1 0.0055,-0.0054 z m -0.006,0.0054 c -4.87e-4,4.87e-4 -0.0014,7.7e-4 -0.0028,0.0023 2.03e-4,1.5e-5 5.48e-4,-3.1e-5 7.71e-4,0 h 4.06e-4 a 0.40567277,0.40567277 0 0 1 0.0016,-0.0023 z m -0.125572,0.06217 c -0.0073,0.0038 -0.01052,0.0061 -0.01188,0.0069 l -4.06e-4,3.85e-4 v 4.06e-4 h -4.05e-4 v 4.06e-4 l -4.06e-4,3.85e-4 v 4.06e-4 4.05e-4 3.86e-4 4.05e-4 4.06e-4 l -4.06e-4,4.05e-4 v 3.86e-4 c -9.12e-4,0.0015 -0.0033,0.0038 -0.0075,0.0061 0.0015,0 0.0067,-0.0015 0.0075,-0.0015 a 0.40567277,0.40567277 0 0 1 0.01347,-0.01625 z m -1.194717,0.03725 a 0.40567277,0.40567277 0 0 1 0.04516,0.01824 l -0.0036,-0.0031 h -4.05e-4 c -0.01079,-0.0046 -0.0246,-0.0096 -0.04119,-0.01502 z m 0.285211,0.110521 c 0.02369,0.0099 0.05196,0.02192 0.09626,0.04515 l -0.09467,-0.04477 z m 0.502288,0.01387 c -0.0022,0.0015 -0.0054,0.0023 -0.0091,0.0046 a 0.40567277,0.40567277 0 0 1 0.01228,-0.0046 c -0.0012,2.43e-4 -0.0023,7.6e-5 -0.0031,0 z m 0.158847,0.01349 -4.06e-4,3.85e-4 c 0.01549,0.01142 0.06838,0.01265 0.07725,0.01901 h 4.05e-4 l 4.06e-4,3.86e-4 a 0.40567277,0.40567277 0 0 1 0.006,-0.0077 c -0.0017,-7.71e-4 -0.0023,-0.0015 -0.0028,-0.0023 l -4.06e-4,-4.05e-4 -4.06e-4,-3.86e-4 -4.05e-4,-4.05e-4 c -7.3e-4,-4.67e-4 -0.0025,-0.0015 -0.0064,-0.0031 -0.01203,-0.0054 -0.05266,1.92e-4 -0.07328,-0.0061 z m 0.08675,0.01349 c -3.85e-4,5.28e-4 -8.52e-4,7.71e-4 -0.0012,0.0015 l -4.05e-4,3.85e-4 c -1.68e-4,1.07e-4 -9.94e-4,7.3e-4 -0.0012,7.71e-4 -7.71e-4,3.04e-4 -0.0021,7.7e-4 -0.0028,0.0015 h -4.05e-4 c -1.43e-4,1.38e-4 -6.49e-4,7.71e-4 -7.71e-4,0.0015 -1.42e-4,2.23e-4 -6.49e-4,7.7e-4 -7.71e-4,0.0015 l 4.06e-4,3.85e-4 c 0.0049,0.0023 0.02783,0.0069 0.03406,0.0084 -0.0048,-0.0023 -0.01689,-0.009 -0.02694,-0.01464 z m -0.644101,0.0061 v 3.86e-4 h -4.06e-4 v 4.05e-4 l -4.06e-4,4.06e-4 v 3.85e-4 c 0.0097,0.0054 0.01369,0.0061 0.01703,0.0061 l -0.01584,-0.0079 z" />
  </g>
</svg>
