<?xml version="1.0" encoding="UTF-8" standalone="no"?>
<!-- Created with Inkscape (http://www.inkscape.org/) -->

<svg
   width="32"
   height="32"
   viewBox="0 0 32 32"
   version="1.1"
   id="svg1"
   xmlns="http://www.w3.org/2000/svg"
   xmlns:svg="http://www.w3.org/2000/svg">
  <defs
     id="defs1" />
  <g
     id="layer1">
    <path
       id="path79"
       style="baseline-shift:baseline;display:inline;overflow:visible;vector-effect:none;fill:#000000;stroke-width:3.77953;stroke-linecap:round;stroke-linejoin:round;stroke-miterlimit:10000;paint-order:fill markers stroke;enable-background:accumulate;stop-color:#000000"
       d="m 16.360536,4.802162 a 0.40567277,0.40567277 0 0 1 -0.21272,0.07052 c 0.01515,0.0031 0.02414,-7.71e-4 0.03882,0 0.05945,-0.01372 0.124886,-0.02361 0.1739,-0.07052 z m -0.300264,0.05427 c 0.0049,0.0031 0.01007,0.0069 0.01268,0.0087 0.0011,-6.89e-4 0.0018,-7.7e-4 0.0028,-0.0015 -0.0023,-0.0015 -0.0098,-0.0046 -0.01545,-0.0069 z m 0.02931,0.01188 a 0.40567277,0.40567277 0 0 1 -0.0048,0.0031 c 7.7e-4,4.25e-4 0.0012,7.7e-4 0.0016,0.0015 h 4.06e-4 v 4.06e-4 c 4.66e-4,2.43e-4 9.93e-4,7.7e-4 0.0028,0.0015 a 0.40567277,0.40567277 0 0 1 0,-0.0015 c 7.3e-4,2.83e-4 0.0021,7.7e-4 0.0028,7.7e-4 0.0017,-2.03e-4 0.0038,-7.7e-4 0.0055,-0.0015 2.23e-4,2.3e-5 9.12e-4,3.45e-4 0.0012,4.05e-4 -0.0021,-7.7e-4 -0.0071,-0.0031 -0.0091,-0.0038 z m 0.03129,0.01349 a 0.40567277,0.40567277 0 0 1 -0.04357,0.01464 0.40567277,0.40567277 0 0 1 -0.01069,0.0015 c 0.0037,3.65e-4 0.0063,5.07e-4 0.0048,4.06e-4 a 0.40567277,0.40567277 0 0 1 -0.03882,0.01349 c 0.03048,0.0038 0.03182,-0.0069 0.05387,-0.01027 2.01e-4,0 0.0034,-0.0015 0.0044,-0.0015 2.23e-4,5.4e-5 6.08e-4,-2.3e-5 7.7e-4,0 h 4.06e-4 4.06e-4 4.05e-4 c 1.64e-4,-2.3e-5 9.94e-4,0 0.0012,0 2.64e-4,1.5e-5 0.0012,-6.1e-5 0.0016,0 0.0017,2.84e-4 0.0026,5.88e-4 0.0031,7.71e-4 h 4.06e-4 v 4.05e-4 3.86e-4 c -1.71e-4,8.4e-5 0.0012,1.22e-4 0.01862,0 1.76e-4,0 6.09e-4,1.5e-5 7.71e-4,0 0.0058,-7.71e-4 0.01575,-0.0086 0.02179,-0.0091 h 3.85e-4 c 5.07e-4,-2.84e-4 0.0015,-7.71e-4 0.002,-0.0015 h 4.05e-4 v -4.06e-4 c -0.0049,-0.0038 -0.0185,-0.0054 -0.02218,-0.0087 z m 0.959815,0.0031 a 0.40567277,0.40567277 0 0 1 -0.0412,0.03012 c 0.01607,-0.0091 0.03031,-0.01886 0.0412,-0.02974 z m -0.929313,0.0095 a 0.40567277,0.40567277 0 0 1 -0.08675,0.02576 c -0.02022,0.02085 -0.03213,0.04415 -0.131911,0.07764 a 0.40567277,0.40567277 0 0 1 -0.0301,0.01073 c -0.0189,0.0046 -0.03085,0.0085 -0.03684,0.01065 0.0074,-0.0031 0.02395,-0.01089 0.04912,-0.02576 a 0.40567277,0.40567277 0 0 1 -0.04516,0.021 c -0.02772,0.01625 -0.09223,0.03012 -0.152509,0.04638 h -4.06e-4 -4.05e-4 -4.06e-4 -4.05e-4 c -0.0031,7.71e-4 -0.0044,0.0023 -0.0075,0.0031 a 0.40567277,0.40567277 0 0 1 -0.01782,0.01188 l 0.07328,-0.01349 c -0.05974,0.02254 -0.06126,0.01556 -0.08239,0.01786 l -4.06e-4,4.06e-4 c -4.87e-4,2.64e-4 -0.0015,5.68e-4 -0.002,7.71e-4 h -4.06e-4 l -4.06e-4,4.05e-4 c -0.02575,0.01686 -0.0492,0.03419 -0.07883,0.04875 l 0.01743,-0.0069 c -0.03404,0.01694 -0.06253,0.02783 -0.09111,0.0404 -0.01322,0.0077 -0.01898,0.0098 -0.02178,0.01027 -2.23e-4,1.5e-5 -9.94e-4,1.5e-5 -0.0012,0 h -4.06e-4 -4.06e-4 c -4.86e-4,-2.64e-4 -0.0014,-7.71e-4 -0.002,-0.0015 h -4.06e-4 c -0.0021,-5.07e-4 -0.0065,-5.48e-4 -0.01584,0.0031 -0.0075,0.0031 -0.0035,7.71e-4 -0.0103,0.0031 a 0.40567277,0.40567277 0 0 1 -0.01663,0.021 c -0.02813,0.0417 -0.03605,0.07718 -0.136268,0.122403 -0.0016,7.71e-4 -0.0029,7.71e-4 -0.0044,0.0015 0.01509,-0.01479 0.0294,-0.03051 0.0408,-0.04316 -0.0075,0.0054 -0.01535,0.01081 -0.01862,0.01503 a 0.40567277,0.40567277 0 0 1 -0.02694,0.03128 c -0.0073,0.0023 -0.02047,0.0098 -0.02377,0.01027 -0.03286,0.03511 -0.06076,0.07275 -0.101804,0.102205 l 0.04199,-0.02261 c -0.0266,0.01985 -0.06888,0.05872 -0.153697,0.09744 -0.03997,0.02775 -0.07714,0.04898 -0.110123,0.06692 l 0.06457,-0.04477 c 0.0037,-0.0031 0.0057,-0.0046 0.0064,-0.0054 -0.0012,4.67e-4 -0.0023,7.1e-4 -0.0035,0.0015 -0.01843,0.01089 -0.09924,0.06677 -0.171919,0.109333 a 0.40567277,0.40567277 0 0 1 -0.0016,0.0015 c -2.84e-4,1.61e-4 -5.68e-4,3.04e-4 -7.71e-4,3.86e-4 l -4.06e-4,4.05e-4 h -4.05e-4 -4.06e-4 -4.06e-4 -4.05e-4 l -3.86e-4,4.06e-4 h -4.05e-4 c -2.23e-4,1.07e-4 -5.07e-4,1.99e-4 -7.71e-4,3.85e-4 -0.01382,0.0077 -0.01883,0.01326 -0.02297,0.01786 l 0.02416,-0.01311 0.0048,-0.0031 0.0075,-0.0046 c -0.01263,0.01978 -0.02942,0.05159 -0.08556,0.109333 a 0.40567277,0.40567277 0 0 1 -0.0087,0.0091 c -0.04086,0.0394 -0.05677,0.0555 -0.05546,0.05389 a 0.40567277,0.40567277 0 0 1 -0.02535,0.02852 c -0.01752,0.01771 -0.02883,0.02875 -0.03525,0.03488 a 0.40567277,0.40567277 0 0 1 -0.03684,0.04438 c 0.0025,-0.0023 -0.0198,0.02645 -0.03129,0.04515 a 0.40567277,0.40567277 0 0 1 -0.04634,0.0614 c -0.01912,0.02093 -0.02681,0.0302 -0.03605,0.04477 a 0.40567277,0.40567277 0 0 1 -0.03763,0.05074 c -0.0037,0.0038 -0.02734,0.03664 -0.06734,0.08715 a 0.40567277,0.40567277 0 0 1 -0.0087,0.01188 c -0.02533,0.02967 -0.03966,0.04615 -0.0519,0.06178 -0.0019,0.0031 -0.0071,0.01065 -0.01862,0.03089 -0.01794,0.03143 -0.05673,0.0877 -0.115669,0.139045 -0.0498,0.05833 -0.08216,0.0868 -0.09071,0.08913 -1.67e-4,2.3e-5 -0.0011,4.06e-4 -0.0012,4.06e-4 h -4.06e-4 v -4.06e-4 h -4.06e-4 V 6.54366 h -4.05e-4 v -3.86e-4 -4.05e-4 -4.06e-4 c 4.66e-4,-0.0015 0.0022,-0.0054 0.0048,-0.0091 -0.01404,0.01778 -0.03177,0.03978 -0.0519,0.06416 -0.02045,0.02683 -0.01055,0.0086 -0.0301,0.02691 v -3.86e-4 c 3.8e-5,-0.0015 0.0017,-0.0061 0.004,-0.0115 -0.0053,0.0061 -0.01013,0.01196 -0.01149,0.01625 a 0.40567277,0.40567277 0 0 1 -0.0028,0.0061 c -0.0033,0.0031 -0.0028,0.0023 -0.006,0.0046 -0.01555,0.04592 -0.03624,0.106597 -0.07685,0.163996 l 0.0079,-0.0069 c -0.05777,0.08138 -0.09792,0.10711 -0.120026,0.125967 -0.0023,0.0015 -0.0041,0.0031 -0.006,0.0054 -0.01644,0.0233 -0.03241,0.0453 -0.04635,0.06493 -0.0014,0.0023 -0.0031,0.0038 -0.0044,0.0061 l -0.0016,0.0031 c -0.02096,0.03166 -0.04153,0.06447 -0.06457,0.09863 l 0.0048,-0.0087 c -0.0052,0.0081 -0.04362,0.0673 -0.08556,0.122794 -0.01597,0.02024 -0.02015,0.02683 -0.02971,0.03564 a 0.40567277,0.40567277 0 0 1 -0.0091,0.02415 c -0.003,0.0054 -0.0046,0.0077 -0.0055,0.0087 l -3.85e-4,4.06e-4 h -4.06e-4 c 1.4e-5,-1.38e-4 -4.8e-5,-5.88e-4 0,-7.71e-4 0.0014,-0.0046 0.0077,-0.01901 0.0091,-0.02376 v -4.06e-4 c -0.0015,0.0015 -0.0039,0.0061 -0.0051,0.0077 l -4.06e-4,4.05e-4 v 4.06e-4 h -4.06e-4 a 0.40567277,0.40567277 0 0 1 -0.03565,0.104573 c 0.0089,-0.01549 0.01444,-0.02591 0.01782,-0.0325 0.0015,-0.0038 0.0028,-0.0054 0.0036,-0.0069 -6.49e-4,0.0015 -0.0018,0.0038 -0.0036,0.0069 -0.0015,0.0038 -0.0029,0.0081 -0.0044,0.01303 -0.0077,0.02622 -0.01038,0.06585 -0.06615,0.160432 -0.01581,0.02844 -0.0306,0.05826 -0.04753,0.08834 l -0.0048,0.0077 h 4.06e-4 v 3.85e-4 c 6.49e-4,0.0054 -0.01095,0.04852 -0.06893,0.126765 -0.01807,0.03304 -0.02924,0.05021 -0.03248,0.05351 l -4.06e-4,4.06e-4 v 3.85e-4 h -4.05e-4 c 0.01302,-0.02683 -0.04182,0.06393 -0.08398,0.135871 a 0.40567277,0.40567277 0 0 1 -0.0028,0.01226 c -0.01071,0.01303 -0.0153,0.02438 -0.02258,0.03128 -0.0041,0.0046 -0.0058,0.0077 -0.0064,0.0095 -4e-5,1.84e-4 2e-5,7.7e-4 0,0.0015 v 4.06e-4 4.05e-4 c 2.7e-5,2.44e-4 -3.3e-5,7.71e-4 0,0.0015 l 0.02891,-0.04124 a 0.40567277,0.40567277 0 0 1 -0.0031,0.0091 c 0.0066,-0.01503 0.01059,-0.02453 0.01268,-0.02974 -0.0011,0.0031 -0.0023,0.0069 -0.0036,0.0115 -0.005,0.02599 -0.0043,0.07397 -0.05427,0.158845 -0.01423,0.03265 -0.02347,0.05006 -0.02654,0.05351 v 4.05e-4 h -4.06e-4 v 4.06e-4 h -4.06e-4 v -4.06e-4 h -4.05e-4 v -4.05e-4 c 1.35e-4,-0.0023 0.0018,-0.008 0.0051,-0.01702 a 0.40567277,0.40567277 0 0 1 -0.0028,0.0077 c -0.0037,0.0097 -0.0056,0.01372 -0.0064,0.01464 v 4.06e-4 h -4.05e-4 v -4.06e-4 -4.06e-4 c 2.23e-4,-0.0023 0.0014,-0.0069 0.0024,-0.01065 -9.94e-4,0.0031 -0.0023,0.0069 -0.0031,0.0079 h -4.06e-4 v 3.85e-4 h -4.05e-4 v -3.85e-4 -4.06e-4 c -1.27e-4,-0.0015 -1.4e-4,-0.0054 7.7e-4,-0.01226 a 0.40567277,0.40567277 0 0 1 -0.01901,0.07843 c -0.0033,0.0093 -0.0051,0.0141 -0.006,0.01587 a 0.40567277,0.40567277 0 0 1 -0.0016,0.0069 c -9.13e-4,0.02047 -0.04885,0.07589 -0.05863,0.115274 a 0.40567277,0.40567277 0 0 1 -0.0087,0.07764 l 0.0012,-0.0015 c 6.09e-4,-0.0023 0.0012,-0.0038 0.0016,-0.0046 v -4.06e-4 l 4.06e-4,-4.06e-4 h 4.06e-4 v 4.06e-4 c 0,2.84e-4 3.3e-5,7.5e-4 0,0.0015 l 0.03367,-0.04714 c -0.01302,0.04415 -0.01808,0.02691 -0.03406,0.05029 -0.0012,0.009 -0.0055,0.03074 -0.01387,0.06815 -0.0071,0.03158 -0.01309,0.05419 -0.01743,0.06891 -0.0012,0.02307 -0.0048,0.06339 -0.01109,0.113687 a 0.40567277,0.40567277 0 0 1 0,0.0031 c 9.94e-4,-0.0077 -0.0034,0.05657 -0.021,0.139435 -0.0011,0.0038 -5.07e-4,0.0023 -0.0016,0.0061 a 0.40567277,0.40567277 0 0 1 -0.0012,0.01349 c -4.06e-4,0.0015 -7.1e-4,0.0023 -7.71e-4,0.0031 2e-6,1.84e-4 -1.3e-5,7.71e-4 0,0.0015 -1.4e-5,6.49e-4 -1.02e-4,0.0023 -7.7e-4,0.0046 l 0.0016,-0.0031 c 9.13e-4,-0.0105 -5.07e-4,0.02093 -0.0016,0.05389 -9.94e-4,0.03082 -4.47e-4,0.06347 -0.01228,0.130321 l -0.0012,0.0091 c 5.07e-4,0.02246 0.0041,0.04653 -0.0091,0.104971 -0.003,0.03664 -0.0059,0.05465 -0.0075,0.05864 v 4.06e-4 h -4.05e-4 -4.06e-4 c -2.43e-4,-7.71e-4 -7.1e-4,-0.0031 -7.71e-4,-0.0054 a 0.40567277,0.40567277 0 0 1 0,0.0069 c -0.0014,0.03151 -0.0022,0.02514 -0.0028,0.07962 a 0.40567277,0.40567277 0 0 1 0,0.0087 c -0.0012,0.03357 -0.0017,0.07313 -0.0016,0.115275 a 0.40567277,0.40567277 0 0 1 0,0.0091 c -9.13e-4,0.03948 -0.0022,0.08029 -0.0016,0.112101 a 0.40567277,0.40567277 0 0 1 0,0.01111 c 9.6e-5,-0.0069 2.24e-4,-0.01012 4.06e-4,-0.01111 5.88e-4,0.0038 0.0018,0.02292 0.004,0.04952 0.0029,0.03511 0.02327,0.08654 -0.0095,0.189346 -0.0044,0.03434 -0.01027,0.05473 -0.01268,0.06539 0.0023,0.02875 0.009,0.0555 -0.0016,0.124787 -9.13e-4,0.03212 -0.0033,0.05006 -0.0044,0.06378 v 0.02261 c -0.0011,0.0094 -0.0028,0.02752 -0.0016,0.03565 a 0.40567277,0.40567277 0 0 1 0.0024,0.02652 c -2.84e-4,-0.0061 -4.66e-4,-0.0091 -4.05e-4,-0.0099 4.66e-4,7.71e-4 0.0025,0.01916 0.0067,0.04477 0.0059,0.03541 0.0231,0.08937 0.0067,0.185781 -0.0011,0.02514 -0.0034,0.04814 -0.0051,0.07167 0.0025,0.04653 0.0021,0.0822 0.0016,0.08557 v 3.85e-4 a 0.40567277,0.40567277 0 0 1 0.0016,0.0023 c 0.0018,0.01947 0.0076,0.06684 0.01188,0.120027 0.0076,0.06684 0.0058,0.06945 0.006,0.07205 3e-5,2.24e-4 -6.2e-5,7.71e-4 0,0.0015 a 0.40567277,0.40567277 0 0 1 0.0048,0.02813 0.40567277,0.40567277 0 0 0 0,4.06e-4 c 0.0018,0.0031 0.0196,0.0512 0.02535,0.169147 0.0034,0.02093 0.0072,0.04538 0.0103,0.07328 0.01045,0.06132 0.01253,0.08885 0.01506,0.101806 a 0.40567277,0.40567277 0 0 1 0,0.0015 c 0.0029,0.0151 0.0037,0.01648 0.01506,0.07803 l 0.0016,0.0031 c 0.0068,0.03312 0.01858,0.0923 0.02812,0.142203 0.01076,0.04737 0.0144,0.07022 0.021,0.09587 a 0.40567277,0.40567277 0 0 1 0.0016,0.0031 c -0.0092,-0.0371 -0.0065,-0.023 0.0091,0.01939 0.01118,0.03028 0.03561,0.08161 0.03763,0.164387 0.0077,0.04147 0.0076,0.06347 0.0055,0.06776 v 3.99e-4 h -4.06e-4 v 3.92e-4 h -4.06e-4 -4.05e-4 v -3.92e-4 h -4.06e-4 c 0.0027,0.01188 0.0079,0.03335 0.0091,0.03687 a 0.40567277,0.40567277 0 0 1 0.0031,0.01065 c 7.51e-4,0.0023 0.01356,0.03135 0.03446,0.09744 l -0.0031,-0.01226 c -0.0085,-0.02415 0.0031,0.0061 0.01981,0.04515 0.0141,0.03334 0.04812,0.0601 0.0511,0.177863 0.0024,0.0046 0.0053,0.0099 0.0087,0.01663 0.01379,0.02706 0.04506,0.02246 0.06021,0.150528 9.13e-4,0.0023 0.0015,0.0054 0.0024,0.0084 0.0024,0.0038 0.0044,0.0082 0.01663,0.02974 0.0074,0.01311 0.01895,0.03128 0.0309,0.06063 0.0028,0.0046 0.0061,0.0093 0.0095,0.01464 0.0041,0.0069 0.0063,0.02231 0.0087,0.0404 0.005,0.01886 0.0096,0.04063 0.01347,0.06577 7.3e-5,4.68e-4 3.24e-4,7.2e-4 4.06e-4,0.0015 3.1e-5,1.92e-4 -1.1e-5,6.43e-4 0,7.67e-4 v 3.91e-4 4e-4 3.99e-4 3.92e-4 3.99e-4 4e-4 c 0.0018,0.0038 0.0033,0.0083 0.0051,0.01226 l -0.01593,-0.08313 c 0.04615,0.07259 0.06244,0.113856 0.0618,0.122802 l -4.06e-4,3.91e-4 v 4e-4 3.99e-4 h -4.05e-4 v 3.92e-4 h -4.06e-4 -4.06e-4 -4.05e-4 -4.06e-4 l -4.06e-4,-3.92e-4 c -3.24e-4,-2.67e-4 -0.0012,-7.66e-4 -0.0016,-0.0015 0.0029,0.0046 0.0058,0.009 0.0087,0.01349 3.65e-4,5.74e-4 5.48e-4,7.67e-4 7.71e-4,0.0015 l 4.06e-4,3.91e-4 c 1.96e-4,1.46e-4 5.67e-4,2.15e-4 7.7e-4,4e-4 l 4.06e-4,3.99e-4 4.06e-4,3.92e-4 c 0.02343,0.02997 0.03331,0.0463 0.04199,0.05703 l 0.0044,0.0046 c 0.0014,0.0015 0.02383,0.02591 0.04278,0.04714 -4e-6,2.3e-5 3.25e-4,3.15e-4 7.71e-4,7.67e-4 7.71e-4,5.05e-4 0.01966,0.01893 0.04199,0.0404 0.01259,0.01211 0.02721,0.02499 0.04635,0.04638 0.0012,0.0015 0.003,0.0046 0.0051,0.0083 0.02688,0.02415 0.04272,0.03779 0.04516,0.04078 l 4.06e-4,3.91e-4 v 4e-4 h -4.06e-4 c -0.0021,-7.67e-4 -0.01335,-0.0089 -0.03486,-0.02376 0.0015,0.0023 0.0029,0.0046 0.004,0.0054 a 0.40567277,0.40567277 0 0 1 0.0031,0.0031 c 0.0079,0.0061 0.02167,0.0151 0.05506,0.03879 l 0.0016,0.0015 c 0.0018,7.66e-4 0.03876,0.02476 0.06734,0.04354 -0.0011,-6.59e-4 0.02479,0.01525 0.04357,0.02652 l -4.05e-4,-3.91e-4 -4.06e-4,-4e-4 v -3.99e-4 -3.92e-4 h 4.06e-4 4.05e-4 c 0.0097,5.91e-4 0.07097,0.02591 0.139041,0.08041 0.01307,0.0084 0.02512,0.01679 0.03763,0.02499 0.03085,0.01372 0.06782,0.03051 0.07051,0.03128 0.01701,0.0061 0.03983,0.01395 0.04635,0.01625 a 0.40567277,0.40567277 0 0 1 0.01624,0.0031 c 0.0011,1.5e-5 0.0043,4.6e-5 0.0048,0 0.02025,-0.0054 0.01956,-0.008 0.05665,-0.01188 0.05668,-0.0061 0.09505,-0.0085 0.113292,-0.0087 0.05281,-0.01901 0.118492,-0.03672 0.208759,-0.01663 0.04384,0.0097 0.05592,0.04201 0.0915,0.06255 a 0.40567277,0.40567277 0 0 1 0.02218,-0.0046 c -0.0013,1.15e-4 -0.0022,8e-6 -0.0028,0 v -3.99e-4 c 0.0054,-0.0015 0.03436,-0.0069 0.08358,-0.01311 0.03459,-0.0054 0.06345,-0.0088 0.07646,-0.01188 a 0.40567277,0.40567277 0 0 1 0.0075,-0.0015 c 0.02272,-0.0038 0.04885,-0.0105 0.08239,-0.01824 0.03541,-0.0082 0.06232,-0.01556 0.07487,-0.01939 a 0.40567277,0.40567277 0 0 1 0.0075,-0.0015 c 0.02684,-0.0077 0.01928,-0.0046 0.03446,-0.0077 0.0223,-0.01847 0.02327,-0.02974 0.05981,-0.04791 0.03725,-0.01886 0.07988,-0.0061 0.124383,-0.01188 h 4.06e-4 4.06e-4 4.05e-4 4.06e-4 c 2.63e-4,-3.8e-5 5.27e-4,1.6e-5 7.71e-4,0 0.0015,2.3e-5 0.0035,2e-4 0.0051,0 a 0.40567277,0.40567277 0 0 1 0.01188,-0.0091 0.40567277,0.40567277 0 0 1 0.0028,-0.0015 0.40567277,0.40567277 0 0 1 0.0091,-0.0077 c -0.0034,0.0015 -0.0053,0.0023 -0.0064,0.0031 l -4.05e-4,3.99e-4 -4.06e-4,4e-4 -4.06e-4,3.91e-4 v 4e-4 3.99e-4 h -4.05e-4 c -1.28e-4,1.15e-4 -5.88e-4,6.43e-4 -7.71e-4,7.67e-4 -6.29e-4,3.67e-4 -0.002,7.67e-4 -0.0031,0.0015 l -0.08081,0.0031 c 0.07466,-0.02775 0.07008,-0.01311 0.104576,-0.01349 0.03404,-0.02507 0.05582,-0.05197 0.136268,-0.07167 -0.0074,0.0054 -0.01535,0.01158 -0.02258,0.01702 0.01039,-0.0069 0.02211,-0.01472 0.02852,-0.02024 h 4.05e-4 c 0.0015,-2.53e-4 0.0052,-0.0015 0.006,-0.0015 a 0.40567277,0.40567277 0 0 1 0.006,-0.0077 0.40567277,0.40567277 0 0 1 0.0028,-0.0015 c 0.02787,-0.02269 0.04676,-0.04262 0.09428,-0.06416 0.0017,-0.0077 0.01805,-0.03572 0.1125,-0.06301 0.02859,-0.01487 0.04441,-0.02077 0.04753,-0.02062 h 4.05e-4 v 3.91e-4 4e-4 c 0.01793,-0.01119 0.03546,-0.02177 0.04476,-0.02775 0.0049,-0.0038 0.01144,-0.0098 0.01941,-0.01702 0.02476,-0.02246 0.07299,-0.07052 0.15647,-0.102595 0.03461,-0.01947 0.05231,-0.02376 0.05585,-0.02338 h 4.05e-4 c 0.01819,-0.0128 0.03952,-0.02882 0.05308,-0.03886 0.02948,-0.02438 0.0445,-0.0371 0.04753,-0.03879 v -4e-4 h 4.05e-4 v 4e-4 h -4.05e-4 c -0.0012,0.0015 -0.0059,0.0077 -0.01387,0.01625 a 0.40567277,0.40567277 0 0 1 0.03288,-0.03128 c 7.5e-4,-6.89e-4 0.02728,-0.03013 0.07646,-0.07489 0.01803,-0.01663 0.04549,-0.04362 0.07804,-0.07367 0.0039,-0.0038 0.04679,-0.044 0.08834,-0.082 0.01803,-0.01878 0.03554,-0.03833 0.0404,-0.04116 l 4.06e-4,-3.92e-4 h 4.06e-4 4.05e-4 4.06e-4 v 3.92e-4 c -5.48e-4,0.0023 -0.005,0.0097 -0.01387,0.023 a 0.40567277,0.40567277 0 0 1 0.03922,-0.04952 c 0.02951,-0.03204 0.02894,-0.0289 0.03882,-0.03725 l 4.06e-4,-3.92e-4 c 6.69e-4,-7.67e-4 0.0019,-0.0031 0.0024,-0.0038 l 4.06e-4,-3.99e-4 c 0.0038,-0.0031 0.01931,-0.01824 0.0206,-0.01939 a 0.40567277,0.40567277 0 0 1 0.01506,-0.03564 c -0.02229,0.02576 -0.02877,0.03817 -0.03248,0.04714 0.01,-0.02721 0.02839,-0.07344 0.07606,-0.132705 0.02709,-0.03465 0.03772,-0.05304 0.03843,-0.05427 -9.13e-4,0.0015 -0.01848,0.03396 -0.03803,0.09983 a 0.40567277,0.40567277 0 0 1 0.06853,-0.133096 v -4e-4 l 4.05e-4,-3.99e-4 c 2.44e-4,-4e-4 7.3e-4,-7.67e-4 0.0012,-0.0015 0.0015,-0.0023 0.0037,-0.0069 0.0071,-0.01464 a 0.40567277,0.40567277 0 0 1 0.04793,-0.08557 c 0.01207,-0.01602 0.01716,-0.02323 0.01822,-0.02415 h 4.05e-4 c -1.58e-4,6.37e-4 -9.12e-4,0.0023 -0.002,0.0046 a 0.40567277,0.40567277 0 0 1 0.04477,-0.07922 c -0.0065,0.0089 -0.01104,0.01357 -0.01347,0.01464 l -4.05e-4,4.06e-4 h -4.06e-4 -4.06e-4 -4.05e-4 v -4.06e-4 h -4.06e-4 v -4.05e-4 -3.86e-4 c -9.13e-4,-0.0096 0.03126,-0.06999 0.108538,-0.156077 V 11.3984 c 0.003,-0.0031 0.01646,-0.02108 0.01902,-0.02338 -1.84e-4,4.06e-4 -3.85e-4,0.0015 -7.7e-4,0.0023 a 0.40567277,0.40567277 0 0 1 0.01743,-0.02974 c 0.0082,-0.01234 0.02775,-0.04737 0.06021,-0.09824 -9.12e-4,7.7e-4 -0.0019,0.0015 -0.0028,0.0023 l -4.06e-4,3.85e-4 h -4.05e-4 -3.86e-4 v 4.06e-4 h -4.05e-4 -4.06e-4 l -4.05e-4,-4.06e-4 h -4.06e-4 -3.85e-4 v -3.85e-4 h -4.06e-4 v -4.06e-4 c -1.33e-4,-1.92e-4 -6.69e-4,-7.71e-4 -7.71e-4,-0.0015 -0.0048,-0.01272 0.0097,-0.06914 0.111312,-0.164793 0.01858,-0.02691 0.03065,-0.04124 0.03525,-0.04477 1.93e-4,-1.23e-4 9.93e-4,-7.3e-4 0.0012,-7.71e-4 h 4.06e-4 4.06e-4 v 3.85e-4 4.06e-4 4.06e-4 3.85e-4 c 0.01253,-0.02177 0.02921,-0.05082 0.04952,-0.08437 -0.0018,0.0023 0.0074,-0.01786 0.02297,-0.05067 0.01674,-0.03542 0.02038,-0.100832 0.131909,-0.185391 a 0.40567277,0.40567277 0 0 1 0.02377,-0.06891 c -0.01562,0.03158 -0.01014,0.02223 -0.0016,-0.0061 0.0077,-0.02553 0.01269,-0.0673 0.05942,-0.143399 0.01909,-0.03856 0.03562,-0.06707 0.04714,-0.08874 0.01574,-0.03534 0.02278,-0.0522 0.02496,-0.0555 l 4.05e-4,-3.85e-4 v -4.06e-4 h 4.06e-4 v 4.06e-4 c -1.63e-4,0.0023 -0.0026,0.01196 -0.0064,0.02614 a 0.40567277,0.40567277 0 0 1 0.01941,-0.05542 c 0.01066,-0.02499 0.01528,-0.03725 0.01703,-0.04124 a 0.40567277,0.40567277 0 0 1 0.02021,-0.06815 c 0.01848,-0.0453 0.02858,-0.06431 0.03209,-0.06891 l 4.06e-4,-3.85e-4 4.05e-4,-4.06e-4 h 4.06e-4 4.06e-4 v 4.06e-4 c -6.5e-5,4.46e-4 -5.07e-4,0.0015 -7.71e-4,0.0023 -2.23e-4,0.0097 -0.0035,0.01104 -0.0012,0.02691 a 0.40567277,0.40567277 0 0 1 0.0028,-0.02813 c -5.2e-5,0 7.3e-4,-7.71e-4 0.0012,-0.0015 h 4.06e-4 a 0.40567277,0.40567277 0 0 1 0,-0.01824 0.40567277,0.40567277 0 0 1 0.0099,-0.128344 0.40567277,0.40567277 0 0 1 0.0202,-0.119628 0.40567277,0.40567277 0 0 1 0.01941,-0.1232 c -0.01,0.03028 -0.01703,0.04661 -0.02021,0.04952 v 4.06e-4 h -4.06e-4 v 3.85e-4 h -4.05e-4 l -4.06e-4,-3.85e-4 -3.85e-4,-4.06e-4 v -4.06e-4 c -0.0018,-0.0085 0.0083,-0.05895 0.03367,-0.149339 a 0.40567277,0.40567277 0 0 1 0.0031,-0.01188 c 0.0119,-0.03825 0.01676,-0.05473 0.01822,-0.05826 v -4.06e-4 h 4.06e-4 c 9.2e-5,5.28e-4 -2.44e-4,0.0023 -7.71e-4,0.0061 a 0.40567277,0.40567277 0 0 1 0.01188,-0.04913 c 0.0089,-0.02997 0.01218,-0.04638 0.01307,-0.04914 h 4.06e-4 c -5.6e-5,0.0015 -8.52e-4,0.0077 -0.0016,0.0174 a 0.40567277,0.40567277 0 0 1 0.01347,-0.07604 c 0.0032,-0.01157 0.0063,-0.02882 0.01069,-0.06017 a 0.40567277,0.40567277 0 0 1 0.0091,-0.04477 c 0.01186,-0.04553 0.0145,-0.06408 0.01426,-0.06378 a 0.40567277,0.40567277 0 0 1 0.0064,-0.03641 c 4.06e-4,0.02882 0.0064,0.07213 0.02734,0.125569 A 0.40567277,0.40567277 0 0 1 17.612624,9.22112 c -6.28e-4,0.0031 -0.0015,0.0061 -0.0024,0.0099 -7.2e-5,-0.01648 0.0015,-0.02813 0.0031,-0.03327 a 0.40567277,0.40567277 0 0 1 0.0075,-0.05902 c -0.01322,-0.03105 -0.05123,-0.07198 0.01228,-0.196874 0.0018,-0.0084 0.0035,-0.01748 0.0055,-0.02652 0.0044,-0.01909 0.0092,-0.03787 0.01941,-0.06853 0.0038,-0.01142 0.0084,-0.02445 0.01624,-0.04201 -0.0026,-0.01418 -2.84e-4,-0.06738 0.01069,-0.157266 0.0071,-0.05757 0.02077,-0.06301 0.03605,-0.09744 -0.0041,-0.0279 -0.01275,-0.05443 -0.0016,-0.130329 0.0046,-0.0322 0.01069,-0.0788 0.021,-0.134683 l -0.0031,0.01349 c 0.0018,-0.01196 0.0063,-0.04438 0.01069,-0.07922 0.0022,-0.0174 0.0046,-0.03526 0.0091,-0.05979 0.0022,-0.01226 0.0041,-0.02553 0.0103,-0.04791 v -4.06e-4 c 2.64e-4,-5.27e-4 9.13e-4,-0.0015 0.0012,-0.0023 l 3.85e-4,-4.05e-4 v -4.06e-4 c -2.3e-5,0 2.6e-5,-0.0015 0,-0.0015 -0.0028,-0.023 -0.02173,-0.03289 -0.0031,-0.152513 7.6e-5,-6.09e-4 5.68e-4,-0.023 0.0031,-0.05979 0.0012,-0.01664 0.02834,-0.07919 0.0301,-0.106559 a 0.40567277,0.40567277 0 0 1 0.0012,-0.01939 l -0.01941,0.05703 c 0.0045,-0.04285 0.01107,-0.05297 0.01941,-0.07962 a 0.40567277,0.40567277 0 0 1 0,-0.0077 c 1.53e-4,-0.0015 -7.51e-4,-0.03848 0.0031,-0.107746 a 0.40567277,0.40567277 0 0 1 0,-0.01073 c 0.0024,-0.02867 0.0038,-0.06769 0.0075,-0.116853 0.0011,-0.01503 -0.0025,-0.05374 0.0079,-0.13072 0.0023,-0.03457 0.0064,-0.07029 0.0099,-0.105769 0.0019,-0.04975 0.0045,-0.03687 0.01069,-0.0614 a 0.40567277,0.40567277 0 0 1 -0.006,-0.03289 c -1.7e-4,0.0081 -4.46e-4,0.01495 -4.06e-4,0.02016 0.0012,0.008 0.0014,0.01418 0.0012,0.01625 v 4.05e-4 h -4.06e-4 v -4.05e-4 c -3.24e-4,-0.0015 -6.89e-4,-0.0061 -7.7e-4,-0.01625 -3.65e-4,-0.0023 -6.29e-4,-0.0054 -0.0012,-0.0083 -0.0055,-0.02744 -0.03161,-0.05381 -0.01506,-0.196084 3.85e-4,-0.02407 7.5e-4,-0.04776 0.0016,-0.07014 -7.3e-4,-0.04155 -7.51e-4,-0.05857 0,-0.06217 v -3.85e-4 h 4.05e-4 3.86e-4 c 1.93e-4,4.87e-4 5.68e-4,0.0015 7.7e-4,0.0031 a 0.40567277,0.40567277 0 0 1 -0.0031,-0.03327 c 7e-6,2.44e-4 -0.0045,-0.03963 -0.0103,-0.10458 a 0.40567277,0.40567277 0 0 1 -0.0016,-0.01073 c -0.0015,-0.02576 -0.0038,-0.06209 -0.006,-0.08992 -2.43e-4,-0.0031 -5.27e-4,-0.0061 -7.7e-4,-0.0091 -0.0066,-0.02223 -0.0088,-0.03181 -0.0087,-0.03449 v -4.06e-4 -3.85e-4 h 4.05e-4 v 3.85e-4 h 4.06e-4 v 4.06e-4 l 4.06e-4,4.06e-4 c 0.0018,0.0031 0.005,0.01 0.0051,0.01188 4.06e-4,0.0038 0.0015,0.01234 0.0024,0.02215 0.0028,0.0096 0.0064,0.02116 0.01109,0.03603 a 0.40567277,0.40567277 0 0 1 -0.01663,-0.08516 c -0.0011,-0.01142 -0.005,-0.02614 -0.0103,-0.07167 -0.01179,-0.08917 -0.01561,-0.06592 0.01663,0.0061 a 0.40567277,0.40567277 0 0 1 -0.02971,-0.102205 c 0.0012,0.0078 0.0012,0.0125 7.71e-4,0.01426 v 4.06e-4 4.06e-4 h -4.05e-4 -4.06e-4 v -4.06e-4 l -4.06e-4,-4.06e-4 c -0.0045,-0.0077 -0.01739,-0.05404 -0.0301,-0.131908 -0.0088,-0.03909 -0.02255,-0.08572 -0.02337,-0.09348 V 6.18207 6.181664 h 4.05e-4 c 0.0016,0.0023 0.0066,0.01372 0.01624,0.0384 a 0.40567277,0.40567277 0 0 1 -0.01545,-0.05074 c -0.0069,-0.0299 -0.0028,-0.01441 -0.0048,-0.03128 a 0.40567277,0.40567277 0 0 1 -0.01506,-0.03449 c -8.52e-4,-0.0031 -8.52e-4,-0.0054 -7.7e-4,-0.0061 v -4.05e-4 -4.06e-4 h 4.05e-4 v 4.06e-4 h 3.86e-4 c 0.0028,0.0031 0.0107,0.01993 0.01228,0.02415 1.14e-4,-4.46e-4 -0.0012,-0.008 -0.0016,-0.01027 a 0.40567277,0.40567277 0 0 1 -0.05546,-0.106558 c 0.01202,0.04047 0.0083,0.02499 -0.0016,0.0061 -0.0098,-0.01847 -0.02183,-0.0233 -0.05387,-0.115274 -0.01333,-0.03825 -0.01178,-0.03748 -0.02258,-0.06301 a 0.40567277,0.40567277 0 0 1 -0.0044,-0.0087 c -0.0081,-0.02039 -0.01608,-0.04116 -0.02258,-0.05742 -0.0094,-0.01319 -0.01079,-0.01932 -0.01069,-0.02215 4.5e-5,-3.85e-4 -7.2e-5,-7.7e-4 0,-0.0015 a 0.40567277,0.40567277 0 0 1 -0.01466,-0.02852 c -2.63e-4,-5.67e-4 -2.23e-4,-4.25e-4 -4.05e-4,-7.7e-4 l -4.06e-4,-3.86e-4 c -1.09e-4,-2.23e-4 6.1e-5,-6.69e-4 0,-7.7e-4 -2.43e-4,-5.28e-4 -4.46e-4,-7.71e-4 -4.06e-4,-7.71e-4 l -4.05e-4,-4.06e-4 a 0.40567277,0.40567277 0 0 1 -0.02377,-0.03603 c 0.0064,0.01226 0.0096,0.01932 0.0103,0.02177 v 4.05e-4 3.86e-4 4.05e-4 h -4.06e-4 l -4.05e-4,-4.05e-4 c -0.0047,-0.0046 -0.0247,-0.03496 -0.05308,-0.07803 a 0.40567277,0.40567277 0 0 1 -0.01347,-0.021 c -0.0073,-0.01265 -0.02221,-0.0384 -0.04357,-0.07014 a 0.40567277,0.40567277 0 0 1 -0.006,-0.0079 c -0.0119,-0.01863 -0.02957,-0.04553 -0.04952,-0.07328 -0.03274,-0.04576 -0.02537,-0.03733 -0.02813,-0.0404 a 0.40567277,0.40567277 0 0 1 -0.01941,-0.021 c -0.0118,-0.01464 -0.02399,-0.03066 -0.03288,-0.04116 -0.0086,-0.0061 -0.01268,-0.0102 -0.01387,-0.0115 h -4.06e-4 V 5.33251 h 4.06e-4 v 4.05e-4 h 4.05e-4 c 9.94e-4,5.07e-4 0.0027,0.0015 0.0048,0.0031 a 0.40567277,0.40567277 0 0 1 -0.02496,-0.02415 c 2.84e-4,3.65e-4 2.44e-4,7.71e-4 4.06e-4,0.0015 v 4.05e-4 h 4.06e-4 v 3.86e-4 h -4.06e-4 V 5.31377 c -0.0032,-0.0015 -0.01656,-0.01272 -0.04793,-0.04162 a 0.40567277,0.40567277 0 0 1 -0.0044,-0.0046 c -0.01057,-0.01 -0.01766,-0.01679 -0.02178,-0.021 a 0.40567277,0.40567277 0 0 1 -0.02456,-0.01939 c 0.01161,0.01035 -0.02972,-0.0187 -0.07962,-0.05542 -0.02248,-0.01656 -0.02626,-0.02054 -0.02694,-0.02139 h -4.06e-4 v -4.06e-4 c -5.88e-4,-2.84e-4 -0.0025,-7.71e-4 -0.0071,-0.0038 a 0.40567277,0.40567277 0 0 1 -0.01782,-0.01226 c -0.01139,-0.0077 -0.059,-0.03511 -0.0717,-0.04201 a 0.40567277,0.40567277 0 0 1 -0.0087,-0.0038 v 4.06e-4 h -4.06e-4 -3.85e-4 c -0.0064,-0.0015 -0.04536,-0.01809 -0.102993,-0.05351 -0.0067,-0.0038 -0.02923,-0.01311 -0.03328,-0.01549 h -4.06e-4 v -4.05e-4 c 5.28e-4,7.7e-5 0.0019,5.27e-4 0.004,0.0015 a 0.40567277,0.40567277 0 0 1 -0.01506,-0.0061 c -0.01924,-0.0077 -0.02491,-0.01004 -0.02694,-0.01188 l -4.06e-4,-4.06e-4 -4.05e-4,-3.85e-4 V 5.001 c -2.44e-4,-4.66e-4 -7.71e-4,-0.0015 -0.0012,-0.0023 l -4.06e-4,-4.06e-4 c -0.0013,-0.0015 -0.0038,-0.0038 -0.0095,-0.0069 -0.0513,0.0077 -0.06996,0.0348 -0.122799,0.02215 -1.54e-4,-2.4e-5 -0.0015,3e-5 -0.0016,0 -0.006,-0.0015 -0.03823,-0.0077 -0.07487,-0.01625 -0.04412,-0.0089 -0.102585,-0.02192 -0.122799,-0.02576 -0.03763,-0.0054 -0.07094,-0.0096 -0.09903,-0.01188 -0.115513,-0.0098 -0.121592,-0.04017 -0.156469,-0.06692 z m 1.109154,0.451192 c 0.005,0.0038 0.01138,0.0082 0.01981,0.01426 a 0.40567277,0.40567277 0 0 1 -0.02337,-0.01824 c 7.1e-4,6.89e-4 0.0014,0.0015 0.002,0.0023 5.28e-4,6.08e-4 9.94e-4,0.0015 0.0016,0.0023 z m 0.276497,0.398101 a 0.40567277,0.40567277 0 0 0 0.004,0.0069 c -0.0015,-0.0038 -0.0028,-0.0061 -0.0036,-0.0077 -5.1e-5,2.44e-4 -3.25e-4,4.87e-4 -4.06e-4,7.71e-4 z m 0.004,0.0069 c 2.64e-4,6.69e-4 5.07e-4,0.0015 7.71e-4,0.0023 0.0018,0.0046 0.0038,0.0093 0.006,0.01464 0.0081,0.01127 0.02207,0.02798 0.04595,0.05351 a 0.40567277,0.40567277 0 0 1 -0.05268,-0.07014 z m 0.07288,3.447887 a 0.40567277,0.40567277 0 0 0 -7.71e-4,0.02338 c 0.0029,-0.01387 0.0037,-0.02223 0.0031,-0.02537 v -4.06e-4 -3.85e-4 h -4.05e-4 v -4.06e-4 h -4.06e-4 -4.05e-4 v 4.06e-4 c -2.84e-4,5.27e-4 -8.52e-4,0.0015 -0.0012,0.0031 z m -4.191018,3.170985 -0.0051,-0.01587 c 0.0015,0.0061 0.0031,0.01119 0.0051,0.01587 z m -0.265009,-0.742336 c -1.12e-4,-1.53e-4 1.14e-4,-5.82e-4 0,-7.67e-4 l -4.05e-4,-3.91e-4 c 8e-5,3.67e-4 3.04e-4,7.67e-4 4.05e-4,0.0015 z m 2.85528,-6.692563 a 0.40567277,0.40567277 0 0 1 -0.01663,0.0046 c -0.0052,1.92e-4 -0.0075,1.15e-4 -0.0083,0 h -4.06e-4 v -4.05e-4 h 4.06e-4 4.05e-4 c 4.87e-4,-1.23e-4 0.0015,-6.7e-4 0.002,-7.71e-4 h 4.06e-4 4.05e-4 v -4.06e-4 c -5.88e-4,-5.3e-5 -0.002,-1.5e-5 -0.0036,0 a 0.40567277,0.40567277 0 0 1 -0.02694,0.01939 c 0.04473,-0.008 0.02902,-0.01165 0.05229,-0.02261 z m 0.972095,0.01027 a 0.40567277,0.40567277 0 0 1 -0.0031,0.0015 c -9.13e-4,5.68e-4 -0.0018,7.71e-4 -0.0031,0.0023 -0.0015,7.71e-4 -0.0048,0.0023 -0.0087,0.0031 a 0.40567277,0.40567277 0 0 1 -0.08794,0.02415 c 0.02102,3.25e-4 0.04023,5.28e-4 0.0515,-0.0046 0.03409,-0.01472 0.04946,-0.02392 0.0515,-0.02576 z m -0.05071,0.01111 c -0.03037,0.0038 -0.0693,0.0081 -0.09507,0.0174 0.03081,-0.0031 0.06346,-0.009 0.09507,-0.0174 z m -0.199647,0.01464 c 0.01104,0.0038 0.01391,0.0069 0.02813,0.01027 0.01495,0 0.02668,-3.04e-4 0.03961,-0.0015 a 0.40567277,0.40567277 0 0 1 -0.06774,-0.0087 z m -0.0301,0.0077 a 0.40567277,0.40567277 0 0 1 -0.0301,0.0077 c 0.01305,0.0038 0.02376,-0.0038 0.03763,-0.0015 -0.0032,-0.0023 -0.0051,-0.0046 -0.0075,-0.0061 z m 0.103785,0.0015 c -0.01107,0.0023 -0.02035,0.0015 -0.03328,0.0046 0.0098,0.0015 0.0067,0.0054 0.01782,0.0061 0.0092,6.69e-4 0.01776,-0.0061 0.02694,-0.01027 a 0.40567277,0.40567277 0 0 1 -0.01149,-4.06e-4 z m -1.184814,0.01226 a 0.40567277,0.40567277 0 0 1 -0.121214,0.151317 c 0.0079,-0.0061 0.0153,-0.0046 0.02258,-0.01073 0.06166,-0.0532 0.08813,-0.111242 0.09864,-0.140624 z m 2.089964,1.131729 c 0.0014,0.0054 0.0032,0.0061 0.0048,0.01073 0.0014,0.0023 0.0018,0.0038 0.002,0.0046 v 4.05e-4 3.86e-4 c -5.2e-5,1.76e-4 6.29e-4,6.89e-4 0.0055,0.0069 a 0.40567277,0.40567277 0 0 1 -0.01228,-0.02261 z m 0.0614,1.994106 -0.0067,0.01863 c 0.0024,-0.0031 0.005,-0.0077 0.0083,-0.01702 a 0.40567277,0.40567277 0 0 1 -0.0016,-0.0015 z m 0.0048,0.03212 c -4.26e-4,0.0023 -0.0022,0.0054 -0.0028,0.0077 l -4.06e-4,4.05e-4 v 4.06e-4 c -0.0018,0.07366 0.01412,0.110123 0.01941,0.12438 a 0.40567277,0.40567277 0 0 1 -0.01624,-0.132705 z m -4.776096,0.363253 c -0.0088,0.01112 -0.01163,0.02139 -0.01387,0.03128 0.004,-0.01089 0.0083,-0.02269 0.01387,-0.03128 z m 4.686572,0.238467 c -0.002,0.01372 -0.0038,0.02522 -0.0055,0.03404 0.0015,-0.0031 0.0041,-0.0069 0.0055,-0.0099 -0.0053,0.01288 -0.0074,0.01725 -0.0091,0.02415 v 7.71e-4 c -1.78e-4,6.28e-4 -6.29e-4,0.0015 -7.71e-4,0.0023 l -0.002,0.01066 c 0.005,-0.01418 0.0089,-0.02468 0.01347,-0.03603 a 0.40567277,0.40567277 0 0 1 0,-0.0046 0.40567277,0.40567277 0 0 1 -0.0016,-0.021 z m 0.006,0.0061 c -6.29e-4,0.0023 -0.0011,0.0061 -0.0028,0.01027 h 4.05e-4 l 4.06e-4,-3.86e-4 c 0.0012,-0.0023 0.0015,-0.0069 0.002,-0.0099 z M 1.97534,8.851703 c 0.008,4.06e-4 0.0238,0.0015 0.0273,0.0015 2e-4,8e-6 10e-4,-8e-6 0.002,0 v -0.0015 a 0.40567277,0.40567277 0 0 1 -0.0289,0 z m 0.0273,0.0015 c -0.005,1.5e-5 -0.0303,0 -0.0329,0 0.002,7.71e-4 0.0243,0.0088 0.0281,0.01027 z m 0.28283,-0.0015 c -0.0957,0 -0.23396,0.0015 -0.27967,0.0015 0.0455,0.0015 0.18189,0.0081 0.27808,0.01188 8.6e-4,-0.0046 7.6e-4,-0.0046 0.002,-0.0091 a 0.40567277,0.40567277 0 0 1 0.002,0.0091 c 0.028,7.71e-4 0.08,0.0031 0.0824,0.0031 -2.6e-4,-0.0054 3.7e-4,-0.0088 0,-0.01664 -0.002,8e-6 -0.0543,-8.4e-5 -0.0824,0 z m 3.87134,0.04354 c -0.003,0.01878 -0.002,0.02576 -0.002,0.02813 v 4.06e-4 4.05e-4 h 3.9e-4 4.1e-4 l 0.002,0.0023 a 0.40567277,0.40567277 0 0 1 0.001,-0.03128 z m 0.2357,0.01664 -0.12003,0.119628 v 0.021 l 0.021,0.02261 c 0.006,-0.01786 0.0149,-0.04017 0.0151,-0.0404 l -0.0107,0.04477 0.0123,0.01349 c 0.007,-0.02062 0.0189,-0.03434 0.0285,-0.05389 a 0.40567277,0.40567277 0 0 1 0.0539,-0.127156 z m -0.0963,0.199249 v 4.06e-4 3.85e-4 l 4.1e-4,4.06e-4 v 4.06e-4 3.85e-4 l 4e-4,4.06e-4 c 1.2e-4,1.91e-4 2.8e-4,7.7e-4 4.1e-4,0.0015 l 4e-4,4.06e-4 v 3.85e-4 c 3e-5,1.38e-4 -1e-5,6.49e-4 0,7.71e-4 v 4.05e-4 h 4.1e-4 l 4e-4,-4.05e-4 h 4.1e-4 l 4e-4,-4.06e-4 v -4.06e-4 a 0.40567277,0.40567277 0 0 1 -0.003,-0.0046 z m 19.98616,0.02974 -0.01347,7.71e-4 a 0.40567277,0.40567277 0 0 1 0.0012,0.01265 0.40567277,0.40567277 0 0 1 0.01981,0.04515 z M 4.07909,9.233962 3.82913,9.254122 a 0.40567277,0.40567277 0 0 1 -0.0479,0.0015 l -0.3173,-0.01066 -0.31452,-0.0087 -0.2963,0.0061 -0.14538,0.01939 a 0.40567277,0.40567277 0 0 1 -0.1331,-0.0046 l -0.0872,-0.01824 c -10e-4,0.0046 -2e-4,0.0061 -0.002,0.01066 -0.002,0.0054 -0.0114,0.0105 -0.0135,0.01663 -0.003,0.01495 0.002,0.04546 -10e-4,0.05665 -0.011,0.04454 -0.0151,0.09006 -0.007,0.01786 -0.004,0.02522 -0.0114,0.05305 -0.0139,0.0824 a 0.40567277,0.40567277 0 0 1 0.008,0.02851 l 0.0206,-0.106159 c 0.0117,0.08312 -0.004,0.09579 -0.0135,0.136262 a 0.40567277,0.40567277 0 0 1 0.002,0.0046 c -3e-4,-0.0023 -1.4e-4,-0.0038 0,-0.0046 v -4.06e-4 -4.06e-4 h 4.1e-4 4e-4 l 4.1e-4,4.06e-4 c 0.007,0.0093 0.0314,0.08735 0.0364,0.220644 0.009,0.02407 0.0436,0.08618 0.0214,0.238865 2e-5,0.04293 -0.005,0.07106 -0.006,0.08477 a 0.40567277,0.40567277 0 0 1 0.004,0.02376 c 0.004,0.03449 0.0323,0.121582 0.042,0.269366 0.006,0.06178 0.006,0.08358 0.0151,0.149738 a 0.40567277,0.40567277 0 0 1 0.002,0.01066 c -10e-4,-0.01173 -0.002,-0.01824 -0.002,-0.02024 v -3.85e-4 h 4e-4 4.1e-4 c 0.003,0.0054 0.0144,0.05151 0.0305,0.111701 0.0184,0.06861 0.0583,0.204501 -0.002,0.359689 -0.009,0.04254 -0.0218,0.07282 -0.0297,0.09428 0.007,0.0128 0.0547,0.0829 0.0467,0.251536 0.006,0.02123 0.0152,0.05274 0.0265,0.09269 0.0166,0.05849 0.0363,0.149332 0.0135,0.265012 -0.009,0.04645 -0.0508,0.07842 -0.0749,0.122802 -0.0181,0.06171 -0.0248,0.158837 -0.0376,0.186969 -5.5e-4,0.044 -0.009,0.06086 -0.0135,0.07489 a 0.40567277,0.40567277 0 0 1 0.0404,0.08834 c -0.002,-0.01503 -0.003,-0.02269 -0.002,-0.02453 v -3.99e-4 h 4e-4 3.9e-4 v 3.99e-4 c 0.004,0.0061 0.017,0.0473 0.0392,0.09348 0.0169,0.03518 0.038,0.07784 0.0582,0.137857 0.0163,0.04837 0.0419,0.111211 0.0337,0.211131 0.004,0.06454 6.9e-4,0.114929 -3.9e-4,0.139045 -7.3e-4,0.01625 -9.1e-4,0.021 -7.7e-4,0.02215 h 4.1e-4 l 4.1e-4,3.92e-4 a 0.40567277,0.40567277 0 0 1 0.006,0.03012 c 0.009,0.0568 0.0507,0.183995 0.0642,0.363644 0.01,0.08729 10e-4,0.0886 -0.0103,0.131909 a 0.40567277,0.40567277 0 0 1 0.0432,0.0911 c -0.005,-0.02706 -0.01,-0.04515 -0.0135,-0.05542 -0.003,-0.0061 -0.004,-0.0094 -0.004,-0.01027 l 4e-4,3.99e-4 c 6.7e-4,0.0015 0.002,0.0046 0.004,0.0099 0.004,0.0079 0.0104,0.02016 0.021,0.03603 0.0413,0.06186 0.11651,0.186893 0.13785,0.347401 l -0.003,-0.02415 c 0.0304,0.156254 0.0381,0.280382 0.0539,0.332354 a 0.40567277,0.40567277 0 0 1 0.0103,0.03764 c -5.6e-4,-0.0031 -8.5e-4,-0.0046 -7.7e-4,-0.0054 v -4e-4 h 4.1e-4 l 4e-4,4e-4 c 0.006,0.0081 0.0321,0.07994 0.0658,0.165575 0.0207,0.05274 0.0454,0.114983 0.057,0.208364 0.003,0.02392 -0.0235,0.06669 -0.0242,0.09705 0.0137,0.12448 -5.1e-4,0.244093 -0.0103,0.284414 -5.8e-4,0.0023 -10e-4,0.0046 -0.002,0.0069 0.0191,0.102832 0.0129,0.163298 0.0135,0.177464 a 0.40567277,0.40567277 0 0 1 0.0527,0.104971 c -6.9e-4,-0.0031 -0.001,-0.0054 -7.7e-4,-0.0061 v -3.91e-4 h 4e-4 v -4e-4 l 4.1e-4,-3.99e-4 h 4e-4 l 4.1e-4,-3.92e-4 h 4e-4 v 3.92e-4 c 0.015,0.0054 0.0904,0.120455 0.14538,0.33394 v 0.0015 c 0.0295,0.117137 0.0116,0.117697 0.003,0.149738 a 0.40567277,0.40567277 0 0 1 0.0705,0.127156 c -8.5e-4,-0.0031 -10e-4,-0.0054 -0.002,-0.0069 v -4e-4 -3.99e-4 -3.92e-4 h 4e-4 4.1e-4 v 3.92e-4 c 0.006,0.0091 0.0344,0.07504 0.0697,0.13627 0.0452,0.07841 0.0998,0.145361 0.14656,0.296303 a 0.40567277,0.40567277 0 0 1 0.003,0.01066 c 0.0108,0.03848 0.0358,0.105063 0.063,0.182615 0.0233,0.06646 0.0529,0.134331 0.0626,0.246791 0.0378,0.141207 0.0374,0.209652 0.0555,0.266592 a 0.40567277,0.40567277 0 0 1 0,0.0015 c 0.0536,0.172666 0.0407,0.195256 0.0733,0.253131 a 0.40567277,0.40567277 0 0 1 0.0317,0.07328 c 1.2e-4,3.65e-4 0.0458,0.09367 0.0959,0.191722 0.025,0.04906 0.0519,0.101476 0.076,0.171922 0.0158,0.04615 0.0413,0.102672 0.0404,0.186571 0.0282,0.112706 0.0256,0.181857 0.0317,0.232925 0.0148,0.03503 0.0409,0.08821 0.0749,0.169147 0.0309,0.07366 0.0785,0.16595 0.0757,0.306605 0.0178,0.07321 0.0226,0.134024 0.0261,0.170726 0.005,0.05167 0.006,0.05282 0.006,0.05266 v 0.0015 c 0.0194,0.04645 0.13868,0.163659 0.17747,0.421473 0.0638,0.163452 0.0516,0.216558 0.0681,0.247581 a 0.40567277,0.40567277 0 0 1 0.0103,0.02261 c 0.007,0.01456 0.0621,0.102258 0.12003,0.197663 0.029,0.04768 0.059,0.0978 0.0879,0.16756 0.007,0.01633 0.002,0.05849 0.009,0.07804 0.0623,0.129892 0.087,0.239333 0.11092,0.345814 0.0748,0.144901 0.11738,0.260359 0.15132,0.336708 v 0.0015 c 0.0705,0.127945 0.13789,0.258382 0.16162,0.294716 a 0.40567277,0.40567277 0 0 1 0.008,0.01226 c 0.0658,0.109072 0.0833,0.141988 0.16003,0.249957 a 0.40567277,0.40567277 0 0 1 0.0107,0.01625 c 0.0643,0.100281 0.12988,0.198928 0.20638,0.301056 a 0.40567277,0.40567277 0 0 1 0.0107,0.01502 c 0.0153,0.02246 0.0742,0.09171 0.13904,0.16914 0.0543,0.06485 0.12832,0.109671 0.17707,0.263035 0.0319,0.04201 0.0668,0.08873 0.10141,0.139826 0.0214,0.03158 0.0365,0.09728 0.0586,0.134683 0.071,0.08822 0.11246,0.180232 0.12875,0.215493 0.009,0.01985 0.0101,0.02353 0.0115,0.02537 0.001,7.71e-4 0.003,0.0023 0.008,0.0077 a 0.40567277,0.40567277 0 0 1 0.003,0.0031 c 0.0945,0.109288 0.18792,0.219732 0.24124,0.268178 a 0.40567277,0.40567277 0 0 1 0.0238,0.02376 c 0.0748,0.08012 0.12411,0.12665 0.23213,0.226194 a 0.40567277,0.40567277 0 0 1 0.0107,0.01027 c 0.0985,0.09814 0.10083,0.116477 0.21549,0.203611 a 0.40567277,0.40567277 0 0 1 0.0313,0.02691 c 0.11731,0.109387 0.14318,0.152237 0.2246,0.196084 a 0.40567277,0.40567277 0 0 1 0.0749,0.05113 c 0.0362,0.03151 0.19353,0.122725 0.34582,0.240843 a 0.40567277,0.40567277 0 0 1 0.005,0.0031 c 0.0817,0.06531 0.18531,0.136999 0.30225,0.228962 l 0.0119,0.0091 c 0.0767,0.05665 0.16452,0.125377 0.23965,0.181029 0.0303,0.02238 0.0586,0.04339 0.0792,0.0578 0.0313,0.0069 0.0446,0.01188 0.0475,0.01464 v 4.06e-4 h 4.1e-4 v 3.85e-4 4.06e-4 4.06e-4 h -4.1e-4 v 3.85e-4 h -4e-4 c -0.003,0.0015 -0.0121,7.71e-4 -0.0202,-0.0015 a 0.40567277,0.40567277 0 0 1 0.0586,0.03173 c 0.0993,0.06416 0.0695,0.04231 0.19767,0.09744 a 0.40567277,0.40567277 0 0 1 0.0432,0.02215 c 0.0767,0.04461 0.21145,0.09518 0.3581,0.178254 l 0.0162,0.0091 c 0.11547,0.06017 0.20163,0.107969 0.30859,0.157258 0.11288,0.05205 0.20726,0.09154 0.3474,0.149339 h 10e-4 c 0.16522,0.06746 0.34367,0.142265 0.35057,0.143798 a 0.40567277,0.40567277 0 0 1 0.0657,0.01663 c 0.0822,0.0289 0.16132,0.03518 0.34741,0.08992 a 0.40567277,0.40567277 0 0 1 0.003,0.0015 c 0.11318,0.03427 0.24026,0.08103 0.34265,0.113688 0.0391,0.0125 0.074,0.02238 0.0959,0.02775 a 0.40567277,0.40567277 0 0 1 0.0408,-7.71e-4 c 0.0527,-0.0164 0.137285,-0.03388 0.218259,-0.02537 0.07014,0.0077 0.130934,0.0266 0.185387,0.05113 0.213709,0.04829 0.360959,0.120241 0.398504,0.12517 a 0.40567277,0.40567277 0 0 1 0.0028,0 c 0.146253,0.02131 0.294159,0.03886 0.447623,0.05427 0.155821,0.01564 0.324274,0.03833 0.501892,0.06577 0.112989,0.01748 0.228067,0.03971 0.317297,0.05389 0.05298,0.0084 0.113539,-7.71e-4 0.122799,0 l 4.06e-4,4.05e-4 h 4.05e-4 4.06e-4 v 4.06e-4 h -4.06e-4 v 3.85e-4 c -0.0044,0.0023 -0.02631,0.0094 -0.07289,0.02415 a 0.40567277,0.40567277 0 0 1 0.160432,-0.01664 c 0.118853,0.01111 0.175312,-0.0046 0.356117,-0.0077 a 0.40567277,0.40567277 0 0 1 0.03288,0.0015 c 0.104042,0.0069 0.240695,-0.0098 0.458318,0.01664 0.115412,0.0077 0.232419,0.02215 0.326408,0.03127 0.04273,0.0046 0.08069,0.0069 0.104577,0.0077 0.01554,-0.0054 0.02335,-0.0061 0.02575,-0.0054 h 4.05e-4 l 4.06e-4,4.06e-4 v 3.85e-4 l -4.06e-4,4.06e-4 -4.05e-4,4.05e-4 -4.06e-4,3.86e-4 -4.05e-4,4.05e-4 c -0.0024,0.0015 -0.0072,0.0031 -0.01268,0.0031 -0.0034,-3.1e-5 -0.0077,1.3e-4 -0.01228,0 -0.01339,0.0046 -0.03271,0.01188 -0.05981,0.02415 a 0.40567277,0.40567277 0 0 1 0.13191,-0.02852 c 0.07372,-0.0266 0.180069,-0.04944 0.299471,-0.04791 0.172247,-0.0031 0.437302,-0.0023 0.517738,-0.0091 a 0.40567277,0.40567277 0 0 1 0.01506,-0.0015 c 0.17935,-0.0094 0.456287,-0.03925 0.425439,-0.03128 a 0.40567277,0.40567277 0 0 1 0.05823,-0.01027 c 0.120512,-0.01203 0.215307,-0.0097 0.264216,-0.01188 a 0.40567277,0.40567277 0 0 1 0.15647,-0.06025 c 0.109005,-0.01771 0.152095,-0.03396 0.160827,-0.03404 h 4.06e-4 4.06e-4 4.05e-4 4.06e-4 v 4.06e-4 3.85e-4 4.06e-4 4.05e-4 c -0.0012,0.0023 -0.0047,0.0061 -0.0095,0.0115 a 0.40567277,0.40567277 0 0 1 0.21985,-0.128742 c 0.08293,-0.01794 0.133824,-0.04431 0.224604,-0.107747 a 0.40567277,0.40567277 0 0 1 0.13191,-0.05979 c 0.04302,-0.01104 0.139968,-0.08549 0.36206,-0.14973 0.143496,-0.0417 0.269721,-0.07527 0.371566,-0.113695 a 0.40567277,0.40567277 0 0 1 0.01782,-0.0061 c 0.106845,-0.03465 0.228432,-0.08516 0.375924,-0.134683 0.09039,-0.03227 0.206532,-0.08326 0.359287,-0.130329 0.153796,-0.05972 0.304144,-0.106459 0.388995,-0.14379 a 0.40567277,0.40567277 0 0 1 0.0064,-0.0015 c 0.156682,-0.06623 0.290971,-0.117719 0.318881,-0.136269 a 0.40567277,0.40567277 0 0 1 0.05506,-0.03166 c 0.02601,-0.01196 0.126623,-0.121383 0.356117,-0.190933 0.174454,-0.08269 0.300408,-0.118278 0.310168,-0.124779 a 0.40567277,0.40567277 0 0 1 0.03328,-0.01786 c 0.09047,-0.04768 0.192371,-0.118624 0.330765,-0.194895 0.06983,-0.03925 0.178465,-0.131556 0.36206,-0.208357 0.154427,-0.08913 0.266221,-0.132314 0.290757,-0.150926 a 0.40567277,0.40567277 0 0 1 0.02812,-0.01939 c 0.07955,-0.05036 0.17812,-0.133525 0.326409,-0.224607 0.0462,-0.03564 0.135579,-0.172504 0.382658,-0.256687 0.08164,-0.05013 0.150242,-0.07726 0.19529,-0.09824 0.03065,-0.01441 0.04835,-0.02675 0.0519,-0.02852 h 3.95e-4 c -0.0011,0.0015 -0.0056,0.0061 -0.01307,0.01426 a 0.40567277,0.40567277 0 0 1 0.0507,-0.04553 c 0.08936,-0.06692 0.134671,-0.106911 0.228961,-0.19925 a 0.40567277,0.40567277 0 0 1 0.03328,-0.03012 c 0.111188,-0.0874 0.20702,-0.163444 0.252729,-0.215493 a 0.40567277,0.40567277 0 0 1 0.04635,-0.04477 c 0.101742,-0.08414 0.192921,-0.165089 0.236698,-0.218748 a 0.40567277,0.40567277 0 0 1 0.04912,-0.05113 c 0.07269,-0.06278 0.146364,-0.144886 0.249956,-0.24837 a 0.40567277,0.40567277 0 0 1 0.01505,-0.01503 c 0.08047,-0.07244 0.170541,-0.167032 0.281646,-0.267779 l -0.0048,0.0061 c 0.09117,-0.08546 0.183275,-0.173547 0.277289,-0.261839 0.09702,-0.09452 0.187668,-0.178821 0.266197,-0.26065 a 0.40567277,0.40567277 0 0 1 0.0048,-0.0046 c -0.0018,0.0015 0.01559,-0.02537 0.06893,-0.09586 0.04319,-0.05711 0.116886,-0.137358 0.215097,-0.200837 0.08304,-0.08697 0.184659,-0.188579 0.331557,-0.274118 0.09686,-0.09577 0.180339,-0.15269 0.241637,-0.204401 0.07452,-0.07962 0.138069,-0.12517 0.173108,-0.15607 0.01205,-0.01058 0.01921,-0.01909 0.02297,-0.02376 a 0.40567277,0.40567277 0 0 1 0.05823,-0.09071 c -0.05035,0.0591 -0.04222,0.07504 -0.0095,-0.02177 0.02549,-0.07543 0.112795,-0.218414 0.238865,-0.312937 0.0879,-0.09058 0.164767,-0.130597 0.213116,-0.163206 0.02721,-0.01832 0.04175,-0.03473 0.04476,-0.03802 -0.0025,0.0038 -0.01165,0.01817 -0.02694,0.04791 a 0.40567277,0.40567277 0 0 1 0.04238,-0.06539 c 0.08801,-0.109885 0.13932,-0.178177 0.156866,-0.218268 a 0.40567277,0.40567277 0 0 1 0.0511,-0.08556 c 0.02829,-0.03656 0.07032,-0.137657 0.170334,-0.273322 -2.43e-4,2.44e-4 -6.08e-4,2.24e-4 -7.71e-4,3.86e-4 l -4.05e-4,4.05e-4 h -4.06e-4 -4.05e-4 v -4.05e-4 c 9.12e-4,-0.0054 0.01508,-0.03565 0.04119,-0.09665 0.03423,-0.07994 0.127154,-0.194213 0.24243,-0.273321 0.154252,-0.180906 0.281312,-0.216267 0.289172,-0.221043 0.05473,-0.07635 0.116743,-0.158178 0.190141,-0.24243 0.0738,-0.107623 0.139306,-0.161443 0.167561,-0.191722 0.0045,-0.0046 0.0079,-0.0086 0.0103,-0.0115 a 0.40567277,0.40567277 0 0 1 0.04832,-0.09903 c 0.05446,-0.08204 0.105861,-0.18687 0.121215,-0.238076 a 0.40567277,0.40567277 0 0 1 0.04635,-0.101798 c 0.07199,-0.112008 0.103603,-0.165605 0.112104,-0.199257 a 0.40567277,0.40567277 0 0 1 0.04793,-0.115266 c 0.03296,-0.05289 0.06789,-0.14494 0.130326,-0.278481 a 0.40567277,0.40567277 0 0 1 0.01941,-0.03725 c -0.0051,0.0085 -0.0082,0.01334 -0.0099,0.01502 l -4.06e-4,4.06e-4 -4.06e-4,3.85e-4 h -4.05e-4 -4.06e-4 v -3.85e-4 c 3.25e-4,-0.0061 0.0144,-0.04216 0.03565,-0.10537 0.0251,-0.07466 0.09035,-0.206609 0.206382,-0.30383 0.06335,-0.07405 0.121225,-0.09922 0.149736,-0.115274 a 0.40567277,0.40567277 0 0 1 0.01069,-0.02576 c 0.0301,-0.05236 0.08519,-0.189262 0.150925,-0.32324 a 0.40567277,0.40567277 0 0 1 0.0091,-0.01939 c 0.04729,-0.0845 0.09855,-0.188673 0.160503,-0.301058 0.06129,-0.112721 0.114684,-0.201296 0.148151,-0.274118 a 0.40567277,0.40567277 0 0 1 0.0103,-0.02062 c 0.03123,-0.05902 0.06779,-0.185137 0.175088,-0.343047 0.0584,-0.10537 0.112979,-0.193339 0.110915,-0.186969 a 0.40567277,0.40567277 0 0 1 0.02258,-0.05389 c 0.03302,-0.06592 0.06311,-0.156154 0.11963,-0.27848 a 0.40567277,0.40567277 0 0 1 0.0031,-0.0079 c 0.04044,-0.08283 0.08264,-0.179472 0.134683,-0.284421 7.6e-5,0 0.0015,-0.0015 0.0016,-0.0015 4.67e-4,-7.67e-4 7.5e-4,-0.0031 0.0012,-0.0038 l 4.06e-4,-3.91e-4 c 0.0086,-0.02307 0.0022,-0.166019 0.167561,-0.350574 0.0605,-0.117252 0.104834,-0.164755 0.112896,-0.167959 h 4.06e-4 4.05e-4 4.06e-4 v 3.99e-4 a 0.40567277,0.40567277 0 0 1 0.0055,-0.01188 c 0.0214,-0.04745 0.05649,-0.15492 0.127156,-0.284421 0.04159,-0.08283 0.0701,-0.113626 0.08398,-0.125967 a 0.40567277,0.40567277 0 0 1 0.01782,-0.08834 c 0.01916,-0.04461 0.03795,-0.113656 0.04041,-0.164785 a 0.40567277,0.40567277 0 0 1 0.0301,-0.137458 c -0.0074,0.01763 -0.01098,0.02645 -0.01228,0.02813 l -4.06e-4,4e-4 h -4.05e-4 v -4e-4 c 4.6e-5,-0.0046 0.0074,-0.03472 0.01307,-0.07922 0.0076,-0.06033 0.01276,-0.173348 0.09943,-0.294325 0.02398,-0.06102 0.07071,-0.16116 0.152509,-0.251145 0.04142,-0.07098 0.0819,-0.108214 0.101408,-0.131119 0.0017,-0.0023 0.0034,-0.0038 0.0048,-0.0054 0.0041,-0.02537 0.03518,-0.154498 0.129929,-0.304619 0.02483,-0.03695 0.02992,-0.04806 0.04952,-0.06577 a 0.40567277,0.40567277 0 0 1 0.0028,-0.0614 c -0.0031,0.0086 -0.0051,0.01357 -0.0064,0.01502 h -4.05e-4 v 4.06e-4 h -4.06e-4 -4.06e-4 v -4.06e-4 l -4.05e-4,-3.85e-4 c -0.0021,-0.008 0.0076,-0.06991 0.0079,-0.14182 a 0.40567277,0.40567277 0 0 1 0.02416,-0.134683 c 0.01029,-0.02867 0.01517,-0.03779 0.01743,-0.04001 h 4.05e-4 c -7.5e-4,-0.0023 -0.0016,-0.0091 -0.0016,-0.02453 a 0.40567277,0.40567277 0 0 1 0.02258,-0.133097 c 0.03069,-0.08739 0.02644,-0.04822 0.04793,-0.07962 -0.01757,-0.02652 -0.05057,-0.06677 -0.08081,-0.176675 a 0.40567277,0.40567277 0 0 1 -0.0064,-0.183804 h 4.06e-4 v -3.85e-4 c 4.46e-4,-0.0015 0.0015,-0.0069 0.0016,-0.01311 3.8e-5,-0.0015 4.2e-5,-0.0038 0,-0.0061 -6.29e-4,-0.0325 -0.01138,-0.101982 0.01941,-0.21708 a 0.40567277,0.40567277 0 0 1 0.0055,-0.01702 h -4.06e-4 -4.05e-4 -4.06e-4 v -4.06e-4 h -4.06e-4 c -9.6e-5,-1.69e-4 -3.04e-4,-7.71e-4 -4.05e-4,-0.0015 -0.0045,-0.01479 0.0016,-0.104612 0.07646,-0.233316 0.01601,-0.03948 0.03402,-0.07612 0.0515,-0.113296 0.01579,-0.05075 0.01713,-0.03664 0.03922,-0.07014 a 0.40567277,0.40567277 0 0 1 0.006,-0.0404 c -6.28e-4,0.0023 -0.0013,0.0031 -0.0016,0.0038 h -4.06e-4 c 6.9e-5,-0.0077 0.01003,-0.0614 0.01228,-0.09349 a 0.40567277,0.40567277 0 0 1 0.01664,-0.08834 c 0.0047,-0.01572 0.0084,-0.02821 0.01109,-0.03802 a 0.40567277,0.40567277 0 0 1 0.01584,-0.09982 c 0.0018,-0.0061 0.0039,-0.0061 0.006,-0.01188 a 0.40567277,0.40567277 0 0 1 -0.0031,-0.05228 h -0.006 c -0.0056,0.04515 -0.0084,0.0901 -0.0075,0.09547 0.0012,0.0077 -0.0011,-0.0038 -0.006,-0.02652 -0.0028,-0.01319 -0.0052,-0.04446 -0.0087,-0.06776 l -0.164789,0.01387 -0.269761,0.03289 a 0.40567277,0.40567277 0 0 1 -0.02971,0.0015 l -0.291946,0.01464 -0.269365,0.02852 a 0.40567277,0.40567277 0 0 1 -0.0091,0 l -0.281646,0.02415 a 0.40567277,0.40567277 0 0 1 -0.01624,0 l -0.331162,0.01464 -0.186972,0.02851 a 0.40567277,0.40567277 0 0 1 -0.06299,0.0061 h -0.315712 l -0.134683,0.01939 a 0.40567277,0.40567277 0 0 1 -0.08239,0.0031 l -0.396918,-0.02376 -0.276892,0.021 -0.244015,0.03449 a 0.40567277,0.40567277 0 0 1 -0.02416,0.0031 l -0.282834,0.02415 a 0.40567277,0.40567277 0 0 1 -0.01347,0 l -0.0614,0.0031 c 0.0051,0.01755 0.0074,0.01012 0.01188,0.03725 0.01476,0.08986 -0.01458,0.252739 -0.08834,0.347401 -0.02622,0.03365 -0.0491,0.03457 -0.07487,0.0555 -0.0073,0.008 -0.01343,0.03587 -0.01941,0.04201 -0.0077,0.0081 -0.0085,0.0077 -0.01505,0.01349 -0.0017,0.02131 -0.0022,0.04308 -0.0051,0.06654 l 0.0024,-0.0054 c -0.0015,0.009 -0.0038,0.01525 -0.0055,0.02376 -0.0018,0.0102 -0.0044,0.0207 -0.0075,0.03166 -0.01322,0.05519 -0.02879,0.103324 -0.04318,0.138646 7.31e-4,0.03887 -0.0044,0.133549 -0.06853,0.254311 -0.02098,0.08227 -0.03993,0.121024 -0.04753,0.127164 h -4.06e-4 l -4.05e-4,3.85e-4 h -4.06e-4 l -4.06e-4,4.06e-4 h -4.05e-4 -4.06e-4 l -4.05e-4,-4.06e-4 v -3.85e-4 h -4.06e-4 v -4.06e-4 l -4.06e-4,-4.06e-4 c -0.0051,0.03051 -0.0038,0.117475 -0.05347,0.255507 -0.02439,0.105424 -0.04971,0.163008 -0.05824,0.201228 -0.0235,0.105439 -0.03433,0.15492 -0.0404,0.161221 l -4.06e-4,4.06e-4 h -4.05e-4 -4.06e-4 -4.06e-4 -4.05e-4 v -4.06e-4 c -0.0021,-0.0031 -0.0041,-0.01418 -0.0055,-0.0325 a 0.40567277,0.40567277 0 0 1 -0.0087,0.122802 c -0.0061,0.02629 -0.008,0.103277 -0.02694,0.23054 a 0.40567277,0.40567277 0 0 1 -0.0075,0.03449 c -0.02034,0.0848 -0.0344,0.143207 -0.04952,0.233323 a 0.40567277,0.40567277 0 0 1 -0.0075,0.03166 c -0.02993,0.119345 -0.04501,0.176047 -0.0515,0.183804 l -4.06e-4,3.91e-4 h -4.05e-4 v 4e-4 h -4.06e-4 -4.06e-4 -4.05e-4 v -4e-4 h -4.06e-4 v -3.91e-4 l -4.05e-4,-3.99e-4 c -5.07e-4,-0.0015 -9.94e-4,-0.0046 -0.0012,-0.0079 a 0.40567277,0.40567277 0 0 1 -0.01109,0.121613 l 4.05e-4,-3.99e-4 v -3.92e-4 l 4.06e-4,-3.99e-4 4.06e-4,-4e-4 h 4.05e-4 4.06e-4 4.05e-4 v 4e-4 h 4.06e-4 c 0.0098,0.01196 0.02113,0.155855 -0.07566,0.370375 -0.01452,0.06922 -0.03021,0.183144 -0.125572,0.33394 -0.02452,0.04822 -0.05425,0.116592 -0.06457,0.134683 -4.87e-4,7.67e-4 -7.7e-4,0.0015 -0.0012,0.0023 a 0.40567277,0.40567277 0 0 1 -0.01506,0.07091 c -0.01485,0.04799 -0.02707,0.156376 -0.06299,0.30383 a 0.40567277,0.40567277 0 0 1 -0.0087,0.03013 c -0.02687,0.08226 -0.0539,0.208249 -0.110916,0.353341 -0.01623,0.05466 -0.02695,0.185874 -0.130326,0.353749 -0.03714,0.09941 -0.08352,0.212219 -0.156865,0.327593 -0.02115,0.05519 -0.04622,0.119866 -0.07527,0.185383 -0.02814,0.06347 -0.0466,0.122326 -0.103785,0.198859 -0.008,0.02399 -0.01903,0.05527 -0.03843,0.09903 -0.0172,0.03879 -0.06153,0.08077 -0.09269,0.124389 -0.0061,0.01564 -0.02267,0.08309 -0.07209,0.188556 -0.03572,0.0762 -0.103907,0.177633 -0.20361,0.257086 -0.05523,0.07658 -0.112516,0.122779 -0.146566,0.153295 -0.02507,0.02246 -0.0383,0.0371 -0.04278,0.04162 -0.04049,0.08733 -0.08922,0.194359 -0.159243,0.312944 -0.01246,0.03381 -0.0224,0.228502 -0.223019,0.414743 -0.08896,0.146427 -0.178513,0.225443 -0.209551,0.269765 -0.03131,0.07083 -0.0634,0.190181 -0.18816,0.328383 -0.01007,0.02614 -0.02779,0.06815 -0.05744,0.125178 -0.03814,0.07343 -0.115385,0.171009 -0.217473,0.244805 -0.08923,0.109027 -0.175573,0.144748 -0.212324,0.169937 a 0.40567277,0.40567277 0 0 1 -0.0091,0.02537 c -0.04876,0.0802 -0.09345,0.133135 -0.124779,0.165974 a 0.40567277,0.40567277 0 0 1 -0.03248,0.168357 c -5.8e-5,0.0038 -10e-5,0.0081 0,0.01303 0.0012,0.06148 0.01866,0.217479 -0.082,0.393747 a 0.40567277,0.40567277 0 0 1 -0.01663,0.02376 c -0.0077,0.0115 -0.04862,0.189016 -0.23728,0.361268 -0.117733,0.157281 -0.215369,0.229812 -0.229754,0.251146 a 0.40567277,0.40567277 0 0 1 -0.01069,0.01502 c -0.01717,0.0233 -0.06743,0.196184 -0.266594,0.357704 -0.118408,0.142034 -0.218591,0.212687 -0.242428,0.242429 a 0.40567277,0.40567277 0 0 1 -0.0028,0.0031 c -0.107855,0.131901 -0.201124,0.226317 -0.224603,0.263418 a 0.40567277,0.40567277 0 0 1 -0.03605,0.04791 c -0.07566,0.08742 -0.140604,0.135802 -0.179049,0.162808 a 0.40567277,0.40567277 0 0 1 -0.04041,0.09705 c -0.002,0.0077 -0.0044,0.01832 -0.0067,0.03212 -0.0074,0.04438 -0.01854,0.117612 -0.06734,0.208364 -0.0485,0.09021 -0.145789,0.186655 -0.25154,0.236481 l -0.0016,0.0015 c -0.04625,0.02951 -0.107774,0.07897 -0.131514,0.09269 -0.01291,0.0077 -0.02125,0.01303 -0.02575,0.01625 a 0.40567277,0.40567277 0 0 1 -0.04753,0.05588 c -0.109669,0.105056 -0.152945,0.148504 -0.164788,0.147362 h -3.95e-4 l -3.96e-4,-4.06e-4 h -3.95e-4 l -3.96e-4,-3.85e-4 -3.95e-4,-4.06e-4 -3.96e-4,-4.06e-4 c -0.0024,-0.0046 1.85e-4,-0.01786 0.0051,-0.03725 a 0.40567277,0.40567277 0 0 1 -0.08913,0.167959 c -1.72e-4,0.0015 -0.0102,0.01648 -0.02734,0.05266 -0.03457,0.07305 -0.124427,0.230142 -0.289172,0.322052 -0.09451,0.07482 -0.193764,0.150704 -0.315712,0.219846 -0.12042,0.08606 -0.237343,0.154392 -0.286004,0.191723 a 0.40567277,0.40567277 0 0 1 -0.01069,0.0091 c -0.113297,0.08086 -0.217538,0.14783 -0.306603,0.213906 a 0.40567277,0.40567277 0 0 1 -0.01981,0.01349 c -0.115045,0.07527 -0.218343,0.137749 -0.308186,0.200836 a 0.40567277,0.40567277 0 0 1 -0.02535,0.01625 c -0.07301,0.04346 -0.183511,0.13315 -0.359287,0.212718 l -0.0048,0.0031 c -0.149234,0.07574 -0.249433,0.10701 -0.27095,0.122801 a 0.40567277,0.40567277 0 0 1 -0.06418,0.03879 c -0.120985,0.05849 -0.210761,0.09901 -0.289172,0.152513 a 0.40567277,0.40567277 0 0 1 -0.06893,0.03764 c -0.01305,0.0054 -0.137884,0.119628 -0.388995,0.181029 -0.130766,0.04615 -0.263173,0.08415 -0.37434,0.115274 -0.163992,0.05335 -0.277396,0.04891 -0.348195,0.05351 a 0.40567277,0.40567277 0 0 1 -0.148944,0.08438 c -0.0027,0.0023 -0.0065,0.0061 -0.01188,0.01066 -0.03407,0.02967 -0.123593,0.121246 -0.280061,0.171915 a 0.40567277,0.40567277 0 0 1 -0.04635,0.01226 c -0.01506,0.0031 -0.05844,0.02016 -0.145378,0.04791 -0.07376,0.02346 -0.187865,0.05174 -0.318089,0.04201 -0.214311,0.02284 -0.370624,-0.0031 -0.384243,-0.0015 a 0.40567277,0.40567277 0 0 1 -0.01466,0.0031 c -0.190895,0.01709 -0.429079,0.02461 -0.441681,0.02691 a 0.40567277,0.40567277 0 0 1 -0.05268,0.0061 c -0.09131,0.0031 -0.158708,0.02461 -0.365229,0.01349 -0.110208,-0.0015 -0.177986,-0.0038 -0.387807,-0.01786 -0.162519,-0.0087 -0.410232,-0.02821 -0.573195,-0.04477 -0.148801,-0.0151 -0.311102,-0.02468 -0.491197,-0.0555 -0.125626,-0.02146 -0.227659,-0.05366 -0.302245,-0.07328 -0.04428,-0.0115 -0.08167,-0.01219 -0.08794,-0.01387 l -4.06e-4,-3.85e-4 h -4.05e-4 -4.06e-4 v -4.06e-4 h 4.06e-4 v -4.05e-4 c 0.003,-0.0015 0.01545,-0.0031 0.03922,-0.0077 a 0.40567277,0.40567277 0 0 1 -0.135476,7.71e-4 c 4.67e-4,9.2e-5 8.52e-4,3.04e-4 0.0012,3.85e-4 h 4.06e-4 l 4.06e-4,4.06e-4 v 4.06e-4 h -4.06e-4 c -0.0042,0.0015 -0.02543,0.0031 -0.08477,0.0069 -0.09741,0.0061 -0.277085,-0.02024 -0.417516,-0.101805 -0.130315,-0.05289 -0.235218,-0.11102 -0.314525,-0.137849 a 0.40567277,0.40567277 0 0 1 -0.0075,-0.0031 c -0.126631,-0.04592 -0.269138,-0.09983 -0.420686,-0.16162 a 0.40567277,0.40567277 0 0 1 -0.0091,-0.0046 c -0.123437,-0.05381 -0.266528,-0.115527 -0.407218,-0.18697 a 0.40567277,0.40567277 0 0 1 -0.003,-0.0015 c -0.11217,-0.05803 -0.24489,-0.12491 -0.37909,-0.211132 -0.003,-0.0015 -0.005,-0.0031 -0.008,-0.0046 -0.002,-0.0015 -0.003,-0.0023 -0.004,-0.0031 -0.12396,-0.07558 -0.25284,-0.162287 -0.36087,-0.24243 C 9.97588,22.342771 9.86604,22.258376 9.77022,22.179414 9.63508,22.071169 9.63839,22.044961 9.55196,21.988083 a 0.40567277,0.40567277 0 0 1 -0.0467,-0.03603 C 9.43276,21.887663 9.30432,21.79087 9.18519,21.683875 a 0.40567277,0.40567277 0 0 1 -0.0135,-0.01349 c -0.093,-0.09219 -0.085,-0.09841 -0.20361,-0.202024 a 0.40567277,0.40567277 0 0 1 -0.0301,-0.03013 C 8.87678,21.372081 8.72613,21.240101 8.60563,21.091221 8.52793,20.997621 8.45111,20.904458 8.36756,20.787 8.28676,20.679238 8.19702,20.554413 8.12038,20.430883 8.04268,20.316031 7.95578,20.186575 7.88983,20.060899 c -0.002,-0.0031 -9.9e-4,-0.0031 -0.003,-0.0061 -0.0409,-0.07037 -0.0658,-0.14116 -0.0737,-0.165184 -0.003,-0.0031 -0.007,-0.0069 -0.0119,-0.01311 a 0.40567277,0.40567277 0 0 1 -0.0479,-0.06738 c -0.053,-0.0954 -0.0163,-0.05113 -0.14063,-0.203604 A 0.40567277,0.40567277 0 0 1 7.5664,19.535001 C 7.5553,19.513611 7.5059,19.434146 7.4539,19.353972 7.4018,19.273802 7.34712,19.193372 7.29822,19.091735 a 0.40567277,0.40567277 0 0 1 -0.002,-0.0046 c -0.01,-0.02039 -0.0558,-0.09109 -0.10774,-0.184203 C 7.14728,18.829032 7.07957,18.735763 7.074,18.578505 7.0288,18.460586 6.9923,18.338291 6.9904,18.189909 6.9757,18.156099 6.9573,18.112069 6.9385,18.054038 6.9152,17.982208 6.8968,17.875876 6.9076,17.762887 6.8706,17.583905 6.8996,17.472494 6.8996,17.434097 6.8611,17.277951 6.8352,17.117228 6.8247,17.073228 6.7834,16.909753 6.744,16.719671 6.7364,16.694529 a 0.40567277,0.40567277 0 0 1 -0.008,-0.02852 C 6.7029,16.551609 6.6822,16.482198 6.6551,16.342769 6.6364,16.248599 6.592,16.106112 6.5802,15.920499 6.5679,15.816264 6.5742,15.728471 6.5742,15.703818 v -4.05e-4 A 0.40567277,0.40567277 0 0 1 6.5397,15.5925 C 6.5377,15.57993 6.4503,15.438193 6.42879,15.173396 6.41089,15.018629 6.42679,14.979604 6.40939,14.920273 a 0.40567277,0.40567277 0 0 1 -0.0151,-0.0673 c -0.0102,-0.08602 -0.042,-0.229299 -0.0657,-0.374346 a 0.40567277,0.40567277 0 0 1 -0.003,-0.02376 c -0.002,-0.02438 -0.10108,-0.207919 -0.0281,-0.512194 0.01,-0.06086 0.014,-0.143069 0.0194,-0.16162 a 0.40567277,0.40567277 0 0 1 -0.0194,-0.06577 c 2e-4,0.0031 5e-5,0.0054 0,0.0061 v 3.91e-4 3.98e-4 3.99e-4 H 6.2971 v -3.99e-4 c -0.002,-0.0038 -0.0101,-0.03848 -0.0281,-0.09269 -0.024,-0.07229 -0.0741,-0.188495 -0.0452,-0.369585 0.002,-0.0325 0.003,-0.07871 0.005,-0.09151 0.003,-0.02461 0.004,-0.03388 0.002,-0.09269 -0.008,-0.178054 -0.005,-0.324696 -0.002,-0.311358 A 0.40567277,0.40567277 0 0 1 6.2153,12.674419 C 6.2123,12.586579 6.2028,12.49996 6.1852,12.403466 a 0.40567277,0.40567277 0 0 1 -0.006,-0.06577 c -0.002,-0.127033 0.0171,-0.170121 0.021,-0.175487 A 0.40567277,0.40567277 0 0 1 6.1554,12.027526 c 1.1e-4,0.01288 -4.5e-4,0.02001 -0.001,0.02215 v 3.99e-4 4e-4 h -4e-4 -4.1e-4 v -4e-4 h -4.1e-4 v -3.99e-4 c -0.004,-0.0087 -0.0145,-0.06477 -0.0337,-0.120817 -0.0139,-0.04078 -0.0295,-0.08443 -0.0436,-0.149738 -0.0114,-0.05289 -0.0511,-0.130858 7.7e-4,-0.265403 0.007,-0.05059 0.0172,-0.0919 0.0234,-0.114875 0.003,-0.01288 0.005,-0.01893 0.006,-0.02139 0.002,-0.09974 0.006,-0.199794 0.009,-0.29155 l -0.002,0.0031 c 0.003,-0.104258 0.006,-0.227627 0.0135,-0.323638 0.002,-0.03764 -0.0187,-0.125982 0.0139,-0.263816 0.005,-0.09123 0.0108,-0.187514 0.0535,-0.315321 0.002,-0.05312 -0.005,-0.104412 0.0198,-0.182217 0.01,-0.06523 0.0261,-0.125569 0.0444,-0.187767 0.008,-0.04116 0.0121,-0.06186 0.0194,-0.08081 a 0.40567277,0.40567277 0 0 1 -10e-4,-0.03603 c -4e-5,4.05e-4 -3.4e-4,7.7e-4 -4e-4,0.0015 V 9.70131 H 6.27574 C 6.27374,9.69521 6.26874,9.6291 6.27497,9.52186 a 0.40567277,0.40567277 0 0 1 0,-0.01663 c 0.008,-0.07945 0.017,-0.08779 0.0222,-0.09745 a 0.40567277,0.40567277 0 0 1 -0.009,-0.0499 c -0.002,-0.0015 -0.003,-0.0015 -0.005,-0.0031 -0.007,-0.0061 -0.0188,-0.04155 -0.0281,-0.04952 L 6.20397,9.30066 5.92708,9.30526 5.66049,9.32465 a 0.40567277,0.40567277 0 0 1 -0.0432,0 L 5.32217,9.31277 a 0.40567277,0.40567277 0 0 1 -0.006,0 L 5.04047,9.29774 4.69188,9.28425 4.42093,9.27555 a 0.40567277,0.40567277 0 0 1 -0.0392,-0.0031 z m 25.878541,0.89485 a 0.40567277,0.40567277 0 0 1 4.05e-4,-4.06e-4 h -4.05e-4 z M 8.28159,23.957583 c -0.0164,-0.0038 -0.0379,-0.0079 -0.0657,-0.01265 a 0.40567277,0.40567277 0 0 1 0.0816,0.02338 c -0.005,-0.0031 -0.01,-0.0061 -0.0158,-0.01073 z M 6.41307,9.319126 l 0.057,0.145377 c -2e-4,-2.23e-4 0.0344,0.03396 0.0463,0.04316 0.0119,0.0092 0.0212,0.01479 0.0285,0.01939 7.3e-4,5.68e-4 10e-4,7.71e-4 0.002,0.0015 6.7e-4,2.84e-4 0.002,7.71e-4 0.002,0.0015 A 0.40567277,0.40567277 0 0 1 6.4233,9.321298 Z m 11.188189,0.02813 c 6.29e-4,0.01272 0.0015,0.02637 0.0036,0.04078 a 0.40567277,0.40567277 0 0 1 -0.0036,-0.04078 z M 2.44863,9.445096 c -0.003,0.02185 -0.002,0.04178 -0.002,0.06102 l 0.004,-0.01778 c 3.8e-4,-0.0174 9.9e-4,-0.02277 -0.002,-0.04316 z m 23.954955,0.107747 c -6.8e-5,0.01288 -5.89e-4,0.02622 -0.0016,0.04001 l 0.006,-0.01939 c -10e-5,-0.0069 -7.7e-4,-0.0094 -0.0016,-0.01111 -9.12e-4,-0.0015 -0.0021,-0.0038 -0.0028,-0.0095 z m -0.06259,0.237278 c -6.9e-4,7.71e-4 -0.0013,0.0023 -0.002,0.0038 l 0.0016,-0.0015 z m -8.85303,0.0693 c -3.45e-4,7.71e-4 -8.52e-4,0.0038 -0.0016,0.0077 0.0012,-0.0038 0.0018,-0.0061 0.002,-0.0069 v -4.06e-4 z m 12.53859,0.691637 c -0.03958,0.11614 -0.0084,0.144318 0.0044,0.169538 0.009,-0.0099 0.0217,-0.03994 0.02694,-0.04676 1.69e-4,-1.84e-4 6.49e-4,-7.7e-4 7.71e-4,-0.0015 h 4.05e-4 4.06e-4 a 0.40567277,0.40567277 0 0 1 -0.03288,-0.121614 z m 0.04357,0.162018 c -0.0082,0.02905 -0.021,0.03902 -0.01663,0.08516 0.0088,0.09228 0.06756,0.168933 0.08992,0.188556 a 0.40567277,0.40567277 0 0 1 -0.07328,-0.27372 z m -0.336312,0.986352 c -7.3e-4,7.67e-4 -0.0022,0.0038 -0.0044,0.0083 0.0031,-0.0046 0.0046,-0.0077 0.0048,-0.0083 z M 2.54885,11.859461 c 0.004,0.02875 0.004,0.04814 0.005,0.06692 -1.3e-4,-0.01755 -0.001,-0.0384 -0.005,-0.06692 z m 0.005,0.08675 c -0.007,0.01617 -0.008,0.02737 -0.007,0.03089 v 4e-4 3.91e-4 l 4.1e-4,4e-4 h 4e-4 4.1e-4 v -4e-4 h 4.1e-4 v -3.91e-4 c 0.002,-0.0031 0.005,-0.01311 0.006,-0.03128 z m 11.105798,0.711444 a 0.40567277,0.40567277 0 0 1 0.0031,0.0031 l -0.0012,-0.0023 c -5.88e-4,-4.05e-4 -0.0014,-7.66e-4 -0.002,-0.0015 z m 1.696214,0.154092 -0.04476,0.0015 h -4.06e-4 c -7.71e-4,5.74e-4 -0.0024,0.0015 -0.0031,0.0023 l -4.05e-4,4e-4 -4.06e-4,3.91e-4 c -0.0019,0.0015 -0.0028,0.0015 -0.0048,0.0031 0.0173,7.67e-4 0.03631,-0.0038 0.05387,-0.0077 z M 3.09892,14.69058 c 0.002,0.0077 0.003,0.01525 0.005,0.02254 -4e-4,-0.0046 -10e-4,-0.0094 -0.002,-0.01387 z m 19.663715,2.952318 a 0.40567277,0.40567277 0 0 1 0.0036,0.01027 c -9.2e-4,-0.0038 -0.0022,-0.0069 -0.0036,-0.01027 z m -1.562719,2.53402 v 4.05e-4 c -7.67e-4,0.0015 -0.0024,0.0054 -0.0044,0.01265 0.0034,-0.0069 0.0047,-0.0115 0.0048,-0.01265 v -4.05e-4 z m -0.01426,0.03127 a 0.40567277,0.40567277 0 0 1 -0.021,0.02967 c 0.0085,-0.01104 0.01589,-0.02123 0.021,-0.02967 z M 10.82576,25.013592 c -0.0256,-1.6e-5 -0.0675,0.0061 -0.13746,0.04277 a 0.40567277,0.40567277 0 0 1 0.13746,-0.04277 z m 5.295024,0.260259 c -0.0024,4.26e-4 -0.006,0.0015 -0.0103,0.0031 0.0075,-6.49e-4 0.01193,-0.0015 0.01347,-0.0023 l 4.06e-4,-3.86e-4 h 4.06e-4 v -4.05e-4 h -4.06e-4 -4.06e-4 c -6.49e-4,8e-6 -0.002,-2.23e-4 -0.0031,0 z" />
  </g>
</svg>
