<?xml version="1.0" encoding="UTF-8" standalone="no"?>
<!-- Created with Inkscape (http://www.inkscape.org/) -->

<svg
   width="32"
   height="32"
   viewBox="0 0 32 32"
   version="1.1"
   id="svg1"
   xmlns="http://www.w3.org/2000/svg"
   xmlns:svg="http://www.w3.org/2000/svg">
  <defs
     id="defs1" />
  <g
     id="layer1">
    <path
       id="path81"
       style="baseline-shift:baseline;display:inline;overflow:visible;vector-effect:none;stroke-width:3.77953;stroke-linecap:round;stroke-linejoin:round;stroke-miterlimit:10000;paint-order:fill markers stroke;enable-background:accumulate;stop-color:#000000"
       d="M 20.27654,0.28422937 20.081526,0.334997 A 0.42583336,0.42583336 0 0 1 19.957611,0.3474688 L 19.649495,0.3317039 19.465706,0.3583416 a 0.42583336,0.42583336 0 0 1 -0.06904,0.003186 l -0.334733,-0.008047 a 0.42583336,0.42583336 0 0 1 -0.02076,0 L 18.728481,0.3314228 18.474003,0.3156576 a 0.42583336,0.42583336 0 0 1 -0.0016,0 l -0.331402,-0.0220527 -0.246994,0.039512 a 0.42583336,0.42583336 0 0 1 -0.06904,0.006454 l -0.304791,-0.001593 -0.276517,0.004861 -0.163408,0.0187502 0.01536,0.16174925 0.02993,0.32849787 a 0.42583336,0.42583336 0 0 1 -0.0049,0.11351132 l -0.04073,0.23868176 0.0032,0.2578006 a 0.42583336,0.42583336 0 0 1 0,0.012472 l -0.0032,0.2091517 0.01875,0.3580193 a 0.42583336,0.42583336 0 0 1 -0.02206,0.1621685 l -0.08149,0.2357615 -0.0096,0.2291148 -0.0092,0.2939772 -0.0096,0.2956436 a 0.42583336,0.42583336 0 0 1 -0.0049,0.050291 l -0.03122,0.2183005 0.01078,0.2311909 0.01747,0.3551066 a 0.42583336,0.42583336 0 0 1 0,0.034526 l -0.0096,0.2968898 -0.0092,0.3035452 a 0.42583336,0.42583336 0 0 1 -0.0016,0.024945 l -0.02373,0.2752701 -0.0081,0.2935674 a 0.42583336,0.42583336 0 0 1 -0.0049,0.056569 l -0.03621,0.2137215 0.01118,0.2939857 a 0.42583336,0.42583336 0 0 1 -0.0016,0.053669 l -0.02535,0.2731864 -0.0081,0.259466 0.0064,0.2781817 0.0084,0.3268315 a 0.42583336,0.42583336 0 0 1 -0.01577,0.1305616 l -0.05946,0.2012512 -0.0032,0.2386817 a 0.42583336,0.42583336 0 0 1 -0.62044,0.3742409 L 15.896457,7.9069753 15.649881,7.7951219 a 0.42583336,0.42583336 0 0 1 -0.0096,-0.00486 L 15.401592,7.6738102 15.159586,7.5607086 14.851471,7.4205792 a 0.42583336,0.42583336 0 0 1 -0.0049,-0.00319 L 14.574661,7.290156 a 0.42583336,0.42583336 0 0 1 -0.0064,-0.00319 L 14.283785,7.145603 14.01974,7.0229346 a 0.42583336,0.42583336 0 0 1 -0.0049,-0.00319 L 13.757493,6.8958368 a 0.42583336,0.42583336 0 0 1 -0.0032,-0.00319 l -0.286089,-0.143184 -0.254477,-0.121003 -0.29232,-0.1401295 -0.171309,-0.053185 a 0.42583336,0.42583336 0 0 1 -0.04571,-0.017469 L 12.37469,6.2684149 a 0.42583336,0.42583336 0 0 1 -0.0016,0 L 12.151467,6.1665396 a 0.42583336,0.42583336 0 0 1 -0.0064,-0.00319 L 11.892252,6.0439841 11.588716,5.9167451 a 0.42583336,0.42583336 0 0 1 -0.01707,-0.00957 L 11.298046,5.7766006 11.126729,5.74208 a 0.42583336,0.42583336 0 0 1 -0.07692,-0.024945 l 0.05488,-0.083581 a 0.42583336,0.42583336 0 0 1 -0.0424,0.053669 l -0.02326,0.026638 -0.102286,0.111436 -0.08191,0.1933563 -0.116014,0.2985554 a 0.42583336,0.42583336 0 0 1 -0.01247,0.031624 L 10.604928,6.59874 a 0.42583336,0.42583336 0 0 1 -0.05157,0.081915 L 10.382048,6.8927139 10.268947,7.0827393 10.142955,7.323079 10.036089,7.5463683 9.9026152,7.8386885 a 0.42583336,0.42583336 0 0 1 -0.026643,0.050291 l -0.148022,0.2340959 a 0.42583336,0.42583336 0 0 1 -0.039112,0.051975 l -0.069043,0.07982 0.1821228,0.017468 0.309782,0.026638 0.249899,0.00486 a 0.42583336,0.42583336 0 0 1 0.03742,0.00319 l 0.37881,0.04071 0.241999,0.017468 0.30521,0.010779 a 0.42583336,0.42583336 0 0 1 0.0049,0.00159 l 0.317682,0.015775 0.224537,0.00805 a 0.42583336,0.42583336 0 0 1 0.03283,0.00319 l 0.301878,0.034526 0.355099,0.03911 0.248241,0.00957 a 0.42583336,0.42583336 0 0 1 0.01746,0 l 0.265703,0.02035 a 0.42583336,0.42583336 0 0 1 0.0032,0 l 0.309371,0.025347 0.286075,0.02035 a 0.42583336,0.42583336 0 0 1 0.01577,0.00159 l 0.29356,0.032831 a 0.42583336,0.42583336 0 0 1 0.01456,0.00159 l 0.303126,0.044097 a 0.42583336,0.42583336 0 0 1 0.0032,0 l 0.287331,0.044097 0.273604,0.024944 a 0.42583336,0.42583336 0 0 1 0.02374,0.00319 l 0.385038,0.056569 0.21498,0.024945 0.286075,0.023662 A 0.42583336,0.42583336 0 0 1 16.08074,9.5136682 L 15.898553,9.7257269 15.73805,9.9365442 15.577958,10.16607 a 0.42583336,0.42583336 0 0 1 -0.05528,0.06446 l -0.171308,0.163416 -0.09896,0.158838 a 0.42583336,0.42583336 0 0 1 -0.11935,0.124033 l -0.212057,0.146366 -0.143042,0.202496 a 0.42583336,0.42583336 0 0 1 -0.02373,0.03323 l -0.182073,0.21373 a 0.42583336,0.42583336 0 0 1 -0.01747,0.01875 l -0.20916,0.216638 -0.172557,0.180876 a 0.42583336,0.42583336 0 0 1 -0.0412,0.03781 l -0.259055,0.207487 -0.149278,0.122667 -0.130562,0.200841 a 0.42583336,0.42583336 0 0 1 -0.108498,0.114743 L 13.281881,12.517158 13.1247,12.71342 a 0.42583336,0.42583336 0 0 1 -0.02535,0.02993 l -0.193348,0.201251 a 0.42583336,0.42583336 0 0 1 -0.05029,0.04571 l -0.221632,0.166328 -0.219966,0.172974 a 0.42583336,0.42583336 0 0 1 -0.0049,0.0049 l -0.242006,0.182131 -0.198337,0.183789 -0.194604,0.201251 a 0.42583336,0.42583336 0 0 1 -0.01118,0.01118 l -0.205828,0.197928 -0.03621,0.03621 0.04868,0.03123 a 0.42583336,0.42583336 0 0 1 0.02036,0.01577 l 0.253231,0.182123 0.231191,0.150937 a 0.42583336,0.42583336 0 0 1 0.0016,0.0016 l 0.22662,0.149279 a 0.42583336,0.42583336 0 0 1 0.0081,0.0064 l 0.260715,0.180458 0.232856,0.155932 a 0.42583336,0.42583336 0 0 1 0.0016,0 l 0.23078,0.155515 a 0.42583336,0.42583336 0 0 1 0.02366,0.01706 l 0.273611,0.210817 0.200831,0.143034 0.06944,0.04868 0.04868,-0.09606 a 0.42583336,0.42583336 0 0 1 0.01705,-0.03283 l 0.150943,-0.242007 0.138464,-0.248241 0.150934,-0.276508 a 0.42583336,0.42583336 0 0 1 0.01536,-0.02825 l 0.165081,-0.256561 a 0.42583336,0.42583336 0 0 1 0.03163,-0.042 l 0.152191,-0.184208 0.130561,-0.216635 0.155514,-0.297309 a 0.42583336,0.42583336 0 0 1 0.04739,-0.07193 l 0.130143,-0.162169 0.121003,-0.219966 0.122668,-0.257801 a 0.42583336,0.42583336 0 0 1 0.02035,-0.03621 l 0.172975,-0.28441 a 0.42583336,0.42583336 0 0 1 0.01747,-0.02495 l 0.160084,-0.224536 0.155514,-0.229533 0.133893,-0.205829 0.09397,-0.241998 a 0.42583336,0.42583336 0 0 1 0.01747,-0.03951 l 0.125573,-0.249906 0.122669,-0.265703 a 0.42583336,0.42583336 0 0 1 0.01247,-0.02495 l 0.150944,-0.27984 a 0.42583336,0.42583336 0 0 1 0.03323,-0.05029 l 0.145948,-0.197928 0.08816,-0.210398 a 0.42583336,0.42583336 0 0 1 0.0064,-0.01247 l 0.124326,-0.271947 a 0.42583336,0.42583336 0 0 1 0.801275,0.07692 l 0.07073,0.290654 a 0.42583336,0.42583336 0 0 1 0.0049,0.02206 l 0.04571,0.242005 0.07861,0.295225 a 0.42583336,0.42583336 0 0 1 0.0081,0.03491 l 0.05198,0.286076 a 0.42583336,0.42583336 0 0 1 0.0016,0.0064 l 0.0424,0.26238 0.0424,0.201259 0.08358,0.356763 a 0.42583336,0.42583336 0 0 1 0.0032,0.01577 l 0.04989,0.264036 0.06614,0.30147 a 0.42583336,0.42583336 0 0 1 0.0096,0.08981 l 0.0016,0.256135 0.02953,0.215395 0.05528,0.238674 0.08022,0.344293 a 0.42583336,0.42583336 0 0 1 0.01078,0.0973 v 0.212065 l 0.06276,0.286084 a 0.42583336,0.42583336 0 0 1 0.01118,0.08483 l 0.0049,0.267368 0.02825,0.286077 a 0.42583336,0.42583336 0 0 1 0.0016,0.04698 l -0.0049,0.284418 a 0.42583336,0.42583336 0 0 1 -0.0032,0.0441 l -0.02993,0.246575 0.06904,-0.01536 0.160503,-0.08981 a 0.42583336,0.42583336 0 0 1 0.02825,-0.01415 l 0.256144,-0.119337 a 0.42583336,0.42583336 0 0 1 0.01868,-0.0081 l 0.276936,-0.113519 0.208733,-0.105199 a 0.42583336,0.42583336 0 0 1 0.06276,-0.02664 l 0.2894,-0.09272 a 0.42583336,0.42583336 0 0 1 0.02206,-0.0064 l 0.271529,-0.07113 0.259466,-0.07693 0.268616,-0.08941 0.218719,-0.10853 a 0.42583336,0.42583336 0 0 1 0.02035,-0.0081 l 0.252778,-0.108519 a 0.42583336,0.42583336 0 0 1 0.05657,-0.01875 l 0.270699,-0.07403 0.281087,-0.103541 a 0.42583336,0.42583336 0 0 1 0.01247,-0.0016 l -0.152109,-0.24367 a 0.42583336,0.42583336 0 0 1 -0.0032,-0.0049 L 21.368122,14.017547 21.255021,13.835005 21.01468,13.54892 A 0.42583336,0.42583336 0 0 1 20.98933,13.5177 l -0.119336,-0.174639 -0.202506,-0.27194 a 0.42583336,0.42583336 0 0 1 -0.0064,-0.0092 l -0.125571,-0.17921 -0.21872,-0.239093 a 0.42583336,0.42583336 0 0 1 -0.03742,-0.0453 L 20.104739,12.343456 19.94299,12.120585 a 0.42583336,0.42583336 0 0 1 -0.0049,-0.0064 L 19.771761,11.875509 19.580079,11.606477 19.41791,11.392746 a 0.42583336,0.42583336 0 0 1 -0.0032,-0.0064 l -0.173018,-0.235732 a 0.42583336,0.42583336 0 0 1 -0.0032,-0.0049 l -0.16341,-0.230782 -0.179212,-0.249908 a 0.42583336,0.42583336 0 0 1 -0.0032,-0.0032 l -0.172572,-0.244926 -0.177553,-0.25323 a 0.42583336,0.42583336 0 0 1 -0.0016,-0.0016 L 18.388578,9.94381 18.258017,9.767504 18.02557,9.5396368 a 0.42583336,0.42583336 0 0 1 0.340969,-0.7272563 l 0.306458,0.031222 0.254477,-0.00645 0.292312,-0.00832 0.265702,-0.010779 a 0.42583336,0.42583336 0 0 1 0.03781,0 l 0.303127,0.014157 0.27984,-0.00159 a 0.42583336,0.42583336 0 0 1 0.0064,0 l 0.284419,0.00319 a 0.42583336,0.42583336 0 0 1 0.0407,0.00159 l 0.292319,0.031222 0.279841,0.00832 a 0.42583336,0.42583336 0 0 1 0.0064,0.00159 l 0.279839,0.010779 a 0.42583336,0.42583336 0 0 1 0.05488,0.00645 l 0.291066,0.049888 0.274851,0.00645 0.251564,-0.00645 a 0.42583336,0.42583336 0 0 1 0.05029,0.00159 l 0.29232,0.02704 0.296891,0.015363 0.295642,0.00159 0.356347,-0.00159 a 0.42583336,0.42583336 0 0 1 0.0049,0 l 0.273611,0.00159 a 0.42583336,0.42583336 0 0 1 0.01247,0 l 0.281089,0.011265 0.289405,-0.00319 0.191692,-0.00319 0.02206,-0.202505 a 0.42583336,0.42583336 0 0 1 0,-0.00645 L 24.56817,8.522792 24.558571,8.2683232 24.508685,7.9602 a 0.42583336,0.42583336 0 0 1 -0.0016,-0.1243256 l 0.04698,-0.347205 a 0.42583336,0.42583336 0 0 1 0,-0.00159 l 0.02993,-0.2183005 0.02366,-0.2278601 -0.02535,-0.2906538 a 0.42583336,0.42583336 0 0 1 0,-0.077331 l 0.0096,-0.092732 -0.05987,0.00832 -0.157171,0.078613 a 0.42583336,0.42583336 0 0 1 -0.15718,0.042403 l -0.307705,0.024945 -0.229527,0.064448 -0.217051,0.094393 a 0.42583336,0.42583336 0 0 1 -0.08773,0.028247 L 23.078363,6.97975 22.79561,7.042512 22.515771,7.105275 22.251734,7.179303 22.035091,7.244967 a 0.42583336,0.42583336 0 0 1 -0.07233,0.014156 L 21.645079,7.296942 21.40931,7.369276 21.154832,7.45078 a 0.42583336,0.42583336 0 0 1 -0.05658,0.014558 L 20.804275,7.518605 20.58764,7.565593 20.350205,7.6820254 a 0.42583336,0.42583336 0 0 1 -0.07233,0.028247 L 20.0313,7.7793134 a 0.42583336,0.42583336 0 0 1 -0.02664,0.00645 l -0.30978,0.064457 -0.237429,0.066141 -0.210399,0.081503 a 0.42583336,0.42583336 0 0 1 -0.103951,0.025346 l -0.274851,0.032831 -0.334733,0.058178 A 0.42583336,0.42583336 0 0 1 18.099887,7.4668552 L 18.23337,7.2543725 18.356031,6.9828516 a 0.42583336,0.42583336 0 0 1 0.05198,-0.086491 l 0.116005,-0.1509436 0.04571,-0.1933487 a 0.42583336,0.42583336 0 0 1 0.0096,-0.031625 l 0.09107,-0.2860757 a 0.42583336,0.42583336 0 0 1 0.0032,-0.010779 l 0.09936,-0.282744 a 0.42583336,0.42583336 0 0 1 0.0049,-0.011265 l 0.100628,-0.2669493 0.0865,-0.2860758 a 0.42583336,0.42583336 0 0 1 0.02993,-0.075722 L 19.11883,5.0650719 19.21655,4.8372043 19.26812,4.5906278 a 0.42583336,0.42583336 0 0 1 0.02075,-0.06775 l 0.0973,-0.2482411 0.05318,-0.2561436 a 0.42583336,0.42583336 0 0 1 0.02205,-0.07065 L 19.56036,3.697944 19.64058,3.4247511 a 0.42583336,0.42583336 0 0 1 0.01118,-0.03621 l 0.136384,-0.3488696 a 0.42583336,0.42583336 0 0 1 0.03323,-0.07065 l 0.08649,-0.138464 0.04698,-0.1900245 0.0096,-0.2499075 a 0.42583336,0.42583336 0 0 1 0.02326,-0.1259909 l 0.110189,-0.3110284 a 0.42583336,0.42583336 0 0 1 0.0064,-0.02036 L 20.230285,1.623465 a 0.42583336,0.42583336 0 0 1 0.01415,-0.029931 l 0.114768,-0.2291072 0.12266,-0.2702813 a 0.42583336,0.42583336 0 0 1 0.01247,-0.02704 l 0.125573,-0.23576146 0.13514,-0.28566595 a 0.42583336,0.42583336 0 0 1 0.02205,-0.041196 L 20.883918,0.3302514 20.550851,0.3081983 a 0.42583336,0.42583336 0 0 1 -0.01126,-0.001593 z m 4.243368,8.70961443 v 0.00159 h 0.0424 z m -16.0304086,6.3240942 -0.00805,0.06654 0.015363,0.259047 a 0.42583336,0.42583336 0 0 1 0,0.01415 l 0.00645,0.210818 0.031222,0.364673 a 0.42583336,0.42583336 0 0 1 -0.018666,0.166321 l -0.076929,0.237426 -0.00486,0.231192 -0.00319,0.295233 -0.00159,0.2973 a 0.42583336,0.42583336 0 0 1 -0.00486,0.05157 l -0.028247,0.218719 0.015765,0.232438 0.02326,0.356773 a 0.42583336,0.42583336 0 0 1 0.00159,0.03283 l -0.00319,0.298557 -0.00319,0.305203 a 0.42583336,0.42583336 0 0 1 -0.00159,0.02326 l -0.017469,0.276934 -0.00319,0.296891 a 0.42583336,0.42583336 0 0 1 -0.00319,0.05656 l -0.031624,0.215388 0.015775,0.295224 a 0.42583336,0.42583336 0 0 1 0,0.05367 l -0.02036,0.273194 -0.00159,0.261132 0.010779,0.27984 0.014157,0.329737 a 0.42583336,0.42583336 0 0 1 -0.014157,0.128903 l -0.053182,0.193357 0.012472,0.229524 a 0.42583336,0.42583336 0 0 1 -0.6317573,0.39461 L 7.4522393,22.12484 a 0.42583336,0.42583336 0 0 1 -0.020354,-0.01247 l -0.2528128,-0.1605 -0.1921093,-0.06445 a 0.42583336,0.42583336 0 0 1 -0.069039,-0.03122 l -0.229525,-0.127251 -0.2998029,-0.162169 -0.154267,-0.04369 a 0.42583336,0.42583336 0 0 1 -0.06115,-0.02373 L 5.832218,21.34051 5.6010271,21.249443 a 0.42583336,0.42583336 0 0 1 -0.029934,-0.01415 l -0.2889887,-0.140128 -0.209152,-0.09107 a 0.42583336,0.42583336 0 0 1 -0.012471,-0.0064 L 4.7336585,20.842125 4.4725271,20.727359 4.2134707,20.623406 a 0.42583336,0.42583336 0 0 1 -0.025348,-0.01078 L 3.9257432,20.486635 3.6317658,20.350255 3.3614844,20.240059 3.097448,20.136525 a 0.42583336,0.42583336 0 0 1 -0.012471,-0.0064 L 2.8383934,20.023245 2.5884949,19.913056 2.2758006,19.777917 a 0.42583336,0.42583336 0 0 1 -0.00483,-0.0016 l -0.274849,-0.122651 a 0.42583336,0.42583336 0 0 1 -0.00643,-0.0032 l -0.1588374,-0.07403 -0.062762,0.124326 -0.098963,0.246577 a 0.42583336,0.42583336 0 0 1 -0.010781,0.02535 l -0.091481,0.190034 -0.065739,0.264036 A 0.42583336,0.42583336 0 0 1 1.4412662,20.5619 l -0.1380573,0.204145 -0.091472,0.229525 a 0.42583336,0.42583336 0 0 1 -0.04699,0.08649 l -0.1588374,0.224956 a 0.42583336,0.42583336 0 0 1 -0.0107808,0.01537 l -0.17755305,0.229515 -0.0943849,0.144707 -0.10519952,0.273187 a 0.42583336,0.42583336 0 0 1 -0.0598685,0.106865 l -0.15093583,0.195014 -0.10187635,0.202915 0.0345204,0.0032 0.23243864,-0.0032 a 0.42583336,0.42583336 0 0 1 0.0124698,0 l 0.29231206,0.0049 a 0.42583336,0.42583336 0 0 1 0.0473926,0.0032 l 0.28275245,0.03621 0.2985565,0.03781 a 0.42583336,0.42583336 0 0 1 0.044094,0.0081 l 0.2748509,0.06446 0.2877418,0.01746 0.2216234,0.0016 a 0.42583336,0.42583336 0 0 1 0.039107,0.0016 l 0.2815056,0.02825 a 0.42583336,0.42583336 0 0 1 0.022051,0.0032 l 0.3426267,0.05198 0.2166348,0.0032 a 0.42583336,0.42583336 0 0 1 0.025348,0.0016 l 0.3409607,0.02664 0.2374347,0.01868 0.307697,0.02206 0.2453288,0.0049 a 0.42583336,0.42583336 0 0 1 0.03621,0.0016 l 0.3725673,0.03951 0.2353515,0.01577 0.3002132,0.0092 a 0.42583336,0.42583336 0 0 1 0.00829,0 l 0.3110277,0.01577 0.2170537,0.0081 a 0.42583336,0.42583336 0 0 1 0.03283,0.0016 l 0.2956429,0.03452 0.3472057,0.03781 0.2436709,0.0084 a 0.42583336,0.42583336 0 0 1 0.017062,0 l 0.2594666,0.01868 a 0.42583336,0.42583336 0 0 1 0.00322,0 l 0.2968905,0.02495 a 0.42583336,0.42583336 0 0 1 0.2324335,0.755973 l -0.2183064,0.17552 -0.1887779,0.180877 -0.1883676,0.205829 -0.2074867,0.227859 a 0.42583336,0.42583336 0 0 1 -0.012471,0.01247 l -0.183781,0.185443 -0.1417946,0.182543 a 0.42583336,0.42583336 0 0 1 -0.091063,0.08648 l -0.2669571,0.185455 -0.1966795,0.182123 a 0.42583336,0.42583336 0 0 1 -0.00917,0.0096 l -0.218717,0.190006 -0.2012584,0.195014 -0.1962613,0.20125 a 0.42583336,0.42583336 0 0 1 -0.051978,0.0437 L 5.0229947,26.20076 4.9069805,26.337565 A 0.42583336,0.42583336 0 0 1 4.7984503,26.4303 l -0.243666,0.143033 -0.1713168,0.194604 a 0.42583336,0.42583336 0 0 1 -0.031624,0.03323 l -0.2087411,0.192938 a 0.42583336,0.42583336 0 0 1 -0.015768,0.01456 l -0.2357699,0.197927 -0.1933482,0.16175 a 0.42583336,0.42583336 0 0 1 -0.03621,0.02663 L 3.3792535,27.585421 3.2079367,27.701435 3.0648945,27.886882 A 0.42583336,0.42583336 0 0 1 2.94847,27.989177 l -0.2262023,0.138045 -0.1792189,0.187121 a 0.42583336,0.42583336 0 0 1 -0.029934,0.02704 l -0.2137304,0.18379 a 0.42583336,0.42583336 0 0 1 -0.048679,0.03621 l -0.2386743,0.152188 -0.23577,0.155513 a 0.42583336,0.42583336 0 0 1 -0.00322,0.0032 L 1.5089961,29.0436 1.290696,29.218241 1.0736422,29.404944 a 0.42583336,0.42583336 0 0 1 -0.010781,0.0096 l -0.055277,0.04409 0.072337,0.05826 a 0.42583336,0.42583336 0 0 1 0.00322,0.0016 l 0.2074861,0.166321 a 0.42583336,0.42583336 0 0 1 0.01416,0.01118 l 0.2403403,0.208741 0.217053,0.177964 0.2120651,0.172564 a 0.42583336,0.42583336 0 0 1 0.00483,0.0032 l 0.2465758,0.207486 0.219966,0.180877 0.2170537,0.177553 a 0.42583336,0.42583336 0 0 1 0.018746,0.01705 l 0.2594661,0.240758 0.1871125,0.16632 0.05777,0.04868 0.053668,-0.08941 a 0.42583336,0.42583336 0 0 1 0.022051,-0.03163 L 3.4328022,30.940387 3.594552,30.700046 3.7675348,30.431432 a 0.42583336,0.42583336 0 0 1 0.020361,-0.02825 l 0.1871126,-0.243664 a 0.42583336,0.42583336 0 0 1 0.03283,-0.03951 l 0.1762963,-0.178828 0.149278,-0.210809 0.1788006,-0.286085 a 0.42583336,0.42583336 0 0 1 0.05657,-0.07073 l 0.1509432,-0.155514 0.1401293,-0.21373 0.1459466,-0.248234 a 0.42583336,0.42583336 0 0 1 0.023739,-0.03452 l 0.1962612,-0.271947 a 0.42583336,0.42583336 0 0 1 0.022051,-0.02825 L 5.4332995,28.20763 5.6096055,27.990577 5.766785,27.787661 5.8811331,27.55231 a 0.42583336,0.42583336 0 0 1 0.022051,-0.03781 l 0.150935,-0.243672 0.1447076,-0.256135 a 0.42583336,0.42583336 0 0 1 0.014159,-0.02495 l 0.1758853,-0.26728 a 0.42583336,0.42583336 0 0 1 0.03621,-0.04699 L 6.5963904,26.478793 6.7065866,26.2713 a 0.42583336,0.42583336 0 0 1 0.00643,-0.0092 l 0.1476126,-0.26279 a 0.42583336,0.42583336 0 0 1 0.022051,-0.03283 L 7.051087,25.724492 7.2128368,25.47168 a 0.42583336,0.42583336 0 0 1 0.024946,-0.03621 l 0.1684067,-0.210793 0.1430422,-0.234104 0.1555141,-0.259467 a 0.42583336,0.42583336 0 0 1 0.014159,-0.02326 L 7.915166,24.421769 a 0.42583336,0.42583336 0 0 1 0.061558,-0.07233 l 0.1933573,-0.179218 a 0.42583336,0.42583336 0 0 1 0.7073001,0.224953 l 0.053182,0.25781 0.074028,0.299795 a 0.42583336,0.42583336 0 0 1 0.012472,0.119755 l -0.011181,0.260713 0.019143,0.217055 0.044095,0.237016 0.067348,0.345958 a 0.42583336,0.42583336 0 0 1 0.00643,0.103535 l -0.011182,0.215395 0.04868,0.287741 a 0.42583336,0.42583336 0 0 1 0.00643,0.09107 l -0.011264,0.270273 0.00807,0.289407 a 0.42583336,0.42583336 0 0 1 -0.00163,0.05157 l -0.027041,0.286083 a 0.42583336,0.42583336 0 0 1 -0.00643,0.0441 l -0.053664,0.264045 -0.00919,0.24533 -0.00163,0.265284 0.014154,0.254895 0.029931,0.321842 a 0.42583336,0.42583336 0 0 1 -0.00643,0.124327 l -0.050294,0.25323 -0.00643,0.235351 0.00643,0.289399 a 0.42583336,0.42583336 0 0 1 -0.00317,0.05318 l -0.025346,0.229525 0.018749,0.237436 a 0.42583336,0.42583336 0 0 1 0.00163,0.01415 l 0.014154,0.303125 0.00837,0.179211 0.1837894,-0.101864 a 0.42583336,0.42583336 0 0 1 0.1634158,-0.05198 L 9.6433994,30.866889 9.8542168,30.7725 10.11036,30.643594 a 0.42583336,0.42583336 0 0 1 0.01747,-0.0081 l 0.276517,-0.124326 0.26695,-0.123916 a 0.42583336,0.42583336 0 0 1 0.0032,-0.0016 l 0.276518,-0.125581 0.279847,-0.128897 0.163408,-0.122667 a 0.42583336,0.42583336 0 0 1 0.133483,-0.06904 l 0.262371,-0.07861 0.193356,-0.119755 a 0.42583336,0.42583336 0 0 1 0.05825,-0.02993 l 0.289426,-0.122283 0.175895,-0.116434 a 0.42583336,0.42583336 0 0 1 0.06276,-0.03283 l 0.150931,-0.06777 -0.07073,-0.144699 -0.124325,-0.238675 -0.131811,-0.257808 a 0.42583336,0.42583336 0 0 1 -0.0016,-0.0049 l -0.124325,-0.249451 -0.13972,-0.267367 a 0.42583336,0.42583336 0 0 1 -0.0032,-0.0064 l -0.133474,-0.265683 a 0.42583336,0.42583336 0 0 1 -0.0016,-0.0016 l -0.13514,-0.273621 a 0.42583336,0.42583336 0 0 1 -0.0032,-0.0049 L 11.736823,27.420942 11.634949,27.230507 11.43827,26.990168 a 0.42583336,0.42583336 0 0 1 -0.0453,-0.06735 l -0.114766,-0.217054 -0.158837,-0.248243 a 0.42583336,0.42583336 0 0 1 -0.0064,-0.01118 l -0.1526,-0.257812 -0.167986,-0.284409 a 0.42583336,0.42583336 0 0 1 -0.01126,-0.01706 L 10.65554,25.647967 10.509174,25.38892 a 0.42583336,0.42583336 0 0 1 -0.0032,-0.0049 l -0.157178,-0.284373 -0.130571,-0.235768 a 0.42583336,0.42583336 0 0 1 0,-0.0016 L 10.073522,24.599841 9.9134378,24.309187 9.7936824,24.104606 a 0.42583336,0.42583336 0 0 1 -0.00317,-0.0049 L 9.6395853,23.834302 a 0.42583336,0.42583336 0 0 1 0.3945987,-0.634948 l 0.256142,0.01415 a 0.42583336,0.42583336 0 0 1 0.06446,0.0084 l 0.284418,0.06116 0.292312,0.05198 0.286084,0.03911 0.348863,0.0412 a 0.42583336,0.42583336 0 0 1 0.01875,0.0032 l 0.26237,0.0424 a 0.42583336,0.42583336 0 0 1 0.01126,0.0016 l 0.27152,0.05198 0.28317,0.03742 0.23577,0.03323 a 0.42583336,0.42583336 0 0 1 0.0032,0 l 0.295644,0.0424 0.293977,0.03781 a 0.42583336,0.42583336 0 0 1 0.0032,0 l 0.279841,0.03743 0.318929,0.0424 0.31436,0.03621 a 0.42583336,0.42583336 0 0 1 0.01916,0.0016 l 0.194596,0.03283 a 0.42583336,0.42583336 0 0 1 0.02993,0.0064 l 0.290654,0.06904 a 0.42583336,0.42583336 0 0 1 0.06944,0.02373 l 0.246576,0.105199 0.27984,0.05198 0.04071,0.0049 0.02373,-0.182133 a 0.42583336,0.42583336 0 0 1 0,-0.0049 l 0.05029,-0.348863 a 0.42583336,0.42583336 0 0 1 0.0049,-0.02664 l 0.03323,-0.15718 -0.02825,-0.279839 a 0.42583336,0.42583336 0 0 1 0.0016,-0.08773 l 0.03452,-0.314351 a 0.42583336,0.42583336 0 0 1 0.0081,-0.04739 l 0.04739,-0.212064 0.0092,-0.262371 a 0.42583336,0.42583336 0 0 1 0.0016,-0.02373 l 0.02664,-0.298556 a 0.42583336,0.42583336 0 0 1 0.0016,-0.0064 l 0.03163,-0.308114 a 0.42583336,0.42583336 0 0 1 0.0016,-0.01747 l 0.01247,-0.07982 -0.08316,0.01415 -0.256554,0.05818 a 0.42583336,0.42583336 0 0 1 -0.05777,0.0092 l -0.306458,0.02535 -0.227868,0.02663 -0.239092,0.0973 a 0.42583336,0.42583336 0 0 1 -0.07523,0.02206 l -0.256142,0.05198 a 0.42583336,0.42583336 0 0 1 -0.02366,0.0049 l -0.322253,0.04571 -0.246584,0.05198 -0.217054,0.06735 a 0.42583336,0.42583336 0 0 1 -0.100618,0.01874 l -0.282752,0.01914 -0.322261,0.03742 -0.241998,0.06775 a 0.42583336,0.42583336 0 0 1 -0.04868,0.0096 l -0.256142,0.0407 -0.171318,0.07233 a 0.42583336,0.42583336 0 0 1 -0.125991,0.03114 l -0.326823,0.03163 -0.300222,0.02993 -0.295224,0.03621 -0.271939,0.03911 a 0.42583336,0.42583336 0 0 1 -0.0096,0.0016 l -0.301462,0.03621 -0.246993,0.06735 A 0.42583336,0.42583336 0 0 1 9.515527,21.77796 l 0.1397111,-0.199593 0.061558,-0.212065 a 0.42583336,0.42583336 0 0 1 0.024948,-0.06614 l 0.1131013,-0.237017 0.059873,-0.248241 a 0.42583336,0.42583336 0 0 1 0.023732,-0.07113 l 0.1081126,-0.248241 0.08648,-0.27194 a 0.42583336,0.42583336 0 0 1 0.01247,-0.03572 l 0.144699,-0.347615 a 0.42583336,0.42583336 0 0 1 0.04073,-0.07523 l 0.09273,-0.138464 0.05198,-0.185447 0.01247,-0.249907 a 0.42583336,0.42583336 0 0 1 0.02535,-0.122257 l 0.113099,-0.314351 a 0.42583336,0.42583336 0 0 1 0.0081,-0.02035 l 0.131992,-0.311684 a 0.42583336,0.42583336 0 0 1 0.01415,-0.03122 l 0.121,-0.22953 0.127239,-0.27028 a 0.42583336,0.42583336 0 0 1 0.01577,-0.02825 l 0.133475,-0.235761 0.141376,-0.284418 a 0.42583336,0.42583336 0 0 1 0.02535,-0.0424 l 0.122252,-0.18878 0.10853,-0.246576 a 0.42583336,0.42583336 0 0 1 0.0081,-0.01415 l 0.110197,-0.227869 0.08023,-0.27028 a 0.42583336,0.42583336 0 0 1 0.02825,-0.07113 l 0.05946,-0.119338 -0.05318,-0.0032 a 0.42583336,0.42583336 0 0 1 -0.110189,-0.02165 l -0.30645,-0.103953 -0.180465,-0.03283 a 0.42583336,0.42583336 0 0 1 -0.02993,-0.0064 l -0.31892,-0.0815 a 0.42583336,0.42583336 0 0 1 -0.02825,-0.0084 l -0.298558,-0.09893 -0.235768,-0.07861 -0.3334787,-0.09896 -0.244917,-0.02825 a 0.42583336,0.42583336 0 0 1 -0.062793,-0.01249 l -0.2939778,-0.08192 -0.27527,-0.07193 -0.2794212,-0.04409 a 0.42583336,0.42583336 0 0 1 -0.02704,-0.0049 L 8.494446,15.320113 Z m 16.3193976,0.202916 -0.238256,0.0416 a 0.42583336,0.42583336 0 0 1 -0.06904,0.0081 l -0.296892,0.0049 -0.268614,0.0096 -0.281506,0.03911 a 0.42583336,0.42583336 0 0 1 -0.02663,0.0016 l -0.290646,0.02373 -0.28775,0.02326 a 0.42583336,0.42583336 0 0 1 -0.01577,0.0016 l -0.177554,0.0084 0.01577,0.116014 a 0.42583336,0.42583336 0 0 1 0.0016,0.01415 l 0.02205,0.217053 0.05326,0.37548 a 0.42583336,0.42583336 0 0 1 -0.01078,0.168405 l -0.06325,0.238675 0.0084,0.234103 0.01247,0.298547 0.01247,0.30188 a 0.42583336,0.42583336 0 0 1 0,0.05198 l -0.01705,0.223289 0.02495,0.235353 0.03911,0.361761 a 0.42583336,0.42583336 0 0 1 0.0032,0.02825 l 0.01126,0.300215 0.01247,0.309361 a 0.42583336,0.42583336 0 0 1 0,0.02373 l -0.0032,0.279841 0.01247,0.30146 a 0.42583336,0.42583336 0 0 1 -0.0016,0.05656 l -0.01867,0.218717 0.02993,0.300222 a 0.42583336,0.42583336 0 0 1 0.0016,0.05198 l -0.0064,0.276517 0.01118,0.262378 0.02495,0.284411 0.02993,0.3364 a 0.42583336,0.42583336 0 0 1 -0.0081,0.127238 l -0.04119,0.188777 0.03452,0.263626 a 0.42583336,0.42583336 0 0 1 -0.683596,0.392943 l -0.216634,-0.167987 -0.155515,-0.03951 a 0.42583336,0.42583336 0 0 1 -0.09273,-0.03283 L 21.608032,22.132464 21.440046,22.0759 a 0.42583336,0.42583336 0 0 1 -0.0441,-0.01746 l -0.320674,-0.149519 a 0.42583336,0.42583336 0 0 1 -0.0049,-0.0032 l -0.267367,-0.127238 a 0.42583336,0.42583336 0 0 1 -0.0016,0 l -0.257807,-0.125991 -0.301461,-0.1447 -0.25781,-0.111444 a 0.42583336,0.42583336 0 0 1 -0.0064,-0.0032 l -0.259045,-0.116013 a 0.42583336,0.42583336 0 0 1 -0.0064,-0.0032 l -0.271877,-0.12735 -0.259048,-0.09439 a 0.42583336,0.42583336 0 0 1 -0.02704,-0.01247 l -0.276515,-0.122662 -0.212065,-0.05029 a 0.42583336,0.42583336 0 0 1 -0.07693,-0.02664 L 18.3487,20.731561 18.038919,20.593096 17.881738,20.560266 a 0.42583336,0.42583336 0 0 1 -0.07403,-0.02206 l -0.343883,-0.139711 -0.05366,-0.01746 -0.05029,0.11809 -0.03742,0.234103 a 0.42583336,0.42583336 0 0 1 0,0.0032 l -0.05198,0.316016 a 0.42583336,0.42583336 0 0 1 -0.0032,0.01577 l -0.05986,0.293977 a 0.42583336,0.42583336 0 0 1 -0.0032,0.01705 l -0.05987,0.243664 -0.03452,0.268615 -0.03283,0.308123 a 0.42583336,0.42583336 0 0 1 -0.0032,0.02036 l -0.04868,0.303545 a 0.42583336,0.42583336 0 0 1 -0.0096,0.04868 l -0.08191,0.293978 a 0.42583336,0.42583336 0 0 1 -0.01537,0.04409 l -0.102294,0.252813 -0.0032,0.01118 h 0.01747 l 0.262379,-0.02205 a 0.42583336,0.42583336 0 0 1 0.02373,0 l 0.298548,-0.0084 0.252819,-0.01077 a 0.42583336,0.42583336 0 0 1 0.06614,0.0032 l 0.325165,0.03621 0.191691,-0.01578 a 0.42583336,0.42583336 0 0 1 0.03951,-0.0016 l 0.317265,0.0016 0.284418,-0.02825 a 0.42583336,0.42583336 0 0 1 0.0032,0 l 0.248232,-0.02373 a 0.42583336,0.42583336 0 0 1 0.0032,0 l 0.268615,-0.02206 a 0.42583336,0.42583336 0 0 1 0.100618,0.0049 l 0.279848,0.0424 0.183789,-0.02206 a 0.42583336,0.42583336 0 0 1 0.04739,-0.0032 l 0.312685,-0.0049 0.248241,-0.0084 a 0.42583336,0.42583336 0 0 1 0.09896,0.0096 l 0.290655,0.05987 a 0.42583336,0.42583336 0 0 1 0.0016,0 l 0.264036,0.05656 0.293986,0.01247 0.229525,-0.0084 a 0.42583336,0.42583336 0 0 1 0.01706,0 l 0.289408,0.0016 a 0.42583336,0.42583336 0 0 1 0.329736,0.691498 l -0.180466,0.226612 -0.132227,0.200839 -0.160085,0.281506 a 0.42583336,0.42583336 0 0 1 -0.03621,0.05157 l -0.182543,0.229525 a 0.42583336,0.42583336 0 0 1 -0.04698,0.05198 l -0.20417,0.185448 -0.133886,0.183789 -0.144289,0.240339 a 0.42583336,0.42583336 0 0 1 -0.08358,0.100629 l -0.219967,0.193357 -0.158427,0.188779 a 0.42583336,0.42583336 0 0 1 -0.03951,0.0391 l -0.227868,0.20916 -0.17422,0.207486 a 0.42583336,0.42583336 0 0 1 -0.03163,0.03453 l -0.196681,0.18712 -0.138053,0.18379 a 0.42583336,0.42583336 0 0 1 -0.07572,0.07693 l -0.259048,0.207485 -0.212065,0.187122 a 0.42583336,0.42583336 0 0 1 -0.0096,0.0081 l -0.224536,0.188779 a 0.42583336,0.42583336 0 0 1 -0.01288,0.0092 l -0.229116,0.179211 -0.162168,0.19668 a 0.42583336,0.42583336 0 0 1 -0.0032,0.0032 l -0.178801,0.210817 a 0.42583336,0.42583336 0 0 1 -0.07234,0.06734 l -0.241998,0.179219 -0.20916,0.190026 -0.187112,0.204581 a 0.42583336,0.42583336 0 0 1 -0.01078,0.01078 l -0.204163,0.207494 -0.185446,0.210817 -0.185454,0.226203 a 0.42583336,0.42583336 0 0 1 -0.0049,0.0049 l -0.202917,0.240339 a 0.42583336,0.42583336 0 0 1 -0.01078,0.01247 l -0.185454,0.201258 -0.143035,0.191684 a 0.42583336,0.42583336 0 0 1 -0.08192,0.08317 l -0.08941,0.06775 0.03621,0.0064 a 0.42583336,0.42583336 0 0 1 0.04409,0.0096 l 0.403747,0.113102 a 0.42583336,0.42583336 0 0 1 0.0441,0.01578 l 0.167986,0.06565 a 0.42583336,0.42583336 0 0 1 0.01415,0.0064 l 0.261132,0.114767 0.273193,0.07861 a 0.42583336,0.42583336 0 0 1 0.0049,0.0016 l 0.271938,0.0815 0.334733,0.09107 a 0.42583336,0.42583336 0 0 1 0.03283,0.01118 l 0.227868,0.08317 0.204582,0.04868 a 0.42583336,0.42583336 0 0 1 0.07982,0.02993 l 0.330155,0.155514 0.179218,0.05528 a 0.42583336,0.42583336 0 0 1 0.03621,0.01247 l 0.08316,-0.165081 0.102296,-0.245329 0.06735,-0.246576 a 0.42583336,0.42583336 0 0 1 0.01915,-0.05656 l 0.114767,-0.265703 a 0.42583336,0.42583336 0 0 1 0.01078,-0.02326 l 0.128896,-0.253231 0.121003,-0.264044 a 0.42583336,0.42583336 0 0 1 0.0064,-0.01247 l 0.135139,-0.270281 a 0.42583336,0.42583336 0 0 1 0.01078,-0.02205 l 0.138472,-0.239092 0.125573,-0.248242 0.130562,-0.274852 a 0.42583336,0.42583336 0 0 1 0.01875,-0.03781 l 0.133475,-0.221623 0.119755,-0.249908 a 0.42583336,0.42583336 0 0 1 0.0049,-0.0092 l 0.138463,-0.270281 a 0.42583336,0.42583336 0 0 1 0.01536,-0.02825 l 0.138471,-0.226612 0.119338,-0.248242 a 0.42583336,0.42583336 0 0 1 0.0084,-0.01247 l 0.145873,-0.281468 a 0.42583336,0.42583336 0 0 1 0.0096,-0.01537 l 0.114768,-0.196679 0.0815,-0.243671 a 0.42583336,0.42583336 0 0 1 0.01746,-0.0453 l 0.125574,-0.267367 a 0.42583336,0.42583336 0 0 1 0.0016,-0.0049 l 0.128905,-0.265702 0.128896,-0.264045 a 0.42583336,0.42583336 0 0 1 0,-0.0032 l 0.133475,-0.268615 a 0.42583336,0.42583336 0 0 1 0.01247,-0.02495 l 0.14013,-0.243663 0.130143,-0.2499 0.140129,-0.279847 a 0.42583336,0.42583336 0 0 1 0.01247,-0.02495 l 0.152601,-0.26238 a 0.42583336,0.42583336 0 0 1 0.02326,-0.03781 l 0.158838,-0.215387 a 0.42583336,0.42583336 0 0 1 0.697733,0.01415 l 0.172983,0.2578 a 0.42583336,0.42583336 0 0 1 0.01415,0.02495 l 0.114759,0.198346 a 0.42583336,0.42583336 0 0 1 0.01705,0.03453 l 0.149279,0.322254 0.13555,0.264044 a 0.42583336,0.42583336 0 0 1 0.0092,0.01706 l 0.10853,0.237427 0.119337,0.221633 a 0.42583336,0.42583336 0 0 1 0.01415,0.02825 l 0.124325,0.281087 0.128904,0.270281 0.155515,0.30978 a 0.42583336,0.42583336 0 0 1 0.02035,0.04698 l 0.0865,0.243672 0.117672,0.27527 a 0.42583336,0.42583336 0 0 1 0.0016,0.0016 l 0.106865,0.251154 0.100619,0.219966 0.154267,0.314351 a 0.42583336,0.42583336 0 0 1 0.02035,0.05198 l 0.09272,0.274851 0.09274,0.232857 0.127237,0.26695 a 0.42583336,0.42583336 0 0 1 0.0032,0.0084 l 0.106857,0.238683 0.143043,0.292311 a 0.42583336,0.42583336 0 0 1 0.0081,0.01747 l 0.119338,0.274851 a 0.42583336,0.42583336 0 0 1 0.0016,0.0016 l 0.108522,0.251572 0.09273,0.199586 a 0.42583336,0.42583336 0 0 1 0.0049,0.01247 l 0.149278,0.344293 0.111854,0.251146 0.138046,0.298556 a 0.42583336,0.42583336 0 0 1 0.02704,0.07113 l 0.06446,0.246576 0.08483,0.212064 0.06566,0.133475 0.106865,-0.0407 0.17464,-0.131817 a 0.42583336,0.42583336 0 0 1 0.01577,-0.01118 l 0.243437,-0.16811 0.218302,-0.185455 0.165073,-0.16674 a 0.42583336,0.42583336 0 0 1 0.03122,-0.02825 l 0.22329,-0.182132 a 0.42583336,0.42583336 0 0 1 0.0096,-0.0096 l 0.224538,-0.171318 a 0.42583336,0.42583336 0 0 1 0.01746,-0.01415 l 0.240341,-0.165073 a 0.42583336,0.42583336 0 0 1 0.02366,-0.01578 l 0.24034,-0.143042 0.132229,-0.142624 a 0.42583336,0.42583336 0 0 1 0.03911,-0.03951 l 0.221624,-0.187119 a 0.42583336,0.42583336 0 0 1 0.01874,-0.01415 l 0.235762,-0.175887 0.182132,-0.167986 a 0.42583336,0.42583336 0 0 1 0.05986,-0.04571 l 0.260713,-0.165081 a 0.42583336,0.42583336 0 0 1 0.01456,-0.0081 l 0.04868,-0.02825 -0.02036,-0.02035 a 0.42583336,0.42583336 0 0 1 -0.0096,-0.01118 L 30.030951,29.000825 29.854645,28.8108 a 0.42583336,0.42583336 0 0 1 -0.0032,-0.0032 l -0.19792,-0.218301 -0.141376,-0.08022 a 0.42583336,0.42583336 0 0 1 -0.09435,-0.07227 L 29.221507,28.238857 29.006119,28.02346 a 0.42583336,0.42583336 0 0 1 -0.0016,-0.0016 L 28.80327,27.818945 28.594527,27.611459 a 0.42583336,0.42583336 0 0 1 -0.0016,-0.0016 l -0.202838,-0.20404 -0.147613,-0.147611 -0.295224,-0.246995 a 0.42583336,0.42583336 0 0 1 -0.0049,-0.0049 l -0.160467,-0.138434 a 0.42583336,0.42583336 0 0 1 -0.01078,-0.0096 l -0.25007,-0.232309 -0.155514,-0.143042 -0.264037,-0.204163 a 0.42583336,0.42583336 0 0 1 -0.03452,-0.02993 L 26.851642,26.043306 26.652057,25.86243 a 0.42583336,0.42583336 0 0 1 -0.0096,-0.0081 L 26.438293,25.657684 26.208769,25.44105 26.012498,25.27431 a 0.42583336,0.42583336 0 0 1 -0.01118,-0.0092 L 25.789253,25.073 a 0.42583336,0.42583336 0 0 1 -0.0064,-0.0064 l -0.20085,-0.190031 -0.221631,-0.207494 -0.21373,-0.202915 -0.217054,-0.207486 -0.193348,-0.180467 -0.223298,-0.207486 a 0.42583336,0.42583336 0 0 1 0.349289,-0.73391 l 0.210398,0.02953 0.311029,0.0412 0.261132,0.01078 a 0.42583336,0.42583336 0 0 1 0.0016,0 l 0.292321,0.01415 0.262378,0.0096 a 0.42583336,0.42583336 0 0 1 0.03452,0.0032 l 0.301881,0.03453 0.276516,0.02035 a 0.42583336,0.42583336 0 0 1 0.0064,0 l 0.27984,0.02366 a 0.42583336,0.42583336 0 0 1 0.03782,0.0049 l 0.290654,0.05029 0.27651,0.02825 a 0.42583336,0.42583336 0 0 1 0.0064,0 l 0.274851,0.03163 a 0.42583336,0.42583336 0 0 1 0.05198,0.0096 l 0.290654,0.06904 0.273605,0.02664 0.249898,0.01247 a 0.42583336,0.42583336 0 0 1 0.04698,0.0049 l 0.287741,0.04571 0.295225,0.03572 0.293977,0.02535 0.355107,0.02373 a 0.42583336,0.42583336 0 0 1 0.01247,0.0016 l 0.269035,0.02704 a 0.42583336,0.42583336 0 0 1 0.01078,0 l 0.278174,0.03621 0.286084,0.02205 0.193348,0.01536 0.0453,-0.207486 a 0.42583336,0.42583336 0 0 1 0.0016,-0.0049 l 0.05986,-0.259466 0.01706,-0.251565 -0.01875,-0.298556 a 0.42583336,0.42583336 0 0 1 0.01118,-0.13181 l 0.08648,-0.336389 a 0.42583336,0.42583336 0 0 1 0.0049,-0.01747 l 0.06156,-0.204162 0.04698,-0.215388 0.0032,-0.281088 a 0.42583336,0.42583336 0 0 1 0.0092,-0.08358 l 0.04739,-0.21373 -0.01577,-0.259047 a 0.42583336,0.42583336 0 0 1 0.0049,-0.08983 l 0.04698,-0.303126 a 0.42583336,0.42583336 0 0 1 0,-0.0032 l 0.0049,-0.03283 -0.0084,0.0016 -0.21373,0.09564 a 0.42583336,0.42583336 0 0 1 -0.08648,0.02825 l -0.301469,0.06445 -0.289407,0.06614 -0.28441,0.06614 -0.266957,0.07861 -0.223292,0.07073 a 0.42583336,0.42583336 0 0 1 -0.07403,0.01746 l -0.321844,0.0407 -0.24075,0.07523 -0.259056,0.08981 a 0.42583336,0.42583336 0 0 1 -0.05528,0.01415 l -0.300212,0.05818 -0.222879,0.05157 -0.240751,0.121003 a 0.42583336,0.42583336 0 0 1 -0.07193,0.02825 l -0.251575,0.07403 a 0.42583336,0.42583336 0 0 1 -0.02663,0.0081 l -0.314352,0.07073 -0.240339,0.07073 -0.21872,0.08816 a 0.42583336,0.42583336 0 0 1 -0.101874,0.02663 l -0.281506,0.03621 -0.312686,0.05987 -0.234104,0.08648 a 0.42583336,0.42583336 0 0 1 -0.04739,0.01537 l -0.251155,0.05987 -0.172975,0.08939 a 0.42583336,0.42583336 0 0 1 -0.125676,0.04101 l -0.322252,0.05318 -0.295644,0.05198 -0.300213,0.06156 a 0.42583336,0.42583336 0 0 1 -0.466566,-0.603729 l 0.114767,-0.238676 0.08149,-0.265709 a 0.42583336,0.42583336 0 0 1 0.03781,-0.08648 l 0.131809,-0.232437 0.103953,-0.21872 0.05318,-0.237017 a 0.42583336,0.42583336 0 0 1 0.02075,-0.06944 l 0.10021,-0.241997 0.05198,-0.251155 a 0.42583336,0.42583336 0 0 1 0.02036,-0.07233 l 0.09896,-0.246986 0.07861,-0.273194 a 0.42583336,0.42583336 0 0 1 0.01118,-0.03491 L 25.21268,19.0403 a 0.42583336,0.42583336 0 0 1 0.03621,-0.07193 l 0.08483,-0.13514 0.04578,-0.185454 0.0064,-0.2499 a 0.42583336,0.42583336 0 0 1 0.02206,-0.124334 l 0.105212,-0.311027 a 0.42583336,0.42583336 0 0 1 0.0084,-0.02035 l 0.122249,-0.309781 a 0.42583336,0.42583336 0 0 1 0.01288,-0.02993 l 0.111443,-0.229535 0.119338,-0.270271 a 0.42583336,0.42583336 0 0 1 0.01415,-0.02825 l 0.124326,-0.234104 0.131808,-0.286084 a 0.42583336,0.42583336 0 0 1 0.02373,-0.0424 l 0.1131,-0.186695 0.100629,-0.246994 a 0.42583336,0.42583336 0 0 1 0.0064,-0.01415 l 0.100629,-0.224536 0.07073,-0.270281 a 0.42583336,0.42583336 0 0 1 0.0084,-0.02206 0.42583336,0.42583336 0 0 1 -0.0032,0 l -0.293986,-0.01247 -0.171309,0.02953 a 0.42583336,0.42583336 0 0 1 -0.07363,0.0064 l -0.32849,-0.0032 a 0.42583336,0.42583336 0 0 1 -0.02205,0 l -0.306458,-0.01706 -0.246576,-0.01126 a 0.42583336,0.42583336 0 0 1 -0.0032,0 z m 6.380644,8.272586 v 0.0016 l 0.03911,0.0032 z" />
  </g>
</svg>
