<?xml version="1.0" encoding="UTF-8" standalone="no"?>
<!-- Created with Inkscape (http://www.inkscape.org/) -->

<svg
   width="32"
   height="32"
   viewBox="0 0 32 32"
   version="1.1"
   id="svg1"
   xmlns="http://www.w3.org/2000/svg"
   xmlns:svg="http://www.w3.org/2000/svg">
  <defs
     id="defs1" />
  <path
     id="path72"
     style="baseline-shift:baseline;display:inline;overflow:visible;vector-effect:none;stroke-width:3.77954;stroke-linecap:round;stroke-linejoin:round;stroke-miterlimit:10000;paint-order:fill markers stroke;enable-background:accumulate;stop-color:#000000"
     d="m 17.413854,0.24878387 a 0.4085314,0.4085314 0 0 1 -0.02753,0.041454 c 0.01098,-0.0134393 0.02033,-0.0272487 0.02753,-0.041454 z m -0.140028,0.13483699 c -0.0071,0.004636 -0.0122,0.008415 -0.01633,0.0123566 7.13e-4,-4.0853e-4 0.0014,-8.202e-4 0.0021,-0.001633 0.005,-0.003859 0.0091,-0.007721 0.01434,-0.0111926 z m 0.767523,0.009579 a 0.4085314,0.4085314 0 0 1 -0.191886,0.0605977 l 0.0071,0.007721 h 4.06e-4 c 0.0562,-0.006169 0.123481,-0.0250121 0.184711,-0.0682406 z m -0.798641,0.0167479 a 0.4085314,0.4085314 0 0 1 -0.04429,0.019138 c 0.0029,-6.1273e-4 0.0057,1.532e-4 0.0092,-0.001633 l 0.005,-0.001633 c 0.0086,-0.003081 0.009,-6.1273e-4 0.0184,-0.004636 0.005,-0.002311 0.0083,-0.006947 0.01234,-0.0119686 z m -0.05185,0.003081 c -0.0088,0.004636 -0.01847,0.009273 -0.02232,0.0135826 a 0.4085314,0.4085314 0 0 1 -0.0043,0.004636 l 0.0064,0.001633 h 4.06e-4 V 0.4324719 c 0.0021,-0.003081 0.01205,-0.0119686 0.02075,-0.019138 z m 0.01234,0.0179939 c -0.005,0.002311 -0.0093,0.003081 -0.01398,0.006169 l 0.0029,0.001633 c 0.0081,-0.003859 0.0077,-0.005413 0.0107,-0.007945 z m 0.230186,0.002311 c -0.02211,0.004636 -0.04679,0.009804 -0.06826,0.0159719 v 4.0854e-4 h 4.07e-4 c 4.06e-4,-3.88e-5 0.0014,9.186e-5 0.0021,0 0.02439,-0.004636 0.0465,-0.010498 0.06583,-0.0163599 z m 0.289612,0.008803 c 0.01113,0.006947 0.01997,0.009416 0.03352,0.0163599 6.14e-4,9.186e-5 7.14e-4,2.0419e-4 0.0014,4.0846e-4 1.85e-4,6.333e-5 7.13e-4,4.0853e-4 0.0014,4.0853e-4 l 4.07e-4,4.0847e-4 c 4.13e-4,2.0427e-4 7.13e-4,4.0846e-4 0.0014,8.2021e-4 l 4.07e-4,4.0846e-4 c 7.13e-4,2.0427e-4 0.0021,6.1273e-4 0.0036,8.2021e-4 0.0214,0.003081 0.05135,0.003859 0.08577,8.2021e-4 -0.0014,-0.002311 -0.0021,-0.005413 -0.0036,-0.007945 a 0.4085314,0.4085314 0 0 1 -0.124065,-0.0123566 z m -0.497453,0.001633 c -0.0057,8.2021e-4 -0.0064,8.2021e-4 -0.0064,8.2021e-4 -6.13e-4,3.88e-5 -0.0021,4.0846e-4 -0.0043,8.2021e-4 h 0.0029 z m 0.486284,0.001633 v 4.0847e-4 c 1.14e-4,1.7773e-4 1.99e-4,6.1273e-4 4.06e-4,8.202e-4 h 4.07e-4 c 0.0021,-4.0846e-4 0.0036,-4.0846e-4 0.005,-4.0846e-4 h 4.07e-4 v 4.0846e-4 c 7.13e-4,-1.3886e-4 0.0029,-2.0426e-4 0.0071,-0.001633 a 0.4085314,0.4085314 0 0 1 -0.01277,0 z m 0.0057,0.001633 h -4.06e-4 v 4.0853e-4 h 4.06e-4 z M 17.525659,0.446217 c -0.02767,0.005413 -0.08831,0.006169 -0.147602,0.003081 a 0.4085314,0.4085314 0 0 1 -0.02275,0.004636 l 0.06498,0.004636 c -0.0547,0.001633 -0.07047,-0.001633 -0.08138,-0.003081 -0.03452,0.007945 -0.05142,0.0238538 -0.09215,0.0223096 -0.02946,-0.001633 -0.04286,-0.0186066 -0.0694,-0.0255513 -7.14e-4,-7.767e-5 -0.0029,8.373e-5 -0.0036,0 v -4.0853e-4 h 4.06e-4 V 0.4514303 0.45102177 h 4.14e-4 V 0.4506133 h -4.14e-4 -4.06e-4 -4.07e-4 -4.07e-4 -4.13e-4 -4.07e-4 -4.06e-4 a 0.4085314,0.4085314 0 0 1 0,0.001633 h -4.14e-4 c -6.06e-4,1.633e-5 -0.0014,-1.434e-5 -0.0021,0 h -4.06e-4 -4.14e-4 c -0.03873,0.0243951 -0.04358,0.0467048 -0.09654,0.0586698 -0.0014,2.042e-4 -0.0021,3.88e-5 -0.0036,0 0.06847,-0.0351242 0.06433,-0.0390619 0.07899,-0.0602118 h -4.14e-4 c -0.0014,-4.0854e-4 -0.0036,-0.001633 -0.005,-0.001633 -1.78e-4,1.434e-5 -7.13e-4,4.0847e-4 -0.0014,4.0847e-4 l -4.07e-4,-4.0847e-4 a 0.4085314,0.4085314 0 0 1 -0.07303,0.0618337 0.4085314,0.4085314 0 0 1 -4.06e-4,0 0.4085314,0.4085314 0 0 0 -4.14e-4,0 0.4085314,0.4085314 0 0 1 0,0.001633 c -0.01983,0.002311 -0.05684,0.0111113 -0.05941,0.0111926 -0.03752,0.0216913 -0.0587,0.050022 -0.08975,0.0646131 l 0.09056,-0.0259393 c -0.08072,0.0376711 -0.101514,0.0389841 -0.10692,0.0391396 -0.01291,0.006169 -0.02439,0.013746 -0.03473,0.0183819 h -4.07e-4 c -0.0014,6.1273e-4 -0.0043,8.2021e-4 -0.0064,0.001633 l -0.0064,0.003081 c -0.01476,0.010968 -0.06433,0.0177486 -0.09056,0.0318826 -0.0021,0.003081 -0.01205,0.0108859 -0.01512,0.0147466 -0.0057,0.002311 -0.0082,8.202e-4 -0.01355,0.003081 -2.07e-4,1.8379e-4 -6.14e-4,2.0426e-4 -7.14e-4,4.0846e-4 v 4.0853e-4 4.0847e-4 h -4.06e-4 l -4.07e-4,4.0853e-4 c -0.0029,8.2021e-4 -0.0057,0.001633 -0.0079,0.003081 l 0.0079,-0.002311 0.01476,-0.003081 c -0.01284,0.0177486 -0.01512,0.0267866 -0.06184,0.0662329 a 0.4085314,0.4085314 0 0 1 -0.01633,0.0123566 c -0.0169,0.0130513 -0.02618,0.0203019 -0.03031,0.0239294 l -4.07e-4,4.0853e-4 c -0.0014,0.001633 -0.0021,0.002311 -0.0021,0.002311 a 0.4085314,0.4085314 0 0 1 -0.0271,0.0243152 c -0.04172,0.0340436 -0.03409,0.0248566 -0.04229,0.0287173 a 0.4085314,0.4085314 0 0 1 -0.0184,0.0270954 c 0.02803,-0.0245485 0.04165,-0.0386739 0.04429,-0.041454 -0.0021,0.003081 -0.01605,0.0183819 -0.0363,0.0474751 a 0.4085314,0.4085314 0 0 1 -0.05592,0.064999 c -0.0043,0.003859 -0.0083,0.007945 -0.0112,0.0111926 -0.0036,0.005413 -0.0064,0.008109 -0.0071,0.009579 a 0.4085314,0.4085314 0 0 0 0.0057,-0.006947 c -0.0036,0.003859 -0.0057,0.006947 -0.0064,0.007945 v 4.0847e-4 a 0.4085314,0.4085314 0 0 1 -0.04194,0.0478609 v 4.084e-4 l -4.06e-4,4.085e-4 -4.07e-4,4.085e-4 c -0.0014,0.00231 -0.0057,0.00695 -0.01198,0.01636 a 0.4085314,0.4085314 0 0 1 -0.04229,0.051491 c -0.0102,0.01058 -0.01562,0.017606 -0.0179,0.020765 4.06e-4,-6.127e-4 7.13e-4,-0.00163 0.0014,-0.00308 a 0.4085314,0.4085314 0 0 1 -0.03309,0.042303 c -0.01605,0.025551 -0.04265,0.06523 -0.08418,0.1045228 -0.03702,0.040913 -0.0572,0.058745 -0.06298,0.060598 h -4.06e-4 -4.14e-4 -4.06e-4 -4.07e-4 v -4.085e-4 -4.085e-4 -4.085e-4 c 6.13e-4,-0.00231 0.0036,-0.00819 0.0092,-0.015135 -2.07e-4,1.695e-4 -7.14e-4,4.085e-4 -7.14e-4,4.085e-4 -4.06e-4,2.042e-4 -4.06e-4,8.202e-4 -7.13e-4,0.00163 l -0.0036,0.00386 c -0.0071,0.00895 -0.03081,0.037285 -0.05428,0.064611 -0.03309,0.041531 -0.02304,0.022541 -0.04344,0.039523 v 4.085e-4 4.085e-4 4.085e-4 c -0.0036,0.00308 -0.0043,0.00386 -0.0079,0.00617 a 0.4085314,0.4085314 0 0 1 -0.0064,0.016748 0.4085314,0.4085314 0 0 1 -0.0014,0.00617 c -0.01384,0.03636 -0.01569,0.062683 -0.04272,0.099729 l 0.0079,-0.00919 c -0.01762,0.023932 -0.04065,0.051335 -0.06298,0.078183 -0.01491,0.020997 -0.03773,0.049483 -0.05906,0.076964 -0.0096,0.014052 -0.0091,0.013746 -0.01676,0.023931 l -0.0077,0.00919 c -0.0057,0.00772 -0.01155,0.016299 -0.01712,0.024317 -0.0021,0.00464 -0.0064,0.011499 -0.01,0.019526 -0.01426,0.029025 -0.06555,0.080885 -0.10851,0.1280519 a 0.4085314,0.4085314 0 0 1 -0.0064,0.011969 l 0.0587,-0.061834 c -0.03666,0.057895 -0.04443,0.05782 -0.06298,0.073798 -2.07e-4,2.042e-4 -7.14e-4,8.202e-4 -0.0014,0.00163 l -4.06e-4,4.085e-4 -4.07e-4,4.085e-4 c -0.005,0.00386 -0.01334,0.015277 -0.01633,0.017525 a 0.4085314,0.4085314 0 0 1 -0.02118,0.063453 c 0.0077,-0.012969 0.01334,-0.023158 0.01712,-0.030723 4.06e-4,-0.00163 7.13e-4,-0.00308 0.0014,-0.00386 0.0021,-0.00695 0.005,-0.012439 0.0057,-0.013971 l 4.07e-4,-4.086e-4 h 4.13e-4 v 4.086e-4 4.084e-4 l -4.13e-4,4.086e-4 c -4.07e-4,0.00231 -0.0021,0.00772 -0.0071,0.017136 -0.0064,0.024857 -0.01277,0.074107 -0.07581,0.1647508 -0.0077,0.013664 -0.01862,0.030953 -0.03031,0.049867 -0.0043,0.00819 -0.0077,0.013439 -0.01198,0.021151 l -0.0107,0.016748 c -0.0092,0.015666 -0.01747,0.031728 -0.02553,0.045081 -0.01747,0.032731 -0.03245,0.059673 -0.04508,0.082971 l -0.005,0.00772 c -0.0064,0.012745 -0.02289,0.0457 -0.04229,0.08138 -0.01483,0.030106 -0.0214,0.044309 -0.02275,0.045467 h -4.06e-4 v -4.085e-4 c 4.06e-4,-0.00308 0.0036,-0.014359 0.0096,-0.032346 a 0.4085314,0.4085314 0 0 1 -0.02232,0.058206 c 0.0036,-0.00825 0.0071,-0.014747 0.0088,-0.019526 -0.0014,0.00464 -0.0036,0.010723 -0.0064,0.017994 -0.0082,0.027173 -0.0091,0.080786 -0.07061,0.1587686 -0.01369,0.028176 -0.02175,0.042998 -0.02432,0.045081 h -4.13e-4 -4.07e-4 v -4.084e-4 c -5e-5,-0.00231 0.0021,-0.010192 0.0064,-0.02231 -0.0014,0.00163 -0.0021,0.00308 -0.0036,0.00464 -0.0089,0.019996 -0.01334,0.030338 -0.01512,0.036282 a 0.4085314,0.4085314 0 0 1 -0.0092,0.023929 c -0.01348,0.032499 -0.01327,0.031342 -0.01633,0.042304 a 0.4085314,0.4085314 0 0 1 -0.0092,0.024704 v 4.085e-4 c -1.57e-4,8.202e-4 -0.0014,0.00308 -0.0029,0.00795 a 0.4085314,0.4085314 0 0 0 0.0029,-0.00795 c -0.0036,0.00464 -0.03438,0.070326 -0.0475,0.1073108 -7.13e-4,0.00231 -0.0057,0.012357 -0.0071,0.015135 l -4.07e-4,4.085e-4 h -4.06e-4 v -4.085e-4 c 1.4e-5,-8.202e-4 4.06e-4,-0.00308 0.0014,-0.00695 a 0.4085314,0.4085314 0 0 1 -0.005,0.01636 c -0.0064,0.013439 -0.0057,0.01636 -0.005,0.01877 5.7e-5,2.043e-4 -4.3e-5,8.202e-4 0,0.00163 0.0021,-0.00695 0.005,-0.010805 0.0064,-0.012357 v -4.085e-4 l 4.07e-4,-4.085e-4 h 4.06e-4 v 4.085e-4 c -7e-6,0.00617 -0.01105,0.046009 -0.03388,0.1120942 -0.01248,0.036282 -0.02011,0.058748 -0.02396,0.069399 -0.0064,0.019444 -0.02289,0.078933 -0.06184,0.1464014 -0.005,0.00942 -0.0081,0.019914 -0.01198,0.028331 l -0.01355,0.030337 c -0.0021,0.00464 -0.0099,0.02509 -0.0092,0.022696 a 0.4085314,0.4085314 0 0 1 -0.005,0.013583 c -0.0085,0.022387 -0.01733,0.043462 -0.02268,0.061834 a 0.4085314,0.4085314 0 0 1 -0.0029,0.011969 c -0.005,0.012581 -0.0117,0.038832 -0.02268,0.0738 l -0.0014,0.00308 c -0.0097,0.030028 -0.0086,0.023158 -0.01398,0.034736 a 0.4085314,0.4085314 0 0 1 -0.0029,0.019526 c -6.13e-4,0.00231 -7.13e-4,0.00308 -0.0014,0.00386 h -4.07e-4 c -8.6e-5,-0.00231 0.0014,-0.013276 0.0021,-0.01636 l -4.07e-4,4.084e-4 c -0.0014,0.00308 -0.0064,0.013971 -0.0064,0.013583 a 0.4085314,0.4085314 0 0 1 -0.0014,0.0738 c 0.0036,-0.017055 0.0071,-0.029875 0.0084,-0.039062 -1.64e-4,-0.00386 -4.07e-4,-0.00617 -4.07e-4,-0.00919 -1.14e-4,-0.00541 6.06e-4,-0.00966 0.0014,-0.011193 l 4.06e-4,-4.085e-4 h 4.07e-4 v 4.085e-4 4.085e-4 c 4.06e-4,0.00231 4.06e-4,0.00811 -0.0014,0.019914 7.13e-4,0.02061 0.0021,0.056738 -0.0084,0.1236668 a 0.4085314,0.4085314 0 0 1 -0.0029,0.019526 c 0.0014,-0.00695 -0.0064,0.047322 -0.02432,0.1160873 -0.0029,0.010029 -0.0029,0.00617 -0.0064,0.014359 v 4.085e-4 4.085e-4 c 7e-6,8.202e-4 -2.1e-5,0.00231 0,0.00308 -0.0021,0.00539 -0.0021,0.00539 -0.0043,0.010723 a 0.4085314,0.4085314 0 0 1 0,0.01636 c 0.0021,0.026476 0.0085,0.061215 -0.0064,0.1216672 -0.0014,0.022619 -0.0021,0.057201 -0.02796,0.1280512 -0.005,0.027481 -0.0084,0.042149 -0.01034,0.04624 l -4.07e-4,4.084e-4 -4.13e-4,4.086e-4 v 3.88e-4 h -4.07e-4 l -4.06e-4,-3.88e-4 v -4.086e-4 c -1.29e-4,-7.346e-4 -4.07e-4,-0.00232 -4.07e-4,-0.00386 -0.005,0.03744 -0.0057,0.029952 -0.0096,0.042303 a 0.4085314,0.4085314 0 0 1 0.0014,0.029952 c 7.13e-4,-0.00695 7.13e-4,-0.011656 0.0014,-0.014359 1.07e-4,0.00309 6.13e-4,0.010576 0.0021,0.02231 a 0.4085314,0.4085314 0 0 1 0,0.087362 c -0.0036,0.029797 0.0021,0.051103 -0.0036,0.0132 a 0.4085314,0.4085314 0 0 1 0.0036,0.09255 c 7.14e-4,-0.00919 0.0014,-0.014822 0.0021,-0.016366 l 4.07e-4,-4.085e-4 h 4.06e-4 v 4.085e-4 c 0.0021,0.00541 0.0021,0.04624 -0.0029,0.1172829 v 0.00772 c 9.3e-5,-4.084e-4 2.07e-4,-7.774e-4 4.07e-4,-0.00155 v -3.881e-4 -4.085e-4 h 4.06e-4 c 4.14e-4,0.00155 7.14e-4,0.00772 7.14e-4,0.023158 0,0.027945 0.01141,0.072255 -0.01676,0.1535878 -0.0021,0.0176 -0.0057,0.027481 -0.0071,0.030338 l -4.06e-4,4.085e-4 h -4.07e-4 v 3.881e-4 h -4.13e-4 l -4.07e-4,-3.881e-4 v -4.085e-4 c -4.06e-4,-7.774e-4 -7.13e-4,-0.00309 -7.13e-4,-0.00541 -0.0014,0.026556 -0.0029,0.051798 -0.005,0.072178 -0.0014,0.038829 -0.0029,0.031187 -0.0064,0.046703 a 0.4085314,0.4085314 0 0 1 0.0029,0.028331 c 0.0014,-0.063068 -6.13e-4,-0.028871 0.0043,0.00919 0.0029,0.018991 0.0081,0.041454 0.0088,0.082969 7.14e-4,0.031959 0.01534,0.075034 -0.01833,0.1595704 -0.0014,0.032731 -0.0021,0.061448 -0.0029,0.047089 a 0.4085314,0.4085314 0 0 1 0,0.00155 c 7.13e-4,0.026555 0.0021,0.060058 0.0029,0.094943 v 0.00463 c 0.0014,0.034506 0.0014,0.052262 0.0029,0.071019 a 0.4085314,0.4085314 0 0 1 0.0014,0.011965 c 0.0014,0.017291 0.005,0.055581 0.0077,0.099729 0.0029,0.032036 0.0057,0.059749 0.0077,0.093345 0.0029,0.032577 0.0057,0.059517 0.0079,0.078191 a 0.4085314,0.4085314 0 0 1 0.0014,0.00309 c 0.0057,0.042766 0.0021,0.039215 0.0014,0.049868 a 0.4085314,0.4085314 0 0 1 0.0088,0.028717 c -0.0021,-0.01868 -0.0029,-0.029411 -0.0021,-0.032268 h 4.07e-4 v -4.086e-4 -4.084e-4 h 4.13e-4 4.07e-4 v 4.084e-4 h 4.06e-4 v 4.086e-4 c 0.005,0.00772 0.01655,0.055967 0.02796,0.1360257 l 0.0014,0.00919 c 0.0036,0.022696 0.0057,0.035973 0.0092,0.058669 a 0.4085314,0.4085314 0 0 1 0,0.00155 c 0.0043,0.028022 0.01726,0.083224 0.02118,0.1025231 h -0.0014 c 0.0014,0.00618 0.01448,0.055581 0.02232,0.122069 v 3.88e-4 c 4.3e-5,2.247e-4 -2.1e-5,7.774e-4 0,0.00155 7.13e-4,0.0095 0.0021,0.00934 0.0036,0.012351 l -4.13e-4,-0.00463 a 0.4085314,0.4085314 0 0 1 0.0064,0.021151 c 0.0036,0.015981 -0.0014,-0.00309 0.01362,0.043847 a 0.4085314,0.4085314 0 0 1 0.005,0.014744 c -0.0014,-0.00695 0.0078,0.020457 0.01676,0.047089 0.0077,0.021692 0.01633,0.048324 0.0271,0.1053176 a 0.4085314,0.4085314 0 0 1 0.0014,0.00309 0.4085314,0.4085314 0 0 1 0.0064,0.01513 c -0.0021,-0.00772 0.0057,0.012583 0.01512,0.035896 0.0082,0.019608 0.01876,0.00872 0.03431,0.08896 0.0057,0.013509 0.01155,0.031187 0.01755,0.051876 0.01483,0.034969 0.02339,0.056738 0.02354,0.059826 h -4.07e-4 c -0.0014,-0.00155 -0.0057,-0.00857 -0.01155,-0.021537 a 0.4085314,0.4085314 0 0 1 0.0014,0.00463 c 0.0095,0.019916 0.02011,0.041531 0.0271,0.05589 0.0021,0.00386 0.0021,0.00541 0.0029,0.00695 -0.0021,-0.00309 -0.0064,-0.00903 -0.0077,-0.011193 l -4.14e-4,-4.085e-4 V 6.69141 c -0.0029,-0.00463 -0.0077,-0.011039 -0.01598,-0.021924 -7.13e-4,-7.774e-4 -0.0021,-0.00232 -0.0029,-0.00309 l -0.0014,-0.00541 c 4.06e-4,0.00232 0.0014,0.00386 0.0014,0.00618 v 4.086e-4 a 0.4085314,0.4085314 0 0 1 0.02874,0.043847 c 0.0082,0.010498 0.02068,0.046163 0.03473,0.069399 -7.13e-4,-7.774e-4 -0.0014,-0.00155 -0.0021,-0.00232 7.14e-4,0.00155 0.0036,0.00541 0.0043,0.00618 -4.07e-4,-5.106e-4 -0.0014,-0.00155 -0.0029,-0.00309 a 0.4085314,0.4085314 0 0 1 0.0029,0.00463 c 0.0087,0.014822 0.01676,0.026092 0.02432,0.037903 l -0.005,-0.011965 a 0.4085314,0.4085314 0 0 1 0.01362,0.016366 c 0.0014,0.00309 -0.0021,-0.00386 0.02553,0.031882 a 0.4085314,0.4085314 0 0 1 0.0077,0.010345 c 0.01762,0.024008 0.01961,0.026709 0.03031,0.03906 a 0.4085314,0.4085314 0 0 1 0.01034,0.012351 c 0.01148,0.014359 0.02667,0.028331 0.03751,0.037517 -0.01006,-0.00772 -0.02632,-0.019685 -0.05114,-0.037517 a 0.4085314,0.4085314 0 0 1 0.06583,0.05944 c 1.71e-4,1.931e-4 4.06e-4,4.29e-4 7.13e-4,7.775e-4 -6.13e-4,-7.775e-4 0.0014,0.00155 0.01633,0.013586 a 0.4085314,0.4085314 0 0 1 0.02874,0.027095 c 0.0094,0.00988 0.01833,0.017447 0.02076,0.01953 l 4.13e-4,4.085e-4 a 0.4085314,0.4085314 0 0 1 0.02874,0.023544 c 0.02104,0.019452 0.01505,0.016211 0.02275,0.024317 0.03267,0.013973 0.05064,0.015053 0.08258,0.039061 -0.0029,-0.00309 0.02325,0.017138 0.04386,0.031882 l 0.0271,0.01953 c 0.0057,7.774e-4 0.02732,0.01019 0.06498,0.042689 0.03809,0.0237 0.06127,0.039213 0.06547,0.043464 l 4.06e-4,3.88e-4 v 4.087e-4 h 4.14e-4 v 4.086e-4 h -4.14e-4 -4.06e-4 c -0.0029,-7.132e-4 -0.01512,-0.0062 -0.0363,-0.017988 0.04329,0.023394 0.06448,0.035897 0.07179,0.041453 a 0.4085314,0.4085314 0 0 1 0.03152,0.00795 c -0.01098,-0.00385 -0.01705,-0.00621 -0.01911,-0.00772 l -4.07e-4,-4.087e-4 h -4.06e-4 v -3.773e-4 -4.087e-4 -4.08e-4 h 4.06e-4 4.07e-4 c 0.0077,-7.845e-4 0.05171,0.0088 0.120471,0.036282 0.03081,0.00307 0.06982,0.012353 0.109708,0.02517 0.05028,0.011426 0.05984,0.020227 0.07696,0.0291 a 0.4085314,0.4085314 0 0 1 0.02232,0 c -0.01648,-7.845e-4 0.02503,-0.00157 0.05149,-0.00157 0.01897,-4.493e-4 0.03366,-0.00157 0.04386,-0.00228 0.01034,-0.00228 0.01598,-0.00307 0.01712,-0.00307 v 4.08e-4 c -0.0014,4.294e-4 -0.0071,0.00157 -0.01712,0.00228 -0.01227,0.00228 -0.03102,0.00692 -0.05663,0.013972 a 0.4085314,0.4085314 0 0 1 0.06861,-0.013123 c -0.0071,7.132e-4 -0.01034,7.845e-4 -0.0107,7.845e-4 0.0036,-0.00157 0.02981,-0.00542 0.06348,-0.01119 0.01491,-0.00307 0.02603,-0.0062 0.03074,-0.00795 -0.005,0.00157 -0.01548,0.00542 -0.03509,0.013972 a 0.4085314,0.4085314 0 0 1 0.03752,-0.011968 c 0.01498,-0.012196 0.01405,-0.018993 0.03473,-0.031496 0.03402,-0.020691 0.0841,-0.017524 0.12965,-0.028714 a 0.4085314,0.4085314 0 0 1 0.01797,-0.010342 c 1.42e-4,-1.462e-4 6.13e-4,-6.534e-4 7.13e-4,-7.846e-4 0.0036,-0.00228 0.01327,-0.00542 0.01598,-0.00692 h -0.0064 -0.0014 l -0.06662,0.00919 c 0.06918,-0.026168 0.06555,-0.015983 0.09216,-0.016754 0.01419,-0.010655 0.046,-0.017831 0.07104,-0.029955 0.0021,-0.00385 0.0071,-0.00692 0.01034,-0.010734 0.0021,-6.74e-4 0.0029,-7.846e-4 0.0036,-7.846e-4 h 4.14e-4 c 6.06e-4,0 0.0014,-2.246e-4 0.0036,-7.845e-4 -0.0021,0.00157 -0.0029,0.00235 -0.0036,0.00307 l -4.14e-4,3.888e-4 v 4.079e-4 h -4.06e-4 v 4.087e-4 l -4.07e-4,3.88e-4 -4.13e-4,4.087e-4 c -4.07e-4,5.513e-4 -0.0014,0.00157 -0.0029,0.00307 0.0036,-0.00157 0.005,-0.00157 0.0088,-0.00307 a 0.4085314,0.4085314 0 0 1 0.0029,-0.00621 c 0.0096,-0.00307 0.0064,-0.00157 0.01512,-0.00307 0.01526,-0.00542 0.02004,-0.010962 0.02831,-0.015983 l -0.03752,0.011191 h -0.0014 l -0.0077,0.00307 c 0.02874,-0.036591 0.01248,-0.055812 0.102526,-0.098138 0.0112,-0.00888 0.02354,-0.021151 0.05741,-0.037053 0.03224,-0.020457 0.05149,-0.031109 0.05627,-0.032345 h 4.06e-4 4.14e-4 4.06e-4 v 3.881e-4 h -4.06e-4 v 4.085e-4 c -0.0014,0.00232 -0.0071,0.00695 -0.01633,0.013123 l -0.0029,0.00309 c 0.02582,-0.01845 0.04072,-0.030647 0.04472,-0.033503 -0.0014,0.00232 -0.0085,0.0088 -0.02118,0.021537 a 0.4085314,0.4085314 0 0 1 0.02118,-0.017986 c 0.02832,-0.033348 0.09955,-0.1095865 0.211429,-0.1471961 0.01961,-0.014976 0.03552,-0.027327 0.03908,-0.029102 0.01377,-0.012198 0.03267,-0.028717 0.03552,-0.030338 a 0.4085314,0.4085314 0 0 1 0.0096,-0.00919 c 0.01041,-0.010268 0.03259,-0.033425 0.06184,-0.062991 0.0164,-0.017061 0.03759,-0.041299 0.06184,-0.06662 -0.0036,0.00386 0.04151,-0.03991 0.06626,-0.067855 0.01576,-0.018604 0.02739,-0.032885 0.0311,-0.035896 l 4.14e-4,-4.084e-4 h 4.07e-4 v -3.667e-4 h 4.06e-4 v 4.085e-4 4.084e-4 3.881e-4 c -7.13e-4,0.00309 -0.0064,0.013817 -0.01712,0.032731 a 0.4085314,0.4085314 0 0 1 0.03031,-0.045468 0.4085314,0.4085314 0 0 1 0.0088,-0.013586 c 0.0029,-0.00309 0.005,-0.00464 0.0057,-0.00541 l 4.14e-4,-3.881e-4 h 4.06e-4 v 3.881e-4 4.085e-4 4.085e-4 h 4.07e-4 4.06e-4 c 6.14e-4,-5.719e-4 0.0021,-0.00232 0.0036,-0.00464 0.0014,-0.031496 -0.0082,-0.063995 0.07217,-0.1703392 0.0592,-0.078616 0.04408,-0.074493 0.0096,0.00957 a 0.4085314,0.4085314 0 0 1 0.04622,-0.083379 c -0.0014,0.00232 -0.0021,0.00386 -0.0029,0.00464 l -4.07e-4,3.881e-4 h -4.06e-4 v 4.085e-4 h -5.56e-4 v -3.992e-4 h 4.14e-4 c 7.13e-4,-0.00309 0.01305,-0.025397 0.03716,-0.064998 a 0.4085314,0.4085314 0 0 1 0.01355,-0.021151 c 0.02717,-0.039215 0.02938,-0.042149 0.0271,-0.037517 a 0.4085314,0.4085314 0 0 1 0.02275,-0.03906 c -0.0014,0.00232 -0.0021,0.00386 -0.0029,0.00386 h -4.07e-4 c 7.13e-4,-0.00386 0.02603,-0.04624 0.06498,-0.1005239 0.0043,-0.00695 0.01555,-0.02339 0.01911,-0.027095 l 4.14e-4,-4.085e-4 h 4.06e-4 4.07e-4 v 4.085e-4 c -1.78e-4,7.774e-4 -6.13e-4,0.00232 -0.0014,0.00463 a 0.4085314,0.4085314 0 0 1 0.0204,-0.039524 c -0.0014,0.00232 0.01398,-0.026787 0.03352,-0.061061 1.79e-4,-6.95e-5 0.0029,-0.00386 0.0071,-0.011965 1.64e-4,-2.859e-4 2.06e-4,-7.774e-4 4.06e-4,-0.00155 0.0021,-0.00541 0.0057,-0.01127 0.0092,-0.019144 0.0117,-0.025475 0.03188,-0.072872 0.07658,-0.124462 0.02746,-0.04292 0.04657,-0.065771 0.05149,-0.068241 h 4.07e-4 4.06e-4 4.14e-4 v 4.085e-4 3.881e-4 c -2.8e-5,2.246e-4 6.4e-5,5.31e-4 0,7.774e-4 0.0057,-0.0098 0.0122,-0.020766 0.01876,-0.031882 v -3.88e-4 c 7.13e-4,-0.00155 0.0029,-0.00463 0.0036,-0.00541 l 4.07e-4,-3.88e-4 c -0.01662,0.028331 0.03623,-0.057897 0.09335,-0.1340419 l 4.07e-4,-3.881e-4 c 4.06e-4,-0.00155 0.0029,-0.00872 0.0043,-0.011579 l 4.07e-4,-4.085e-4 v -3.881e-4 h 4.14e-4 v -4.084e-4 h 4.06e-4 v 4.084e-4 c 2.1e-5,1.312e-4 -7e-6,5.924e-4 0,7.774e-4 -10e-5,0.00232 -7.13e-4,0.00772 -0.0029,0.016366 a 0.4085314,0.4085314 0 0 1 0.005,-0.01513 c 0.0057,-0.00695 0.0077,-0.010654 0.0088,-0.013586 l -0.0057,0.00772 a 0.4085314,0.4085314 0 0 1 0.02232,-0.071019 c -0.0071,0.014744 -0.01348,0.023621 -0.01712,0.025551 l -4.06e-4,4.086e-4 h -4.14e-4 -4.07e-4 -4.06e-4 -4.07e-4 l -4.13e-4,-4.086e-4 v -4.084e-4 l -4.07e-4,-4.086e-4 c -0.0021,-0.00803 0.01205,-0.050717 0.06662,-0.1392215 0.0071,-0.013664 0.01248,-0.025088 0.01833,-0.036282 0.01669,-0.038521 0.0276,-0.061139 0.03152,-0.070634 0.02125,-0.051489 0.06555,-0.1034493 0.109301,-0.1515884 0.0021,-0.01212 0.0057,-0.018219 0.0084,-0.020765 1.79e-4,-1.159e-4 7.14e-4,-6.945e-4 0.0014,-7.774e-4 h 4.06e-4 c 1.79e-4,-6.17e-5 7.14e-4,-3.473e-4 0.0014,-4.086e-4 h 4.13e-4 c 0.0014,-9.25e-5 0.0021,-6.94e-5 0.0036,4.086e-4 4.06e-4,-0.00232 7.13e-4,-0.00618 0.0021,-0.012351 a 0.4085314,0.4085314 0 0 1 0.0363,-0.1176842 v -4.085e-4 a 0.4085314,0.4085314 0 0 1 0.01633,-0.065848 c -0.0077,0.017755 -0.01255,0.031187 -0.01598,0.040682 -1.71e-4,0.00309 -6.4e-5,0.00541 -4.07e-4,0.00772 -7.13e-4,0.00541 -0.0029,0.011117 -0.0036,0.0132 l -4.06e-4,4.086e-4 h -4.07e-4 -4.13e-4 v -4.086e-4 -4.084e-4 c 9.2e-5,-0.00232 0.0014,-0.00849 0.0057,-0.02038 0.0014,-0.020457 6.14e-4,-0.054423 0.03274,-0.1384267 a 0.4085314,0.4085314 0 0 1 0.0014,-0.00309 c 0.01334,-0.034969 0.01919,-0.05118 0.02076,-0.055889 a 0.4085314,0.4085314 0 0 1 0.0064,-0.017986 c 0.01348,-0.03906 0.01134,-0.029643 0.01676,-0.039447 a 0.4085314,0.4085314 0 0 1 0.0043,-0.029952 c -0.0057,0.016752 -0.0079,0.025011 -0.0088,0.02671 -2.07e-4,-0.00155 0.0064,-0.028717 0.01198,-0.067392 a 0.4085314,0.4085314 0 0 1 0.01198,-0.051489 c 0.0021,-0.00695 0.0036,-0.012659 0.0057,-0.017986 0.0014,-0.018991 0.0043,-0.030646 0.0057,-0.03273 h 4.07e-4 l 4.13e-4,3.88e-4 c 1.57e-4,0.00309 -0.0014,0.0132 -0.0064,0.032345 -0.0014,0.020072 -0.0021,0.048556 0.0014,0.082977 a 0.4085314,0.4085314 0 0 1 0.0088,-0.1176842 0.4085314,0.4085314 0 0 1 0.0029,-0.030338 0.4085314,0.4085314 0 0 1 0.0029,-0.061834 c -0.005,0.017524 -0.0077,0.031032 -0.01,0.041068 -0.0014,0.012506 -0.0036,0.023081 -0.005,0.025165 v 4.084e-4 h -4.06e-4 V 4.4521131 4.451725 c 2.8e-5,-0.00155 0.0014,-0.00919 0.0043,-0.024703 4.07e-4,-0.00463 7.13e-4,-0.010345 7.13e-4,-0.015594 0,-0.018991 1.5e-4,-0.044079 0.005,-0.085764 0.0036,-0.030647 -0.0014,-0.072486 0.03352,-0.1416147 0.0021,-0.00695 0.0043,-0.014744 0.0071,-0.022773 0.0014,-0.00541 0.01419,-0.022541 0.01633,-0.029102 4.2e-5,-1.93e-4 -2.9e-5,-7.774e-4 0,-0.00155 0.0077,-0.025938 0.01419,-0.039371 0.02118,-0.057048 0.0064,-0.026093 0.0064,-0.016135 0.01355,-0.034738 a 0.4085314,0.4085314 0 0 1 0,-0.00308 0.4085314,0.4085314 0 0 1 0,-0.028715 c -0.0021,0.011744 -0.0036,0.020455 -0.005,0.02671 2e-4,-0.00308 -7e-6,-0.00695 0,-0.010335 0,-0.022385 4.14e-4,-0.071482 0.02118,-0.1551779 6.13e-4,-0.00163 0.0014,-0.00386 0.0014,-0.00464 7.2e-5,-0.00308 6.14e-4,-0.00833 0.0014,-0.01636 3.5e-5,-0.00308 10e-5,-0.00617 0,-0.00772 -0.0021,-0.022077 -0.0099,-0.052415 0.0043,-0.1400249 0.0021,-0.011887 0.0071,-0.047551 0.01398,-0.088157 -6.13e-4,-8.202e-4 6.14e-4,-0.017299 0.0021,-0.046317 0.0014,-0.012663 0.04315,-0.062219 0.04386,-0.084174 a 0.4085314,0.4085314 0 0 1 0.0021,-0.034275 c 1.4e-5,-8.202e-4 -1.4e-5,-0.00163 0,-0.00308 l -0.02668,0.043075 c 0.0036,-0.025165 0.01576,-0.02424 0.0271,-0.049483 V 3.436679 a 0.4085314,0.4085314 0 0 1 0,-0.00695 c -4.07e-4,0.00308 -7.13e-4,0.00541 -0.0014,0.00617 v 4.085e-4 h -4.06e-4 v 4.084e-4 h -4.07e-4 V 3.4363075 3.435899 c -0.0014,-0.00772 4.07e-4,-0.055118 0.01277,-0.1352394 -7.13e-4,0.00541 -0.0029,0.00895 -0.005,0.010355 h -4.06e-4 v 4.085e-4 h -4.07e-4 -4.06e-4 l -4.14e-4,4.085e-4 h -4.06e-4 -4.07e-4 l -4.06e-4,-4.085e-4 h -4.14e-4 l -4.07e-4,-4.085e-4 c -0.0091,-0.00825 -0.0154,-0.070017 0.02832,-0.1727328 0.0043,-0.028639 0.0077,-0.043848 0.01,-0.047861 l 4.06e-4,-4.085e-4 v -4.085e-4 l 4.07e-4,-4.085e-4 h 4.13e-4 4.07e-4 v 4.085e-4 h 4.06e-4 v 4.085e-4 c 7.14e-4,0.00231 0.0014,0.00964 7.14e-4,0.019914 7.13e-4,-0.00163 0.0014,-0.00308 0.0021,-0.00464 0.0029,-0.026632 0.0043,-0.047322 0.0057,-0.059439 a 0.4085314,0.4085314 0 0 1 0,-0.01636 c 0.0014,-0.014359 0.0021,-0.050871 0.0064,-0.09813 2.07e-4,-0.00308 -0.0021,-0.055504 0.01355,-0.1448043 7.14e-4,-0.00617 5.7e-5,-0.00308 0.0014,-0.00919 -0.0029,-0.010968 0.0081,-0.048171 0.01198,-0.079783 a 0.4085314,0.4085314 0 0 1 -0.0014,-0.00464 c 2.06e-4,-0.00163 4.13e-4,-0.00231 7.13e-4,-0.00308 4.06e-4,-8.203e-4 0.0014,-0.00231 0.0021,-0.00464 0.0014,-0.01105 4.07e-4,-0.015747 -4.13e-4,-0.019914 l -0.0029,0.015584 a 0.4085314,0.4085314 0 0 1 0,-0.00617 c -5e-5,-0.00308 -4.07e-4,-0.025243 -0.0014,-0.047089 -0.0014,-0.023623 -0.0043,-0.034352 -0.0014,-0.085765 0,-4.085e-4 -7.13e-4,-0.017443 -0.0014,-0.046703 -4.13e-4,-0.015359 0.0092,-0.065461 0.0107,-0.093747 a 0.4085314,0.4085314 0 0 1 0,-0.00772 l -0.0077,0.049869 c -7.13e-4,-0.036515 0.0029,-0.041145 0.0064,-0.063455 a 0.4085314,0.4085314 0 0 1 -0.0014,-0.00772 c 0,6.128e-4 -0.0021,-0.020384 -0.0077,-0.063453 a 0.4085314,0.4085314 0 0 1 -0.0029,-0.027097 c 1.43e-4,0.00386 6.4e-5,0.00541 0,0.00617 -6.13e-4,-0.00231 -0.0021,-0.025243 -0.0064,-0.050255 -0.0021,-0.016993 -0.0057,-0.035972 -0.0079,-0.067855 -7.13e-4,-0.015911 -0.0021,-0.034738 0,-0.067855 7.13e-4,-0.0098 0.0036,-0.025551 0.0064,-0.03906 a 0.4085314,0.4085314 0 0 1 -0.0014,-0.00163 0.4085314,0.4085314 0 0 1 -0.005,-0.027095 c 4.14e-4,0.00308 7.13e-4,0.00539 7.13e-4,0.00617 l -4.06e-4,4.085e-4 h -4.14e-4 c -0.0021,-0.00386 -0.0122,-0.046472 -0.02232,-0.1073088 a 0.4085314,0.4085314 0 0 1 0,-0.00231 c -0.0014,-0.00695 -0.005,-0.022079 -0.0092,-0.040296 -0.0036,-0.016973 -0.01049,-0.037441 -0.01512,-0.075806 -0.0021,-0.017831 -0.005,-0.042534 -0.0029,-0.078191 -7.13e-4,-0.00231 -4.06e-4,-0.00464 -0.0014,-0.00772 a 0.4085314,0.4085314 0 0 1 -0.0079,-0.024315 c 0.0014,0.00541 0.0014,0.00772 0.0021,0.00919 -0.0014,-0.00541 -0.005,-0.017361 -0.0096,-0.031497 -0.0077,-0.022927 -0.02225,-0.047553 -0.02946,-0.1148904 -0.0057,-0.022694 -0.0071,-0.033348 -0.0064,-0.03628 v -4.084e-4 h 4.07e-4 v -4.086e-4 c -0.0021,-0.00617 -0.0057,-0.015135 -0.0096,-0.025939 -0.005,-0.012663 -0.01034,-0.068241 -0.0184,-0.088951 a 0.4085314,0.4085314 0 0 1 -0.0064,-0.013583 l 0.0077,0.045081 c -0.01048,-0.030336 -0.0081,-0.034428 -0.01198,-0.055888 l -4.14e-4,-4.084e-4 h -4.06e-4 -4.07e-4 v -4.085e-4 c -0.0021,-0.00386 -0.01334,-0.025088 -0.0291,-0.062605 -0.01227,-0.028792 -0.02083,-0.047783 -0.02268,-0.052647 6.14e-4,8.203e-4 0.0021,0.00308 0.0043,0.00772 a 0.4085314,0.4085314 0 0 1 -0.01355,-0.027095 c -0.0014,-0.00386 -0.01063,-0.021613 -0.03031,-0.059054 a 0.4085314,0.4085314 0 0 1 -0.0029,-0.00308 c 0.0029,0.00617 -0.01512,-0.028408 -0.02874,-0.054268 -6.14e-4,-8.202e-4 -0.01255,-0.020688 -0.02596,-0.043848 -0.0036,-0.00695 -0.0117,-0.027018 -0.01633,-0.034738 -0.02418,-0.039291 -0.03588,-0.06029 -0.03666,-0.0634527 v -4.0847e-4 h 4.06e-4 c -0.0064,-0.008803 -0.0122,-0.0189133 -0.02275,-0.0338888 -0.01084,-0.0146646 -0.0266,-0.0343524 -0.0403,-0.0518742 h -4.06e-4 c -0.0057,-0.003859 -0.04586,-0.0480934 -0.08138,-0.10491701 0.0014,0.001633 -0.0057,-0.006169 -0.0077,-0.009191 l -4.07e-4,-4.0846e-4 -4.06e-4,-4.0846e-4 c -0.0204,-0.0209966 -0.01904,-0.020384 -0.03238,-0.0323447 a 0.4085314,0.4085314 0 0 1 -0.0079,-0.006169 c -0.02261,-0.0209189 -0.0505,-0.0426116 -0.03152,-0.0287173 a 0.4085314,0.4085314 0 0 1 -0.02268,-0.0179939 c -0.0064,-0.005413 -0.0096,-0.008415 -0.01234,-0.0107226 v 4.0846e-4 h -4.07e-4 v 4.0854e-4 h -4.06e-4 -4.14e-4 c -0.0057,-8.2021e-4 -0.02632,-0.012112 -0.07978,-0.0486326 a 0.4085314,0.4085314 0 0 0 0.04672,0.0270954 c 0.01334,0.006947 0.01377,0.007721 0.02432,0.0119686 0.0036,0.003081 0.0057,0.004636 0.01,0.008803 v -4.0847e-4 l -4.07e-4,-4.0853e-4 c -0.0014,-0.002311 -0.0077,-0.007721 -0.01277,-0.0107226 -0.0014,-0.001633 -0.0057,-0.005392 -0.0064,-0.006169 0.0099,0.005392 0.01583,0.009885 0.02318,0.0139706 -0.0043,-0.003081 -0.01048,-0.0111113 -0.01434,-0.0123566 -0.0403,-0.0147466 -0.09424,-0.0443091 -0.145605,-0.0829769 l 0.01754,0.0195259 c -0.07032,-0.0437677 -0.06861,-0.056043 -0.08417,-0.0765758 -0.0081,-0.003859 -0.01633,-0.008109 -0.02432,-0.0119686 -0.03659,-0.004636 -0.06319,8.2021e-4 -0.144407,-0.0498665 a 0.4085314,0.4085314 0 0 1 -0.0014,0 c -0.0088,-0.005413 -0.01391,-0.009028 -0.01755,-0.0119686 -6.06e-4,-6.06e-6 -0.0014,1.641e-5 -0.0021,0 a 0.4085314,0.4085314 0 0 1 -0.08703,-0.0107048 c -0.0057,-8.2021e-4 -0.01298,-0.002311 -0.01754,-0.003859 a 0.4085314,0.4085314 0 0 1 -0.04429,-0.002311 c 0.01155,0.001633 0.02111,0.003081 0.02432,0.003859 l 4.07e-4,4.0854e-4 h 4.06e-4 v 4.0846e-4 c -0.0014,4.0853e-4 -0.01762,-4.0846e-4 -0.05706,-0.003081 a 0.4085314,0.4085314 0 0 1 -0.0088,0 c -0.02589,-0.002311 -0.04065,-0.003081 -0.04344,-0.003859 0.0021,-2.0427e-4 0.0085,-6.1281e-4 0.01911,-8.2021e-4 0.0036,0 0.01933,-0.002311 0.02874,-0.003081 4.06e-4,-9.393e-5 6.13e-4,7.553e-5 7.13e-4,0 h 4.07e-4 v -4.0846e-4 h -4.07e-4 c -0.0029,-1.634e-4 -0.01291,6.1273e-4 -0.0112,4.0846e-4 z m 1.083858,3.399573 c -1.4e-5,0.00163 -2.8e-5,0.00308 0,0.00308 2e-4,0.00308 7.9e-5,0.00539 0,0.00795 7.14e-4,-0.00308 0.0014,-0.00386 0.005,-0.012745 a 0.4085314,0.4085314 0 0 1 0,-0.027095 c -0.0021,0.012112 -0.0036,0.021538 -0.005,0.028717 z m 0,0.011193 c -4.06e-4,0.00163 -7.13e-4,0.00231 -0.0014,0.00541 -2.1e-5,0.00163 -7.9e-5,0.00231 0,0.00308 l 4.06e-4,4.085e-4 h 4.14e-4 c 4.07e-4,-0.00163 6.06e-4,-0.00386 7.13e-4,-0.00841 z M 18.34464,5.0613226 c -7.13e-4,0.00463 -6.13e-4,0.00386 -0.0014,0.00541 -0.0043,0.00541 -0.0095,0.010653 -0.01434,0.015981 -4.07e-4,0.00232 -7.13e-4,0.00541 -0.0014,0.0088 0.0014,-7.774e-4 0.0021,-0.00155 0.0036,-0.00309 a 0.4085314,0.4085314 0 0 0 -0.0036,0.00695 c -0.0021,0.018913 -0.0029,0.047398 -0.0029,0.090156 a 0.4085314,0.4085314 0 0 1 0.03352,-0.1204785 h -4.06e-4 c -2.07e-4,1.156e-4 -7.14e-4,3.063e-4 -0.0014,4.084e-4 l -4.06e-4,4.086e-4 h -4.14e-4 -4.07e-4 v 3.88e-4 h -4.06e-4 c -0.0029,-7.774e-4 -0.0071,-0.00386 -0.01034,-0.00541 z m -0.01712,0.034275 c 1.42e-4,-0.00155 2.07e-4,-0.00309 4.06e-4,-0.00386 -0.0014,7.774e-4 -0.0021,0.00155 -0.0036,0.00309 l -4.06e-4,3.88e-4 -4.07e-4,4.085e-4 c -0.02696,0.043847 -0.03245,0.066928 -0.03473,0.07542 a 0.4085314,0.4085314 0 0 1 0.03866,-0.074957 z M 16.48811,0.94326159 c 7.13e-4,-8.2021e-4 7.13e-4,-0.001633 0.0021,-0.002311 0.005,-0.006947 0.01084,-0.0166666 0.01876,-0.0307228 a 0.4085314,0.4085314 0 0 1 -0.02075,0.0331164 z m 0.246925,-0.26887135 c 0.01134,-0.008333 0.01405,-0.0103346 0.01476,-0.0111926 v -4.0846e-4 h 4.07e-4 v -4.0854e-4 c 2.06e-4,-2.0426e-4 7.13e-4,-0.001633 0.0014,-0.002311 -0.0021,8.202e-4 -0.005,8.202e-4 -0.0064,0.002311 a 0.4085314,0.4085314 0 0 1 -0.01034,0.0119686 z m 0.441208,-0.22738698 c -4.14e-4,4.0846e-4 -6.13e-4,8.2021e-4 -7.13e-4,0.001633 l -4.07e-4,4.0854e-4 c 2e-4,-8.21e-6 6.14e-4,-8.21e-6 7.14e-4,0 1.92e-4,2.246e-5 4.13e-4,5.306e-5 0.0014,0 2.07e-4,-1.0827e-4 6.13e-4,7.759e-5 7.13e-4,0 l 4.07e-4,-4.0854e-4 h 4.06e-4 v -4.0247e-4 h 4.14e-4 c 1.85e-4,-7.76e-5 7.13e-4,-6.1273e-4 0.0014,-8.2021e-4 -0.0021,1.062e-4 -0.0021,-5.513e-5 -0.005,0 z m 0.519791,0 a 0.4085314,0.4085314 0 0 1 -0.01797,0.003859 c 0.01305,0.004636 0.02575,0.007884 0.03751,0.0108046 -0.0021,-0.002311 -0.005,-0.004636 -0.0088,-0.007945 -0.0077,-0.003859 -0.0057,-0.003859 -0.0092,-0.006169 l -4.14e-4,4.0846e-4 h -4.06e-4 v -4.0846e-4 h -4.07e-4 z m -0.335087,0.003081 c -7.13e-4,1.5519e-4 -0.0014,6.1273e-4 -0.0021,8.202e-4 6.13e-4,-2.0013e-4 0.0014,-4.0846e-4 0.0029,-8.202e-4 -4.14e-4,4.693e-5 -7.13e-4,-8.374e-5 -0.0014,0 z m -0.01198,0.001633 c -0.0057,7.76e-5 -0.0102,0.001633 -0.01555,0.001633 l 0.0071,8.2021e-4 c 7.13e-4,0 0.0094,-0.001633 0.01362,-0.001633 -0.0014,-1.6133e-4 -0.0029,-4.0847e-4 -0.005,-4.0847e-4 z m 0.0077,0 c -4.06e-4,6.947e-5 -6.13e-4,4.0854e-4 -7.13e-4,4.0854e-4 h -4.13e-4 c -0.0029,8.202e-4 -0.0064,8.202e-4 -0.0092,0.001633 h 0.0064 c 0.0029,-4.0846e-4 0.0057,-6.1273e-4 0.0064,-8.2021e-4 v -4.0846e-4 -4.0847e-4 h -4.07e-4 v -4.0853e-4 c -4.06e-4,8.58e-5 -7.13e-4,-6.94e-5 -0.0014,0 z m 0.408493,0.0195259 c 0.01754,0.002311 0.02946,0.003081 0.03309,0.003081 h 4.07e-4 4.06e-4 v -4.0853e-4 c -0.0021,-6.1273e-4 -0.01319,-0.001633 -0.03388,-0.003081 z m -1.043569,0.19985867 c -0.01498,0.006169 -0.02717,0.01058 -0.04343,0.0155839 0.01312,-0.003081 0.02111,2.0427e-4 0.03666,-0.008415 0.0036,-0.002311 0.0036,-0.004636 0.0071,-0.006947 z m -0.0363,0.0195259 c -0.0087,0.001633 -0.01733,0.003859 -0.0271,0.005413 a 0.4085314,0.4085314 0 0 1 -0.0014,0 c -0.01006,0.002311 -0.01947,0.006947 -0.02874,0.007945 -0.01298,0.002311 -0.02068,0.007721 -0.02874,0.0119686 l 0.05428,-0.0151346 c 9.3e-5,-2.042e-4 2.07e-4,-6.1273e-4 4.07e-4,-8.2021e-4 1.36e-4,-2.0427e-4 6.13e-4,-8.2021e-4 7.13e-4,-0.001633 2.07e-4,-4.0847e-4 7.13e-4,-0.001633 0.0014,-0.001633 a 0.4085314,0.4085314 0 0 1 -7.14e-4,0.002311 z m 1.911612,0.69770807 c 4.07e-4,8.203e-4 6.14e-4,0.00231 7.14e-4,0.00231 -4.07e-4,-8.202e-4 -7.14e-4,-0.00308 -7.14e-4,-0.00231 z m -2.833519,0.4312285 a 0.4085314,0.4085314 0 0 1 -0.02268,0.066233 c 0.005,-0.00541 0.0077,-0.01444 0.01355,-0.022695 0.0083,-0.019526 0.005,-0.010417 0.0092,-0.043462 z m -0.01198,0.058668 c -0.0057,0.00617 -0.0077,0.011356 -0.01355,0.016748 a 0.4085314,0.4085314 0 0 1 -0.0014,0.00617 l 0.01277,-0.014359 c 4.07e-4,-0.00163 0.0021,-0.00617 0.0021,-0.00772 l 4.06e-4,-4.084e-4 v -4.086e-4 z m -0.02268,0.027559 c -0.0064,0.00541 -0.0086,0.010498 -0.01198,0.015584 l 0.0077,-0.00795 v -4.085e-4 c 7.13e-4,-0.00163 0.0036,-0.00617 0.0043,-0.00695 z m 3.072855,1.3032645 -4.06e-4,4.086e-4 c -7.13e-4,6.127e-4 -0.0021,0.00163 -0.0036,0.00308 v 4.085e-4 c -0.0089,0.00795 -0.02482,0.024703 -0.04194,0.046705 0.0122,-0.011805 0.02596,-0.024087 0.04229,-0.036668 0.0029,-0.00541 0.005,-0.00942 0.0057,-0.011581 V 3.2110004 3.210592 3.2101834 3.209775 3.2093664 h -4.06e-4 -4.14e-4 z m -3.782927,0.2569066 a 0.4085314,0.4085314 0 0 1 -0.0014,0.084174 c 0.0021,-0.00695 0.0029,-0.013133 0.005,-0.021151 7.13e-4,-0.021768 0.0014,-0.037671 -0.0029,-0.062991 z m 3.565123,0.57763 c -1.43e-4,8.202e-4 -4.07e-4,0.00231 -4.07e-4,0.00231 V 4.045495 c 8e-6,-4.085e-4 2.07e-4,-8.202e-4 4.07e-4,-0.00231 z m -0.0014,0.8748305 c -0.0092,7.346e-4 -0.04536,0.00826 -0.09454,0.031109 -0.01184,0.00541 -0.01569,0.016983 -0.0271,0.023931 0.04557,-0.020611 0.09987,-0.049559 0.116077,-0.052647 0.0036,-7.774e-4 0.0071,-0.00155 0.0077,-0.00232 v -3.881e-4 c -4.06e-4,-3.86e-5 -7.13e-4,-6.94e-5 -0.0021,0 z m -0.19787,0.054269 c -0.0014,0.00309 -0.0057,0.013356 -0.0079,0.01953 a 0.4085314,0.4085314 0 0 1 4.14e-4,-0.00232 c -7.14e-4,0.00309 -0.0021,0.00618 -0.0029,0.00957 -0.0083,0.019221 -0.01662,0.035896 -0.02275,0.05589 a 0.4085314,0.4085314 0 0 1 0.01676,-0.031496 c -4.07e-4,7.774e-4 -0.0029,0.013508 -0.0043,0.01598 l 0.0043,-0.00386 a 0.4085314,0.4085314 0 0 1 0.0014,-0.00695 c 3.6e-5,1.93e-4 4.07e-4,7.774e-4 4.07e-4,0.00155 2.8e-5,4.902e-4 1.21e-4,0.00155 0,0.00309 a 0.4085314,0.4085314 0 0 1 0.0029,-0.013586 0.4085314,0.4085314 0 0 1 0.01198,-0.046703 z M 18.089708,5.530374 h 4.06e-4 v 4.084e-4 c -2e-4,0.00155 -0.0014,0.00618 -0.0021,0.00795 v 3.88e-4 l -0.01034,0.0132 a 0.4085314,0.4085314 0 0 1 0.0088,-0.016366 c 0.0014,-0.00309 0.0021,-0.00463 0.0029,-0.00541 z m -0.58361,0.9689708 c -0.02068,0.026401 -0.02625,0.035046 -0.0271,0.03906 -2.9e-5,2.247e-4 -7e-6,7.774e-4 0,0.00155 1.21e-4,7.775e-4 6.13e-4,0.00232 7.13e-4,0.00309 4.07e-4,0.00155 4.07e-4,0.00386 -7.13e-4,0.00772 0.01427,-0.013509 0.0064,-0.00695 0.01676,-0.014744 a 0.4085314,0.4085314 0 0 1 0.01034,-0.036282 z m -1.982222,0.597183 c 0.0014,0.00155 0.0057,0.00541 0.0057,0.00541 a 0.4085314,0.4085314 0 0 1 0.01833,0.00618 c -0.0098,-0.0081 -0.01284,-0.00541 -0.02397,-0.011965 z m 1.132522,0.1615617 c -0.0021,0.00157 -0.005,7.845e-4 -0.0071,0.00157 -0.0014,1.469e-4 -0.0029,6.333e-4 -0.005,0.00157 4.06e-4,0 0.01041,-0.00157 0.01034,-0.00157 a 0.4085314,0.4085314 0 0 1 7.13e-4,-0.00157 z m -0.0036,0.00385 c -0.0029,7.845e-4 -0.01483,0.0081 -0.01876,0.00919 h -4.07e-4 -4.06e-4 v 4.087e-4 c -6.14e-4,2.453e-4 -0.0014,5.72e-4 -0.0021,7.845e-4 h -4.07e-4 l -4.13e-4,4.087e-4 h -0.0014 -0.0014 c -0.0014,0.00235 -0.005,0.00464 -0.0057,0.00692 l -4.06e-4,3.88e-4 v 4.087e-4 h 4.06e-4 4.14e-4 4.06e-4 c 7.14e-4,-5.72e-4 0.0021,-0.00157 0.0029,-0.00235 l 4.14e-4,-4.086e-4 h 4.06e-4 c -0.07737,0.062607 -0.123052,0.1488249 -0.134835,0.1942773 a 0.4085314,0.4085314 0 0 1 0.152381,-0.1974655 c 0.0096,0 0.01869,-0.00464 0.02796,-0.00772 l -0.02518,0.00307 a 0.4085314,0.4085314 0 0 1 0.0064,-0.00772 v -3.88e-4 z m -0.02989,0.013972 c -0.0029,5.513e-4 -0.0092,0.00385 -0.01433,0.0062 0.0029,-7.845e-4 0.0057,-0.00157 0.0084,-0.00157 l 4.06e-4,-4.08e-4 4.07e-4,-3.887e-4 c 7.13e-4,-7.845e-4 0.0029,-0.00157 0.0036,-0.00228 l 4.06e-4,-3.88e-4 4.07e-4,-4.079e-4 z m -0.176316,0.055888 c -0.0077,0.00228 -0.0112,0.00385 -0.01277,0.00464 l -4.14e-4,4.087e-4 -4.07e-4,4.086e-4 -4.06e-4,3.88e-4 v 4.087e-4 4.08e-4 c 1.4e-5,2.011e-4 -2.9e-5,5.927e-4 0,7.845e-4 v 4.087e-4 3.88e-4 4.087e-4 4.086e-4 l -4.14e-4,3.88e-4 -4.06e-4,4.08e-4 -4.07e-4,4.087e-4 c -0.0014,7.845e-4 -0.0036,0.00235 -0.0077,0.00464 0.0021,-3.059e-4 0.0021,2.004e-4 0.005,0 a 0.4085314,0.4085314 0 0 1 0.01797,-0.014742 z m -4.983684,1.2605849 a 0.4085314,0.4085314 0 0 1 -0.0184,0.1009255 l -0.08417,0.2505215 -0.04065,0.2126193 0.0077,0.3558398 a 0.4085314,0.4085314 0 0 1 0,0.010342 l 0.0014,0.2983903 0.04986,0.3303032 a 0.4085314,0.4085314 0 0 1 0.0029,0.108506 l -0.04821,0.408888 a 0.4085314,0.4085314 0 0 1 -0.01476,0.07218 l -0.06498,0.214217 -0.02275,0.263684 0.0092,0.342276 a 0.4085314,0.4085314 0 0 1 -0.005,0.07542 l -0.01954,0.119275 c 0.06134,0.0069 0.136233,0.01567 0.177921,0.01953 a 0.4085314,0.4085314 0 0 1 0.01512,0.0016 c 0.08996,0.01158 0.195074,0.01783 0.339081,0.04346 h 0.0014 c 0.143044,0.01991 0.235842,0.05759 0.293199,0.07457 a 0.4085314,0.4085314 0 0 1 0.153179,-0.01876 c 0.05342,0.0039 0.05085,-0.0023 0.197464,-0.04987 a 0.4085314,0.4085314 0 0 1 0.149199,-0.01953 c 0.07943,0.0039 0.218061,-0.0149 0.375384,-0.02555 a 0.4085314,0.4085314 0 0 1 0.04986,-0.0016 c 0.116334,0.0062 0.210123,0.02416 0.27126,0.03034 0.01983,0.0016 0.03559,-2e-4 0.04429,-0.0023 0.0036,-0.0016 0.0064,-0.0016 0.0071,-0.0024 v 4.09e-4 c -7.14e-4,4.09e-4 -0.0036,7.85e-4 -0.0071,0.0016 -0.0097,0.0031 -0.02896,0.01135 -0.06062,0.02756 a 0.4085314,0.4085314 0 0 1 0.206636,-0.04385 c 0.005,-0.0016 0.01719,-0.0046 0.04672,-0.01197 0.06576,-0.0166 0.209816,-0.04137 0.354244,-0.01474 0.108496,0.008 0.238182,0.0176 0.39492,0.04948 0.194339,0.01953 0.36291,0.05048 0.376582,0.06144 l 4.07e-4,4.08e-4 4.06e-4,4.08e-4 v 3.88e-4 4.09e-4 4.09e-4 h -4.06e-4 l -4.07e-4,3.88e-4 c -7.13e-4,3.88e-4 -0.0021,7.84e-4 -0.0036,0.0016 a 0.4085314,0.4085314 0 0 1 0.08457,-0.0016 c 0.159556,0.01682 0.286866,0.02292 0.301979,0.02871 l 4.07e-4,4.09e-4 4.14e-4,4.08e-4 h 4.06e-4 v 3.88e-4 4.08e-4 l -4.06e-4,4.09e-4 c -6.14e-4,3.27e-4 -0.0014,7.85e-4 -0.0029,0.0016 a 0.4085314,0.4085314 0 0 1 0.146011,-0.008 c 0.04543,0.0062 0.171409,-0.02918 0.404099,0.0108 0.177072,0.02647 0.314952,0.0518 0.329509,0.06423 l 4.07e-4,3.88e-4 v 4.09e-4 l 4.06e-4,4.08e-4 v 3.88e-4 h 4.14e-4 v 4.09e-4 4.08e-4 l -4.14e-4,3.88e-4 v 4.09e-4 h -4.06e-4 v 4.08e-4 c -0.0014,7.85e-4 -0.0057,0.0024 -0.0112,0.0031 a 0.4085314,0.4085314 0 0 1 0.118481,0.0031 c -0.0064,-0.0016 -7.13e-4,-7.85e-4 0.07696,-0.0046 0.07803,-0.0039 0.221085,0.0046 0.355828,0.05906 0.12194,0.03034 0.235357,0.06577 0.334695,0.09813 l 0.02874,0.0077 c 0.09658,0.02293 0.213154,0.05017 0.35423,0.102523 0.129257,0.03667 0.265041,0.0838 0.382965,0.129649 l 0.01198,0.0046 c 0.05413,0.01366 0.20242,0.04539 0.370997,0.15358 0.08721,0.04516 0.160904,0.09401 0.206244,0.12606 a 0.4085314,0.4085314 0 0 1 0.08057,0.01675 c 0.051,-0.0031 0.197328,-0.01304 0.343475,0.07141 0.122689,0.06824 0.218603,0.137939 0.251718,0.156775 a 0.4085314,0.4085314 0 0 1 0.02874,0.01799 c 0.07218,0.04886 0.152316,0.0981 0.245735,0.177913 l 0.0014,0.0016 c 0.07787,0.066 0.154641,0.139029 0.228981,0.223395 0.0582,0.06299 0.140612,0.143213 0.215415,0.289213 0.04907,0.08431 0.06861,0.139708 0.09216,0.182706 a 0.4085314,0.4085314 0 0 1 0.01355,0.02833 c 0.03181,0.0701 0.07287,0.16817 0.108503,0.268469 0.01783,0.05018 0.03473,0.09888 0.04821,0.156776 0.0071,0.02895 0.01448,0.0589 0.01676,0.111702 0.0014,0.0264 7.14e-4,0.05805 -0.0092,0.110096 -0.0029,0.01513 -0.01177,0.0369 -0.0179,0.05589 -0.005,0.01374 -0.005,0.02471 -0.01198,0.04068 -0.0085,0.01853 -0.01947,0.03775 -0.03352,0.05867 -4.13e-4,3.88e-4 -6.13e-4,5.92e-4 -7.13e-4,7.85e-4 l -4.07e-4,4.09e-4 v 3.88e-4 c -6.13e-4,0.07875 0.0071,0.134458 -0.01398,0.241343 -0.02147,0.117175 -0.05235,0.229178 -0.09016,0.340678 -0.0378,0.111779 -0.07842,0.202754 -0.09494,0.253317 -2.07e-4,5.92e-4 -0.005,0.04493 -0.04229,0.140017 -0.02803,0.07079 -0.08843,0.16035 -0.164348,0.230976 -0.06369,0.07992 -0.136255,0.138488 -0.212627,0.199056 -0.02289,0.02524 -0.04358,0.03598 -0.06583,0.0467 -0.0014,0.0023 -0.0029,0.0054 -0.0057,0.0092 -0.0071,0.01482 -0.01576,0.03829 -0.02075,0.06739 -0.0082,0.04747 -0.01862,0.113075 -0.06184,0.200661 -0.03103,0.06283 -0.08945,0.140009 -0.169149,0.198261 -0.08746,0.082 -0.155597,0.109162 -0.196657,0.129247 -0.01341,0.01938 -0.02411,0.02625 -0.02874,0.02671 a 0.4085314,0.4085314 0 0 1 -0.02432,0.02555 c 0.0029,-0.0031 0.005,-0.0046 0.0057,-0.0054 -0.0021,0.0031 -0.0127,0.01814 -0.03431,0.05064 -0.03459,0.05187 -0.107433,0.15233 -0.227783,0.224584 l -0.0014,0.0016 c -0.05606,0.04786 -0.126148,0.114079 -0.248124,0.173528 -0.106277,0.07233 -0.210936,0.124261 -0.29919,0.168749 -0.0495,0.03374 -0.153429,0.135709 -0.348653,0.195466 -0.0925,0.04755 -0.179533,0.07737 -0.266475,0.108907 -0.01084,0.0062 -0.01491,0.0069 -0.02553,0.01235 l -0.02874,0.01197 c -0.117775,0.05712 -0.232583,0.104005 -0.292408,0.134034 a 0.4085314,0.4085314 0 0 1 -0.0014,0 c -0.101293,0.05018 -0.215915,0.110652 -0.349858,0.167545 l 0.01355,-0.0046 c -0.128659,0.05983 -0.24552,0.104036 -0.342262,0.149195 a 0.4085314,0.4085314 0 0 1 -0.0088,0.0046 c -0.149435,0.06562 -0.249628,0.09671 -0.30158,0.128052 a 0.4085314,0.4085314 0 0 1 -0.05428,0.02709 c -0.08263,0.03451 -0.197421,0.103327 -0.360628,0.167552 -0.07746,0.03103 -0.216028,0.108784 -0.416066,0.155179 -0.140056,0.04987 -0.259136,0.08813 -0.275661,0.08177 l -4.07e-4,-3.88e-4 -4.07e-4,-4.08e-4 h -4.06e-4 v -4.08e-4 h -4.14e-4 v -3.88e-4 -4.09e-4 h -4.06e-4 v -4.09e-4 c 2.8e-5,-1.39e-4 4.06e-4,-7.84e-4 4.06e-4,-0.0016 7.14e-4,-0.0023 0.005,-0.0069 0.01198,-0.01197 a 0.4085314,0.4085314 0 0 1 -0.09934,0.05304 c -0.04394,0.01621 -0.15104,0.110003 -0.380969,0.17592 l 0.0204,-0.0062 c -0.149549,0.05358 -0.283207,0.08931 -0.393329,0.128453 a 0.4085314,0.4085314 0 0 1 -0.0029,0.0016 c -0.144128,0.05041 -0.272116,0.08773 -0.375384,0.12965 a 0.4085314,0.4085314 0 0 1 -0.02118,0.008 c -0.101748,0.03497 -0.234052,0.101311 -0.417664,0.150793 -0.146924,0.04825 -0.276146,0.08045 -0.366205,0.114488 a 0.4085314,0.4085314 0 0 1 -0.01355,0.0046 c -0.15977,0.05381 -0.334824,0.118565 -0.351855,0.11489 h -4.07e-4 -4.06e-4 v -4.09e-4 h -4.14e-4 v -3.88e-4 -4.08e-4 -4.08e-4 -3.88e-4 l 4.14e-4,-4.09e-4 c 0.0014,-0.0016 0.005,-0.0039 0.0088,-0.0069 a 0.4085314,0.4085314 0 0 1 -0.09814,0.04825 c -0.0093,0.0031 -0.0209,0.01088 -0.08577,0.04825 -0.05634,0.0325 -0.155247,0.08069 -0.272059,0.105318 -0.121755,0.03991 -0.25194,0.07279 -0.388144,0.101326 -0.0082,0.0031 -0.0219,0.0062 -0.03031,0.0092 l -0.02432,0.0062 c -0.113231,0.03929 -0.239765,0.08741 -0.391731,0.116882 -0.108382,0.03667 -0.229159,0.0721 -0.360628,0.10172 -0.137995,0.0491 -0.27529,0.08718 -0.400918,0.122069 -0.0077,0.0031 -0.0082,0.0023 -0.01512,0.0046 l -0.01797,0.0062 c -0.148322,0.05164 -0.2671533,0.08248 -0.3135483,0.105712 a 0.4085314,0.4085314 0 0 1 -0.0363,0.01637 c -0.105115,0.04022 -0.224145,0.09767 -0.363416,0.155572 a 0.4085314,0.4085314 0 0 1 -0.0064,0.0031 c -0.117126,0.04686 -0.233246,0.09695 -0.360229,0.149597 l -0.0014,0.0016 c -0.165176,0.06948 -0.306373,0.123891 -0.304775,0.122463 a 0.4085314,0.4085314 0 0 1 -0.06783,0.03752 c -0.130256,0.05821 -0.217405,0.106004 -0.227783,0.106514 h -4.06e-4 -4.07e-4 v -4.08e-4 -4.09e-4 c 7.2e-5,-1.54e-4 2e-4,-6.13e-4 4.07e-4,-7.85e-4 4.06e-4,-4.49e-4 7.13e-4,-0.0016 0.0014,-0.0023 a 0.4085314,0.4085314 0 0 1 -0.111298,0.07938 c -0.04714,0.02254 -0.117005,0.08911 -0.280433,0.181108 a 0.4085314,0.4085314 0 0 1 -0.01355,0.0077 c -0.06305,0.03227 -0.176388,0.109162 -0.327113,0.176322 -0.141098,0.07488 -0.198462,0.06816 -0.230572,0.06662 a 0.4085314,0.4085314 0 0 1 -0.06626,0.09016 c 0.03388,-0.02031 0.0542,-0.03605 0.06498,-0.04585 0.005,-0.0054 0.0081,-0.0095 0.0096,-0.01073 h 4.13e-4 v 4.08e-4 l -4.13e-4,3.88e-4 c -7.13e-4,0.0016 -0.0036,0.0046 -0.0096,0.01 -0.0057,0.0069 -0.01234,0.0176 -0.0199,0.03235 -0.0326,0.06345 -0.0988,0.22135 -0.290411,0.311553 -0.111755,0.07002 -0.20339,0.1113 -0.276446,0.153186 l -0.0077,0.0046 c -0.09497,0.06631 -0.183334,0.124694 -0.226177,0.159972 a 0.4085314,0.4085314 0 0 1 -0.0064,0.0031 c -0.09686,0.0772 -0.144364,0.117923 -0.155583,0.12047 h -4.07e-4 -4.06e-4 -4.07e-4 -4.13e-4 v -3.88e-4 h -4.07e-4 v -4.08e-4 h -4.07e-4 v -4.09e-4 -3.88e-4 c -7e-6,-0.0031 0.0029,-0.0091 0.0083,-0.01876 a 0.4085314,0.4085314 0 0 1 -0.07938,0.09734 c -0.08706,0.078 -0.06312,0.04115 -0.08737,0.09175 a 0.4085314,0.4085314 0 0 1 -0.08018,0.111702 c -0.03302,0.03319 -0.06647,0.07852 -0.106906,0.155178 a 0.4085314,0.4085314 0 0 1 -0.05306,0.07696 c 0.0036,-0.0046 0.0064,-0.0069 0.0071,-0.0069 h 4.06e-4 v 4.03e-4 c -7.13e-4,0.0046 -0.01961,0.03381 -0.04344,0.07779 -0.02881,0.05311 -0.0644,0.137299 -0.169141,0.22419 -0.03602,0.04091 -0.08315,0.09099 -0.124864,0.137624 -0.05642,0.09124 -0.110743,0.157277 -0.158372,0.219806 -0.03466,0.07002 -0.06925,0.140125 -0.107704,0.21302 -0.0291,0.07156 -0.04044,0.06515 -0.06262,0.08857 a 0.4085314,0.4085314 0 0 1 -0.0029,0.07418 c 0.0029,-0.01197 0.0057,-0.01837 0.0064,-0.02038 v -4.02e-4 -3.95e-4 h 4.07e-4 c 6.13e-4,0.0031 -0.0036,0.0335 -0.0036,0.07063 7.13e-4,0.05659 0.01034,0.128113 -0.01034,0.247334 -0.0071,0.03836 -0.0082,0.110204 -0.01512,0.217011 -0.0096,0.14082 -0.02161,0.169768 -0.02118,0.176716 a 0.4085314,0.4085314 0 0 1 0,0.01197 c 0.0014,0.045 0.01533,0.136188 0.02396,0.232164 l 0.0029,0.0271 c 0.0077,0.06152 0.01013,0.09779 0.01084,0.09933 a 0.4085314,0.4085314 0 0 1 0.01954,0.05744 c 0.0078,0.03011 0.04943,0.132219 0.08576,0.232172 v -0.0034 c 0.01961,0.05326 0.04579,0.109161 0.08018,0.190286 0.0014,0.0023 0.0021,0.0039 0.0029,0.0062 l 0.005,0.01073 c 0.03423,0.07295 0.0639,0.134181 0.09494,0.188294 a 0.4085314,0.4085314 0 0 1 0,0.0031 c 0.0112,0.01968 0.02239,0.04454 0.03188,0.06863 0.0036,0.0054 0.0095,0.01227 0.01633,0.02038 a 0.4085314,0.4085314 0 0 1 0.03352,0.0467 c 0.01619,0.02594 0.154143,0.2069 0.213818,0.284828 a 0.4085314,0.4085314 0 0 1 0.0092,0.01197 c 0.05328,0.07496 0.07549,0.108367 0.135626,0.17792 a 0.4085314,0.4085314 0 0 1 0.01198,0.01513 c 0.04229,0.05381 0.09962,0.125566 0.146396,0.182304 0.01505,0.01822 0.02917,0.03513 0.03994,0.04747 0.0057,0.0046 0.0083,0.0086 0.01034,0.01158 1.93e-4,2.7e-4 6.14e-4,5.41e-4 7.13e-4,7.85e-4 a 0.4085314,0.4085314 0 0 1 0.05592,0.05187 c 0.06362,0.07109 0.105315,0.103017 0.126854,0.117685 a 0.4085314,0.4085314 0 0 1 0.06184,0.05102 v 4.08e-4 h 4.14e-4 v 4.08e-4 c 0.0036,0.0023 0.0096,0.0062 0.01911,0.01274 0.03445,0.02354 0.09211,0.07256 0.145205,0.130452 0.02225,0.02084 0.128509,0.09709 0.236156,0.243335 0.04814,0.04462 0.105101,0.09912 0.159969,0.153981 0.03965,0.03968 0.07696,0.0908 0.112889,0.131248 0.106285,0.08903 0.129558,0.127419 0.188691,0.182304 0.0014,7.85e-4 0.0029,0.0031 0.005,0.0039 2.06e-4,1.55e-4 7.13e-4,6.94e-4 0.0014,7.84e-4 0.0755,0.05829 0.200544,0.127929 0.335893,0.264085 0.11428,0.08392 0.210808,0.15727 0.217013,0.171536 v 3.88e-4 l 4.06e-4,4.08e-4 v 4.09e-4 4.09e-4 3.88e-4 h -4.06e-4 v 4.08e-4 h -4.07e-4 l -4.13e-4,4.08e-4 c -0.0021,1.01e-4 -0.0083,-0.0016 -0.01676,-0.0054 a 0.4085314,0.4085314 0 0 1 0.0587,0.03311 c 0.09747,0.06616 0.234737,0.143166 0.306373,0.182304 a 0.4085314,0.4085314 0 0 1 0.02232,0.01197 c 0.115,0.07264 0.241961,0.141044 0.251319,0.15358 l 4.06e-4,4.09e-4 4.07e-4,3.88e-4 v 4.08e-4 4.09e-4 h -4.07e-4 v 3.88e-4 h -4.06e-4 c -0.0021,1.85e-4 -0.0071,-6.54e-4 -0.01355,-0.0031 a 0.4085314,0.4085314 0 0 1 0.08497,0.03751 c 0.117475,0.06925 0.175567,0.101998 0.236555,0.122069 a 0.4085314,0.4085314 0 0 1 0.07104,0.02996 c 0.120827,0.06716 0.27967,0.139407 0.297194,0.144811 a 0.4085314,0.4085314 0 0 1 0.07061,0.03034 c 0.0547,0.02871 0.151132,0.04323 0.322727,0.143213 l 0.0077,0.0031 c 0.100558,0.04902 0.2294383,0.103935 0.3757773,0.197465 0.0731,0.03767 0.142816,0.07612 0.19747,0.106908 0.05221,0.02941 0.102234,0.0508 0.108503,0.05504 h 4.07e-4 v 3.88e-4 4.08e-4 a 0.4085314,0.4085314 0 0 1 0.05385,0.01953 c 0.09318,0.04222 0.190652,0.06709 0.345065,0.134034 h 0.0014 c 0.139278,0.06029 0.276431,0.124717 0.369393,0.158374 a 0.4085314,0.4085314 0 0 1 0.01676,0.0062 c 0.158635,0.06554 0.27942,0.120387 0.322727,0.12965 a 0.4085314,0.4085314 0 0 1 0.06462,0.01953 c 0.06027,0.02378 0.185345,0.03281 0.387744,0.128052 0.131198,0.05272 0.192471,0.09214 0.304376,0.125256 a 0.4085314,0.4085314 0 0 1 0.02389,0.0077 c 0.04928,0.01791 0.242575,0.0342 0.46953,0.158375 0.137431,0.0511 0.248031,0.107 0.346256,0.147998 l 0.02389,0.0088 c 0.09679,0.03458 0.179768,0.07465 0.23975,0.09973 0.03916,0.01613 0.07518,0.02108 0.08098,0.02316 l 4.13e-4,4.09e-4 h 4.07e-4 v 3.88e-4 h -4.07e-4 c -0.0021,6.53e-4 -0.01412,7.85e-4 -0.03908,0.0016 a 0.4085314,0.4085314 0 0 1 0.135634,0.01953 c 0.08714,0.02779 0.171915,0.03196 0.331898,0.065 a 0.4085314,0.4085314 0 0 1 0.0363,0.01034 c 0.09635,0.02941 0.223795,0.04732 0.394933,0.104121 0.137467,0.04052 0.265905,0.08398 0.370991,0.111694 a 0.4085314,0.4085314 0 0 1 0.0064,0.0016 c -0.005,-0.0016 -0.0081,-0.0023 -0.0096,-0.0031 l -4.07e-4,-3.88e-4 -4.13e-4,-4.09e-4 v -4.08e-4 h 4.13e-4 c 0.0057,-7.85e-4 0.03652,0.0016 0.104916,0.0069 0.08274,0.0069 0.212419,0.04269 0.326714,0.112095 0.09641,0.03435 0.163171,0.07612 0.219009,0.106515 0.06041,0.03289 0.106606,0.05226 0.107312,0.05427 v 4.08e-4 h 4.07e-4 c 0.134578,0.03404 0.262823,0.06793 0.367403,0.09016 a 0.4085314,0.4085314 0 0 1 0.0092,0.0031 c 0.111321,0.02655 0.223546,0.04662 0.358624,0.07819 l 0.005,0.0016 c 0.170731,0.03852 0.293734,0.0738 0.294012,0.0738 a 0.4085314,0.4085314 0 0 1 0.07818,0.0092 c 0.0587,0.01227 0.176216,0.0098 0.348253,0.0467 0.153179,0.02988 0.287044,0.06269 0.319931,0.065 a 0.4085314,0.4085314 0 0 1 0.04065,0.0062 c 0.122952,0.022 0.227896,0.02756 0.241747,0.03713 l 4.07e-4,4.09e-4 4.06e-4,4.09e-4 v 3.88e-4 l 4.07e-4,4.08e-4 v 4.08e-4 4.09e-4 3.88e-4 4.09e-4 l -4.07e-4,4.08e-4 v 3.88e-4 c -0.0029,0.0031 -0.01555,0.0069 -0.03751,0.01158 a 0.4085314,0.4085314 0 0 1 0.141617,-0.0031 c 0.116113,-0.01591 0.293906,-0.01521 0.411681,0.05589 h 4.06e-4 4.07e-4 4.13e-4 4.07e-4 c 0.04372,0.01968 0.118509,0.04006 0.145198,0.05149 0.01512,-5.31e-4 0.02418,0.0016 0.02831,0.0031 0.0057,-7.85e-4 0.01862,-0.0031 0.04194,-0.008 0.05777,-0.01197 0.18245,-0.02702 0.311158,0.0046 0.07411,0.01112 0.118039,0.02794 0.166745,0.0423 l 0.0064,-0.03906 a 0.4085314,0.4085314 0 0 1 0.01355,-0.05389 l 0.07858,-0.262487 0.06184,-0.287614 0.0602,-0.368206 a 0.4085314,0.4085314 0 0 1 0.01198,-0.05265 l 0.101328,-0.3315 a 0.4085314,0.4085314 0 0 1 0.0029,-0.0062 l 0.08896,-0.272862 0.08617,-0.30916 0.07658,-0.322722 a 0.4085314,0.4085314 0 0 1 0.0014,-0.0046 l 0.08018,-0.325919 0.08138,-0.331499 a 0.4085314,0.4085314 0 0 1 0.0029,-0.01197 l 0.08457,-0.304767 0.04065,-0.179518 c -0.03274,-0.0069 -0.06726,-0.0093 -0.09934,-0.01799 -0.112397,-0.01312 -0.206978,-0.03497 -0.304768,-0.05589 -0.136383,-0.01799 -0.254835,-0.04493 -0.328711,-0.05265 a 0.4085314,0.4085314 0 0 1 -0.01198,-0.0016 c -0.07202,-0.0095 -0.184048,-0.01042 -0.337883,-0.04068 -0.142909,-0.01899 -0.273536,-0.04585 -0.375377,-0.05867 -0.106064,-0.01328 -0.190117,-0.03543 -0.251718,-0.0467 -0.03552,-0.0062 -0.06469,-0.0046 -0.06861,-0.0046 h -4.13e-4 v -3.88e-4 c 0.0021,-7.84e-4 0.01334,-0.0031 0.03431,-0.0083 a 0.4085314,0.4085314 0 0 1 -0.141618,0.0088 c -0.07762,-0.0093 -0.1631,0.0046 -0.339074,-0.0031 a 0.4085314,0.4085314 0 0 1 -0.02874,-0.0016 c -0.14589,-0.01675 -0.282708,-0.03481 -0.384556,-0.0379 a 0.4085314,0.4085314 0 0 1 -0.0363,-0.0016 c -0.156803,-0.01853 -0.380934,-0.04083 -0.449175,-0.04385 a 0.4085314,0.4085314 0 0 1 -0.03309,-0.0031 c -0.117204,-0.01474 -0.203532,-0.01536 -0.369407,-0.04068 -0.150975,-0.02038 -0.292971,-0.04331 -0.441992,-0.06461 -0.191636,-0.02764 -0.358681,-0.05318 -0.374193,-0.06701 l -4.07e-4,-4.08e-4 -4.06e-4,-4.09e-4 -4.14e-4,-3.88e-4 v -4.08e-4 -4.09e-4 -3.88e-4 -4.08e-4 l 4.14e-4,-4.09e-4 4.06e-4,-3.88e-4 4.07e-4,-4.09e-4 c 0.0021,-7.84e-4 0.0057,-0.0023 0.01077,-0.0031 a 0.4085314,0.4085314 0 0 1 -0.128059,0 c -0.08898,-0.01389 -0.210515,4.7e-4 -0.416067,-0.02594 a 0.4085314,0.4085314 0 0 1 -0.01797,-0.0031 c -0.105643,-0.01829 -0.266132,-0.021 -0.477903,-0.08297 -2e-4,-7e-5 -6.13e-4,-3.88e-4 -7.13e-4,-4.08e-4 h -4.07e-4 -4.13e-4 -4.07e-4 l -4.07e-4,4.08e-4 c -1.56e-4,3.1e-5 -7.13e-4,-7e-6 -0.0014,0 -2.07e-4,-2.3e-5 -7.13e-4,7e-5 -0.0014,0 -0.12801,-0.02524 -0.259628,-0.05419 -0.405704,-0.09654 -0.07311,-0.01551 -0.275383,-0.0083 -0.511817,-0.130445 -0.12204,-0.03389 -0.224088,-0.07922 -0.378964,-0.14999 -0.124337,-0.02879 -0.293392,-0.06438 -0.484294,-0.171937 -0.07542,-0.01436 -0.223246,-0.0291 -0.386946,-0.148794 -0.09708,-0.03953 -0.164384,-0.08645 -0.2206,-0.121274 -0.06769,-0.04192 -0.118716,-0.06709 -0.114487,-0.06623 -0.117225,-0.03829 -0.24281,-0.07712 -0.381368,-0.131248 -0.08511,-0.03034 -0.234815,-0.06059 -0.414875,-0.165545 -0.114466,-0.0501 -0.214274,-0.101689 -0.28922,-0.136836 v 4.02e-4 4.02e-4 h -4.07e-4 -4.06e-4 c -0.0057,4.33e-4 -0.02832,-0.0046 -0.08378,-0.02077 -0.07835,-0.02324 -0.186059,-0.09283 -0.277245,-0.171937 -0.04672,-0.02231 -0.1488,-0.06237 -0.252125,-0.171535 -0.08378,-0.0545 -0.1271543,-0.10457 -0.1747183,-0.14959 -0.04629,-0.04393 -0.09806,-0.08744 -0.102127,-0.09375 h -4.07e-4 v -4.03e-4 h 4.07e-4 c 2.07e-4,8.5e-5 0.0014,2.01e-4 0.0014,4.03e-4 -0.104808,-0.06592 -0.180852,-0.13378 -0.235763,-0.177921 -0.01576,-0.01274 -0.01277,-0.01019 -0.02118,-0.01636 -0.02061,-0.0023 -0.02161,0.0046 -0.04229,-0.0016 -0.106513,-0.03064 -0.159591,-0.08044 -0.195866,-0.114487 a 0.4085314,0.4085314 0 0 1 -0.0014,-0.0016 c -0.05934,-0.05612 -0.09442,-0.107186 -0.102519,-0.117684 a 0.4085314,0.4085314 0 0 1 -0.06626,-0.06346 c 0.0021,0.0031 -0.02468,-0.02455 -0.06348,-0.06461 -0.01683,-0.01744 -0.04358,-0.07002 -0.06626,-0.09654 a 0.4085314,0.4085314 0 0 1 -0.08817,-0.149195 0.4085314,0.4085314 0 0 1 -0.01277,-0.02431 0.4085314,0.4085314 0 0 1 -0.01512,-0.104121 v 0.07418 c -0.0077,-0.01652 -0.02603,-0.05821 -0.04821,-0.1089 -0.02446,-0.05589 -0.05185,-0.08789 -0.0738,-0.221404 -0.01519,-0.09205 -0.01883,-0.185747 -0.01077,-0.274452 0.0071,-0.07341 0.01426,-0.232775 0.0363,-0.367805 0.0029,-0.01752 0.0064,-0.03636 0.01355,-0.06021 0.005,-0.01552 0.01762,-0.03906 0.02874,-0.06184 7.13e-4,-0.02215 -0.0014,-0.0086 0,-0.0335 0.0021,-0.05249 0.0057,-0.11323 0.03752,-0.205038 0.01562,-0.04446 0.04707,-0.104593 0.09534,-0.161169 0.02332,-0.04276 0.05477,-0.09168 0.102518,-0.144803 0.02696,-0.03003 0.10585,-0.03729 0.150391,-0.06786 0.05998,-0.05187 0.09013,-0.06631 0.134436,-0.07978 a 0.4085314,0.4085314 0 0 1 0.0064,-0.01197 v -3.94e-4 c 0.0014,-0.0046 0.02589,-0.05496 0.102526,-0.156776 a 0.4085314,0.4085314 0 0 1 0.04229,-0.0467 c 0.02211,-0.02146 0.08738,-0.111825 0.21861,-0.211028 4.07e-4,-2.86e-4 7.14e-4,-5.72e-4 0.0014,-7.85e-4 l 4.14e-4,-3.88e-4 c 1.14e-4,-1.54e-4 6.06e-4,-7.84e-4 7.13e-4,-0.0016 l 4.06e-4,-4.09e-4 4.14e-4,-4.08e-4 c 2e-4,-2.25e-4 0.0014,-7.85e-4 0.0014,-0.0016 0.03374,-0.03234 0.09574,-0.119692 0.26129,-0.192672 0.06747,-0.04354 0.1249863,-0.06986 0.1819083,-0.09853 0.141183,-0.0926 0.206578,-0.08944 0.226185,-0.09175 a 0.4085314,0.4085314 0 0 1 0.05264,-0.07256 c -0.02282,0.01382 -0.03823,0.02601 -0.0475,0.03428 -0.0057,0.0069 -0.0092,0.01027 -0.0107,0.01158 v 3.88e-4 h -4.07e-4 v -3.88e-4 h 4.07e-4 v -4.08e-4 c 0.0014,-0.0016 0.005,-0.0054 0.0107,-0.01119 0.0029,-0.0039 0.0071,-0.0094 0.01155,-0.01598 0.03252,-0.04956 0.114972,-0.178345 0.286417,-0.250522 0.0557,-0.03582 0.158379,-0.105912 0.334695,-0.147598 0.06476,-0.01968 0.134314,-0.04161 0.151988,-0.04385 a 0.4085314,0.4085314 0 0 1 0.05742,-0.04068 c 0.04001,-0.01891 0.13624,-0.08588 0.253315,-0.158367 a 0.4085314,0.4085314 0 0 1 0.04985,-0.02709 c -0.0029,0.0016 -0.0064,0.0023 -0.0071,0.0031 l -4.07e-4,3.88e-4 h -4.14e-4 v -3.88e-4 c 0.005,-0.0039 0.03081,-0.02092 0.08019,-0.05388 0.0582,-0.03883 0.162045,-0.09498 0.286417,-0.116481 0.145505,-0.05257 0.26609,-0.06709 0.351448,-0.08697 0.114965,-0.04238 0.233567,-0.08355 0.246933,-0.07978 h 4.06e-4 l 4.07e-4,4.08e-4 h 4.06e-4 v 3.88e-4 h 4.14e-4 v 4.09e-4 l -4.14e-4,4.09e-4 v 3.88e-4 c -7.13e-4,0.0016 -0.005,0.0046 -0.01,0.0084 a 0.4085314,0.4085314 0 0 1 0.0738,-0.0379 c 0.06312,-0.02439 0.148964,-0.08326 0.31834,-0.144402 0.09958,-0.03775 0.212092,-0.08559 0.351049,-0.13005 0.123167,-0.04408 0.211321,-0.05241 0.253316,-0.06184 0.0014,-3.06e-4 0.0029,-4.7e-4 0.0036,-7.84e-4 a 0.4085314,0.4085314 0 0 1 0.12286,-0.07141 c 0.05378,-0.01991 0.17775,-0.100454 0.298392,-0.171937 a 0.4085314,0.4085314 0 0 1 0.06626,-0.0315 c 0.05,-0.01837 0.141761,-0.09522 0.34227,-0.144811 0.164662,-0.05913 0.278229,-0.07879 0.336292,-0.104114 a 0.4085314,0.4085314 0 0 1 0.02118,-0.0092 c -0.005,0.0016 -0.0071,0.0023 -0.0088,0.0031 h -4.06e-4 -4.07e-4 -4.13e-4 v -4.09e-4 c 0.0029,-0.0039 0.03645,-0.02431 0.102119,-0.06423 0.08218,-0.04995 0.251226,-0.0971 0.418862,-0.09016 0.08254,-0.0039 0.188741,-0.02223 0.218611,-0.01837 a 0.4085314,0.4085314 0 0 1 0.05741,-0.04825 c -6.13e-4,2.66e-4 -0.0014,7.13e-4 -0.0021,7.85e-4 h -4.07e-4 -4.06e-4 -4.14e-4 v -4.09e-4 h -4.07e-4 v -4.09e-4 -3.88e-4 c 0.0021,-0.01204 0.08014,-0.09049 0.265684,-0.203054 a 0.4085314,0.4085314 0 0 1 0.06062,-0.0315 c 0.12751,-0.05072 0.251853,-0.104438 0.315152,-0.14481 a 0.4085314,0.4085314 0 0 1 0.06298,-0.03312 c 0.102397,-0.04207 0.204809,-0.09437 0.325908,-0.158366 a 0.4085314,0.4085314 0 0 1 0.02996,-0.01513 c 0.110422,-0.04701 0.229095,-0.105888 0.354244,-0.165946 a 0.4085314,0.4085314 0 0 1 0.01234,-0.0062 c 0.05506,-0.02439 0.176338,-0.131942 0.409291,-0.188689 0.13818,-0.05998 0.241748,-0.08674 0.318733,-0.11888 0.157722,-0.07681 0.23244,-0.10866 0.248131,-0.10372 l 4.06e-4,4.09e-4 c 1.36e-4,6.9e-5 7.13e-4,3.06e-4 0.0014,3.88e-4 l 4.06e-4,4.08e-4 4.14e-4,4.08e-4 4.06e-4,4.09e-4 v 3.88e-4 l 4.07e-4,4.09e-4 v 4.08e-4 3.88e-4 c 1.07e-4,0.0039 -0.005,0.01204 -0.01312,0.02192 a 0.4085314,0.4085314 0 0 1 0.122068,-0.09534 c 0.03637,-0.01876 0.125363,-0.106128 0.294005,-0.213823 a 0.4085314,0.4085314 0 0 1 0.02268,-0.01513 c 0.106962,-0.05843 0.179868,-0.07681 0.197463,-0.08457 a 0.4085314,0.4085314 0 0 1 0.112098,-0.09893 v -3.88e-4 h -4.07e-4 v -4.08e-4 c 0.0029,-0.0122 0.100565,-0.13659 0.316743,-0.263684 0.145455,-0.0892 0.239365,-0.134042 0.251718,-0.146007 a 0.4085314,0.4085314 0 0 1 0.05706,-0.04825 c 0.04429,-0.02933 0.128238,-0.123504 0.289213,-0.226583 0.0064,-0.0077 0.04821,-0.04925 0.113695,-0.1113 0.05413,-0.05134 0.149955,-0.128754 0.283228,-0.167545 0.102177,-0.05944 0.184105,-0.07295 0.224595,-0.08417 a 0.4085314,0.4085314 0 0 1 0.0064,-0.0062 c 0.08421,-0.07164 0.09468,-0.06438 0.112903,-0.06901 a 0.4085314,0.4085314 0 0 1 0.07696,-0.142017 c -0.01662,0.01521 -0.02461,0.02332 -0.0271,0.02517 l -4.14e-4,3.88e-4 h -4.06e-4 v -3.88e-4 c 0.0029,-0.0054 0.02083,-0.02972 0.03716,-0.06584 0.02888,-0.06407 0.05606,-0.161717 0.170332,-0.287622 a 0.4085314,0.4085314 0 0 1 0.01234,-0.01274 c -0.0043,0.0039 0.01255,-0.01984 0.05827,-0.08258 0.04115,-0.05651 0.113602,-0.141631 0.216606,-0.208234 0.049,-0.04269 0.114573,-0.09528 0.175532,-0.14441 0.0029,-0.0039 0.04793,-0.0772 0.120471,-0.168741 0.04878,-0.06152 0.124079,-0.147065 0.23776,-0.205841 0.06483,-0.07542 0.153194,-0.159825 0.270861,-0.220609 0.04757,-0.04871 0.09197,-0.08071 0.118873,-0.101319 0.02646,-0.02046 0.01847,-0.01443 0.02076,-0.01675 7.13e-4,-0.0084 0.0071,-0.02926 0.0363,-0.108507 0.02696,-0.07334 0.08116,-0.192416 0.188684,-0.288015 0.04836,-0.07087 0.09722,-0.115646 0.123666,-0.143213 0.01048,-0.01104 0.01733,-0.01914 0.02154,-0.02431 0.02988,-0.08428 0.06112,-0.187816 0.100536,-0.301587 7.14e-4,-0.0031 7.14e-4,-0.0046 0.0014,-0.0077 0.03559,-0.12352 0.06776,-0.231385 0.08856,-0.330311 0.0107,-0.05072 0.0071,-0.200082 0.04985,-0.396521 0.02346,-0.106939 0.04636,-0.137863 0.05741,-0.156776 a 0.4085314,0.4085314 0 0 1 -0.01198,-0.06901 c -1.5e-5,0.0016 -1.86e-4,0.0023 -4.07e-4,0.0031 l -4.14e-4,4.09e-4 -4.06e-4,3.88e-4 h -4.07e-4 v -3.88e-4 h -4.13e-4 c -0.0093,-0.0086 -0.04579,-0.128222 -0.05542,-0.327517 -0.0014,-0.03535 -0.01391,-0.123342 -0.02553,-0.208234 -0.0064,-0.04246 -0.01048,-0.08434 -0.01362,-0.132437 0,-0.0062 0.0057,-0.02748 0.005,-0.03513 -3.6e-5,-2.25e-4 -4.07e-4,-7.85e-4 -4.07e-4,-0.0016 -0.01006,-0.07496 -0.0057,-0.129179 -0.0043,-0.150793 a 0.4085314,0.4085314 0 0 1 -0.0014,-0.0031 0.4085314,0.4085314 0 0 1 -0.0043,-0.02115 c -0.0071,-0.02926 -0.0291,-0.09573 -0.051,-0.15957 -0.01669,-0.04833 -0.03252,-0.09613 -0.04828,-0.150786 -0.0089,-0.02463 -0.0064,-0.023 -0.01198,-0.04068 -7.13e-4,-0.0039 -0.0021,-0.0039 -0.0029,-0.0077 -0.0036,-0.01282 -0.0088,-0.02879 -0.01077,-0.03473 v -4.16e-4 l -4.13e-4,-3.88e-4 c -10e-5,-2.86e-4 -7.14e-4,-0.0016 -7.14e-4,-0.0023 -0.0021,-0.0054 -0.0088,-0.02031 -0.02268,-0.04987 a 0.4085314,0.4085314 0 0 1 -0.0029,-0.0046 c -0.02917,-0.06392 -0.0943,-0.190487 -0.144399,-0.284828 -0.06234,-0.109285 -0.08893,-0.165213 -0.116491,-0.197867 a 0.4085314,0.4085314 0 0 1 -0.02232,-0.0315 c -0.08984,-0.129063 -0.01562,-0.06021 -0.08457,-0.116085 a 0.4085314,0.4085314 0 0 1 -0.06184,-0.06184 c -0.01911,-0.02393 -0.0786,-0.0892 -0.131247,-0.141615 -0.03951,-0.03929 -0.0981,-0.08491 -0.100529,-0.08936 v -3.88e-4 h 4.13e-4 c 0.0014,6.94e-4 0.0079,0.0039 0.01876,0.01119 a 0.4085314,0.4085314 0 0 1 -0.07061,-0.05867 c -0.03687,-0.03829 -0.07311,-0.05326 -0.177921,-0.149195 -0.08276,-0.07457 -0.155982,-0.140055 -0.215815,-0.183903 a 0.4085314,0.4085314 0 0 1 -0.01198,-0.0092 c -0.08235,-0.06477 -0.243609,-0.172099 -0.254913,-0.184697 l -4.07e-4,-4.09e-4 h -4.06e-4 v -4.08e-4 -3.88e-4 h 4.06e-4 c 7.13e-4,1.08e-4 0.0021,7.84e-4 0.0057,0.0023 a 0.4085314,0.4085314 0 0 1 -0.04229,-0.02431 c -0.08029,-0.05427 -0.127232,-0.07841 -0.220208,-0.128052 a 0.4085314,0.4085314 0 0 1 -0.01676,-0.0092 c -0.109345,-0.06515 -0.24306,-0.137461 -0.26089,-0.144409 a 0.4085314,0.4085314 0 0 1 -0.04194,-0.01991 c -0.128002,-0.06716 -0.175382,-0.09315 -0.202249,-0.09933 a 0.4085314,0.4085314 0 0 1 -0.08298,-0.02871 c -0.08175,-0.03829 -0.218717,-0.08389 -0.30757,-0.111293 a 0.4085314,0.4085314 0 0 1 -0.03752,-0.01359 c -0.0036,-0.0016 -0.0057,-0.0023 -0.0064,-0.0031 -0.0014,-4.09e-4 -0.0071,-7.85e-4 -0.04065,-0.0096 -0.05428,-0.01382 -0.138308,-0.04261 -0.232169,-0.09016 -0.135955,-0.0552 -0.284291,-0.124995 -0.351448,-0.1479986 a 0.4085314,0.4085314 0 0 1 -0.0043,0 C 18.866925,9.9055394 18.735782,9.8774464 18.572219,9.805573 18.460777,9.766282 18.378792,9.721539 18.325293,9.697068 c -0.0093,-0.00385 -0.01812,-0.00692 -0.02553,-0.00842 -0.0127,7.845e-4 -0.02033,6.533e-4 -0.02318,0 h -4.07e-4 -4.13e-4 v -4.087e-4 -4.087e-4 h 4.13e-4 l 4.07e-4,-3.88e-4 c 0.0029,-7.845e-4 0.01141,-0.00157 0.02318,0.00157 0.0077,-6.74e-4 0.02532,-0.00464 0.03716,-0.0062 a 0.4085314,0.4085314 0 0 1 -0.09095,-4.087e-4 c -0.0081,0.00157 -0.01919,0.00307 -0.03388,0.0062 -0.07503,0.013894 -0.244828,7.133e-4 -0.384955,-0.061837 -0.202578,-0.061373 -0.303891,-0.140951 -0.352241,-0.1583736 -0.0021,-7.846e-4 -0.0036,-0.00228 -0.0064,-0.00307 -0.132545,-0.034427 -0.249172,-0.072101 -0.34826,-0.093746 a 0.4085314,0.4085314 0 0 1 -0.005,0 c -0.114865,-0.026247 -0.251198,-0.051488 -0.392138,-0.084166 -0.125321,-0.026247 -0.2066,-0.045468 -0.354245,-0.074185 -0.106869,-0.02084 -0.188861,-0.049248 -0.248922,-0.064611 -0.03965,-0.01042 -0.06918,-0.011426 -0.07256,-0.012738 h -4.06e-4 v -4.086e-4 h 4.06e-4 c 0.0014,-6.534e-4 0.0077,-0.00157 0.0184,-0.00385 a 0.4085314,0.4085314 0 0 1 -0.134037,-0.00157 c -0.03552,-0.00692 -0.115849,-0.010499 -0.197463,-0.013587 -0.08162,-0.00307 -0.143351,0.00542 -0.276053,-0.023929 -0.10075,-0.01629 -0.152452,-0.023622 -0.274456,-0.045468 -0.125963,-0.018993 -0.261932,-0.040376 -0.394927,-0.061837 -0.05285,-0.00772 -0.203704,0.00692 -0.408093,-0.05867 -0.168563,-0.025783 -0.292828,-0.067236 -0.351847,-0.07542 -0.04008,-0.00464 -0.209018,0.01405 -0.43123,-0.063456 -0.0805,-0.018137 -0.163978,-0.038749 -0.205045,-0.051024 -0.01419,-0.00385 -0.02589,-0.0062 -0.03388,-0.0062 -0.0064,7.845e-4 -0.01027,7.845e-4 -0.01155,7.845e-4 7.13e-4,-3.473e-4 0.0057,-7.845e-4 0.01155,-7.845e-4 0.01148,-0.00157 0.03188,-0.00542 0.06383,-0.014357 a 0.4085314,0.4085314 0 0 1 -0.141211,0.013972 c -0.0029,7.132e-4 -0.01698,0.00307 -0.04864,0.00842 -0.06241,0.010577 -0.190409,0.024164 -0.32232,-0.0062 C 12.778779,8.715402 12.651148,8.69178 12.595566,8.687144 a 0.4085314,0.4085314 0 0 1 -0.005,0 C 12.452742,8.674099 12.353818,8.657888 12.298158,8.65843 A 0.4085314,0.4085314 0 0 1 12.257508,8.65686 C 12.137544,8.645976 12.033185,8.64713 12.020554,8.638951 h -4.14e-4 l -4.06e-4,-4.087e-4 v -4.08e-4 h -4.07e-4 v -4.065e-4 -4.087e-4 -4.087e-4 -3.88e-4 l 4.07e-4,-4.086e-4 4.06e-4,-4.08e-4 c 0.0029,-0.00307 0.01391,-0.00692 0.03231,-0.011968 a 0.4085314,0.4085314 0 0 1 -0.07898,0.012738 c -0.0043,0.00157 -0.02083,0.00464 -0.05064,0.012738 -0.06747,0.01853 -0.223225,0.026247 -0.359437,-0.017524 -0.04265,-0.010734 -0.06476,-0.025705 -0.09812,-0.039527 z m 6.785589,22.8675576 c -0.0014,2.85e-4 -0.0021,2.65e-4 -0.0021,4.08e-4 a 0.4085314,0.4085314 0 0 1 0.0036,4.09e-4 c -4.14e-4,-2.46e-4 -7.13e-4,-5.72e-4 -0.0014,-7.85e-4 z m 0.0014,7.85e-4 c -0.0014,-4.7e-5 -0.0029,5.3e-5 -0.0036,0 h -4.07e-4 -4.13e-4 v -4.09e-4 a 0.4085314,0.4085314 0 0 0 -0.01712,0 c 0.01056,0.0039 0.01797,0.0046 0.02118,0.0039 l 4.14e-4,-3.88e-4 h 4.06e-4 l 4.07e-4,-4.08e-4 v -4.08e-4 h 4.13e-4 v -3.88e-4 -4.09e-4 l -4.13e-4,-4.09e-4 V 31.4614 l -4.07e-4,-3.88e-4 z m -0.02154,-4.09e-4 c -0.0014,-6.95e-4 -0.0036,-0.0016 -0.0064,-0.0023 -7.14e-4,-3.28e-4 -0.0014,-7.85e-4 -0.0021,-0.0016 -0.02133,7.84e-4 -0.05435,0.0062 -0.102925,0.02077 a 0.4085314,0.4085314 0 0 1 0.111298,-0.01714 z M 6.4108477,26.402946 c -0.0029,-0.0031 -0.0064,-0.0069 -0.01034,-0.01158 -0.0122,-0.01034 -0.03759,-0.02578 -0.09733,-0.04747 a 0.4085314,0.4085314 0 0 1 0.107711,0.05906 z M 18.526213,16.716025 a 0.4085314,0.4085314 0 0 0 0.01754,-0.02115 c -7.13e-4,5.51e-4 -0.0014,7.84e-4 -0.0029,0.0016 -0.01041,0.0062 -0.01562,0.01212 -0.01676,0.01598 -4.2e-5,1.78e-4 -4.13e-4,7.85e-4 -4.13e-4,0.0016 v 4.09e-4 3.88e-4 l 4.13e-4,4.09e-4 v 4.08e-4 l 4.07e-4,4.08e-4 h 4.06e-4 v 3.88e-4 h 4.07e-4 4.14e-4 z m 0.01754,-0.02115 c 0.0029,-0.0016 0.0071,-0.0039 0.0112,-0.0054 0.0099,-0.01428 0.02168,-0.03875 0.03431,-0.06863 a 0.4085314,0.4085314 0 0 1 -0.04543,0.07418 z m 0.459552,-0.601167 c 0.0014,-0.0031 0.0029,-0.0062 0.0043,-0.0084 -0.01163,0.0054 -0.02389,0.01112 -0.03716,0.01876 a 0.4085314,0.4085314 0 0 1 -0.02275,0.06786 c 0.02896,-0.03814 0.04615,-0.06338 0.05542,-0.07819 z m 0.0043,-0.0084 c 4.14e-4,-2.25e-4 7.14e-4,-5.92e-4 0.0014,-7.85e-4 0.0021,-0.0039 0.0036,-0.0062 0.0036,-0.0069 v -3.89e-4 h -4.14e-4 c -7.13e-4,0.0016 -0.0029,0.0046 -0.0043,0.0084 z m -1.152478,-3.374847 c -0.0098,0.0046 -0.01968,0.01027 -0.0291,0.01637 a 0.4085314,0.4085314 0 0 1 0.0291,-0.01637 z m 1.405388,1.301667 c -0.0099,0.0024 -0.01997,0.0046 -0.02946,0.0069 0.0014,0.0039 0.0029,0.0077 0.0043,0.01119 a 0.4085314,0.4085314 0 0 1 0.107711,-0.01397 0.4085314,0.4085314 0 0 1 0.0029,-0.0016 0.4085314,0.4085314 0 0 1 0,-0.0016 0.4085314,0.4085314 0 0 0 7.13e-4,-7.84e-4 0.4085314,0.4085314 0 0 1 -7.13e-4,-7.85e-4 z m 0.08697,7.84e-4 a 0.4085314,0.4085314 0 0 0 7.13e-4,7.85e-4 0.4085314,0.4085314 0 0 1 0.0029,0 l -0.0029,-0.0016 a 0.4085314,0.4085314 0 0 1 -7.13e-4,7.84e-4 z m 0.290012,0.694117 a 0.4085314,0.4085314 0 0 1 0,0.0016 h 0.0014 v -0.0016 a 0.4085314,0.4085314 0 0 1 -0.0014,0 z m -0.605963,1.212306 a 0.4085314,0.4085314 0 0 1 -0.04308,0.134838 h 4.07e-4 l 4.13e-4,-4.09e-4 v -3.88e-4 c 0.04764,-0.07884 0.04237,-0.130954 0.04229,-0.134042 z m 1.062719,1.252602 -0.0057,0.0016 a 0.4085314,0.4085314 0 0 0 -0.0014,0.0016 c 0.0036,0 0.005,-0.0016 0.0071,-0.0031 z m -0.0071,0.0031 -0.0043,0.0016 c 7.13e-4,0 0.0021,-7e-6 0.0029,0 a 0.4085314,0.4085314 0 0 1 0.0014,-0.0016 z m -6.581349,3.387608 c -7.13e-4,2.86e-4 -0.0029,0.0016 -0.0071,0.0031 0.0036,-0.0016 0.0064,-0.0023 0.0071,-0.0031 v -4.08e-4 z m -0.02995,0.01953 c -0.0071,0.0062 -0.01562,0.01389 -0.02468,0.02393 a 0.4085314,0.4085314 0 0 1 0.02468,-0.02393 z m -5.8297753,0.675366 a 0.4085314,0.4085314 0 0 1 -0.105322,0.142811 c 0.0077,-0.0054 0.0071,-6.33e-4 0.01512,-0.0077 0.04807,-0.03844 0.08291,-0.106661 0.09016,-0.135231 z m 2.7381683,0.738396 c -0.0085,0.0039 -0.0071,-8e-6 -0.02553,0.01474 -0.03744,0.02964 -0.08642,0.09908 -0.100936,0.158365 a 0.4085314,0.4085314 0 0 1 0.126462,-0.173126 z m -0.9067433,0.727226 c -0.005,7.02e-4 -0.02561,0.0069 -0.06426,0.03111 -0.0029,0.0031 -0.0071,0.01065 -0.01034,0.01359 0.0169,-0.0031 0.06997,-0.04315 0.0738,-0.04393 6.13e-4,-1.31e-4 7.13e-4,-2.94e-4 0.0014,-3.94e-4 h 4.14e-4 v -4.02e-4 h -4.14e-4 z m -0.427643,0.593192 -0.01198,0.01197 a 0.4085314,0.4085314 0 0 1 0.005,-0.0016 l -0.10891,0.106908 v 0.0016 l -0.0029,0.0031 a 0.4085314,0.4085314 0 0 1 0.15079,-0.06346 0.4085314,0.4085314 0 0 1 0.138423,-0.05906 h -0.07978 -0.07218 -0.01512 z m 0.171944,0 v 3.94e-4 a 0.4085314,0.4085314 0 0 1 0.03473,0.01474 0.4085314,0.4085314 0 0 1 0.03909,0.0039 c 0.0029,-0.0062 0.0064,-0.01274 0.0096,-0.01914 h -0.06383 z m -0.394933,0.197859 -0.03787,0.133239 a 0.4085314,0.4085314 0 0 1 0.03787,-0.08377 c -7.14e-4,-0.0039 -0.0014,-0.02162 0,-0.04948 z m 0.105314,0.500249 0.11928,0.118078 h 0.04672 l -0.09016,0.09016 a 0.4085314,0.4085314 0 0 1 0.147203,-0.07619 c -0.0014,-0.01405 -0.0021,-0.02818 -0.0029,-0.0423 a 0.4085314,0.4085314 0 0 1 -0.0014,-7.84e-4 h -0.0029 a 0.4085314,0.4085314 0 0 1 -0.215814,-0.08895 z m 0.07581,0.208234 h -4.07e-4 l -0.11888,0.119275 v 0.159964 a 0.4085314,0.4085314 0 0 1 0.0064,-0.0046 0.4085314,0.4085314 0 0 1 0,-0.0016 0.4085314,0.4085314 0 0 1 0.113296,-0.272855 z m -0.09055,0.436015 c 0.0021,0.0054 0.0036,0.0086 0.005,0.01 0.0014,0.0039 1.22e-4,-7.85e-4 -0.005,-0.01 z m 0.64305,0.163955 a 0.4085314,0.4085314 0 0 1 -0.261689,0.09654 h 0.167151 l 0.09534,-0.09534 c -4.06e-4,-3.55e-4 -4.06e-4,-7.84e-4 -7.13e-4,-0.0016 z m -0.397323,0.0738 c 0.01177,0.0039 0.02568,0.0092 0.02553,0.0092 l 0.01676,0.0016 c -0.01819,-0.0046 -0.02881,-0.0069 -0.04229,-0.01081 z m 0.8564833,0.212225 a 0.4085314,0.4085314 0 0 1 -0.1811163,0.138025 c 0.01498,-0.0054 0.02047,0.0016 0.0363,-0.0062 0.05834,-0.02933 0.108274,-0.07924 0.1452053,-0.13124 z m -0.5792383,0.09853 c 0.0021,0.0023 0.01234,0.0083 0.02953,0.01675 a 0.4085314,0.4085314 0 0 1 -0.02953,-0.01675 z m 0.132046,0.05427 c 0.0081,0.0046 0.02147,0.01042 0.05941,0.01675 0.01533,0.0023 0.04244,-0.0031 0.07104,-0.0096 a 0.4085314,0.4085314 0 0 1 -0.130449,-0.0069 z m 9.1399993,6.313669 c -0.01348,7.85e-4 -0.0311,0.0086 -0.0674,0.03991 a 0.4085314,0.4085314 0 0 1 0.110101,-0.03628 v -0.0031 c -0.01983,0.0039 -0.02917,-0.0016 -0.04265,-7.84e-4 z" />
</svg>
