<?xml version="1.0" encoding="UTF-8" standalone="no"?>
<!-- Created with Inkscape (http://www.inkscape.org/) -->

<svg
   width="32"
   height="32"
   viewBox="0 0 32 32"
   version="1.1"
   id="svg1"
   xmlns="http://www.w3.org/2000/svg"
   xmlns:svg="http://www.w3.org/2000/svg">
  <defs
     id="defs1" />
  <g
     id="layer1">
    <path
       id="path78"
       style="baseline-shift:baseline;display:inline;overflow:visible;vector-effect:none;stroke-width:3.43387;stroke-linecap:round;stroke-linejoin:round;stroke-miterlimit:10000;paint-order:fill markers stroke;enable-background:accumulate;stop-color:#000000"
       d="m 16.026859,1.02007 c -0.06493,0.004 -0.150382,0.01768 -0.257875,0.02575 a 0.40682249,0.404529 0 0 1 -0.06539,0 C 15.572973,1.03476 15.524658,1.06726 15.310637,1.08939 l 0.0038,-0.0012 c -0.178484,0.02032 -0.35161,0.0363 -0.515759,0.05823 a 0.40682249,0.404529 0 0 1 -0.0079,0.0012 c -0.1671,0.01923 -0.337573,0.04488 -0.511795,0.07328 a 0.40682249,0.404529 0 0 1 -0.0054,0 c -0.14858,0.02171 -0.313259,0.06032 -0.497928,0.09626 -0.0038,8.52e-4 -0.0084,0.0018 -0.01226,0.0028 l -0.0054,0.0016 c -0.163966,0.0396 -0.328613,0.08444 -0.518135,0.125968 -0.176813,0.0573 -0.36376,0.107586 -0.544275,0.151717 -0.181274,0.06719 -0.36563,0.118745 -0.531994,0.163204 -0.212258,0.08486 -0.379873,0.113014 -0.533589,0.155677 -0.293628,0.09918 -0.515176,0.07898 -0.617956,0.110124 a 0.40682249,0.404529 0 0 1 -0.139037,0.01624 c -0.01755,-9.12e-4 -0.177142,0.07539 -0.452771,0.167958 a 0.40682249,0.404529 0 0 1 -0.0095,0.0028 C 10.250077,2.265138 10.076897,2.341637 9.87319,2.417273 9.61874,2.529168 9.3931,2.567717 9.24137,2.626427 a 0.40682249,0.404529 0 0 1 -0.0491,0.01466 C 9.04587,2.677497 8.87842,2.768558 8.64958,2.864898 a 0.40682249,0.404529 0 0 1 -0.003,0 C 8.47117,2.937328 8.28526,3.034262 8.07378,3.129511 7.80696,3.268376 7.56406,3.314717 7.40948,3.383032 7.30071,3.431112 7.13671,3.535867 6.9674,3.631403 L 6.8731,3.85363 6.8117,4.3476 A 0.40682249,0.404529 0 0 1 6.7709,4.481886 L 6.61562,4.785715 6.45598,5.188576 6.31258,5.618373 6.18186,6.049755 a 0.40682249,0.404529 0 0 1 -0.008,0.02456 L 6.03996,6.432413 5.92548,6.929948 a 0.40682249,0.404529 0 0 1 -0.01,0.03525 l -0.12557,0.382658 -0.057,0.24956 c 0.0197,-0.01565 0.0369,-0.02895 0.057,-0.04476 a 0.40682249,0.404529 0 0 1 0.003,-0.004 C 5.90792,7.460576 6.02567,7.370018 6.14745,7.278497 a 0.40682249,0.404529 0 0 1 0.003,-0.0012 C 6.29483,7.170955 6.40962,7.1431 6.50498,7.108943 6.58548,7.080123 6.65232,7.047973 6.65987,7.046753 h 4.1e-4 3.8e-4 v 4.05e-4 c -4.6e-4,4.46e-4 -0.002,0.0015 -0.003,0.0024 a 0.40682249,0.404529 0 0 1 0.11329,-0.04476 c 0.006,-0.03286 0.0547,-0.10627 0.14459,-0.200835 0.10414,-0.121029 0.23487,-0.223095 0.32324,-0.256295 0.072,-0.02714 0.10683,-0.04105 0.11409,-0.04199 h 3.8e-4 4.1e-4 4e-4 3.9e-4 v 4.05e-4 h -3.9e-4 v 4.06e-4 c -7.7e-4,0.0012 -0.004,0.0035 -0.008,0.006 a 0.40682249,0.404529 0 0 1 0.0642,-0.03525 C 7.49196,6.441089 7.57062,6.365303 7.74301,6.253428 a 0.40682249,0.404529 0 0 1 0.005,-0.0044 C 7.92731,6.137042 8.07633,6.078251 8.17226,6.018483 a 0.40682249,0.404529 0 0 1 0.078,-0.03644 C 8.25526,5.980343 8.37537,5.878632 8.53666,5.771699 8.68818,5.643803 8.82901,5.570454 8.95536,5.499165 9.08728,5.398805 9.24363,5.29348 9.40457,5.203258 9.55316,5.084142 9.69233,5.020102 9.81337,4.959244 h 4e-4 l 4.1e-4,-4.06e-4 3.9e-4,-4.05e-4 v -4.06e-4 h 4e-4 c 0.1161,-0.08638 0.270675,-0.211101 0.459515,-0.310959 0.213477,-0.187974 0.426248,-0.212741 0.47891,-0.231734 0.0031,-0.0012 0.0046,-0.0016 0.0069,-0.0028 7.71e-4,-3.85e-4 0.0088,-0.0052 0.0095,-0.0055 0.157596,-0.07778 0.310331,-0.142234 0.456735,-0.202024 0.02407,-0.01083 0.128811,-0.14263 0.373548,-0.25154 0.158944,-0.130285 0.349003,-0.155508 0.462675,-0.162016 0.104274,-0.006 0.181742,-0.0135 0.192121,-0.0103 h 4.05e-4 l 3.86e-4,4.05e-4 v 4.06e-4 4.05e-4 l -3.86e-4,4.06e-4 c -0.0015,0.0011 -0.0054,0.003 -0.01111,0.0048 a 0.40682249,0.404529 0 0 1 0.109325,-0.01901 c 0.136378,-0.0052 0.121484,-0.03541 0.32879,-0.09507 a 0.40682249,0.404529 0 0 1 0.04515,-0.0095 c 0.150604,-0.02538 0.298479,-0.0615 0.446033,-0.09903 a 0.40682249,0.404529 0 0 1 0.05304,-0.0095 c 0.270624,-0.03164 0.391217,0.0062 0.40326,0.0055 h 3.85e-4 a 0.40682249,0.404529 0 0 1 0.165982,-0.0036 c 0.04538,-0.02428 0.135533,-0.07441 0.272141,-0.108934 0.217846,-0.07019 0.426018,-0.08674 0.53437,-0.108539 a 0.40682249,0.404529 0 0 1 0.02062,-0.0028 c 0.123123,-0.01821 0.147952,-0.05111 0.314523,-0.08358 0.23977,-0.07919 0.420691,-0.05658 0.535567,-0.06853 a 0.40682249,0.404529 0 0 1 0.01625,-0.0024 c 0.208901,-0.01278 0.370643,0.01111 0.447222,0.0067 0.04546,-0.0026 0.16559,-0.06451 0.414742,-0.06259 a 0.40682249,0.404529 0 0 1 0.401282,0.450395 c -0.01962,0.171393 -0.0054,0.398007 -0.03327,0.658759 0.01556,0.331065 -0.08573,0.559912 -0.104182,0.69639 a 0.40682249,0.404529 0 0 1 -0.0038,0.02694 c -0.03672,0.179168 -0.05343,0.390333 -0.08715,0.621522 a 0.40682249,0.404529 0 0 1 0,0.0012 c -0.0348,0.235801 -0.0729,0.353753 -0.101009,0.533186 a 0.40682249,0.404529 0 0 1 -0.01226,0.05427 c -0.02254,0.07491 -0.06983,0.355958 -0.109333,0.588644 a 0.40682249,0.404529 0 0 1 -0.0095,0.0408 c -0.03503,0.125081 -0.08658,0.389486 -0.12399,0.595379 a 0.40682249,0.404529 0 0 1 -0.0095,0.04318 c -0.07121,0.24056 -0.156192,0.407707 -0.176276,0.511399 a 0.40682249,0.404529 0 0 1 -0.06255,0.14934 c -0.0614,0.09109 -0.05688,0.139969 -0.09943,0.34859 a 0.40682249,0.404529 0 0 1 -0.05627,0.138249 c -0.02982,0.04596 -0.08969,0.224936 -0.127945,0.40286 a 0.40682249,0.404529 0 0 1 -0.06416,0.147755 c 7.7e-4,-0.0015 0.0015,-0.0025 0.0031,-0.0031 l 4.06e-4,-4.05e-4 h 3.85e-4 l 4.06e-4,-4.06e-4 h 4.05e-4 3.86e-4 4.05e-4 4.06e-4 3.85e-4 4.06e-4 l 4.06e-4,4.06e-4 3.85e-4,4.05e-4 v 4.06e-4 l 4.06e-4,4.06e-4 c 0.0093,0.01862 -0.0079,0.157479 -0.05941,0.388995 v 0.0055 c -0.0031,0.01422 -0.0087,0.112447 -0.0084,0.225 2.43e-4,0.09513 0.0069,0.196734 -0.01265,0.320862 0.02407,0.212927 -0.02775,0.332229 -0.05228,0.407615 0.0069,0.173555 -0.05841,0.348035 -0.107746,0.430193 -0.03427,0.05698 -0.04331,0.07205 -0.04438,0.07209 v 4.06e-4 a 0.40682249,0.404529 0 0 1 -0.05266,0.116065 c 0.0046,-0.007 0.0077,-0.01093 0.0087,-0.01188 h 3.85e-4 4.06e-4 v 4.05e-4 c -7.3e-4,0.0066 -0.02016,0.05108 -0.0325,0.107746 -0.01717,0.07884 -0.03404,0.18241 -0.06416,0.295511 a 0.40682249,0.404529 0 0 1 -0.0054,0.01624 c -0.03457,0.110003 -0.06531,0.27089 -0.110521,0.438116 -0.04323,0.188179 -0.09465,0.323509 -0.129532,0.44485 a 0.40682249,0.404529 0 0 1 -0.0031,0.0095 c -0.0031,0.0093 0.01058,0.182034 -0.0499,0.421082 -0.0015,0.127801 -0.03273,0.247433 -0.06615,0.32522 -0.03856,0.08979 -0.05473,0.1136 -0.05703,0.118046 -0.02047,0.09014 -0.03281,0.22268 -0.08001,0.387807 -0.02399,0.269161 -0.145591,0.413632 -0.157265,0.448811 a 0.40682249,0.404529 0 0 1 -0.01226,0.03129 c -0.04546,0.105809 -0.08924,0.233988 -0.135081,0.367606 a 0.40682249,0.404529 0 0 1 -0.01226,0.03248 c -0.03197,0.07235 -0.06631,0.207646 -0.120019,0.362456 l -0.0038,0.01069 c -0.03748,0.117891 -0.07282,0.233952 -0.116064,0.356514 -7.7e-4,0.002 -6.28e-4,0.0052 -0.0015,0.0071 l -0.0084,0.02297 c -0.02951,0.10953 -0.06125,0.230652 -0.107747,0.362059 -0.02154,0.120037 -0.0473,0.241741 -0.08794,0.362852 -0.02146,0.208534 -0.09016,0.375702 -0.137849,0.497931 -7.71e-4,0.0025 -0.0023,0.005 -0.0031,0.0075 l -3.85e-4,0.0012 c -0.03572,0.09499 -0.0999,0.18246 -0.155281,0.246787 a 0.40682249,0.404529 0 0 1 -0.116071,0.158846 c 0.02882,-0.02348 0.04622,-0.03988 0.05588,-0.04991 0.0046,-0.007 0.0085,-0.0112 0.0099,-0.01228 v 4.05e-4 c -7.71e-4,0.0015 -0.0038,0.0054 -0.0099,0.01188 -0.0054,0.0084 -0.01173,0.02086 -0.01625,0.03644 -0.01801,0.06222 -0.03633,0.15681 -0.08477,0.276497 -0.05297,0.147122 -0.107409,0.253762 -0.144587,0.34463 a 0.40682249,0.404529 0 0 1 -0.0054,0.01347 c 0.0054,-0.01151 0.008,-0.01798 0.0091,-0.01981 v -4.06e-4 -4.06e-4 h 4.06e-4 v 4.06e-4 c -1.84e-4,0.0038 -0.0038,0.02418 -0.0061,0.061 -0.0023,0.04771 -0.0023,0.122623 -0.02499,0.216285 0.0023,0.132752 -0.03679,0.247491 -0.07091,0.323635 -0.03235,0.07216 -0.06102,0.124181 -0.07803,0.155282 -0.03764,0.150491 -0.118761,0.244511 -0.165974,0.303037 -0.03894,0.04838 -0.06025,0.08039 -0.065,0.08477 h -4.06e-4 v 4.06e-4 h -4.05e-4 v -4.06e-4 c 2.23e-4,-0.0012 7.71e-4,-0.0042 0.0031,-0.0083 a 0.40682249,0.404529 0 0 1 -0.09507,0.135079 c 2.43e-4,-2.43e-4 5.47e-4,-2.23e-4 7.7e-4,-4.05e-4 l 4.06e-4,-4.06e-4 3.85e-4,-4.06e-4 h 4.06e-4 4.06e-4 v 4.06e-4 h 3.85e-4 v 4.06e-4 h 4.06e-4 v 4.05e-4 c 0.0015,0.0088 -0.01181,0.05629 -0.07843,0.211532 a 0.40682249,0.404529 0 0 1 -0.02576,0.0515 c 0.0046,-0.0077 -0.04431,0.154123 -0.110521,0.325616 -0.03373,0.124795 -0.09164,0.236322 -0.133495,0.295906 -0.02438,0.03478 -0.03396,0.0482 -0.03679,0.0515 l -4.06e-4,4.05e-4 -4.05e-4,4.06e-4 h -3.85e-4 v -4.06e-4 c 2.43e-4,-9.93e-4 0.0015,-0.0035 0.0023,-0.006 a 0.40682249,0.404529 0 0 1 -0.04078,0.07487 c -0.092,0.132818 -0.20375,0.19632 -0.248769,0.223416 a 0.40682249,0.404529 0 0 1 -0.06776,0.08358 c -2.84e-4,0.06208 -0.0038,0.157509 -0.044,0.286795 -0.01855,0.08564 -0.03166,0.203685 -0.06891,0.349384 -0.01748,0.242201 -0.116171,0.36425 -0.128743,0.407614 a 0.40682249,0.404529 0 0 1 -0.01625,0.04595 c -0.02384,0.05602 -0.06914,0.203481 -0.11171,0.354137 a 0.40682249,0.404529 0 0 1 -0.01502,0.04476 c 0.0038,-0.009 -0.03634,0.165694 -0.07367,0.318882 l 0.385828,0.02179 a 0.40682249,0.404529 0 0 1 0.0084,0.0012 l 0.480107,0.03803 0.415931,0.03407 0.324427,-0.04753 a 0.40682249,0.404529 0 0 1 0.06255,-0.004 l 0.496342,0.0051 a 0.40682249,0.404529 0 0 1 0.07091,0.0083 l 0.457922,0.08437 0.260658,-0.02337 a 0.40682249,0.404529 0 0 1 0.09823,0.0028 l 0.530415,0.07883 a 0.40682249,0.404529 0 0 1 0.0038,0.0012 l 0.06692,0.01109 c 0,-0.0015 0.0015,-0.0056 0.0015,-0.0071 a 0.40682249,0.404529 0 0 1 0.02016,-0.0919 c -0.0046,0.01326 0.0023,-0.175359 0.02177,-0.392164 0.01732,-0.220543 0.06914,-0.348827 0.07528,-0.41633 a 0.40682249,0.404529 0 0 1 0.02139,-0.1022 h -4.06e-4 v 4.06e-4 l -4.05e-4,4.05e-4 h -3.86e-4 v -4.05e-4 h -4.05e-4 v -4.06e-4 c -0.0054,-0.01437 -0.0046,-0.154095 0.01265,-0.35493 l -0.0015,0.01624 c -1.61e-4,0.0037 -1.23e-4,0.0061 -4.06e-4,0.0071 l -4.05e-4,4.06e-4 v 4.05e-4 h -3.86e-4 v -4.05e-4 l -4.05e-4,-4.06e-4 c -0.0031,-0.0074 -0.0097,-0.05546 -0.02852,-0.118441 -0.01901,-0.06363 -0.0519,-0.141285 -0.05979,-0.257879 -0.05105,-0.135062 -0.06431,-0.283359 -0.04515,-0.385035 0.01663,-0.08859 0.0299,-0.134091 0.03565,-0.143793 0.0083,-0.146607 0.06891,-0.287756 0.10458,-0.341858 0.0046,-0.0075 0.0091,-0.01342 0.01226,-0.01822 a 0.40682249,0.404529 0 0 1 0.0499,-0.120818 c 0.0023,-0.0471 -0.0038,-0.137203 0.0069,-0.255502 a 0.40682249,0.404529 0 0 1 0.02024,-0.09705 l -4.06e-4,4.06e-4 -4.05e-4,3.85e-4 h -3.86e-4 v -3.85e-4 l -4.05e-4,-4.06e-4 c -0.0031,-0.01498 0.0174,-0.176382 0.03166,-0.333142 a 0.40682249,0.404529 0 0 1 0.0038,-0.03367 c 0.03112,-0.174944 0.06638,-0.25402 0.07328,-0.326804 a 0.40682249,0.404529 0 0 1 0.04952,-0.160035 c -0.0138,0.02451 -0.01978,0.03618 -0.02139,0.03843 h -4.06e-4 v 4.06e-4 h -3.85e-4 v -4.06e-4 c 6.69e-4,-0.0044 0.01012,-0.03173 0.01226,-0.06694 0.0038,-0.0626 0.0038,-0.150733 0.01387,-0.255106 a 0.40682249,0.404529 0 0 1 0.0038,-0.03248 c 0.01702,-0.0953 0.02392,-0.214526 0.0384,-0.359682 a 0.40682249,0.404529 0 0 1 0.0015,-0.01347 c 0.0187,-0.141886 0.07905,-0.250146 0.102196,-0.293134 0.0054,-0.0099 0.009,-0.01634 0.01111,-0.02021 a 0.40682249,0.404529 0 0 1 0.07167,-0.180633 c 6.69e-4,-0.0012 0.0015,-0.0023 0.0023,-0.0036 0.0054,-0.04649 0.0077,-0.133415 0.01901,-0.238864 a 0.40682249,0.404529 0 0 1 0.03963,-0.136664 c 4.05e-4,-0.02541 -3.25e-4,-0.09212 0.0095,-0.18103 a 0.40682249,0.404529 0 0 1 0.02062,-0.08715 c -0.0031,0.0086 -0.0046,0.01327 -0.0061,0.01506 l -3.86e-4,4.05e-4 v 4.06e-4 h -4.05e-4 -4.06e-4 v -4.06e-4 c -8e-6,-0.0079 0.01855,-0.07738 0.02737,-0.135475 0.01203,-0.0801 0.02392,-0.176614 0.03288,-0.255106 a 0.40682249,0.404529 0 0 1 0.01625,-0.07328 c 0.01786,-0.05763 0.03986,-0.194291 0.05588,-0.328389 a 0.40682249,0.404529 0 0 1 0.01901,-0.08002 c 0.0046,-0.01259 0.0105,-0.137349 0.03289,-0.318883 a 0.40682249,0.404529 0 0 1 0.0015,-0.0095 c 0.01364,-0.09246 0.02307,-0.250438 0.04354,-0.409594 0.0061,-0.100996 0.0054,-0.230488 0.02261,-0.382263 -0.0069,-0.265989 0.08462,-0.410439 0.08754,-0.42742 a 0.40682249,0.404529 0 0 1 0.02062,-0.08279 c 0.02016,-0.05496 0.02813,-0.157366 0.05304,-0.325617 a 0.40682249,0.404529 0 0 1 0.0084,-0.04199 c 0.0031,-0.0124 0.0086,-0.169058 0.02576,-0.33235 -0.0077,-0.23072 0.04676,-0.395575 0.06539,-0.497535 7.71e-4,-0.0053 7.71e-4,-0.0087 0.0015,-0.01387 2.64e-4,-0.0014 0.0015,-0.0042 0.0015,-0.0051 0.0184,-0.154593 0.0381,-0.277381 0.05979,-0.40286 0.01587,-0.128681 0.0253,-0.269255 0.05312,-0.432174 0.01066,-0.222336 0.0706,-0.38101 0.0915,-0.48882 0.03411,-0.17535 0.07443,-0.310832 0.102595,-0.447623 a 0.40682249,0.404529 0 0 1 0.0079,-0.03248 c 0.02752,-0.09342 0.05488,-0.276418 0.09547,-0.463864 0.04362,-0.204902 0.102909,-0.346962 0.131119,-0.470995 a 0.40682249,0.404529 0 0 1 0.01901,-0.061 c 0.0335,-0.0828 0.06316,-0.24768 0.109333,-0.443265 a 0.40682249,0.404529 0 0 1 0.0079,-0.02575 c 0.05067,-0.163638 0.09937,-0.316031 0.137849,-0.473767 a 0.40682249,0.404529 0 0 1 0.01901,-0.05823 c 0.02782,-0.06733 0.05964,-0.267342 0.114484,-0.488028 0.07305,-0.3021 0.205375,-0.470012 0.222622,-0.537147 a 0.40682249,0.404529 0 0 1 0.0693,-0.145379 c 0.04392,-0.05761 0.02997,-0.123273 0.09428,-0.381073 a 0.40682249,0.404529 0 0 1 0.02062,-0.061 c 0.02714,-0.06312 0.04592,-0.27574 0.108137,-0.533979 0.03925,-0.231227 0.103638,-0.42399 0.146963,-0.597358 0.04768,-0.19268 0.0932,-0.397128 0.14855,-0.608847 0.05435,-0.23454 0.123553,-0.439084 0.181428,-0.640536 a 0.40682249,0.404529 0 0 1 0.0031,-0.0091 c 0.05473,-0.172967 0.105232,-0.4147 0.181428,-0.663512 0.06339,-0.207079 0.118792,-0.435567 0.201626,-0.679357 a 0.40682249,0.404529 0 0 1 0.369983,-0.275307 c 0.158255,-0.0064 0.331825,-0.02745 0.537146,-0.02615 h 0.0015 c 0.294149,-0.03252 0.531765,0.0383 0.686095,0.05704 a 0.40682249,0.404529 0 0 1 0.02177,0.0028 c 0.162884,0.02856 0.330253,0.04414 0.525264,0.08398 l 0.0054,0.0016 c 0.150274,0.02917 0.298786,0.05498 0.471789,0.104181 0.213109,0.0448 0.403451,0.131137 0.560518,0.194102 a 0.40682249,0.404529 0 0 1 0.0069,0.0028 c 0.183236,0.07731 0.439218,0.214269 0.577159,0.283626 a 0.40682249,0.404529 0 0 1 0.02139,0.01069 c 0.0963,0.05616 0.126803,0.06994 0.151716,0.0812 0.02353,0.01063 0.0742,0.03381 0.135082,0.06813 0.182025,0.09762 0.356883,0.231352 0.475744,0.313336 a 0.40682249,0.404529 0 0 1 0.01786,0.01347 c 0.150359,0.115809 0.191944,0.149983 0.297491,0.233318 a 0.40682249,0.404529 0 0 1 0.02852,0.02416 c 0.06293,0.05966 0.248132,0.207906 0.389001,0.336708 a 0.40682249,0.404529 0 0 1 0.0069,0.0067 c 0.11969,0.114236 0.215317,0.199786 0.326015,0.313336 0.120785,0.120266 0.219302,0.230577 0.31611,0.341857 l 0.0015,0.0012 C 24.859909,5.82156 24.968537,5.965123 25.06001,6.0814 a 0.40682249,0.404529 0 0 1 0.0095,0.01069 c 0.09317,0.126972 0.168074,0.220014 0.260658,0.348592 0.09986,0.138883 0.191615,0.286351 0.271344,0.406822 a 0.40682249,0.404529 0 0 1 0.01111,0.01901 c 0.07298,0.123711 0.149785,0.234783 0.234504,0.371963 a 0.40682249,0.404529 0 0 1 0.0031,0.004 c 0.08416,0.140293 0.143437,0.248823 0.215493,0.372755 a 0.40682249,0.404529 0 0 1 0.0095,0.01782 c 0.04737,0.09185 0.14553,0.2482 0.230548,0.401672 0.0899,0.159442 0.130805,0.273271 0.185383,0.375529 a 0.40682249,0.404529 0 0 1 0.02177,0.04753 c 0.008,0.02103 0.117873,0.204049 0.207575,0.371566 l 0.0069,0.01228 c 0.08787,0.154074 0.15541,0.299471 0.208762,0.401276 a 0.40682249,0.404529 0 0 1 0.0031,0.0083 c 0.03089,0.06213 0.05059,0.09717 0.07367,0.141021 l 0.09111,-0.282042 0.118838,-0.420687 a 0.40682249,0.404529 0 0 1 0.0054,-0.01347 l 0.11765,-0.363248 0.10616,-0.482878 0.08596,-0.41514 a 0.40682249,0.404529 0 0 1 0.0054,-0.0206 l 0.110514,-0.42029 a 0.40682249,0.404529 0 0 1 0.01226,-0.03803 l 0.145775,-0.397315 a 0.40682249,0.404529 0 0 1 0.02453,-0.05427 l 0.186977,-0.341857 0.03963,-0.322843 0.0174,-0.268574 c -0.02077,-0.01774 -0.0289,-0.02274 -0.05627,-0.04952 -0.03381,-0.02501 -0.05396,-0.0454 -0.07443,-0.06575 -0.03442,-0.03419 -0.06715,-0.06897 -0.09983,-0.104578 -0.06531,-0.07123 -0.134024,-0.148043 -0.166373,-0.17905 a 0.40682249,0.404529 0 0 1 -0.0174,-0.01743 C 27.597008,5.059444 27.556879,5.035634 27.465391,4.952832 27.400771,4.897392 27.258836,4.789767 27.145724,4.691784 26.983491,4.57551 26.900297,4.469405 26.873583,4.446979 a 0.40682249,0.404529 0 0 1 -0.01625,-0.01506 c -0.0361,-0.03392 -0.03135,-0.02767 -0.04914,-0.03803 -0.01142,-0.0067 -0.05887,-0.03899 -0.09823,-0.06497 -0.0578,-0.0282 -0.148957,-0.06925 -0.25471,-0.137851 C 26.277099,4.152568 26.24127,4.065437 26.176374,4.011226 26.102554,3.949576 26.042534,3.896241 26.015551,3.875751 25.897303,3.796961 25.810353,3.731327 25.71964,3.669765 25.57483,3.572265 25.445574,3.458273 25.388083,3.421394 a 0.40682249,0.404529 0 0 1 -0.05351,-0.0408 C 25.268193,3.320714 25.255193,3.336414 25.109575,3.247892 25.010425,3.187912 24.910087,3.131325 24.801383,3.068843 24.669781,2.997933 24.57072,2.931232 24.476564,2.880287 a 0.40682249,0.404529 0 0 1 -0.01625,-0.0083 C 24.361664,2.812597 24.227037,2.734001 24.124795,2.682243 a 0.40682249,0.404529 0 0 1 -0.03289,-0.01902 c -0.07091,-0.04459 -0.147646,-0.0686 -0.282045,-0.131514 -0.126596,-0.05604 -0.253054,-0.118711 -0.365622,-0.168353 -0.101906,-0.04493 -0.211239,-0.0871 -0.334332,-0.137061 0,-4.5e-5 -0.0031,4.5e-5 -0.0031,0 -0.01748,-0.0056 -0.119038,6.49e-4 -0.293926,-0.05347 -0.195709,-0.0025 -0.291918,-0.09016 -0.375526,-0.13904 -0.09855,-0.05763 -0.18572,-0.103112 -0.162417,-0.09507 a 0.40682249,0.404529 0 0 1 -0.07764,-0.03644 c -0.02254,-0.0136 -0.02852,-0.01716 -0.03013,-0.01822 v 4.06e-4 c -0.0038,-6.49e-4 -0.08675,-0.0025 -0.196475,-0.03763 -0.104941,-0.02593 -0.20762,-0.05386 -0.319284,-0.08556 -0.182853,-0.02944 -0.321277,-0.08696 -0.440491,-0.118046 -0.05105,-0.01259 -0.18818,-0.02279 -0.360471,-0.05863 -0.116055,-0.0038 -0.197134,-0.02825 -0.278081,-0.04872 -0.09398,-0.02377 -0.178906,-0.04682 -0.228962,-0.05665 -0.151846,-0.02905 -0.28869,-0.05499 -0.421879,-0.07764 -0.220721,-0.03779 -0.435347,-0.111009 -0.492379,-0.119234 a 0.40682249,0.404529 0 0 1 -0.07764,-0.01902 c -0.07604,-0.02674 -0.07795,-0.02264 -0.08715,-0.02297 -0.0092,-3.85e-4 -0.07451,0.006 -0.178653,-0.0067 a 0.40682249,0.404529 0 0 1 -0.0084,0 c -0.113273,-0.01597 -0.222874,-0.01489 -0.39137,-0.0301 -0.17925,-0.0019 -0.334285,-0.02914 -0.46545,-0.03763 C 17.99576,1.151461 17.758635,1.094051 17.6762,1.091061 a 0.40682249,0.404529 0 0 1 -0.09388,-0.01347 c -0.01219,-0.0034 -0.01947,-0.0057 -0.02338,-0.0071 -3.45e-4,1.21e-4 -6.09e-4,2.83e-4 -0.0015,4.05e-4 -0.01004,0.0019 -0.106014,0.023 -0.215884,0.02852 -0.243165,0.02822 -0.444308,-0.0077 -0.55775,-0.0055 a 0.40682249,0.404529 0 0 1 -0.02737,0 c -0.232357,-0.01145 -0.390527,-0.05083 -0.462277,-0.04753 a 0.40682249,0.404529 0 0 1 -0.139037,-0.01743 c -0.02154,-0.0067 -0.06255,-0.01238 -0.128351,-0.0083 z m -0.134683,15.992812 c -3.1e-5,2.84e-4 3.8e-5,5.07e-4 0,7.71e-4 a 0.40682249,0.404529 0 0 1 0.03403,-0.0408 c -0.01587,0.01608 -0.02798,0.02999 -0.03403,0.04001 z m 0,7.71e-4 a 0.40682249,0.404529 0 0 0 -0.0023,0.0028 c -0.0054,0.0091 -0.0069,0.01542 -0.0061,0.01782 v 4.05e-4 h 4.06e-4 v 4.06e-4 h 3.85e-4 v 4.06e-4 h 4.06e-4 v -4.06e-4 h 4.05e-4 l 3.86e-4,-4.06e-4 c 0.0015,-0.0025 0.0054,-0.0092 0.0061,-0.01941 6.9e-5,-5.28e-4 -6.2e-5,-0.0011 0,-0.0016 z m -0.418705,2.396961 c -0.0038,0.0086 -0.0046,0.01419 -0.0046,0.01663 v 4.06e-4 4.05e-4 l 4.05e-4,4.06e-4 h 3.86e-4 4.05e-4 v -4.06e-4 c 0.0015,-0.0021 0.0031,-0.0079 0.0038,-0.01743 z m -3.416191,0.625087 v 4.06e-4 c -7.7e-4,0.0017 -0.0031,0.0061 -0.0038,0.01188 0.0031,-0.0066 0.0038,-0.01049 0.0038,-0.01188 z m 1.158267,3.758448 c -0.01748,0.01157 -0.0522,0.01951 -0.07604,0.03288 0.01042,-0.003 0.02208,0.0012 0.03166,-0.0028 0.02652,-0.01096 0.02951,-0.01902 0.04438,-0.0301 z m -0.05304,0.01268 c -0.02944,0.0076 -0.06094,0.01486 -0.0923,0.02575 0.01748,-0.0018 0.0322,-4.46e-4 0.04914,-0.0044 z m 0.12993,0.02773 c -3.24e-4,8.8e-5 -7.7e-4,6.29e-4 -0.0015,7.71e-4 -0.0023,2.63e-4 -0.0038,0.0012 -0.0054,0.002 l 0.01027,-0.0016 c -1.92e-4,-9.1e-5 -7.71e-4,-7.1e-4 -0.0015,-7.71e-4 h -4.06e-4 l -4.06e-4,-4.05e-4 h -3.85e-4 c -1.38e-4,9e-6 -7.71e-4,-2.6e-5 -0.0015,0 z m -0.0069,0.0028 c -3.05e-4,1.19e-4 -7.71e-4,-9.7e-5 -0.0015,0 l -4.06e-4,3.86e-4 z m 0.113296,-0.0024 c -0.01081,0.0037 -0.06792,0.0048 -0.103791,0.01109 0.0095,2.23e-4 0.02016,0.0018 0.02852,0.0012 0.03932,-0.0025 0.06493,-0.0087 0.07528,-0.01188 z m -0.324037,0.01188 c -0.01571,-2.64e-4 -0.04316,0.0071 -0.05113,0.0048 h -4.05e-4 -3.86e-4 -4.05e-4 -4.06e-4 c -0.0015,-4.87e-4 -0.0061,-4.66e-4 -0.01066,0 0.0031,2.84e-4 0.0054,9.13e-4 0.0061,0.0012 -0.03925,0.01003 -0.08013,0.03926 -0.110912,0.05031 0.0046,5e-5 0.0086,-1.5e-5 0.01265,0 -0.0094,4.67e-4 -0.05205,0.0092 -0.04515,0.0079 -0.06309,0.0121 -0.08276,0.01014 -0.100618,0.0095 l 0.01073,-0.0051 c 0.0015,-2.64e-4 0.0023,-3.65e-4 0.0031,-4.06e-4 7.1e-4,-1.48e-4 0.0031,-4.87e-4 0.0054,-0.0012 a 0.40682249,0.404529 0 0 1 -0.0054,0 l 0.01349,-0.0051 c -0.0046,0.0012 -0.0061,-0.0012 -0.01464,0.0024 -0.0038,0.002 -0.0031,0.0023 -0.0069,0.0044 a 0.40682249,0.404529 0 0 1 -0.0069,0 c -0.0031,0.0013 -0.0069,0.0024 -0.0099,0.0036 0.0038,-5.68e-4 0.0069,-0.0012 0.0087,-0.0012 -0.0031,0.0015 -0.0015,0.0011 -0.0054,0.0028 -0.0015,-4.9e-5 -0.0061,3.65e-4 -0.01027,7.71e-4 -0.04592,0.01674 -0.07589,0.02267 -0.09943,0.02377 0,5.8e-5 -0.0015,8.52e-4 -0.0031,0.0012 h -4.06e-4 -4.05e-4 v 4.06e-4 h -3.86e-4 l -4.05e-4,-4.06e-4 h -4.06e-4 -3.85e-4 c -0.01717,0.02182 -0.03572,0.04809 -0.118839,0.08953 -0.02238,0.01596 -0.03327,0.04323 -0.05588,0.05308 -0.09505,0.04138 -0.08415,0.03719 -0.01625,0.0028 l 0.01824,-0.01466 c -0.05481,0.03643 -0.102181,0.05056 -0.132705,0.05784 a 0.40682249,0.404529 0 0 1 -0.05465,0.0206 c 0.0023,-0.0015 0.0038,-0.0025 0.0046,-0.0031 l 3.85e-4,-4.05e-4 v -4.06e-4 h 4.06e-4 v -4.06e-4 h -4.06e-4 c -0.0054,7.51e-4 -0.03656,0.01378 -0.04201,0.01703 l -4.06e-4,4.06e-4 h -4.05e-4 v 4.05e-4 a 0.40682249,0.404529 0 0 1 -0.08635,0.03525 c 0.0742,-0.01601 0.136745,-0.06429 0.0519,-0.0095 a 0.40682249,0.404529 0 0 1 -0.04676,0.02575 c -0.0054,0.0024 -0.02031,0.01138 -0.03526,0.02179 a 0.40682249,0.404529 0 0 1 -0.05266,0.0309 c 0.0015,-5.88e-4 -0.0038,0.0035 -0.02537,0.01941 a 0.40682249,0.404529 0 0 1 -0.05029,0.03248 c 0.01058,-0.0058 0.01648,-0.0094 0.01824,-0.0103 -7.71e-4,8.52e-4 -0.01671,0.01205 -0.04676,0.03605 a 0.40682249,0.404529 0 0 1 -0.0099,0.0079 c -0.06109,0.04569 -0.09802,0.07055 -0.10537,0.07249 h -4.06e-4 -4.05e-4 -3.86e-4 v -4.06e-4 -4.06e-4 -4.05e-4 c 0.0015,-0.0029 0.0092,-0.0098 0.02139,-0.0202 a 0.40682249,0.404529 0 0 1 -0.08516,0.05466 0.40682249,0.404529 0 0 1 -0.07642,0.05387 c -0.0031,0.0029 -0.0077,0.0067 -0.01226,0.01149 a 0.40682249,0.404529 0 0 1 -0.08319,0.061 c -0.0335,0.01844 -0.03051,0.02107 -0.0095,0 a 0.40682249,0.404529 0 0 1 -0.04201,0.02773 c -0.0031,0.0038 -0.01134,0.01315 -0.0289,0.03169 a 0.40682249,0.404529 0 0 1 -0.06891,0.05823 c 0.03925,-0.02598 0.02859,-0.02462 -0.01188,0.0206 a 0.40682249,0.404529 0 0 1 -0.03963,0.03922 c 0.01234,-0.01044 0.0197,-0.01604 0.02215,-0.01743 l 4.06e-4,-4.06e-4 h 4.05e-4 v 4.06e-4 c -0.0023,0.0039 -0.0187,0.02267 -0.04592,0.05466 -0.01709,0.02258 -0.04047,0.05524 -0.07052,0.09388 -0.05358,0.08338 -0.096,0.124524 -0.104581,0.125572 h -4.05e-4 -3.85e-4 v -4.05e-4 h -4.06e-4 v -4.06e-4 l -4.06e-4,-4.06e-4 v -4.05e-4 -4.06e-4 c 7.71e-4,-0.0035 0.0054,-0.01106 0.01311,-0.02139 a 0.40682249,0.404529 0 0 1 -0.07014,0.0717 c 0.06286,-0.0498 0.04546,-0.04598 -0.0054,0.02456 a 0.40682249,0.404529 0 0 1 -0.01786,0.02337 c 0.0015,-0.0018 0.0023,-0.0028 0.0031,-0.0031 h 3.85e-4 c -0.0015,0.0038 -0.01242,0.01961 -0.01349,0.02218 v 4.06e-4 h 4.05e-4 c -0.0384,0.09484 -0.08614,0.159484 -0.09388,0.165184 l -4.06e-4,4.06e-4 h -4.05e-4 -3.86e-4 v -4.06e-4 c 3.1e-5,-1.45e-4 3.25e-4,-6.08e-4 3.86e-4,-7.7e-4 1.99e-4,-4.67e-4 4.66e-4,-0.0018 7.7e-4,-0.0024 -0.02859,0.04763 -0.05243,0.08445 -0.07091,0.114084 l -0.0031,0.004 c 6.08e-4,-1.08e-4 -0.01387,0.03393 -0.04753,0.09309 -0.03419,0.0785 -0.06937,0.125578 -0.07405,0.129534 h -4.05e-4 v 4.05e-4 c -0.02882,0.05078 -0.05075,0.08545 -0.06217,0.106559 a 0.40682249,0.404529 0 0 1 -0.01311,0.02258 c -1.38e-4,2.03e-4 -2.43e-4,5.47e-4 -4.05e-4,7.7e-4 0.0061,-0.0089 -0.01434,0.03115 -0.02737,0.05823 -0.03718,0.09253 -0.06983,0.141062 -0.07764,0.147358 l -4.06e-4,4.06e-4 -3.85e-4,4.06e-4 h -4.06e-4 -4.05e-4 v -4.06e-4 -4.06e-4 c 1.61e-4,-0.0013 7.7e-4,-0.0039 0.0031,-0.0075 a 0.40682249,0.404529 0 0 1 -0.03687,0.05942 c 2.84e-4,-3.86e-4 6.29e-4,-2e-4 7.71e-4,-4.06e-4 -0.0023,0.004 -0.0125,0.02061 -0.02537,0.04793 a 0.40682249,0.404529 0 0 1 -0.03802,0.06497 c -0.01096,0.01512 -0.01993,0.03055 -0.02453,0.0408 a 0.40682249,0.404529 0 0 1 -0.06692,0.104578 c 0.09537,-0.107302 0.06347,-0.09674 0.01779,0.01347 -0.04147,0.101499 -0.07213,0.155006 -0.0812,0.160035 l -4.06e-4,4.06e-4 h -4.06e-4 -3.85e-4 -4.06e-4 v -4.06e-4 h -4.05e-4 v -4.06e-4 h -3.86e-4 v -4.05e-4 c -7.7e-4,-0.0048 0.0031,-0.02166 0.01388,-0.04952 a 0.40682249,0.404529 0 0 1 -0.02453,0.03684 c 4.67e-4,0.004 0.0015,0.01085 -0.01901,0.06774 a 0.40682249,0.404529 0 0 1 -0.01502,0.03525 c 0.0015,-0.0028 0.0023,-0.0044 0.0031,-0.0051 l 4.06e-4,-4.06e-4 h 3.85e-4 v 4.06e-4 c -2.84e-4,0.0054 -0.01135,0.03857 -0.02024,0.06615 -0.01587,0.06369 -0.02875,0.105574 -0.03641,0.130326 l -0.0031,0.0067 c -0.01219,0.04402 -0.02292,0.08183 -0.03128,0.112499 l -0.0015,0.0028 c -0.01464,0.05482 -0.02668,0.09111 -0.03128,0.111311 a 0.40682249,0.404529 0 0 1 -0.0069,0.02575 c 0.0031,-0.0091 -0.0061,0.03104 -0.01778,0.0812 l -0.0031,0.01109 c -0.0069,0.03527 -0.01487,0.07065 -0.02177,0.104181 v 4.06e-4 c 8e-6,4.67e-4 -8e-6,0.0015 0,0.002 v 4.05e-4 l -0.0031,0.01109 c -0.0031,0.01947 -0.0081,0.05205 -0.01349,0.08398 -0.0077,0.08195 -0.02706,0.146509 -0.03012,0.150925 h -3.86e-4 a 0.40682249,0.404529 0 0 1 -0.0015,0.0051 c -0.0046,0.01823 -0.01073,0.05384 -0.02062,0.102993 -0.0031,0.0166 -0.009,0.06183 -0.01779,0.112499 -0.0031,0.01583 -0.0077,0.05008 -0.01226,0.08556 -0.0095,0.104839 -0.02215,0.162232 -0.0289,0.169938 l -4.06e-4,4.06e-4 h -4.05e-4 v 4.05e-4 h -3.86e-4 -4.05e-4 -4.06e-4 l -3.85e-4,-4.05e-4 -4.06e-4,-4.06e-4 c -0.0023,-0.0042 -0.0031,-0.02242 4.06e-4,-0.05466 a 0.40682249,0.404529 0 0 1 -0.01073,0.03249 c 0.0015,0.0068 0.0046,0.023 0.0015,0.07606 -0.0038,0.0713 -0.0095,0.106112 -0.01226,0.11052 l -4.06e-4,4.05e-4 v 4.06e-4 h -3.85e-4 v -4.06e-4 h -4.06e-4 v -4.05e-4 c -3.44e-4,-0.0013 -5.07e-4,-0.0043 -4.05e-4,-0.0083 a 0.40682249,0.404529 0 0 1 -0.0015,0.02179 c 4.06e-4,-0.0014 7.71e-4,-0.0028 0.0015,-0.0036 l 4.05e-4,-4.05e-4 v -4.06e-4 h 4.06e-4 3.85e-4 v 4.06e-4 4.05e-4 l 4.06e-4,4.06e-4 v 4.06e-4 c 4.06e-4,0.0029 -5.68e-4,0.01051 -0.0038,0.02575 7.3e-4,0.01572 0.0023,0.03942 0.0038,0.06338 0.0038,0.0492 -0.01318,0.09287 -0.02453,0.143794 2.3e-5,1.53e-4 -2.3e-5,0.0011 0,0.0012 -0.0031,0.01235 -0.0046,0.02631 -0.0061,0.04001 0.0031,-0.01201 0.0054,-0.02444 0.0079,-0.03605 0.0023,0.008 0.0069,0.02484 0.01066,0.08556 a 0.40682249,0.404529 0 0 1 0,0.0067 c 0.0015,0.02907 0.0046,0.06623 0.0084,0.107351 a 0.40682249,0.404529 0 0 1 0.0015,0 c 0.0054,0.04684 0.0054,0.08394 0.0095,0.112499 a 0.40682249,0.404529 0 0 1 0.0015,0.01069 c 0.0015,0.02024 0.0081,0.05673 0.01502,0.103389 0.0078,0.0512 0.01242,0.08203 0.01625,0.106954 a 0.40682249,0.404529 0 0 1 0.0031,0.01902 c 7.7e-4,0.0068 0.0087,0.04953 0.01901,0.09784 a 0.40682249,0.404529 0 0 1 0.0015,0.0024 c 0.0125,0.05979 0.01242,0.08875 0.01625,0.11963 0.0031,0.03087 0.0105,0.06435 0.0038,0.03644 a 0.40682249,0.404529 0 0 1 0.0069,0.04753 c 0.0031,0.0086 0.0084,0.01705 0.01066,0.02456 a 0.40682249,0.404529 0 0 1 0,0.0012 c 0.0077,0.0287 0.02146,0.07831 0.03288,0.116857 l 0.0015,0.004 c 0.01503,0.04931 0.02047,0.06851 0.02737,0.09071 a 0.40682249,0.404529 0 0 1 0.0038,0.01228 c 0.01594,0.05461 0.02116,0.07803 0.02499,0.08834 a 0.40682249,0.404529 0 0 1 0.0174,0.061 c -0.0046,-0.02185 -0.0061,-0.03233 -0.0054,-0.03446 v -4.05e-4 h 4.06e-4 v 4.05e-4 h 3.85e-4 c 0.0031,0.0065 0.01587,0.0482 0.03089,0.08715 l 0.0015,0.0028 c 0.021,0.05179 0.03541,0.09224 0.04078,0.104578 a 0.40682249,0.404529 0 0 1 0.0095,0.02416 c 0.01556,0.04279 0.02744,0.0732 0.03127,0.08002 a 0.40682249,0.404529 0 0 1 0.01702,0.04318 h 4.05e-4 4.06e-4 c 0.0023,0.0025 0.0084,0.01437 0.02576,0.04793 a 0.40682249,0.404529 0 0 1 0.0038,0.0079 c 0.02346,0.04735 0.03158,0.06815 0.0325,0.07288 v 4.05e-4 4.06e-4 4.06e-4 h -4.05e-4 a 0.40682249,0.404529 0 0 1 0.02974,0.06932 c -0.01081,-0.03389 -0.01602,-0.04858 -0.01625,-0.05031 h 4.06e-4 c 0.0023,0.0036 0.0151,0.03415 0.03725,0.06972 a 0.40682249,0.404529 0 0 1 0.0038,0.0055 c 0.01365,0.02286 0.02591,0.04116 0.04515,0.06932 0.03748,0.05531 0.05289,0.08174 0.05466,0.08834 v 4.06e-4 3.85e-4 4.06e-4 4.06e-4 h -4.05e-4 -4.06e-4 l -3.85e-4,-4.06e-4 c -0.0023,-0.0019 -0.0083,-0.0084 -0.01548,-0.01782 a 0.40682249,0.404529 0 0 1 0.02139,0.03169 c 5.4e-5,-4.06e-4 2.84e-4,-0.0012 3.86e-4,-0.0016 l 4.05e-4,-4.05e-4 v -4.06e-4 l 4.06e-4,-4.06e-4 v -4.05e-4 h 3.85e-4 l 4.06e-4,-4.06e-4 h 4.06e-4 3.85e-4 4.06e-4 4.05e-4 c 1.77e-4,6.5e-5 7.71e-4,6.9e-4 0.0015,7.71e-4 0.0038,0.0025 0.01,0.0116 0.01824,0.03406 0.0069,0.008 0.01518,0.01779 0.02499,0.02931 a 0.40682249,0.404529 0 0 1 0.02177,0.02852 c 0.0038,0.0048 -0.0061,-0.0062 0.03012,0.03248 a 0.40682249,0.404529 0 0 1 0.0054,0.0055 c 0.02292,0.02575 0.03411,0.03843 0.04753,0.0515 a 0.40682249,0.404529 0 0 1 0.01663,0.01743 c 0.0054,0.0058 0.01479,0.01519 0.03641,0.03407 a 0.40682249,0.404529 0 0 1 0.01664,0.01505 c 0.04032,0.03921 0.05749,0.05602 0.05941,0.05902 v 4.06e-4 h -3.86e-4 c -0.0031,-0.0015 -0.01495,-0.01118 -0.03166,-0.02416 a 0.40682249,0.404529 0 0 1 0.01066,0.01466 c 0.0061,0.0031 0.01456,0.0069 0.03404,0.01902 l 0.01111,0.0067 c 0.009,0.0052 0.03334,0.01891 0.05979,0.03406 l 0.0069,0.004 c 0.0061,0.0031 0.01295,0.0063 0.01978,0.0095 0.110682,0.03357 0.09282,0.04606 0.110912,0.05704 0.0099,0.0061 0.01947,0.01125 0.02338,0.01347 -0.0015,-7.1e-4 -0.0046,-0.0016 -0.0095,-0.004 a 0.40682249,0.404529 0 0 1 0.0404,0.02179 0.40682249,0.404529 0 0 0 4.05e-4,0 0.40682249,0.404529 0 0 1 0.04477,0.0202 c 0.04783,0.0255 0.04737,0.02789 0.05351,0.03249 -0.0015,-0.0014 -0.0038,-0.0028 -0.0046,-0.0044 l -4.06e-4,-3.85e-4 v -4.06e-4 -4.05e-4 -4.06e-4 -3.85e-4 -4.06e-4 -4.06e-4 h 4.06e-4 v -4.05e-4 l 4.06e-4,-4.06e-4 h 3.85e-4 l 4.06e-4,-4.06e-4 c 0.0069,-0.0025 0.03028,-0.0016 0.09428,0.0099 0.06523,0.01173 0.107455,0.01954 0.120816,0.02337 0.01226,-0.0012 0.0233,-0.0021 0.02813,-0.0016 0.02576,0.0027 0.03978,0.0051 0.05029,0.0067 7.71e-4,1.54e-4 0.0023,2.83e-4 0.0031,4.05e-4 0.0085,-1.56e-4 0.0128,1.67e-4 0.01426,4.06e-4 l -4.06e-4,4.05e-4 a 0.40682249,0.404529 0 0 1 0.03013,0.0024 0.40682249,0.404529 0 0 1 0.09507,4.06e-4 c -0.03127,-0.0041 -0.04155,-0.0054 -0.04277,-0.006 0.0023,-1.54e-4 0.0094,-3.24e-4 0.01548,-7.71e-4 0.06776,-0.02629 0.0969,-0.02587 0.127945,-0.02575 a 0.40682249,0.404529 0 0 1 0.0069,0 h 4.05e-4 4.06e-4 3.85e-4 4.06e-4 a 0.40682249,0.404529 0 0 1 0.0054,-0.0012 c 0.0031,-0.0016 0.0031,-0.0014 0.0069,-0.0028 0.05603,-0.02527 0.141015,-0.06735 0.117252,-0.05704 -0.0038,0.0017 -0.0061,0.0026 -0.0077,0.0028 h -3.86e-4 v -4.06e-4 h 3.86e-4 c 0.0031,-0.0027 0.01817,-0.0121 0.04638,-0.02654 0.06071,-0.04158 0.09383,-0.05268 0.100617,-0.05347 l 4.06e-4,-4.05e-4 h 4.06e-4 l 3.85e-4,4.05e-4 v 4.06e-4 c 0.02959,-0.01699 0.05527,-0.03022 0.07764,-0.04357 0.08536,-0.05329 0.133579,-0.05274 0.169147,-0.05665 6.7e-4,-4.86e-4 0.0015,-9.12e-4 0.0015,-0.0012 v -3.85e-4 h 4.05e-4 v -4.06e-4 h -4.05e-4 l -3.86e-4,4.06e-4 h -4.05e-4 v -4.06e-4 h 4.05e-4 c 4.06e-4,-3.85e-4 0.0015,-0.0014 0.0031,-0.0024 a 0.40682249,0.404529 0 0 1 0.01625,-0.0051 c 0.0046,-0.0057 0.01096,-0.01244 0.02024,-0.02179 0.06286,-0.0627 0.105148,-0.09059 0.110513,-0.09388 0.02698,-0.02343 0.05228,-0.045 0.07643,-0.06615 0.01962,-0.01824 0.04162,-0.03981 0.06416,-0.061 0.0138,-0.02305 0.02545,-0.04602 0.05113,-0.07527 0.02698,-0.03403 0.05519,-0.06178 0.07962,-0.07962 0.04208,-0.03072 0.05803,-0.03339 0.07922,-0.04199 0.01135,-0.01736 0.0061,-0.01666 0.0384,-0.05269 0.02553,-0.03081 0.04952,-0.05653 0.06539,-0.07447 v -4.06e-4 c -0.0061,0.0068 -0.01135,0.01114 -0.01387,0.01228 l -4.06e-4,4.05e-4 h -4.05e-4 -3.86e-4 -4.05e-4 -4.06e-4 v -4.05e-4 l -3.85e-4,-4.06e-4 v -4.06e-4 c 0,-1.74e-4 -2.3e-5,-9.93e-4 0,-0.0012 0.0015,-0.0083 0.01694,-0.0355 0.05151,-0.08041 0.03603,-0.06331 0.07887,-0.10679 0.102603,-0.129138 0.01127,-0.01061 0.01893,-0.01832 0.023,-0.02257 -0.0038,0.004 -0.0094,0.01091 -0.0174,0.021 a 0.40682249,0.404529 0 0 1 0.01625,-0.01901 c 0.0077,-0.0087 0.02951,-0.03629 0.05741,-0.07288 a 0.40682249,0.404529 0 0 1 0.0069,-0.0095 c 0.03702,-0.04581 0.05772,-0.06866 0.06539,-0.07883 a 0.40682249,0.404529 0 0 1 0.03687,-0.04357 c -7.71e-4,0.0011 0.01748,-0.01948 0.03687,-0.04714 a 0.40682249,0.404529 0 0 1 0.04354,-0.05308 c 0.01625,-0.01639 0.01319,-0.01329 0.02338,-0.02852 a 0.40682249,0.404529 0 0 1 0.02928,-0.03763 v 3.85e-4 4.06e-4 4.06e-4 4.05e-4 h 4.06e-4 4.06e-4 3.85e-4 c 1.53e-4,-8.3e-5 7.71e-4,-2.84e-4 0.0015,-4.05e-4 l 4.06e-4,-4.06e-4 c 5.07e-4,-5.07e-4 0.0015,-0.0017 0.0023,-0.0024 0.0015,-0.0027 0.0038,-0.0067 0.0069,-0.01188 a 0.40682249,0.404529 0 0 0 -0.01111,0.01188 c 0.0015,-0.0029 0.0054,-0.0078 0.01349,-0.01584 0.0069,-0.01168 0.01679,-0.02862 0.03012,-0.04952 a 0.40682249,0.404529 0 0 1 0.0174,-0.02575 c 7.7e-4,-0.0015 0.01809,-0.02975 0.04515,-0.07447 a 0.40682249,0.404529 0 0 1 0.0054,-0.0079 c 0.0358,-0.05627 0.05542,-0.0825 0.06217,-0.08834 0.0038,-0.02077 0.0115,-0.048 0.04316,-0.106953 l -0.03128,0.108142 a 0.40682249,0.404529 0 0 1 0.0054,-0.0067 c 0.03449,-0.129668 0.09409,-0.245831 0.07922,-0.217078 0.0095,-0.02501 0.01939,-0.05111 0.0325,-0.08002 0.01211,-0.04367 0.0233,-0.08885 0.04875,-0.14102 v -4.06e-4 l 3.86e-4,-7.71e-4 c 0.02284,-0.04717 0.05098,-0.08196 0.06968,-0.105765 0,-7.71e-4 0.0023,-0.0084 0.0031,-0.0095 h 4.05e-4 v -4.05e-4 c 1.77e-4,-1.38e-4 7.71e-4,-6.69e-4 0.0015,-7.71e-4 v -4.05e-4 c 4.66e-4,-0.0013 0.0023,-0.0049 0.0031,-0.0064 v -4.05e-4 c 0.0015,-0.0023 0.0031,-0.0099 0.0046,-0.01268 l 4.06e-4,-4.05e-4 v -4.06e-4 h 4.06e-4 c 0.0015,-0.0041 0.0054,-0.01341 0.0069,-0.01901 0.01709,-0.06138 0.05703,-0.102504 0.09428,-0.150528 a 0.40682249,0.404529 0 0 1 0.01663,-0.0301 c -0.0046,0.0061 -0.0098,0.01199 -0.01426,0.01783 -5.48e-4,2.43e-4 -0.0015,9.13e-4 -0.0023,0.0012 h -4.06e-4 c -7.71e-4,0.0015 -0.0015,0.0016 -0.0015,0.0016 v 4.06e-4 c -6.9e-5,1.04e-4 -8e-6,1.4e-4 -3.86e-4,7.71e-4 -0.0015,0.0021 -0.0015,0.0018 -0.0031,0.004 0.0038,-0.01437 0.0087,-0.03739 0.02691,-0.08636 l -0.0054,0.01347 v 4.06e-4 l -4.05e-4,4.05e-4 v 4.06e-4 h -4.06e-4 v -4.06e-4 c -5.07e-4,-0.0037 0.0031,-0.02928 0.01901,-0.08041 0.01303,-0.06701 0.03779,-0.117679 0.05588,-0.149736 0.0046,-0.01928 0.01456,-0.05383 0.02851,-0.102993 0.01801,-0.06324 0.02859,-0.09075 0.03013,-0.09665 a 0.40682249,0.404529 0 0 1 0.01349,-0.04318 c -7.7e-4,0.0028 -0.0015,0.0048 -0.0023,0.006 l -4.05e-4,3.86e-4 v 4.05e-4 h -3.86e-4 c -2.43e-4,-0.0027 0.0078,-0.03192 0.01702,-0.0717 a 0.40682249,0.404529 0 0 1 0.0038,-0.01387 c 0.0096,-0.03569 0.02231,-0.06841 0.02928,-0.08517 a 0.40682249,0.404529 0 0 1 0.0087,-0.02852 c -0.0023,0.0019 -0.0061,0.0034 -0.0087,0.0031 h -4.05e-4 l -3.86e-4,-4.06e-4 h -4.05e-4 l -4.06e-4,-4.06e-4 -3.85e-4,-4.05e-4 -4.06e-4,-4.06e-4 v -4.05e-4 -4.06e-4 l -4.06e-4,-4.06e-4 c -0.0015,-0.0054 0.0031,-0.01928 0.02338,-0.04912 0.0015,-0.0089 0.0031,-0.0183 0.0046,-0.02852 a 0.40682249,0.404529 0 0 1 0.01786,-0.06655 v -3.85e-4 c 7.71e-4,-0.0019 0.0031,-0.0094 0.0069,-0.03368 a 0.40682249,0.404529 0 0 1 0.0087,-0.04199 l -4.05e-4,4.06e-4 -3.86e-4,4.06e-4 v 4.05e-4 h -4.05e-4 -4.06e-4 v -4.05e-4 -4.06e-4 -4.06e-4 c -1.5e-5,-0.0023 0.0015,-0.0084 0.0061,-0.0206 0.0023,-0.01409 0.0046,-0.03443 0.0077,-0.05823 a 0.40682249,0.404529 0 0 1 0.0069,-0.03803 c -4.47e-4,0.0014 0.0023,-0.0165 0.0069,-0.06219 a 0.40682249,0.404529 0 0 1 0.0054,-0.03803 c -0.0031,0.01379 -0.0046,0.02038 -0.0054,0.02416 0.0015,-0.0085 0.0038,-0.02783 0.0054,-0.0404 0.0031,-0.02514 0.0061,-0.05643 0.0084,-0.08398 a 0.40682249,0.404529 0 0 1 0,-0.0028 c 7.71e-4,-0.01262 0.0046,-0.06574 0.0069,-0.111708 -0.0015,0.01824 -0.0038,0.02944 -0.0061,0.03328 l -4.06e-4,4.06e-4 -3.85e-4,4.05e-4 h -4.06e-4 v 4.06e-4 h -4.06e-4 v 4.06e-4 h -3.85e-4 -4.06e-4 l -4.05e-4,-4.06e-4 h -3.86e-4 v -4.06e-4 c -0.0054,-0.0066 -0.01111,-0.0507 -0.01027,-0.130721 -0.0094,-0.05231 -0.01157,-0.101026 -0.0095,-0.134683 0.0023,-0.03471 0.0038,-0.0539 0.0046,-0.05823 v -4.05e-4 -4.06e-4 h 4.05e-4 c 3.04e-4,0.0012 6.09e-4,0.0067 3.86e-4,0.01664 l 7.7e-4,0.01109 c -1.45e-4,-0.01828 1.23e-4,-0.03683 3.86e-4,-0.05427 -0.0015,-0.02416 -1.08e-4,-0.02038 0,-0.02575 v -3.86e-4 -4.05e-4 c -3.05e-4,-9.13e-4 -7.71e-4,-0.0027 -0.0015,-0.0036 v -4.06e-4 -4.05e-4 -3.86e-4 c 4.6e-5,-0.0046 0.0015,-0.01873 0.0023,-0.02615 -4.05e-4,0.0026 -7.71e-4,0.0053 -0.0023,0.01387 7.7e-5,-0.0013 0,-0.0057 0,-0.0079 2.3e-5,-0.014 -10e-5,-0.03025 0,-0.04753 2.03e-4,-0.03456 2.84e-4,-0.07505 0,-0.09784 a 0.40682249,0.404529 0 0 1 0,-0.0051 c 0,-6.49e-4 -0.0015,-0.04871 -0.0038,-0.08834 -0.0094,-0.07311 -0.0085,-0.123601 -0.0077,-0.14419 l -4.05e-4,4.06e-4 v 4.06e-4 h -4.06e-4 l -3.85e-4,-4.06e-4 c -0.0031,-0.0042 -0.0092,-0.03962 -0.01426,-0.09982 -0.01779,-0.07419 -0.0187,-0.13059 -0.01625,-0.152905 -0.0038,-0.01469 -0.0097,-0.04424 -0.01502,-0.08834 -0.02545,-0.09123 -0.02407,-0.158306 -0.01978,-0.167165 l 4.05e-4,-4.05e-4 v -4.06e-4 h 3.86e-4 4.05e-4 4.06e-4 v 4.06e-4 c 7.71e-4,0.0016 0.0023,0.006 0.0031,0.01228 a 0.40682249,0.404529 0 0 1 0,-0.0028 c -0.0054,-0.0494 -0.0054,-0.07596 -0.0095,-0.105766 a 0.40682249,0.404529 0 0 1 -0.0031,-0.02297 c 7.71e-4,0.01193 7.71e-4,0.01888 7.71e-4,0.02179 -3.1e-5,1.86e-4 -3.65e-4,0.0011 -3.86e-4,0.0012 v 4.06e-4 h -4.05e-4 v -4.06e-4 c -0.0031,-0.0058 -0.01219,-0.06175 -0.021,-0.121215 -0.01387,-0.05779 -0.01809,-0.100318 -0.01939,-0.118045 -0.0061,-0.02907 -0.01288,-0.06323 -0.01939,-0.09864 -0.0095,-0.03727 -0.01855,-0.07526 -0.02737,-0.115272 -0.008,-0.02051 -0.02315,-0.0489 -0.04162,-0.130326 l -4.06e-4,-0.0016 c -0.0054,-0.01916 -0.0102,-0.03846 -0.01387,-0.05665 0,-0.0042 -0.0031,-0.0082 -0.0038,-0.01228 -0.0046,-0.01675 -0.01242,-0.04104 -0.01625,-0.05665 -0.0061,-0.02493 -0.01119,-0.04794 -0.01502,-0.06259 -0.0094,-0.03151 -0.01464,-0.05015 -0.02062,-0.07051 -0.0023,-0.0054 -0.0046,-0.0114 -0.0079,-0.01743 -0.01188,-0.02421 -0.02982,-0.05409 -0.05029,-0.115669 l 0.0054,0.0099 c -0.0015,-0.0048 -0.0038,-0.0097 -0.0054,-0.01506 -0.01203,-0.0178 -0.01265,-0.02348 -0.02338,-0.04476 -0.0015,-0.0042 -0.0077,-0.0168 -0.01303,-0.02734 -0.05366,-0.07659 -0.0545,-0.108918 -0.06339,-0.134286 -0.0023,-0.0063 -0.0038,-0.01187 -0.0054,-0.01664 h -4.06e-4 c -0.0038,-0.0037 -0.01725,-0.02836 -0.03603,-0.06694 -0.03181,-0.04748 -0.03986,-0.0746 -0.03925,-0.07962 v -4.06e-4 h 3.85e-4 v -4.05e-4 h 4.06e-4 c -0.0054,-0.0062 -0.0081,-0.0083 -0.01349,-0.01506 -0.0046,-0.0048 -0.02438,-0.0099 -0.02928,-0.01387 l -4.05e-4,-4.06e-4 -3.86e-4,-4.05e-4 c -0.03679,-0.05019 -0.0463,-0.07833 -0.05588,-0.09903 -0.0077,-0.01648 -0.0138,-0.02842 -0.01663,-0.03407 -0.0084,-0.01208 -0.01924,-0.02769 -0.03051,-0.04397 -2.64e-4,-2.23e-4 -5.28e-4,-5.68e-4 -7.71e-4,-7.71e-4 h -3.85e-4 -4.06e-4 l -4.06e-4,-4.05e-4 c -0.0015,-7.3e-4 -0.0038,-0.0025 -0.0077,-0.0067 -0.06048,-0.05193 -0.06332,-0.07196 -0.06454,-0.07566 -0.01755,-0.01728 -0.04178,-0.03833 -0.04638,-0.04477 -1.92e-4,-2.01e-4 -6.29e-4,-2.43e-4 -7.71e-4,-4.06e-4 l -4.05e-4,-4.05e-4 -4.06e-4,-4.06e-4 c -2.84e-4,-1.44e-4 -0.0015,-2.02e-4 -0.0015,-4.06e-4 -1.76e-4,-1.31e-4 -6.09e-4,-9.93e-4 -7.71e-4,-0.0012 -0.02146,-0.01761 -0.02859,-0.02234 -0.04638,-0.03763 -0.0046,-0.0035 -0.01165,-0.0089 -0.01863,-0.01387 -0.04446,-0.02339 -0.06362,-0.03686 -0.06615,-0.0408 -0.0061,-0.0017 -0.01303,-0.0035 -0.02024,-0.0051 -0.01196,0.0012 -0.01694,0.0025 -0.03013,0.0028 -0.01824,7.31e-4 -0.05282,0.01978 -0.06539,0.01902 -0.03748,-0.0022 -0.05856,-0.0046 -0.06102,-0.0055 H 13.1077 v -4.06e-4 h 4.06e-4 c 0.0015,-2.43e-4 0.0069,-7.8e-5 0.01587,4.06e-4 l 0.06968,-0.01149 c -0.04124,0.0049 -0.0696,-4.26e-4 -0.09824,-0.0064 -0.03565,0.01457 -0.04638,0.03563 -0.09309,0.03962 l 0.07922,-0.03962 c -0.0015,-3.85e-4 -0.0038,-3.65e-4 -0.0061,-4.06e-4 z m 1.116291,3.556819 c -6.29e-4,0.0044 -7.71e-4,0.0084 -0.0015,0.01149 a 0.40682249,0.404529 0 0 1 0.0095,-0.02931 c -0.0023,0.0055 -0.0061,0.01378 -0.0079,0.01783 z m -0.0015,0.01149 a 0.40682249,0.404529 0 0 0 -0.0031,0.0091 c 7.71e-4,-0.0015 0.0023,-0.0041 0.0023,-0.0067 1.07e-4,-7.51e-4 2.84e-4,-0.0015 4.05e-4,-0.0024 z m -0.04078,0.180237 c -0.0023,0.01164 -0.0038,0.02177 -0.0054,0.02971 a 0.40682249,0.404529 0 0 1 0.06025,-0.102993 c -0.02537,0.03152 -0.04293,0.0552 -0.05504,0.07328 z m -0.0054,0.02971 a 0.40682249,0.404529 0 0 0 -0.0069,0.01902 c 0.0015,-0.0013 0.0031,-0.0029 0.0038,-0.0044 l 3.85e-4,-4.05e-4 v -4.06e-4 -4.05e-4 c 6.49e-4,-0.0031 0.0015,-0.0078 0.0023,-0.01347 z m -0.208356,0.730853 c -5.68e-4,0.002 -7.71e-4,0.0038 -0.0015,0.0055 0.0054,-0.0067 0.01203,-0.01752 0.01824,-0.02813 -0.0046,0.0062 -0.0096,0.01275 -0.01464,0.01941 a 0.40682249,0.404529 0 0 1 0.02177,-0.03129 c 0.0054,-0.0096 0.01012,-0.01723 0.01265,-0.01941 7.71e-4,-9.93e-4 0.0023,-0.002 0.0031,-0.0024 h 3.85e-4 v -4.05e-4 h 4.06e-4 4.06e-4 v 4.05e-4 3.86e-4 c -2.44e-4,5.88e-4 -7.71e-4,0.0018 -0.0015,0.0028 a 0.40682249,0.404529 0 0 1 0.165583,-0.114877 c -0.184034,0.06134 -0.194735,0.133497 -0.204401,0.167958 z M 13.396319,29.3835 c -7.71e-4,0.0015 -0.0015,0.0027 -0.0023,0.004 a 0.40682249,0.404529 0 0 1 0.03963,-0.03684 c -0.01763,0.01417 -0.02936,0.02498 -0.03726,0.03288 z m -0.473377,0.60845 c 3.86e-4,-4.25e-4 7.71e-4,-0.0012 0.0015,-0.002 -6.29e-4,7.3e-4 -7.71e-4,0.0013 -0.0015,0.002 z m -1.370593,0.844146 c -0.0054,1.03e-4 -0.01303,3.04e-4 -0.02261,7.71e-4 a 0.40682249,0.404529 0 0 1 0.02614,-4.06e-4 c -7.71e-4,-10e-5 -0.0023,-2.43e-4 -0.0038,-3.85e-4 z m -0.926937,-0.508627 c -0.0054,-0.0058 -0.0099,-0.01063 -0.01349,-0.01466 a 0.40682249,0.404529 0 0 1 0.03565,0.08834 c -0.0087,-0.03344 -0.0161,-0.05719 -0.02215,-0.07368 z m -0.01349,-0.01466 a 0.40682249,0.404529 0 0 0 -0.0095,-0.01663 c -3.04e-4,0.0023 8.5e-5,0.0053 0.0015,0.0071 l 3.85e-4,4.05e-4 c 0.0015,0.0023 0.0046,0.0054 0.0079,0.0091 z m -0.57082,-2.188202 c -2.43e-4,-0.0052 -3.85e-4,-0.0095 -3.85e-4,-0.01268 a 0.40682249,0.404529 0 0 1 -0.01349,0.06497 c 0.0069,-0.02326 0.01111,-0.04013 0.01387,-0.05229 z m 2.602948,-4.178342 a 0.40682249,0.404529 0 0 1 -0.0069,0.0016 c -0.0031,0.0018 -0.0031,0.002 -0.0069,0.004 h -3.86e-4 -4.05e-4 -4.06e-4 -3.85e-4 c -0.0096,0.0055 -0.0069,0.0062 -0.01387,0.0099 l 0.01939,-0.0087 c 0.0023,-0.0012 0.0038,-0.0017 0.0038,-0.002 v -4.06e-4 h -4.05e-4 c 3.85e-4,-2.64e-4 7.7e-4,-0.0011 0.0023,-0.0016 h 3.85e-4 4.06e-4 4.05e-4 3.86e-4 c 4.66e-4,-2.64e-4 5.47e-4,-6.29e-4 7.7e-4,-7.71e-4 h 3.86e-4 v -4.06e-4 h 4.05e-4 v -4.05e-4 -4.06e-4 c 2.44e-4,-1.49e-4 7.1e-4,-5.48e-4 0.0015,-7.71e-4 z m -0.06178,0.04674 c -0.0031,0.0012 -0.0061,0 -0.01073,0.0048 -0.0077,0.0067 -0.01234,0.01292 -0.01939,0.01902 z m -0.849691,0.517738 c -7.71e-4,6.69e-4 -0.0023,0.0017 -0.0038,0.0031 0.0015,-0.0012 0.0031,-0.0021 0.0038,-0.0028 z m -1.691465,3.595243 c -1.99e-4,0.0017 -5.07e-4,0.0038 -3.86e-4,0.0055 a 0.40682249,0.404529 0 0 0 3.86e-4,-0.0055 z m 3.868969,0.286795 a 0.40682249,0.404529 0 0 1 0.0015,0 c -1.69e-4,3.25e-4 -6.28e-4,0.0012 -7.7e-4,0.0016 l -4.06e-4,4.05e-4 c -8e-6,-4.86e-4 8e-6,-0.0011 0,-0.0016 z m -3.821435,0.695203 c 0.0077,0.01449 0.0141,0.03418 0.02261,0.0519 -0.0054,-0.01614 0.0015,-0.0068 -0.0095,-0.02852 -0.0046,-0.0087 -0.0091,-0.01662 -0.01311,-0.02337 z m 3.465709,0.0614 c -7.71e-4,0.0021 -0.0023,0.0045 -0.0038,0.0071 a 0.40682249,0.404529 0 0 1 0.0031,-0.0028 c 3.04e-4,-0.0015 7.71e-4,-0.0029 0.0015,-0.0044 z m 0.01311,0 v 4.06e-4 c 3.8e-5,-1.95e-4 3.45e-4,-1.95e-4 3.85e-4,-4.06e-4 z m -4.06e-4,7.71e-4 c -7.7e-4,0.0012 -0.0023,0.0034 -0.0031,0.0044 h -4.06e-4 v 4.05e-4 l -0.0038,0.01268 c 0.0023,-0.0025 0.0054,-0.0057 0.0077,-0.01743 z m -0.475354,0.88653 c -0.145514,-0.0082 -0.238359,0.06254 -0.27293,0.09349 -0.01686,0.01521 -0.01364,0.01354 -0.01901,0.0202 a 0.40682249,0.404529 0 0 1 0.291941,-0.113688 z m -0.28521,0.100221 c -0.0174,0.01071 -0.0038,-0.0051 -0.0325,0.02456 a 0.40682249,0.404529 0 0 1 0.02024,-0.0083 c 7.71e-4,-0.0018 0.01,-0.0127 0.01226,-0.01624 z m -0.318878,0.40286 c -0.07313,-4.66e-4 -0.128589,0.02612 -0.160033,0.04199 v 4.06e-4 a 0.40682249,0.404529 0 0 1 0.238857,-0.03169 c -0.02813,-0.0076 -0.05443,-0.01054 -0.07882,-0.01069 z m -0.175088,0.03248 c -0.02369,0.0051 -0.03097,6.09e-4 -0.07604,0.0301 a 0.40682249,0.404529 0 0 1 0.06815,-0.01109 c -4.46e-4,4.46e-4 0.0069,-0.007 0.0077,-0.0079 -0.0031,0.0011 -0.01295,0.0015 -0.01548,0.0024 l -4.06e-4,4.05e-4 c -0.0031,0.0021 -0.0054,0.0028 -0.0061,0.0031 0.0023,-0.0021 0.01441,-0.0114 0.02215,-0.01703 z m -1.077465,0.226584 a 0.40682249,0.404529 0 0 1 0.0091,0.0055 0.40682249,0.404529 0 0 0 3.85e-4,0 c 7.71e-4,-4.6e-5 0.0046,-3e-6 0.0061,0 h 4.06e-4 v -4.06e-4 c -6.08e-4,-1.67e-4 -0.0031,-0.0012 -0.01625,-0.0051 z m 0.480107,0.01228 -0.05504,0.01981 3.86e-4,4.06e-4 c -1.3e-4,5.6e-5 -3.25e-4,-1.25e-4 -0.0015,0 l 7.71e-4,-4.06e-4 c -0.0015,-4.1e-5 -0.0077,5.88e-4 -0.0091,4.06e-4 h -3.85e-4 v -4.06e-4 c 4.26e-4,-1.74e-4 0.0015,-4.67e-4 0.0031,-7.71e-4 a 0.40682249,0.404529 0 0 1 0.0061,-0.0012 c -0.0078,0.0012 -0.01311,0.002 -0.01502,0.002 h -4.06e-4 -3.85e-4 v -4.06e-4 l 3.85e-4,-4.05e-4 c 0.0046,-0.0021 0.02721,-0.0083 0.07052,-0.01901 z m -0.299477,0.01782 a 0.40682249,0.404529 0 0 1 0.0054,0.0012 l -0.0499,0.0055 c 0.0038,4.46e-4 0.0079,6.69e-4 0.01464,0 0.0184,-0.0038 0.01341,-0.0018 0.03802,-0.004 a 0.40682249,0.404529 0 0 1 0.0069,0.0012 c 0.0054,4.87e-4 0.01372,3.25e-4 0.02261,-4.05e-4 -0.0094,-7.3e-4 -0.02162,-0.002 -0.03726,-0.0036 z m 0.169546,0.01149 c -0.009,-1.18e-4 -0.01456,4.26e-4 -0.01625,7.71e-4 h -3.86e-4 v 4.05e-4 c 0.0015,1.11e-4 0.0077,-2.03e-4 0.01663,-0.0012 z" />
  </g>
</svg>
